G04 #@! TF.GenerationSoftware,KiCad,Pcbnew,(5.1.4)-1*
G04 #@! TF.CreationDate,2019-10-22T03:03:11-07:00*
G04 #@! TF.ProjectId,SAM_breakout_board,53414d5f-6272-4656-916b-6f75745f626f,rev?*
G04 #@! TF.SameCoordinates,PXd33a380PY5dfc8c0*
G04 #@! TF.FileFunction,Soldermask,Bot*
G04 #@! TF.FilePolarity,Negative*
%FSLAX46Y46*%
G04 Gerber Fmt 4.6, Leading zero omitted, Abs format (unit mm)*
G04 Created by KiCad (PCBNEW (5.1.4)-1) date 2019-10-22 03:03:11*
%MOMM*%
%LPD*%
G04 APERTURE LIST*
%ADD10C,0.050000*%
%ADD11C,0.100000*%
G04 APERTURE END LIST*
D10*
X-56642000Y-6350000D02*
X-56642000Y35052000D01*
X-15748000Y-6350000D02*
X-56642000Y-6350000D01*
X-15748000Y35052000D02*
X-15748000Y-6350000D01*
X-56642000Y35052000D02*
X-15748000Y35052000D01*
D11*
G36*
X-17923097Y-2607075D02*
G01*
X-17861797Y-2632466D01*
X-17695429Y-2701378D01*
X-17490534Y-2838285D01*
X-17316285Y-3012534D01*
X-17179378Y-3217429D01*
X-17085075Y-3445097D01*
X-17037000Y-3686787D01*
X-17037000Y-3933213D01*
X-17085075Y-4174903D01*
X-17179378Y-4402571D01*
X-17316285Y-4607466D01*
X-17490534Y-4781715D01*
X-17695429Y-4918622D01*
X-17695430Y-4918623D01*
X-17695431Y-4918623D01*
X-17923097Y-5012925D01*
X-18164786Y-5061000D01*
X-18411214Y-5061000D01*
X-18652903Y-5012925D01*
X-18880569Y-4918623D01*
X-18880570Y-4918623D01*
X-18880571Y-4918622D01*
X-19085466Y-4781715D01*
X-19259715Y-4607466D01*
X-19396622Y-4402571D01*
X-19490925Y-4174903D01*
X-19539000Y-3933213D01*
X-19539000Y-3686787D01*
X-19490925Y-3445097D01*
X-19396622Y-3217429D01*
X-19259715Y-3012534D01*
X-19085466Y-2838285D01*
X-18880571Y-2701378D01*
X-18714202Y-2632466D01*
X-18652903Y-2607075D01*
X-18411214Y-2559000D01*
X-18164786Y-2559000D01*
X-17923097Y-2607075D01*
X-17923097Y-2607075D01*
G37*
G36*
X-53737097Y-2607075D02*
G01*
X-53675797Y-2632466D01*
X-53509429Y-2701378D01*
X-53304534Y-2838285D01*
X-53130285Y-3012534D01*
X-52993378Y-3217429D01*
X-52899075Y-3445097D01*
X-52851000Y-3686787D01*
X-52851000Y-3933213D01*
X-52899075Y-4174903D01*
X-52993378Y-4402571D01*
X-53130285Y-4607466D01*
X-53304534Y-4781715D01*
X-53509429Y-4918622D01*
X-53509430Y-4918623D01*
X-53509431Y-4918623D01*
X-53737097Y-5012925D01*
X-53978786Y-5061000D01*
X-54225214Y-5061000D01*
X-54466903Y-5012925D01*
X-54694569Y-4918623D01*
X-54694570Y-4918623D01*
X-54694571Y-4918622D01*
X-54899466Y-4781715D01*
X-55073715Y-4607466D01*
X-55210622Y-4402571D01*
X-55304925Y-4174903D01*
X-55353000Y-3933213D01*
X-55353000Y-3686787D01*
X-55304925Y-3445097D01*
X-55210622Y-3217429D01*
X-55073715Y-3012534D01*
X-54899466Y-2838285D01*
X-54694571Y-2701378D01*
X-54528202Y-2632466D01*
X-54466903Y-2607075D01*
X-54225214Y-2559000D01*
X-53978786Y-2559000D01*
X-53737097Y-2607075D01*
X-53737097Y-2607075D01*
G37*
G36*
X-24781557Y-1391519D02*
G01*
X-24715373Y-1398037D01*
X-24545534Y-1449557D01*
X-24389009Y-1533222D01*
X-24353271Y-1562552D01*
X-24251814Y-1645814D01*
X-24168552Y-1747271D01*
X-24139222Y-1783009D01*
X-24055557Y-1939534D01*
X-24004037Y-2109373D01*
X-23986641Y-2286000D01*
X-24004037Y-2462627D01*
X-24055557Y-2632466D01*
X-24139222Y-2788991D01*
X-24168552Y-2824729D01*
X-24251814Y-2926186D01*
X-24353271Y-3009448D01*
X-24389009Y-3038778D01*
X-24545534Y-3122443D01*
X-24715373Y-3173963D01*
X-24781557Y-3180481D01*
X-24847740Y-3187000D01*
X-24936260Y-3187000D01*
X-25002443Y-3180481D01*
X-25068627Y-3173963D01*
X-25238466Y-3122443D01*
X-25394991Y-3038778D01*
X-25430729Y-3009448D01*
X-25532186Y-2926186D01*
X-25615448Y-2824729D01*
X-25644778Y-2788991D01*
X-25728443Y-2632466D01*
X-25779963Y-2462627D01*
X-25797359Y-2286000D01*
X-25779963Y-2109373D01*
X-25728443Y-1939534D01*
X-25644778Y-1783009D01*
X-25615448Y-1747271D01*
X-25532186Y-1645814D01*
X-25430729Y-1562552D01*
X-25394991Y-1533222D01*
X-25238466Y-1449557D01*
X-25068627Y-1398037D01*
X-25002443Y-1391519D01*
X-24936260Y-1385000D01*
X-24847740Y-1385000D01*
X-24781557Y-1391519D01*
X-24781557Y-1391519D01*
G37*
G36*
X-27321557Y-1391519D02*
G01*
X-27255373Y-1398037D01*
X-27085534Y-1449557D01*
X-26929009Y-1533222D01*
X-26893271Y-1562552D01*
X-26791814Y-1645814D01*
X-26708552Y-1747271D01*
X-26679222Y-1783009D01*
X-26595557Y-1939534D01*
X-26544037Y-2109373D01*
X-26526641Y-2286000D01*
X-26544037Y-2462627D01*
X-26595557Y-2632466D01*
X-26679222Y-2788991D01*
X-26708552Y-2824729D01*
X-26791814Y-2926186D01*
X-26893271Y-3009448D01*
X-26929009Y-3038778D01*
X-27085534Y-3122443D01*
X-27255373Y-3173963D01*
X-27321557Y-3180481D01*
X-27387740Y-3187000D01*
X-27476260Y-3187000D01*
X-27542443Y-3180481D01*
X-27608627Y-3173963D01*
X-27778466Y-3122443D01*
X-27934991Y-3038778D01*
X-27970729Y-3009448D01*
X-28072186Y-2926186D01*
X-28155448Y-2824729D01*
X-28184778Y-2788991D01*
X-28268443Y-2632466D01*
X-28319963Y-2462627D01*
X-28337359Y-2286000D01*
X-28319963Y-2109373D01*
X-28268443Y-1939534D01*
X-28184778Y-1783009D01*
X-28155448Y-1747271D01*
X-28072186Y-1645814D01*
X-27970729Y-1562552D01*
X-27934991Y-1533222D01*
X-27778466Y-1449557D01*
X-27608627Y-1398037D01*
X-27542443Y-1391519D01*
X-27476260Y-1385000D01*
X-27387740Y-1385000D01*
X-27321557Y-1391519D01*
X-27321557Y-1391519D01*
G37*
G36*
X-29861557Y-1391519D02*
G01*
X-29795373Y-1398037D01*
X-29625534Y-1449557D01*
X-29469009Y-1533222D01*
X-29433271Y-1562552D01*
X-29331814Y-1645814D01*
X-29248552Y-1747271D01*
X-29219222Y-1783009D01*
X-29135557Y-1939534D01*
X-29084037Y-2109373D01*
X-29066641Y-2286000D01*
X-29084037Y-2462627D01*
X-29135557Y-2632466D01*
X-29219222Y-2788991D01*
X-29248552Y-2824729D01*
X-29331814Y-2926186D01*
X-29433271Y-3009448D01*
X-29469009Y-3038778D01*
X-29625534Y-3122443D01*
X-29795373Y-3173963D01*
X-29861557Y-3180481D01*
X-29927740Y-3187000D01*
X-30016260Y-3187000D01*
X-30082443Y-3180481D01*
X-30148627Y-3173963D01*
X-30318466Y-3122443D01*
X-30474991Y-3038778D01*
X-30510729Y-3009448D01*
X-30612186Y-2926186D01*
X-30695448Y-2824729D01*
X-30724778Y-2788991D01*
X-30808443Y-2632466D01*
X-30859963Y-2462627D01*
X-30877359Y-2286000D01*
X-30859963Y-2109373D01*
X-30808443Y-1939534D01*
X-30724778Y-1783009D01*
X-30695448Y-1747271D01*
X-30612186Y-1645814D01*
X-30510729Y-1562552D01*
X-30474991Y-1533222D01*
X-30318466Y-1449557D01*
X-30148627Y-1398037D01*
X-30082443Y-1391519D01*
X-30016260Y-1385000D01*
X-29927740Y-1385000D01*
X-29861557Y-1391519D01*
X-29861557Y-1391519D01*
G37*
G36*
X-32401557Y-1391519D02*
G01*
X-32335373Y-1398037D01*
X-32165534Y-1449557D01*
X-32009009Y-1533222D01*
X-31973271Y-1562552D01*
X-31871814Y-1645814D01*
X-31788552Y-1747271D01*
X-31759222Y-1783009D01*
X-31675557Y-1939534D01*
X-31624037Y-2109373D01*
X-31606641Y-2286000D01*
X-31624037Y-2462627D01*
X-31675557Y-2632466D01*
X-31759222Y-2788991D01*
X-31788552Y-2824729D01*
X-31871814Y-2926186D01*
X-31973271Y-3009448D01*
X-32009009Y-3038778D01*
X-32165534Y-3122443D01*
X-32335373Y-3173963D01*
X-32401557Y-3180481D01*
X-32467740Y-3187000D01*
X-32556260Y-3187000D01*
X-32622443Y-3180481D01*
X-32688627Y-3173963D01*
X-32858466Y-3122443D01*
X-33014991Y-3038778D01*
X-33050729Y-3009448D01*
X-33152186Y-2926186D01*
X-33235448Y-2824729D01*
X-33264778Y-2788991D01*
X-33348443Y-2632466D01*
X-33399963Y-2462627D01*
X-33417359Y-2286000D01*
X-33399963Y-2109373D01*
X-33348443Y-1939534D01*
X-33264778Y-1783009D01*
X-33235448Y-1747271D01*
X-33152186Y-1645814D01*
X-33050729Y-1562552D01*
X-33014991Y-1533222D01*
X-32858466Y-1449557D01*
X-32688627Y-1398037D01*
X-32622443Y-1391519D01*
X-32556260Y-1385000D01*
X-32467740Y-1385000D01*
X-32401557Y-1391519D01*
X-32401557Y-1391519D01*
G37*
G36*
X-34941557Y-1391519D02*
G01*
X-34875373Y-1398037D01*
X-34705534Y-1449557D01*
X-34549009Y-1533222D01*
X-34513271Y-1562552D01*
X-34411814Y-1645814D01*
X-34328552Y-1747271D01*
X-34299222Y-1783009D01*
X-34215557Y-1939534D01*
X-34164037Y-2109373D01*
X-34146641Y-2286000D01*
X-34164037Y-2462627D01*
X-34215557Y-2632466D01*
X-34299222Y-2788991D01*
X-34328552Y-2824729D01*
X-34411814Y-2926186D01*
X-34513271Y-3009448D01*
X-34549009Y-3038778D01*
X-34705534Y-3122443D01*
X-34875373Y-3173963D01*
X-34941557Y-3180481D01*
X-35007740Y-3187000D01*
X-35096260Y-3187000D01*
X-35162443Y-3180481D01*
X-35228627Y-3173963D01*
X-35398466Y-3122443D01*
X-35554991Y-3038778D01*
X-35590729Y-3009448D01*
X-35692186Y-2926186D01*
X-35775448Y-2824729D01*
X-35804778Y-2788991D01*
X-35888443Y-2632466D01*
X-35939963Y-2462627D01*
X-35957359Y-2286000D01*
X-35939963Y-2109373D01*
X-35888443Y-1939534D01*
X-35804778Y-1783009D01*
X-35775448Y-1747271D01*
X-35692186Y-1645814D01*
X-35590729Y-1562552D01*
X-35554991Y-1533222D01*
X-35398466Y-1449557D01*
X-35228627Y-1398037D01*
X-35162443Y-1391519D01*
X-35096260Y-1385000D01*
X-35007740Y-1385000D01*
X-34941557Y-1391519D01*
X-34941557Y-1391519D01*
G37*
G36*
X-37481557Y-1391519D02*
G01*
X-37415373Y-1398037D01*
X-37245534Y-1449557D01*
X-37089009Y-1533222D01*
X-37053271Y-1562552D01*
X-36951814Y-1645814D01*
X-36868552Y-1747271D01*
X-36839222Y-1783009D01*
X-36755557Y-1939534D01*
X-36704037Y-2109373D01*
X-36686641Y-2286000D01*
X-36704037Y-2462627D01*
X-36755557Y-2632466D01*
X-36839222Y-2788991D01*
X-36868552Y-2824729D01*
X-36951814Y-2926186D01*
X-37053271Y-3009448D01*
X-37089009Y-3038778D01*
X-37245534Y-3122443D01*
X-37415373Y-3173963D01*
X-37481557Y-3180481D01*
X-37547740Y-3187000D01*
X-37636260Y-3187000D01*
X-37702443Y-3180481D01*
X-37768627Y-3173963D01*
X-37938466Y-3122443D01*
X-38094991Y-3038778D01*
X-38130729Y-3009448D01*
X-38232186Y-2926186D01*
X-38315448Y-2824729D01*
X-38344778Y-2788991D01*
X-38428443Y-2632466D01*
X-38479963Y-2462627D01*
X-38497359Y-2286000D01*
X-38479963Y-2109373D01*
X-38428443Y-1939534D01*
X-38344778Y-1783009D01*
X-38315448Y-1747271D01*
X-38232186Y-1645814D01*
X-38130729Y-1562552D01*
X-38094991Y-1533222D01*
X-37938466Y-1449557D01*
X-37768627Y-1398037D01*
X-37702443Y-1391519D01*
X-37636260Y-1385000D01*
X-37547740Y-1385000D01*
X-37481557Y-1391519D01*
X-37481557Y-1391519D01*
G37*
G36*
X-40021557Y-1391519D02*
G01*
X-39955373Y-1398037D01*
X-39785534Y-1449557D01*
X-39629009Y-1533222D01*
X-39593271Y-1562552D01*
X-39491814Y-1645814D01*
X-39408552Y-1747271D01*
X-39379222Y-1783009D01*
X-39295557Y-1939534D01*
X-39244037Y-2109373D01*
X-39226641Y-2286000D01*
X-39244037Y-2462627D01*
X-39295557Y-2632466D01*
X-39379222Y-2788991D01*
X-39408552Y-2824729D01*
X-39491814Y-2926186D01*
X-39593271Y-3009448D01*
X-39629009Y-3038778D01*
X-39785534Y-3122443D01*
X-39955373Y-3173963D01*
X-40021557Y-3180481D01*
X-40087740Y-3187000D01*
X-40176260Y-3187000D01*
X-40242443Y-3180481D01*
X-40308627Y-3173963D01*
X-40478466Y-3122443D01*
X-40634991Y-3038778D01*
X-40670729Y-3009448D01*
X-40772186Y-2926186D01*
X-40855448Y-2824729D01*
X-40884778Y-2788991D01*
X-40968443Y-2632466D01*
X-41019963Y-2462627D01*
X-41037359Y-2286000D01*
X-41019963Y-2109373D01*
X-40968443Y-1939534D01*
X-40884778Y-1783009D01*
X-40855448Y-1747271D01*
X-40772186Y-1645814D01*
X-40670729Y-1562552D01*
X-40634991Y-1533222D01*
X-40478466Y-1449557D01*
X-40308627Y-1398037D01*
X-40242443Y-1391519D01*
X-40176260Y-1385000D01*
X-40087740Y-1385000D01*
X-40021557Y-1391519D01*
X-40021557Y-1391519D01*
G37*
G36*
X-42561557Y-1391519D02*
G01*
X-42495373Y-1398037D01*
X-42325534Y-1449557D01*
X-42169009Y-1533222D01*
X-42133271Y-1562552D01*
X-42031814Y-1645814D01*
X-41948552Y-1747271D01*
X-41919222Y-1783009D01*
X-41835557Y-1939534D01*
X-41784037Y-2109373D01*
X-41766641Y-2286000D01*
X-41784037Y-2462627D01*
X-41835557Y-2632466D01*
X-41919222Y-2788991D01*
X-41948552Y-2824729D01*
X-42031814Y-2926186D01*
X-42133271Y-3009448D01*
X-42169009Y-3038778D01*
X-42325534Y-3122443D01*
X-42495373Y-3173963D01*
X-42561557Y-3180481D01*
X-42627740Y-3187000D01*
X-42716260Y-3187000D01*
X-42782443Y-3180481D01*
X-42848627Y-3173963D01*
X-43018466Y-3122443D01*
X-43174991Y-3038778D01*
X-43210729Y-3009448D01*
X-43312186Y-2926186D01*
X-43395448Y-2824729D01*
X-43424778Y-2788991D01*
X-43508443Y-2632466D01*
X-43559963Y-2462627D01*
X-43577359Y-2286000D01*
X-43559963Y-2109373D01*
X-43508443Y-1939534D01*
X-43424778Y-1783009D01*
X-43395448Y-1747271D01*
X-43312186Y-1645814D01*
X-43210729Y-1562552D01*
X-43174991Y-1533222D01*
X-43018466Y-1449557D01*
X-42848627Y-1398037D01*
X-42782443Y-1391519D01*
X-42716260Y-1385000D01*
X-42627740Y-1385000D01*
X-42561557Y-1391519D01*
X-42561557Y-1391519D01*
G37*
G36*
X-45101557Y-1391519D02*
G01*
X-45035373Y-1398037D01*
X-44865534Y-1449557D01*
X-44709009Y-1533222D01*
X-44673271Y-1562552D01*
X-44571814Y-1645814D01*
X-44488552Y-1747271D01*
X-44459222Y-1783009D01*
X-44375557Y-1939534D01*
X-44324037Y-2109373D01*
X-44306641Y-2286000D01*
X-44324037Y-2462627D01*
X-44375557Y-2632466D01*
X-44459222Y-2788991D01*
X-44488552Y-2824729D01*
X-44571814Y-2926186D01*
X-44673271Y-3009448D01*
X-44709009Y-3038778D01*
X-44865534Y-3122443D01*
X-45035373Y-3173963D01*
X-45101557Y-3180481D01*
X-45167740Y-3187000D01*
X-45256260Y-3187000D01*
X-45322443Y-3180481D01*
X-45388627Y-3173963D01*
X-45558466Y-3122443D01*
X-45714991Y-3038778D01*
X-45750729Y-3009448D01*
X-45852186Y-2926186D01*
X-45935448Y-2824729D01*
X-45964778Y-2788991D01*
X-46048443Y-2632466D01*
X-46099963Y-2462627D01*
X-46117359Y-2286000D01*
X-46099963Y-2109373D01*
X-46048443Y-1939534D01*
X-45964778Y-1783009D01*
X-45935448Y-1747271D01*
X-45852186Y-1645814D01*
X-45750729Y-1562552D01*
X-45714991Y-1533222D01*
X-45558466Y-1449557D01*
X-45388627Y-1398037D01*
X-45322443Y-1391519D01*
X-45256260Y-1385000D01*
X-45167740Y-1385000D01*
X-45101557Y-1391519D01*
X-45101557Y-1391519D01*
G37*
G36*
X-47641557Y-1391519D02*
G01*
X-47575373Y-1398037D01*
X-47405534Y-1449557D01*
X-47249009Y-1533222D01*
X-47213271Y-1562552D01*
X-47111814Y-1645814D01*
X-47028552Y-1747271D01*
X-46999222Y-1783009D01*
X-46915557Y-1939534D01*
X-46864037Y-2109373D01*
X-46846641Y-2286000D01*
X-46864037Y-2462627D01*
X-46915557Y-2632466D01*
X-46999222Y-2788991D01*
X-47028552Y-2824729D01*
X-47111814Y-2926186D01*
X-47213271Y-3009448D01*
X-47249009Y-3038778D01*
X-47405534Y-3122443D01*
X-47575373Y-3173963D01*
X-47641557Y-3180481D01*
X-47707740Y-3187000D01*
X-47796260Y-3187000D01*
X-47862443Y-3180481D01*
X-47928627Y-3173963D01*
X-48098466Y-3122443D01*
X-48254991Y-3038778D01*
X-48290729Y-3009448D01*
X-48392186Y-2926186D01*
X-48475448Y-2824729D01*
X-48504778Y-2788991D01*
X-48588443Y-2632466D01*
X-48639963Y-2462627D01*
X-48657359Y-2286000D01*
X-48639963Y-2109373D01*
X-48588443Y-1939534D01*
X-48504778Y-1783009D01*
X-48475448Y-1747271D01*
X-48392186Y-1645814D01*
X-48290729Y-1562552D01*
X-48254991Y-1533222D01*
X-48098466Y-1449557D01*
X-47928627Y-1398037D01*
X-47862443Y-1391519D01*
X-47796260Y-1385000D01*
X-47707740Y-1385000D01*
X-47641557Y-1391519D01*
X-47641557Y-1391519D01*
G37*
G36*
X-49391000Y-3187000D02*
G01*
X-51193000Y-3187000D01*
X-51193000Y-1385000D01*
X-49391000Y-1385000D01*
X-49391000Y-3187000D01*
X-49391000Y-3187000D01*
G37*
G36*
X-22241557Y-1391519D02*
G01*
X-22175373Y-1398037D01*
X-22005534Y-1449557D01*
X-21849009Y-1533222D01*
X-21813271Y-1562552D01*
X-21711814Y-1645814D01*
X-21628552Y-1747271D01*
X-21599222Y-1783009D01*
X-21515557Y-1939534D01*
X-21464037Y-2109373D01*
X-21446641Y-2286000D01*
X-21464037Y-2462627D01*
X-21515557Y-2632466D01*
X-21599222Y-2788991D01*
X-21628552Y-2824729D01*
X-21711814Y-2926186D01*
X-21813271Y-3009448D01*
X-21849009Y-3038778D01*
X-22005534Y-3122443D01*
X-22175373Y-3173963D01*
X-22241557Y-3180481D01*
X-22307740Y-3187000D01*
X-22396260Y-3187000D01*
X-22462443Y-3180481D01*
X-22528627Y-3173963D01*
X-22698466Y-3122443D01*
X-22854991Y-3038778D01*
X-22890729Y-3009448D01*
X-22992186Y-2926186D01*
X-23075448Y-2824729D01*
X-23104778Y-2788991D01*
X-23188443Y-2632466D01*
X-23239963Y-2462627D01*
X-23257359Y-2286000D01*
X-23239963Y-2109373D01*
X-23188443Y-1939534D01*
X-23104778Y-1783009D01*
X-23075448Y-1747271D01*
X-22992186Y-1645814D01*
X-22890729Y-1562552D01*
X-22854991Y-1533222D01*
X-22698466Y-1449557D01*
X-22528627Y-1398037D01*
X-22462443Y-1391519D01*
X-22396260Y-1385000D01*
X-22307740Y-1385000D01*
X-22241557Y-1391519D01*
X-22241557Y-1391519D01*
G37*
G36*
X-52467557Y1402481D02*
G01*
X-52401373Y1395963D01*
X-52231534Y1344443D01*
X-52075009Y1260778D01*
X-52039271Y1231448D01*
X-51937814Y1148186D01*
X-51854552Y1046729D01*
X-51825222Y1010991D01*
X-51741557Y854466D01*
X-51690037Y684627D01*
X-51672641Y508000D01*
X-51690037Y331373D01*
X-51741557Y161534D01*
X-51825222Y5009D01*
X-51854552Y-30729D01*
X-51937814Y-132186D01*
X-52039271Y-215448D01*
X-52075009Y-244778D01*
X-52231534Y-328443D01*
X-52401373Y-379963D01*
X-52467557Y-386481D01*
X-52533740Y-393000D01*
X-52622260Y-393000D01*
X-52688442Y-386482D01*
X-52754627Y-379963D01*
X-52924466Y-328443D01*
X-53080991Y-244778D01*
X-53116729Y-215448D01*
X-53218186Y-132186D01*
X-53301448Y-30729D01*
X-53330778Y5009D01*
X-53414443Y161534D01*
X-53465963Y331373D01*
X-53483359Y508000D01*
X-53465963Y684627D01*
X-53414443Y854466D01*
X-53330778Y1010991D01*
X-53301448Y1046729D01*
X-53218186Y1148186D01*
X-53116729Y1231448D01*
X-53080991Y1260778D01*
X-52924466Y1344443D01*
X-52754627Y1395963D01*
X-52688442Y1402482D01*
X-52622260Y1409000D01*
X-52533740Y1409000D01*
X-52467557Y1402481D01*
X-52467557Y1402481D01*
G37*
G36*
X-28596938Y1937819D02*
G01*
X-28562019Y1927226D01*
X-28529837Y1910024D01*
X-28501627Y1886873D01*
X-28478476Y1858663D01*
X-28461274Y1826481D01*
X-28450681Y1791562D01*
X-28446500Y1749105D01*
X-28446500Y282895D01*
X-28450681Y240438D01*
X-28461274Y205519D01*
X-28478476Y173337D01*
X-28501627Y145127D01*
X-28529837Y121976D01*
X-28562019Y104774D01*
X-28596938Y94181D01*
X-28639395Y90000D01*
X-29780605Y90000D01*
X-29823062Y94181D01*
X-29857981Y104774D01*
X-29890163Y121976D01*
X-29918373Y145127D01*
X-29941524Y173337D01*
X-29958726Y205519D01*
X-29969319Y240438D01*
X-29973500Y282895D01*
X-29973500Y1749105D01*
X-29969319Y1791562D01*
X-29958726Y1826481D01*
X-29941524Y1858663D01*
X-29918373Y1886873D01*
X-29890163Y1910024D01*
X-29857981Y1927226D01*
X-29823062Y1937819D01*
X-29780605Y1942000D01*
X-28639395Y1942000D01*
X-28596938Y1937819D01*
X-28596938Y1937819D01*
G37*
G36*
X-23008938Y1937819D02*
G01*
X-22974019Y1927226D01*
X-22941837Y1910024D01*
X-22913627Y1886873D01*
X-22890476Y1858663D01*
X-22873274Y1826481D01*
X-22862681Y1791562D01*
X-22858500Y1749105D01*
X-22858500Y282895D01*
X-22862681Y240438D01*
X-22873274Y205519D01*
X-22890476Y173337D01*
X-22913627Y145127D01*
X-22941837Y121976D01*
X-22974019Y104774D01*
X-23008938Y94181D01*
X-23051395Y90000D01*
X-24192605Y90000D01*
X-24235062Y94181D01*
X-24269981Y104774D01*
X-24302163Y121976D01*
X-24330373Y145127D01*
X-24353524Y173337D01*
X-24370726Y205519D01*
X-24381319Y240438D01*
X-24385500Y282895D01*
X-24385500Y1749105D01*
X-24381319Y1791562D01*
X-24370726Y1826481D01*
X-24353524Y1858663D01*
X-24330373Y1886873D01*
X-24302163Y1910024D01*
X-24269981Y1927226D01*
X-24235062Y1937819D01*
X-24192605Y1942000D01*
X-23051395Y1942000D01*
X-23008938Y1937819D01*
X-23008938Y1937819D01*
G37*
G36*
X-31571938Y1937819D02*
G01*
X-31537019Y1927226D01*
X-31504837Y1910024D01*
X-31476627Y1886873D01*
X-31453476Y1858663D01*
X-31436274Y1826481D01*
X-31425681Y1791562D01*
X-31421500Y1749105D01*
X-31421500Y282895D01*
X-31425681Y240438D01*
X-31436274Y205519D01*
X-31453476Y173337D01*
X-31476627Y145127D01*
X-31504837Y121976D01*
X-31537019Y104774D01*
X-31571938Y94181D01*
X-31614395Y90000D01*
X-32755605Y90000D01*
X-32798062Y94181D01*
X-32832981Y104774D01*
X-32865163Y121976D01*
X-32893373Y145127D01*
X-32916524Y173337D01*
X-32933726Y205519D01*
X-32944319Y240438D01*
X-32948500Y282895D01*
X-32948500Y1749105D01*
X-32944319Y1791562D01*
X-32933726Y1826481D01*
X-32916524Y1858663D01*
X-32893373Y1886873D01*
X-32865163Y1910024D01*
X-32832981Y1927226D01*
X-32798062Y1937819D01*
X-32755605Y1942000D01*
X-31614395Y1942000D01*
X-31571938Y1937819D01*
X-31571938Y1937819D01*
G37*
G36*
X-25983938Y1937819D02*
G01*
X-25949019Y1927226D01*
X-25916837Y1910024D01*
X-25888627Y1886873D01*
X-25865476Y1858663D01*
X-25848274Y1826481D01*
X-25837681Y1791562D01*
X-25833500Y1749105D01*
X-25833500Y282895D01*
X-25837681Y240438D01*
X-25848274Y205519D01*
X-25865476Y173337D01*
X-25888627Y145127D01*
X-25916837Y121976D01*
X-25949019Y104774D01*
X-25983938Y94181D01*
X-26026395Y90000D01*
X-27167605Y90000D01*
X-27210062Y94181D01*
X-27244981Y104774D01*
X-27277163Y121976D01*
X-27305373Y145127D01*
X-27328524Y173337D01*
X-27345726Y205519D01*
X-27356319Y240438D01*
X-27360500Y282895D01*
X-27360500Y1749105D01*
X-27356319Y1791562D01*
X-27345726Y1826481D01*
X-27328524Y1858663D01*
X-27305373Y1886873D01*
X-27277163Y1910024D01*
X-27244981Y1927226D01*
X-27210062Y1937819D01*
X-27167605Y1942000D01*
X-26026395Y1942000D01*
X-25983938Y1937819D01*
X-25983938Y1937819D01*
G37*
G36*
X-18911000Y369000D02*
G01*
X-20713000Y369000D01*
X-20713000Y2171000D01*
X-18911000Y2171000D01*
X-18911000Y369000D01*
X-18911000Y369000D01*
G37*
G36*
X-40231240Y7216295D02*
G01*
X-40228838Y7191909D01*
X-40221725Y7168460D01*
X-40210174Y7146849D01*
X-40194629Y7127907D01*
X-40175687Y7112362D01*
X-40154076Y7100811D01*
X-40130627Y7093698D01*
X-40106241Y7091296D01*
X-40081855Y7093698D01*
X-40058406Y7100811D01*
X-40036795Y7112362D01*
X-40017853Y7127907D01*
X-40002308Y7146849D01*
X-39996007Y7157362D01*
X-39972596Y7201160D01*
X-39903741Y7285061D01*
X-39895824Y7291558D01*
X-39819840Y7353917D01*
X-39743175Y7394895D01*
X-39724119Y7405081D01*
X-39620255Y7436587D01*
X-39539307Y7444560D01*
X-39485173Y7444560D01*
X-39404225Y7436587D01*
X-39300361Y7405081D01*
X-39281305Y7394895D01*
X-39204640Y7353917D01*
X-39120739Y7285061D01*
X-39051883Y7201160D01*
X-39015245Y7132615D01*
X-39000719Y7105439D01*
X-38969213Y7001575D01*
X-38958574Y6893560D01*
X-38969213Y6785545D01*
X-39000719Y6681681D01*
X-39001049Y6681064D01*
X-39051883Y6585960D01*
X-39120739Y6502059D01*
X-39204640Y6433203D01*
X-39273185Y6396565D01*
X-39300361Y6382039D01*
X-39313109Y6378172D01*
X-39335736Y6368800D01*
X-39356110Y6355186D01*
X-39373437Y6337859D01*
X-39387051Y6317485D01*
X-39396428Y6294846D01*
X-39401209Y6270813D01*
X-39401209Y6246309D01*
X-39396429Y6222275D01*
X-39387052Y6199636D01*
X-39373438Y6179262D01*
X-39356111Y6161935D01*
X-39335737Y6148321D01*
X-39313109Y6138948D01*
X-39300361Y6135081D01*
X-39280693Y6124568D01*
X-39204640Y6083917D01*
X-39120739Y6015061D01*
X-39051883Y5931160D01*
X-39018979Y5869600D01*
X-39000719Y5835439D01*
X-38969213Y5731575D01*
X-38958574Y5623560D01*
X-38969213Y5515545D01*
X-39000719Y5411681D01*
X-39000721Y5411678D01*
X-39051883Y5315960D01*
X-39120739Y5232059D01*
X-39204640Y5163203D01*
X-39255006Y5136282D01*
X-39300361Y5112039D01*
X-39313109Y5108172D01*
X-39335736Y5098800D01*
X-39356110Y5085186D01*
X-39373437Y5067859D01*
X-39387051Y5047485D01*
X-39396428Y5024846D01*
X-39401209Y5000813D01*
X-39401209Y4976309D01*
X-39396429Y4952275D01*
X-39387052Y4929636D01*
X-39373438Y4909262D01*
X-39356111Y4891935D01*
X-39335737Y4878321D01*
X-39313109Y4868948D01*
X-39300361Y4865081D01*
X-39284263Y4856476D01*
X-39204640Y4813917D01*
X-39120739Y4745061D01*
X-39051883Y4661160D01*
X-39015245Y4592615D01*
X-39000719Y4565439D01*
X-38969213Y4461575D01*
X-38958574Y4353560D01*
X-38969213Y4245545D01*
X-39000719Y4141681D01*
X-39000721Y4141678D01*
X-39051883Y4045960D01*
X-39120739Y3962059D01*
X-39204640Y3893203D01*
X-39273185Y3856565D01*
X-39300361Y3842039D01*
X-39313109Y3838172D01*
X-39335736Y3828800D01*
X-39356110Y3815186D01*
X-39373437Y3797859D01*
X-39387051Y3777485D01*
X-39396428Y3754846D01*
X-39401209Y3730813D01*
X-39401209Y3706309D01*
X-39396429Y3682275D01*
X-39387052Y3659636D01*
X-39373438Y3639262D01*
X-39356111Y3621935D01*
X-39335737Y3608321D01*
X-39313109Y3598948D01*
X-39300361Y3595081D01*
X-39273185Y3580555D01*
X-39204640Y3543917D01*
X-39120739Y3475061D01*
X-39051883Y3391160D01*
X-39026956Y3344524D01*
X-39000719Y3295439D01*
X-38969213Y3191575D01*
X-38958574Y3083560D01*
X-38969213Y2975545D01*
X-39000719Y2871681D01*
X-39000721Y2871678D01*
X-39051883Y2775960D01*
X-39120739Y2692059D01*
X-39204640Y2623203D01*
X-39273185Y2586565D01*
X-39300361Y2572039D01*
X-39313109Y2568172D01*
X-39335736Y2558800D01*
X-39356110Y2545186D01*
X-39373437Y2527859D01*
X-39387051Y2507485D01*
X-39396428Y2484846D01*
X-39401209Y2460813D01*
X-39401209Y2436309D01*
X-39396429Y2412275D01*
X-39387052Y2389636D01*
X-39373438Y2369262D01*
X-39356111Y2351935D01*
X-39335737Y2338321D01*
X-39313109Y2328948D01*
X-39300361Y2325081D01*
X-39273185Y2310555D01*
X-39204640Y2273917D01*
X-39120739Y2205061D01*
X-39051883Y2121160D01*
X-39030961Y2082017D01*
X-39000719Y2025439D01*
X-38969213Y1921575D01*
X-38958574Y1813560D01*
X-38969213Y1705545D01*
X-39000719Y1601681D01*
X-39000721Y1601678D01*
X-39051883Y1505960D01*
X-39120739Y1422059D01*
X-39204640Y1353203D01*
X-39273185Y1316565D01*
X-39300361Y1302039D01*
X-39404225Y1270533D01*
X-39485173Y1262560D01*
X-39539307Y1262560D01*
X-39620255Y1270533D01*
X-39724119Y1302039D01*
X-39751295Y1316565D01*
X-39819840Y1353203D01*
X-39903741Y1422059D01*
X-39972597Y1505960D01*
X-40023759Y1601678D01*
X-40023761Y1601681D01*
X-40027628Y1614429D01*
X-40037000Y1637056D01*
X-40050614Y1657430D01*
X-40067941Y1674757D01*
X-40088315Y1688371D01*
X-40110954Y1697748D01*
X-40134987Y1702529D01*
X-40159491Y1702529D01*
X-40183525Y1697749D01*
X-40206164Y1688372D01*
X-40226538Y1674758D01*
X-40243865Y1657431D01*
X-40257479Y1637057D01*
X-40266852Y1614429D01*
X-40270719Y1601681D01*
X-40270721Y1601678D01*
X-40321883Y1505960D01*
X-40390739Y1422059D01*
X-40474640Y1353203D01*
X-40543185Y1316565D01*
X-40570361Y1302039D01*
X-40674225Y1270533D01*
X-40755173Y1262560D01*
X-40809307Y1262560D01*
X-40890255Y1270533D01*
X-40994119Y1302039D01*
X-41021295Y1316565D01*
X-41089840Y1353203D01*
X-41173741Y1422059D01*
X-41242597Y1505960D01*
X-41293759Y1601678D01*
X-41293761Y1601681D01*
X-41325267Y1705545D01*
X-41335906Y1813560D01*
X-41325267Y1921575D01*
X-41293761Y2025439D01*
X-41263519Y2082017D01*
X-41242597Y2121160D01*
X-41173741Y2205061D01*
X-41089840Y2273917D01*
X-41021295Y2310555D01*
X-40994119Y2325081D01*
X-40981371Y2328948D01*
X-40958744Y2338320D01*
X-40938370Y2351934D01*
X-40921043Y2369261D01*
X-40907429Y2389635D01*
X-40898052Y2412274D01*
X-40893271Y2436307D01*
X-40893271Y2460811D01*
X-40893271Y2460813D01*
X-40671209Y2460813D01*
X-40671209Y2436309D01*
X-40666429Y2412275D01*
X-40657052Y2389636D01*
X-40643438Y2369262D01*
X-40626111Y2351935D01*
X-40605737Y2338321D01*
X-40583109Y2328948D01*
X-40570361Y2325081D01*
X-40543185Y2310555D01*
X-40474640Y2273917D01*
X-40390739Y2205061D01*
X-40321883Y2121160D01*
X-40300961Y2082017D01*
X-40270719Y2025439D01*
X-40266852Y2012691D01*
X-40257480Y1990064D01*
X-40243866Y1969690D01*
X-40226539Y1952363D01*
X-40206165Y1938749D01*
X-40183526Y1929372D01*
X-40159493Y1924591D01*
X-40134989Y1924591D01*
X-40110955Y1929371D01*
X-40088316Y1938748D01*
X-40067942Y1952362D01*
X-40050615Y1969689D01*
X-40037001Y1990063D01*
X-40027628Y2012691D01*
X-40023761Y2025439D01*
X-39993519Y2082017D01*
X-39972597Y2121160D01*
X-39903741Y2205061D01*
X-39819840Y2273917D01*
X-39751295Y2310555D01*
X-39724119Y2325081D01*
X-39711371Y2328948D01*
X-39688744Y2338320D01*
X-39668370Y2351934D01*
X-39651043Y2369261D01*
X-39637429Y2389635D01*
X-39628052Y2412274D01*
X-39623271Y2436307D01*
X-39623271Y2460811D01*
X-39628051Y2484845D01*
X-39637428Y2507484D01*
X-39651042Y2527858D01*
X-39668369Y2545185D01*
X-39688743Y2558799D01*
X-39711371Y2568172D01*
X-39724119Y2572039D01*
X-39751295Y2586565D01*
X-39819840Y2623203D01*
X-39903741Y2692059D01*
X-39972597Y2775960D01*
X-40023759Y2871678D01*
X-40023761Y2871681D01*
X-40027628Y2884429D01*
X-40037000Y2907056D01*
X-40050614Y2927430D01*
X-40067941Y2944757D01*
X-40088315Y2958371D01*
X-40110954Y2967748D01*
X-40134987Y2972529D01*
X-40159491Y2972529D01*
X-40183525Y2967749D01*
X-40206164Y2958372D01*
X-40226538Y2944758D01*
X-40243865Y2927431D01*
X-40257479Y2907057D01*
X-40266852Y2884429D01*
X-40270719Y2871681D01*
X-40270721Y2871678D01*
X-40321883Y2775960D01*
X-40390739Y2692059D01*
X-40474640Y2623203D01*
X-40543185Y2586565D01*
X-40570361Y2572039D01*
X-40583109Y2568172D01*
X-40605736Y2558800D01*
X-40626110Y2545186D01*
X-40643437Y2527859D01*
X-40657051Y2507485D01*
X-40666428Y2484846D01*
X-40671209Y2460813D01*
X-40893271Y2460813D01*
X-40898051Y2484845D01*
X-40907428Y2507484D01*
X-40921042Y2527858D01*
X-40938369Y2545185D01*
X-40958743Y2558799D01*
X-40981371Y2568172D01*
X-40994119Y2572039D01*
X-41021295Y2586565D01*
X-41089840Y2623203D01*
X-41173741Y2692059D01*
X-41242597Y2775960D01*
X-41293759Y2871678D01*
X-41293761Y2871681D01*
X-41325267Y2975545D01*
X-41335906Y3083560D01*
X-41325267Y3191575D01*
X-41293761Y3295439D01*
X-41267524Y3344524D01*
X-41242597Y3391160D01*
X-41173741Y3475061D01*
X-41089840Y3543917D01*
X-41021295Y3580555D01*
X-40994119Y3595081D01*
X-40981371Y3598948D01*
X-40958744Y3608320D01*
X-40938370Y3621934D01*
X-40921043Y3639261D01*
X-40907429Y3659635D01*
X-40898052Y3682274D01*
X-40893271Y3706307D01*
X-40893271Y3730811D01*
X-40893271Y3730813D01*
X-40671209Y3730813D01*
X-40671209Y3706309D01*
X-40666429Y3682275D01*
X-40657052Y3659636D01*
X-40643438Y3639262D01*
X-40626111Y3621935D01*
X-40605737Y3608321D01*
X-40583109Y3598948D01*
X-40570361Y3595081D01*
X-40543185Y3580555D01*
X-40474640Y3543917D01*
X-40390739Y3475061D01*
X-40321883Y3391160D01*
X-40296956Y3344524D01*
X-40270719Y3295439D01*
X-40266852Y3282691D01*
X-40257480Y3260064D01*
X-40243866Y3239690D01*
X-40226539Y3222363D01*
X-40206165Y3208749D01*
X-40183526Y3199372D01*
X-40159493Y3194591D01*
X-40134989Y3194591D01*
X-40110955Y3199371D01*
X-40088316Y3208748D01*
X-40067942Y3222362D01*
X-40050615Y3239689D01*
X-40037001Y3260063D01*
X-40027628Y3282691D01*
X-40023761Y3295439D01*
X-39997524Y3344524D01*
X-39972597Y3391160D01*
X-39903741Y3475061D01*
X-39819840Y3543917D01*
X-39751295Y3580555D01*
X-39724119Y3595081D01*
X-39711371Y3598948D01*
X-39688744Y3608320D01*
X-39668370Y3621934D01*
X-39651043Y3639261D01*
X-39637429Y3659635D01*
X-39628052Y3682274D01*
X-39623271Y3706307D01*
X-39623271Y3730811D01*
X-39628051Y3754845D01*
X-39637428Y3777484D01*
X-39651042Y3797858D01*
X-39668369Y3815185D01*
X-39688743Y3828799D01*
X-39711371Y3838172D01*
X-39724119Y3842039D01*
X-39751295Y3856565D01*
X-39819840Y3893203D01*
X-39903741Y3962059D01*
X-39972597Y4045960D01*
X-40023759Y4141678D01*
X-40023761Y4141681D01*
X-40027628Y4154429D01*
X-40037000Y4177056D01*
X-40050614Y4197430D01*
X-40067941Y4214757D01*
X-40088315Y4228371D01*
X-40110954Y4237748D01*
X-40134987Y4242529D01*
X-40159491Y4242529D01*
X-40183525Y4237749D01*
X-40206164Y4228372D01*
X-40226538Y4214758D01*
X-40243865Y4197431D01*
X-40257479Y4177057D01*
X-40266852Y4154429D01*
X-40270719Y4141681D01*
X-40270721Y4141678D01*
X-40321883Y4045960D01*
X-40390739Y3962059D01*
X-40474640Y3893203D01*
X-40543185Y3856565D01*
X-40570361Y3842039D01*
X-40583109Y3838172D01*
X-40605736Y3828800D01*
X-40626110Y3815186D01*
X-40643437Y3797859D01*
X-40657051Y3777485D01*
X-40666428Y3754846D01*
X-40671209Y3730813D01*
X-40893271Y3730813D01*
X-40898051Y3754845D01*
X-40907428Y3777484D01*
X-40921042Y3797858D01*
X-40938369Y3815185D01*
X-40958743Y3828799D01*
X-40981371Y3838172D01*
X-40994119Y3842039D01*
X-41021295Y3856565D01*
X-41089840Y3893203D01*
X-41173741Y3962059D01*
X-41242597Y4045960D01*
X-41293759Y4141678D01*
X-41293761Y4141681D01*
X-41325267Y4245545D01*
X-41335906Y4353560D01*
X-41325267Y4461575D01*
X-41293761Y4565439D01*
X-41279235Y4592615D01*
X-41242597Y4661160D01*
X-41173741Y4745061D01*
X-41089840Y4813917D01*
X-41010217Y4856476D01*
X-40994119Y4865081D01*
X-40981371Y4868948D01*
X-40958744Y4878320D01*
X-40938370Y4891934D01*
X-40921043Y4909261D01*
X-40907429Y4929635D01*
X-40898052Y4952274D01*
X-40893271Y4976307D01*
X-40893271Y5000811D01*
X-40893271Y5000813D01*
X-40671209Y5000813D01*
X-40671209Y4976309D01*
X-40666429Y4952275D01*
X-40657052Y4929636D01*
X-40643438Y4909262D01*
X-40626111Y4891935D01*
X-40605737Y4878321D01*
X-40583109Y4868948D01*
X-40570361Y4865081D01*
X-40554263Y4856476D01*
X-40474640Y4813917D01*
X-40390739Y4745061D01*
X-40321883Y4661160D01*
X-40285245Y4592615D01*
X-40270719Y4565439D01*
X-40266852Y4552691D01*
X-40257480Y4530064D01*
X-40243866Y4509690D01*
X-40226539Y4492363D01*
X-40206165Y4478749D01*
X-40183526Y4469372D01*
X-40159493Y4464591D01*
X-40134989Y4464591D01*
X-40110955Y4469371D01*
X-40088316Y4478748D01*
X-40067942Y4492362D01*
X-40050615Y4509689D01*
X-40037001Y4530063D01*
X-40027628Y4552691D01*
X-40023761Y4565439D01*
X-40009235Y4592615D01*
X-39972597Y4661160D01*
X-39903741Y4745061D01*
X-39819840Y4813917D01*
X-39740217Y4856476D01*
X-39724119Y4865081D01*
X-39711371Y4868948D01*
X-39688744Y4878320D01*
X-39668370Y4891934D01*
X-39651043Y4909261D01*
X-39637429Y4929635D01*
X-39628052Y4952274D01*
X-39623271Y4976307D01*
X-39623271Y5000811D01*
X-39628051Y5024845D01*
X-39637428Y5047484D01*
X-39651042Y5067858D01*
X-39668369Y5085185D01*
X-39688743Y5098799D01*
X-39711371Y5108172D01*
X-39724119Y5112039D01*
X-39769474Y5136282D01*
X-39819840Y5163203D01*
X-39903741Y5232059D01*
X-39972597Y5315960D01*
X-40023759Y5411678D01*
X-40023761Y5411681D01*
X-40027628Y5424429D01*
X-40037000Y5447056D01*
X-40050614Y5467430D01*
X-40067941Y5484757D01*
X-40088315Y5498371D01*
X-40110954Y5507748D01*
X-40134987Y5512529D01*
X-40159491Y5512529D01*
X-40183525Y5507749D01*
X-40206164Y5498372D01*
X-40226538Y5484758D01*
X-40243865Y5467431D01*
X-40257479Y5447057D01*
X-40266852Y5424429D01*
X-40270719Y5411681D01*
X-40270721Y5411678D01*
X-40321883Y5315960D01*
X-40390739Y5232059D01*
X-40474640Y5163203D01*
X-40525006Y5136282D01*
X-40570361Y5112039D01*
X-40583109Y5108172D01*
X-40605736Y5098800D01*
X-40626110Y5085186D01*
X-40643437Y5067859D01*
X-40657051Y5047485D01*
X-40666428Y5024846D01*
X-40671209Y5000813D01*
X-40893271Y5000813D01*
X-40898051Y5024845D01*
X-40907428Y5047484D01*
X-40921042Y5067858D01*
X-40938369Y5085185D01*
X-40958743Y5098799D01*
X-40981371Y5108172D01*
X-40994119Y5112039D01*
X-41039474Y5136282D01*
X-41089840Y5163203D01*
X-41173741Y5232059D01*
X-41242597Y5315960D01*
X-41293759Y5411678D01*
X-41293761Y5411681D01*
X-41325267Y5515545D01*
X-41335906Y5623560D01*
X-41325267Y5731575D01*
X-41293761Y5835439D01*
X-41275501Y5869600D01*
X-41242597Y5931160D01*
X-41173741Y6015061D01*
X-41089841Y6083915D01*
X-41089842Y6083915D01*
X-41089840Y6083916D01*
X-41046047Y6107324D01*
X-41025677Y6120935D01*
X-41008350Y6138262D01*
X-40994736Y6158636D01*
X-40985359Y6181275D01*
X-40980578Y6205308D01*
X-40980578Y6217561D01*
X-40584504Y6217561D01*
X-40582102Y6193175D01*
X-40574989Y6169726D01*
X-40563438Y6148115D01*
X-40547893Y6129173D01*
X-40528951Y6113628D01*
X-40518438Y6107327D01*
X-40474640Y6083916D01*
X-40474638Y6083915D01*
X-40474639Y6083915D01*
X-40390739Y6015061D01*
X-40321883Y5931160D01*
X-40288979Y5869600D01*
X-40270719Y5835439D01*
X-40266852Y5822691D01*
X-40257480Y5800064D01*
X-40243866Y5779690D01*
X-40226539Y5762363D01*
X-40206165Y5748749D01*
X-40183526Y5739372D01*
X-40159493Y5734591D01*
X-40134989Y5734591D01*
X-40110955Y5739371D01*
X-40088316Y5748748D01*
X-40067942Y5762362D01*
X-40050615Y5779689D01*
X-40037001Y5800063D01*
X-40027628Y5822691D01*
X-40023761Y5835439D01*
X-40005501Y5869600D01*
X-39972597Y5931160D01*
X-39903741Y6015061D01*
X-39819840Y6083917D01*
X-39743787Y6124568D01*
X-39724119Y6135081D01*
X-39711371Y6138948D01*
X-39688744Y6148320D01*
X-39668370Y6161934D01*
X-39651043Y6179261D01*
X-39637429Y6199635D01*
X-39628052Y6222274D01*
X-39623271Y6246307D01*
X-39623271Y6270811D01*
X-39628051Y6294845D01*
X-39637428Y6317484D01*
X-39651042Y6337858D01*
X-39668369Y6355185D01*
X-39688743Y6368799D01*
X-39711371Y6378172D01*
X-39724119Y6382039D01*
X-39751295Y6396565D01*
X-39819840Y6433203D01*
X-39903741Y6502059D01*
X-39972595Y6585959D01*
X-39972596Y6585960D01*
X-39996004Y6629753D01*
X-40009615Y6650123D01*
X-40026942Y6667450D01*
X-40047316Y6681064D01*
X-40069955Y6690441D01*
X-40093988Y6695222D01*
X-40118492Y6695222D01*
X-40142526Y6690442D01*
X-40165164Y6681065D01*
X-40185539Y6667451D01*
X-40202866Y6650124D01*
X-40216480Y6629750D01*
X-40225857Y6607111D01*
X-40230638Y6583078D01*
X-40231240Y6570825D01*
X-40231240Y6342560D01*
X-40459505Y6342560D01*
X-40483891Y6340158D01*
X-40507340Y6333045D01*
X-40528951Y6321494D01*
X-40547893Y6305949D01*
X-40563438Y6287007D01*
X-40574989Y6265396D01*
X-40582102Y6241947D01*
X-40584504Y6217561D01*
X-40980578Y6217561D01*
X-40980578Y6229812D01*
X-40985358Y6253846D01*
X-40994735Y6276484D01*
X-41008349Y6296859D01*
X-41025676Y6314186D01*
X-41046050Y6327800D01*
X-41068689Y6337177D01*
X-41092722Y6341958D01*
X-41104975Y6342560D01*
X-41333240Y6342560D01*
X-41333240Y7444560D01*
X-40231240Y7444560D01*
X-40231240Y7216295D01*
X-40231240Y7216295D01*
G37*
G36*
X-46468438Y3372319D02*
G01*
X-46433519Y3361726D01*
X-46401337Y3344524D01*
X-46373127Y3321373D01*
X-46349976Y3293163D01*
X-46332774Y3260981D01*
X-46322181Y3226062D01*
X-46318000Y3183605D01*
X-46318000Y2042395D01*
X-46322181Y1999938D01*
X-46332774Y1965019D01*
X-46349976Y1932837D01*
X-46373127Y1904627D01*
X-46401337Y1881476D01*
X-46433519Y1864274D01*
X-46468438Y1853681D01*
X-46510895Y1849500D01*
X-47977105Y1849500D01*
X-48019562Y1853681D01*
X-48054481Y1864274D01*
X-48086663Y1881476D01*
X-48114873Y1904627D01*
X-48138024Y1932837D01*
X-48155226Y1965019D01*
X-48165819Y1999938D01*
X-48170000Y2042395D01*
X-48170000Y3183605D01*
X-48165819Y3226062D01*
X-48155226Y3260981D01*
X-48138024Y3293163D01*
X-48114873Y3321373D01*
X-48086663Y3344524D01*
X-48054481Y3361726D01*
X-48019562Y3372319D01*
X-47977105Y3376500D01*
X-46510895Y3376500D01*
X-46468438Y3372319D01*
X-46468438Y3372319D01*
G37*
G36*
X-35987326Y3161535D02*
G01*
X-35949633Y3150101D01*
X-35914897Y3131534D01*
X-35884452Y3106548D01*
X-35859466Y3076103D01*
X-35840899Y3041367D01*
X-35829465Y3003674D01*
X-35825000Y2958339D01*
X-35825000Y2121661D01*
X-35829465Y2076326D01*
X-35840899Y2038633D01*
X-35859466Y2003897D01*
X-35884452Y1973452D01*
X-35914897Y1948466D01*
X-35949633Y1929899D01*
X-35987326Y1918465D01*
X-36032661Y1914000D01*
X-37119339Y1914000D01*
X-37164674Y1918465D01*
X-37202367Y1929899D01*
X-37237103Y1948466D01*
X-37267548Y1973452D01*
X-37292534Y2003897D01*
X-37311101Y2038633D01*
X-37322535Y2076326D01*
X-37327000Y2121661D01*
X-37327000Y2958339D01*
X-37322535Y3003674D01*
X-37311101Y3041367D01*
X-37292534Y3076103D01*
X-37267548Y3106548D01*
X-37237103Y3131534D01*
X-37202367Y3150101D01*
X-37164674Y3161535D01*
X-37119339Y3166000D01*
X-36032661Y3166000D01*
X-35987326Y3161535D01*
X-35987326Y3161535D01*
G37*
G36*
X-48761396Y3335653D02*
G01*
X-48724856Y3324568D01*
X-48691179Y3306567D01*
X-48661659Y3282341D01*
X-48637433Y3252821D01*
X-48619432Y3219144D01*
X-48608347Y3182604D01*
X-48604000Y3138462D01*
X-48604000Y2189538D01*
X-48608347Y2145396D01*
X-48619432Y2108856D01*
X-48637433Y2075179D01*
X-48661659Y2045659D01*
X-48691179Y2021433D01*
X-48724856Y2003432D01*
X-48761396Y1992347D01*
X-48805538Y1988000D01*
X-50254462Y1988000D01*
X-50298604Y1992347D01*
X-50335144Y2003432D01*
X-50368821Y2021433D01*
X-50398341Y2045659D01*
X-50422567Y2075179D01*
X-50440568Y2108856D01*
X-50451653Y2145396D01*
X-50456000Y2189538D01*
X-50456000Y3138462D01*
X-50451653Y3182604D01*
X-50440568Y3219144D01*
X-50422567Y3252821D01*
X-50398341Y3282341D01*
X-50368821Y3306567D01*
X-50335144Y3324568D01*
X-50298604Y3335653D01*
X-50254462Y3340000D01*
X-48805538Y3340000D01*
X-48761396Y3335653D01*
X-48761396Y3335653D01*
G37*
G36*
X-43935396Y3335653D02*
G01*
X-43898856Y3324568D01*
X-43865179Y3306567D01*
X-43835659Y3282341D01*
X-43811433Y3252821D01*
X-43793432Y3219144D01*
X-43782347Y3182604D01*
X-43778000Y3138462D01*
X-43778000Y2189538D01*
X-43782347Y2145396D01*
X-43793432Y2108856D01*
X-43811433Y2075179D01*
X-43835659Y2045659D01*
X-43865179Y2021433D01*
X-43898856Y2003432D01*
X-43935396Y1992347D01*
X-43979538Y1988000D01*
X-45428462Y1988000D01*
X-45472604Y1992347D01*
X-45509144Y2003432D01*
X-45542821Y2021433D01*
X-45572341Y2045659D01*
X-45596567Y2075179D01*
X-45614568Y2108856D01*
X-45625653Y2145396D01*
X-45630000Y2189538D01*
X-45630000Y3138462D01*
X-45625653Y3182604D01*
X-45614568Y3219144D01*
X-45596567Y3252821D01*
X-45572341Y3282341D01*
X-45542821Y3306567D01*
X-45509144Y3324568D01*
X-45472604Y3335653D01*
X-45428462Y3340000D01*
X-43979538Y3340000D01*
X-43935396Y3335653D01*
X-43935396Y3335653D01*
G37*
G36*
X-52467558Y3942482D02*
G01*
X-52401373Y3935963D01*
X-52231534Y3884443D01*
X-52075009Y3800778D01*
X-52039271Y3771448D01*
X-51937814Y3688186D01*
X-51872271Y3608320D01*
X-51825222Y3550991D01*
X-51741557Y3394466D01*
X-51690037Y3224627D01*
X-51672641Y3048000D01*
X-51690037Y2871373D01*
X-51741557Y2701534D01*
X-51741558Y2701532D01*
X-51783389Y2623272D01*
X-51825222Y2545009D01*
X-51835439Y2532560D01*
X-51937814Y2407814D01*
X-52022493Y2338321D01*
X-52075009Y2295222D01*
X-52231534Y2211557D01*
X-52401373Y2160037D01*
X-52467558Y2153518D01*
X-52533740Y2147000D01*
X-52622260Y2147000D01*
X-52688442Y2153518D01*
X-52754627Y2160037D01*
X-52924466Y2211557D01*
X-53080991Y2295222D01*
X-53133507Y2338321D01*
X-53218186Y2407814D01*
X-53320561Y2532560D01*
X-53330778Y2545009D01*
X-53372611Y2623272D01*
X-53414442Y2701532D01*
X-53414443Y2701534D01*
X-53465963Y2871373D01*
X-53483359Y3048000D01*
X-53465963Y3224627D01*
X-53414443Y3394466D01*
X-53330778Y3550991D01*
X-53283729Y3608320D01*
X-53218186Y3688186D01*
X-53116729Y3771448D01*
X-53080991Y3800778D01*
X-52924466Y3884443D01*
X-52754627Y3935963D01*
X-52688442Y3942482D01*
X-52622260Y3949000D01*
X-52533740Y3949000D01*
X-52467558Y3942482D01*
X-52467558Y3942482D01*
G37*
G36*
X-19701557Y4704481D02*
G01*
X-19635373Y4697963D01*
X-19465534Y4646443D01*
X-19309009Y4562778D01*
X-19296733Y4552703D01*
X-19171814Y4450186D01*
X-19092516Y4353560D01*
X-19059222Y4312991D01*
X-18975557Y4156466D01*
X-18924037Y3986627D01*
X-18906641Y3810000D01*
X-18924037Y3633373D01*
X-18975557Y3463534D01*
X-19059222Y3307009D01*
X-19079170Y3282703D01*
X-19171814Y3169814D01*
X-19273271Y3086552D01*
X-19309009Y3057222D01*
X-19338671Y3041367D01*
X-19419836Y2997983D01*
X-19465534Y2973557D01*
X-19635373Y2922037D01*
X-19701558Y2915518D01*
X-19767740Y2909000D01*
X-19856260Y2909000D01*
X-19922442Y2915518D01*
X-19988627Y2922037D01*
X-20158466Y2973557D01*
X-20204163Y2997983D01*
X-20285329Y3041367D01*
X-20314991Y3057222D01*
X-20350729Y3086552D01*
X-20452186Y3169814D01*
X-20544830Y3282703D01*
X-20564778Y3307009D01*
X-20648443Y3463534D01*
X-20699963Y3633373D01*
X-20717359Y3810000D01*
X-20699963Y3986627D01*
X-20648443Y4156466D01*
X-20564778Y4312991D01*
X-20531484Y4353560D01*
X-20452186Y4450186D01*
X-20327267Y4552703D01*
X-20314991Y4562778D01*
X-20158466Y4646443D01*
X-19988627Y4697963D01*
X-19922443Y4704481D01*
X-19856260Y4711000D01*
X-19767740Y4711000D01*
X-19701557Y4704481D01*
X-19701557Y4704481D01*
G37*
G36*
X-31571938Y5493819D02*
G01*
X-31537019Y5483226D01*
X-31504837Y5466024D01*
X-31476627Y5442873D01*
X-31453476Y5414663D01*
X-31436274Y5382481D01*
X-31425681Y5347562D01*
X-31421500Y5305105D01*
X-31421500Y3838895D01*
X-31425681Y3796438D01*
X-31436274Y3761519D01*
X-31453476Y3729337D01*
X-31476627Y3701127D01*
X-31504837Y3677976D01*
X-31537019Y3660774D01*
X-31571938Y3650181D01*
X-31614395Y3646000D01*
X-32755605Y3646000D01*
X-32798062Y3650181D01*
X-32832981Y3660774D01*
X-32865163Y3677976D01*
X-32893373Y3701127D01*
X-32916524Y3729337D01*
X-32933726Y3761519D01*
X-32944319Y3796438D01*
X-32948500Y3838895D01*
X-32948500Y5305105D01*
X-32944319Y5347562D01*
X-32933726Y5382481D01*
X-32916524Y5414663D01*
X-32893373Y5442873D01*
X-32865163Y5466024D01*
X-32832981Y5483226D01*
X-32798062Y5493819D01*
X-32755605Y5498000D01*
X-31614395Y5498000D01*
X-31571938Y5493819D01*
X-31571938Y5493819D01*
G37*
G36*
X-28596938Y5493819D02*
G01*
X-28562019Y5483226D01*
X-28529837Y5466024D01*
X-28501627Y5442873D01*
X-28478476Y5414663D01*
X-28461274Y5382481D01*
X-28450681Y5347562D01*
X-28446500Y5305105D01*
X-28446500Y3838895D01*
X-28450681Y3796438D01*
X-28461274Y3761519D01*
X-28478476Y3729337D01*
X-28501627Y3701127D01*
X-28529837Y3677976D01*
X-28562019Y3660774D01*
X-28596938Y3650181D01*
X-28639395Y3646000D01*
X-29780605Y3646000D01*
X-29823062Y3650181D01*
X-29857981Y3660774D01*
X-29890163Y3677976D01*
X-29918373Y3701127D01*
X-29941524Y3729337D01*
X-29958726Y3761519D01*
X-29969319Y3796438D01*
X-29973500Y3838895D01*
X-29973500Y5305105D01*
X-29969319Y5347562D01*
X-29958726Y5382481D01*
X-29941524Y5414663D01*
X-29918373Y5442873D01*
X-29890163Y5466024D01*
X-29857981Y5483226D01*
X-29823062Y5493819D01*
X-29780605Y5498000D01*
X-28639395Y5498000D01*
X-28596938Y5493819D01*
X-28596938Y5493819D01*
G37*
G36*
X-26020438Y5493819D02*
G01*
X-25985519Y5483226D01*
X-25953337Y5466024D01*
X-25925127Y5442873D01*
X-25901976Y5414663D01*
X-25884774Y5382481D01*
X-25874181Y5347562D01*
X-25870000Y5305105D01*
X-25870000Y3838895D01*
X-25874181Y3796438D01*
X-25884774Y3761519D01*
X-25901976Y3729337D01*
X-25925127Y3701127D01*
X-25953337Y3677976D01*
X-25985519Y3660774D01*
X-26020438Y3650181D01*
X-26062895Y3646000D01*
X-27204105Y3646000D01*
X-27246562Y3650181D01*
X-27281481Y3660774D01*
X-27313663Y3677976D01*
X-27341873Y3701127D01*
X-27365024Y3729337D01*
X-27382226Y3761519D01*
X-27392819Y3796438D01*
X-27397000Y3838895D01*
X-27397000Y5305105D01*
X-27392819Y5347562D01*
X-27382226Y5382481D01*
X-27365024Y5414663D01*
X-27341873Y5442873D01*
X-27313663Y5466024D01*
X-27281481Y5483226D01*
X-27246562Y5493819D01*
X-27204105Y5498000D01*
X-26062895Y5498000D01*
X-26020438Y5493819D01*
X-26020438Y5493819D01*
G37*
G36*
X-23045438Y5493819D02*
G01*
X-23010519Y5483226D01*
X-22978337Y5466024D01*
X-22950127Y5442873D01*
X-22926976Y5414663D01*
X-22909774Y5382481D01*
X-22899181Y5347562D01*
X-22895000Y5305105D01*
X-22895000Y3838895D01*
X-22899181Y3796438D01*
X-22909774Y3761519D01*
X-22926976Y3729337D01*
X-22950127Y3701127D01*
X-22978337Y3677976D01*
X-23010519Y3660774D01*
X-23045438Y3650181D01*
X-23087895Y3646000D01*
X-24229105Y3646000D01*
X-24271562Y3650181D01*
X-24306481Y3660774D01*
X-24338663Y3677976D01*
X-24366873Y3701127D01*
X-24390024Y3729337D01*
X-24407226Y3761519D01*
X-24417819Y3796438D01*
X-24422000Y3838895D01*
X-24422000Y5305105D01*
X-24417819Y5347562D01*
X-24407226Y5382481D01*
X-24390024Y5414663D01*
X-24366873Y5442873D01*
X-24338663Y5466024D01*
X-24306481Y5483226D01*
X-24271562Y5493819D01*
X-24229105Y5498000D01*
X-23087895Y5498000D01*
X-23045438Y5493819D01*
X-23045438Y5493819D01*
G37*
G36*
X-35987326Y5211535D02*
G01*
X-35949633Y5200101D01*
X-35914897Y5181534D01*
X-35884452Y5156548D01*
X-35859466Y5126103D01*
X-35840899Y5091367D01*
X-35829465Y5053674D01*
X-35825000Y5008339D01*
X-35825000Y4171661D01*
X-35829465Y4126326D01*
X-35840899Y4088633D01*
X-35859466Y4053897D01*
X-35884452Y4023452D01*
X-35914897Y3998466D01*
X-35949633Y3979899D01*
X-35987326Y3968465D01*
X-36032661Y3964000D01*
X-37119339Y3964000D01*
X-37164674Y3968465D01*
X-37202367Y3979899D01*
X-37237103Y3998466D01*
X-37267548Y4023452D01*
X-37292534Y4053897D01*
X-37311101Y4088633D01*
X-37322535Y4126326D01*
X-37327000Y4171661D01*
X-37327000Y5008339D01*
X-37322535Y5053674D01*
X-37311101Y5091367D01*
X-37292534Y5126103D01*
X-37267548Y5156548D01*
X-37237103Y5181534D01*
X-37202367Y5200101D01*
X-37164674Y5211535D01*
X-37119339Y5216000D01*
X-36032661Y5216000D01*
X-35987326Y5211535D01*
X-35987326Y5211535D01*
G37*
G36*
X-52467557Y6482481D02*
G01*
X-52401373Y6475963D01*
X-52231534Y6424443D01*
X-52075009Y6340778D01*
X-52042607Y6314186D01*
X-51937814Y6228186D01*
X-51862053Y6135869D01*
X-51825222Y6090991D01*
X-51741557Y5934466D01*
X-51690037Y5764627D01*
X-51672641Y5588000D01*
X-51690037Y5411373D01*
X-51722273Y5305105D01*
X-51741558Y5241532D01*
X-51747666Y5230105D01*
X-51825222Y5085009D01*
X-51835439Y5072560D01*
X-51937814Y4947814D01*
X-52033061Y4869648D01*
X-52075009Y4835222D01*
X-52231534Y4751557D01*
X-52401373Y4700037D01*
X-52467557Y4693519D01*
X-52533740Y4687000D01*
X-52622260Y4687000D01*
X-52688443Y4693519D01*
X-52754627Y4700037D01*
X-52924466Y4751557D01*
X-53080991Y4835222D01*
X-53122939Y4869648D01*
X-53218186Y4947814D01*
X-53320561Y5072560D01*
X-53330778Y5085009D01*
X-53408334Y5230105D01*
X-53414442Y5241532D01*
X-53433727Y5305105D01*
X-53465963Y5411373D01*
X-53483359Y5588000D01*
X-53465963Y5764627D01*
X-53414443Y5934466D01*
X-53330778Y6090991D01*
X-53293947Y6135869D01*
X-53218186Y6228186D01*
X-53113393Y6314186D01*
X-53080991Y6340778D01*
X-52924466Y6424443D01*
X-52754627Y6475963D01*
X-52688443Y6482481D01*
X-52622260Y6489000D01*
X-52533740Y6489000D01*
X-52467557Y6482481D01*
X-52467557Y6482481D01*
G37*
G36*
X-43935396Y6135653D02*
G01*
X-43898856Y6124568D01*
X-43865179Y6106567D01*
X-43835659Y6082341D01*
X-43811433Y6052821D01*
X-43793432Y6019144D01*
X-43782347Y5982604D01*
X-43778000Y5938462D01*
X-43778000Y4989538D01*
X-43782347Y4945396D01*
X-43793432Y4908856D01*
X-43811433Y4875179D01*
X-43835659Y4845659D01*
X-43865179Y4821433D01*
X-43898856Y4803432D01*
X-43935396Y4792347D01*
X-43979538Y4788000D01*
X-45428462Y4788000D01*
X-45472604Y4792347D01*
X-45509144Y4803432D01*
X-45542821Y4821433D01*
X-45572341Y4845659D01*
X-45596567Y4875179D01*
X-45614568Y4908856D01*
X-45625653Y4945396D01*
X-45630000Y4989538D01*
X-45630000Y5938462D01*
X-45625653Y5982604D01*
X-45614568Y6019144D01*
X-45596567Y6052821D01*
X-45572341Y6082341D01*
X-45542821Y6106567D01*
X-45509144Y6124568D01*
X-45472604Y6135653D01*
X-45428462Y6140000D01*
X-43979538Y6140000D01*
X-43935396Y6135653D01*
X-43935396Y6135653D01*
G37*
G36*
X-48761396Y6135653D02*
G01*
X-48724856Y6124568D01*
X-48691179Y6106567D01*
X-48661659Y6082341D01*
X-48637433Y6052821D01*
X-48619432Y6019144D01*
X-48608347Y5982604D01*
X-48604000Y5938462D01*
X-48604000Y4989538D01*
X-48608347Y4945396D01*
X-48619432Y4908856D01*
X-48637433Y4875179D01*
X-48661659Y4845659D01*
X-48691179Y4821433D01*
X-48724856Y4803432D01*
X-48761396Y4792347D01*
X-48805538Y4788000D01*
X-50254462Y4788000D01*
X-50298604Y4792347D01*
X-50335144Y4803432D01*
X-50368821Y4821433D01*
X-50398341Y4845659D01*
X-50422567Y4875179D01*
X-50440568Y4908856D01*
X-50451653Y4945396D01*
X-50456000Y4989538D01*
X-50456000Y5938462D01*
X-50451653Y5982604D01*
X-50440568Y6019144D01*
X-50422567Y6052821D01*
X-50398341Y6082341D01*
X-50368821Y6106567D01*
X-50335144Y6124568D01*
X-50298604Y6135653D01*
X-50254462Y6140000D01*
X-48805538Y6140000D01*
X-48761396Y6135653D01*
X-48761396Y6135653D01*
G37*
G36*
X-46468438Y6347319D02*
G01*
X-46433519Y6336726D01*
X-46401337Y6319524D01*
X-46373127Y6296373D01*
X-46349976Y6268163D01*
X-46332774Y6235981D01*
X-46322181Y6201062D01*
X-46318000Y6158605D01*
X-46318000Y5017395D01*
X-46322181Y4974938D01*
X-46332774Y4940019D01*
X-46349976Y4907837D01*
X-46373127Y4879627D01*
X-46401337Y4856476D01*
X-46433519Y4839274D01*
X-46468438Y4828681D01*
X-46510895Y4824500D01*
X-47977105Y4824500D01*
X-48019562Y4828681D01*
X-48054481Y4839274D01*
X-48086663Y4856476D01*
X-48114873Y4879627D01*
X-48138024Y4907837D01*
X-48155226Y4940019D01*
X-48165819Y4974938D01*
X-48170000Y5017395D01*
X-48170000Y6158605D01*
X-48165819Y6201062D01*
X-48155226Y6235981D01*
X-48138024Y6268163D01*
X-48114873Y6296373D01*
X-48086663Y6319524D01*
X-48054481Y6336726D01*
X-48019562Y6347319D01*
X-47977105Y6351500D01*
X-46510895Y6351500D01*
X-46468438Y6347319D01*
X-46468438Y6347319D01*
G37*
G36*
X-19728631Y7247148D02*
G01*
X-19635373Y7237963D01*
X-19465534Y7186443D01*
X-19309009Y7102778D01*
X-19273271Y7073448D01*
X-19171814Y6990186D01*
X-19092516Y6893560D01*
X-19059222Y6852991D01*
X-18975557Y6696466D01*
X-18924037Y6526627D01*
X-18906641Y6350000D01*
X-18924037Y6173373D01*
X-18975557Y6003534D01*
X-19059222Y5847009D01*
X-19079170Y5822703D01*
X-19171814Y5709814D01*
X-19273271Y5626552D01*
X-19309009Y5597222D01*
X-19465534Y5513557D01*
X-19635373Y5462037D01*
X-19701557Y5455519D01*
X-19767740Y5449000D01*
X-19856260Y5449000D01*
X-19922443Y5455519D01*
X-19988627Y5462037D01*
X-20158466Y5513557D01*
X-20314991Y5597222D01*
X-20350729Y5626552D01*
X-20452186Y5709814D01*
X-20544830Y5822703D01*
X-20564778Y5847009D01*
X-20648443Y6003534D01*
X-20699963Y6173373D01*
X-20717359Y6350000D01*
X-20699963Y6526627D01*
X-20648443Y6696466D01*
X-20564778Y6852991D01*
X-20531484Y6893560D01*
X-20452186Y6990186D01*
X-20350729Y7073448D01*
X-20314991Y7102778D01*
X-20158466Y7186443D01*
X-19988627Y7237963D01*
X-19895369Y7247148D01*
X-19856260Y7251000D01*
X-19767740Y7251000D01*
X-19728631Y7247148D01*
X-19728631Y7247148D01*
G37*
G36*
X-26020438Y9049819D02*
G01*
X-25985519Y9039226D01*
X-25953337Y9022024D01*
X-25925127Y8998873D01*
X-25901976Y8970663D01*
X-25884774Y8938481D01*
X-25874181Y8903562D01*
X-25870000Y8861105D01*
X-25870000Y7394895D01*
X-25874181Y7352438D01*
X-25884774Y7317519D01*
X-25901976Y7285337D01*
X-25925127Y7257127D01*
X-25953337Y7233976D01*
X-25985519Y7216774D01*
X-26020438Y7206181D01*
X-26062895Y7202000D01*
X-27204105Y7202000D01*
X-27246562Y7206181D01*
X-27281481Y7216774D01*
X-27313663Y7233976D01*
X-27341873Y7257127D01*
X-27365024Y7285337D01*
X-27382226Y7317519D01*
X-27392819Y7352438D01*
X-27397000Y7394895D01*
X-27397000Y8861105D01*
X-27392819Y8903562D01*
X-27382226Y8938481D01*
X-27365024Y8970663D01*
X-27341873Y8998873D01*
X-27313663Y9022024D01*
X-27281481Y9039226D01*
X-27246562Y9049819D01*
X-27204105Y9054000D01*
X-26062895Y9054000D01*
X-26020438Y9049819D01*
X-26020438Y9049819D01*
G37*
G36*
X-28596938Y9049819D02*
G01*
X-28562019Y9039226D01*
X-28529837Y9022024D01*
X-28501627Y8998873D01*
X-28478476Y8970663D01*
X-28461274Y8938481D01*
X-28450681Y8903562D01*
X-28446500Y8861105D01*
X-28446500Y7394895D01*
X-28450681Y7352438D01*
X-28461274Y7317519D01*
X-28478476Y7285337D01*
X-28501627Y7257127D01*
X-28529837Y7233976D01*
X-28562019Y7216774D01*
X-28596938Y7206181D01*
X-28639395Y7202000D01*
X-29780605Y7202000D01*
X-29823062Y7206181D01*
X-29857981Y7216774D01*
X-29890163Y7233976D01*
X-29918373Y7257127D01*
X-29941524Y7285337D01*
X-29958726Y7317519D01*
X-29969319Y7352438D01*
X-29973500Y7394895D01*
X-29973500Y8861105D01*
X-29969319Y8903562D01*
X-29958726Y8938481D01*
X-29941524Y8970663D01*
X-29918373Y8998873D01*
X-29890163Y9022024D01*
X-29857981Y9039226D01*
X-29823062Y9049819D01*
X-29780605Y9054000D01*
X-28639395Y9054000D01*
X-28596938Y9049819D01*
X-28596938Y9049819D01*
G37*
G36*
X-31571938Y9049819D02*
G01*
X-31537019Y9039226D01*
X-31504837Y9022024D01*
X-31476627Y8998873D01*
X-31453476Y8970663D01*
X-31436274Y8938481D01*
X-31425681Y8903562D01*
X-31421500Y8861105D01*
X-31421500Y7394895D01*
X-31425681Y7352438D01*
X-31436274Y7317519D01*
X-31453476Y7285337D01*
X-31476627Y7257127D01*
X-31504837Y7233976D01*
X-31537019Y7216774D01*
X-31571938Y7206181D01*
X-31614395Y7202000D01*
X-32755605Y7202000D01*
X-32798062Y7206181D01*
X-32832981Y7216774D01*
X-32865163Y7233976D01*
X-32893373Y7257127D01*
X-32916524Y7285337D01*
X-32933726Y7317519D01*
X-32944319Y7352438D01*
X-32948500Y7394895D01*
X-32948500Y8861105D01*
X-32944319Y8903562D01*
X-32933726Y8938481D01*
X-32916524Y8970663D01*
X-32893373Y8998873D01*
X-32865163Y9022024D01*
X-32832981Y9039226D01*
X-32798062Y9049819D01*
X-32755605Y9054000D01*
X-31614395Y9054000D01*
X-31571938Y9049819D01*
X-31571938Y9049819D01*
G37*
G36*
X-23045438Y9049819D02*
G01*
X-23010519Y9039226D01*
X-22978337Y9022024D01*
X-22950127Y8998873D01*
X-22926976Y8970663D01*
X-22909774Y8938481D01*
X-22899181Y8903562D01*
X-22895000Y8861105D01*
X-22895000Y7394895D01*
X-22899181Y7352438D01*
X-22909774Y7317519D01*
X-22926976Y7285337D01*
X-22950127Y7257127D01*
X-22978337Y7233976D01*
X-23010519Y7216774D01*
X-23045438Y7206181D01*
X-23087895Y7202000D01*
X-24229105Y7202000D01*
X-24271562Y7206181D01*
X-24306481Y7216774D01*
X-24338663Y7233976D01*
X-24366873Y7257127D01*
X-24390024Y7285337D01*
X-24407226Y7317519D01*
X-24417819Y7352438D01*
X-24422000Y7394895D01*
X-24422000Y8861105D01*
X-24417819Y8903562D01*
X-24407226Y8938481D01*
X-24390024Y8970663D01*
X-24366873Y8998873D01*
X-24338663Y9022024D01*
X-24306481Y9039226D01*
X-24271562Y9049819D01*
X-24229105Y9054000D01*
X-23087895Y9054000D01*
X-23045438Y9049819D01*
X-23045438Y9049819D01*
G37*
G36*
X-52467558Y9022482D02*
G01*
X-52401373Y9015963D01*
X-52231534Y8964443D01*
X-52075009Y8880778D01*
X-52051038Y8861105D01*
X-51937814Y8768186D01*
X-51854552Y8666729D01*
X-51825222Y8630991D01*
X-51741557Y8474466D01*
X-51690037Y8304627D01*
X-51672641Y8128000D01*
X-51690037Y7951373D01*
X-51741557Y7781534D01*
X-51825222Y7625009D01*
X-51854552Y7589271D01*
X-51937814Y7487814D01*
X-52038626Y7405081D01*
X-52075009Y7375222D01*
X-52231534Y7291557D01*
X-52401373Y7240037D01*
X-52462912Y7233976D01*
X-52533740Y7227000D01*
X-52622260Y7227000D01*
X-52693088Y7233976D01*
X-52754627Y7240037D01*
X-52924466Y7291557D01*
X-53080991Y7375222D01*
X-53117374Y7405081D01*
X-53218186Y7487814D01*
X-53301448Y7589271D01*
X-53330778Y7625009D01*
X-53414443Y7781534D01*
X-53465963Y7951373D01*
X-53483359Y8128000D01*
X-53465963Y8304627D01*
X-53414443Y8474466D01*
X-53330778Y8630991D01*
X-53301448Y8666729D01*
X-53218186Y8768186D01*
X-53104962Y8861105D01*
X-53080991Y8880778D01*
X-52924466Y8964443D01*
X-52754627Y9015963D01*
X-52688442Y9022482D01*
X-52622260Y9029000D01*
X-52533740Y9029000D01*
X-52467558Y9022482D01*
X-52467558Y9022482D01*
G37*
G36*
X-19701558Y9784482D02*
G01*
X-19635373Y9777963D01*
X-19465534Y9726443D01*
X-19309009Y9642778D01*
X-19273271Y9613448D01*
X-19171814Y9530186D01*
X-19088552Y9428729D01*
X-19059222Y9392991D01*
X-18975557Y9236466D01*
X-18924037Y9066627D01*
X-18906641Y8890000D01*
X-18924037Y8713373D01*
X-18975557Y8543534D01*
X-19059222Y8387009D01*
X-19088552Y8351271D01*
X-19171814Y8249814D01*
X-19273271Y8166552D01*
X-19309009Y8137222D01*
X-19465534Y8053557D01*
X-19635373Y8002037D01*
X-19701558Y7995518D01*
X-19767740Y7989000D01*
X-19856260Y7989000D01*
X-19922442Y7995518D01*
X-19988627Y8002037D01*
X-20158466Y8053557D01*
X-20314991Y8137222D01*
X-20350729Y8166552D01*
X-20452186Y8249814D01*
X-20535448Y8351271D01*
X-20564778Y8387009D01*
X-20648443Y8543534D01*
X-20699963Y8713373D01*
X-20717359Y8890000D01*
X-20699963Y9066627D01*
X-20648443Y9236466D01*
X-20564778Y9392991D01*
X-20535448Y9428729D01*
X-20452186Y9530186D01*
X-20350729Y9613448D01*
X-20314991Y9642778D01*
X-20158466Y9726443D01*
X-19988627Y9777963D01*
X-19922442Y9784482D01*
X-19856260Y9791000D01*
X-19767740Y9791000D01*
X-19701558Y9784482D01*
X-19701558Y9784482D01*
G37*
G36*
X-52467557Y11562481D02*
G01*
X-52401373Y11555963D01*
X-52231534Y11504443D01*
X-52075009Y11420778D01*
X-52071143Y11417605D01*
X-51937814Y11308186D01*
X-51854552Y11206729D01*
X-51825222Y11170991D01*
X-51741557Y11014466D01*
X-51690037Y10844627D01*
X-51672641Y10668000D01*
X-51690037Y10491373D01*
X-51741557Y10321534D01*
X-51825222Y10165009D01*
X-51827133Y10162681D01*
X-51937814Y10027814D01*
X-52039271Y9944552D01*
X-52075009Y9915222D01*
X-52231534Y9831557D01*
X-52401373Y9780037D01*
X-52467558Y9773518D01*
X-52533740Y9767000D01*
X-52622260Y9767000D01*
X-52688442Y9773518D01*
X-52754627Y9780037D01*
X-52924466Y9831557D01*
X-53080991Y9915222D01*
X-53116729Y9944552D01*
X-53218186Y10027814D01*
X-53328867Y10162681D01*
X-53330778Y10165009D01*
X-53414443Y10321534D01*
X-53465963Y10491373D01*
X-53483359Y10668000D01*
X-53465963Y10844627D01*
X-53414443Y11014466D01*
X-53330778Y11170991D01*
X-53301448Y11206729D01*
X-53218186Y11308186D01*
X-53084857Y11417605D01*
X-53080991Y11420778D01*
X-52924466Y11504443D01*
X-52754627Y11555963D01*
X-52688443Y11562481D01*
X-52622260Y11569000D01*
X-52533740Y11569000D01*
X-52467557Y11562481D01*
X-52467557Y11562481D01*
G37*
G36*
X-22846438Y11681319D02*
G01*
X-22811519Y11670726D01*
X-22779337Y11653524D01*
X-22751127Y11630373D01*
X-22727976Y11602163D01*
X-22710774Y11569981D01*
X-22700181Y11535062D01*
X-22696000Y11492605D01*
X-22696000Y10351395D01*
X-22700181Y10308938D01*
X-22710774Y10274019D01*
X-22727976Y10241837D01*
X-22751127Y10213627D01*
X-22779337Y10190476D01*
X-22811519Y10173274D01*
X-22846438Y10162681D01*
X-22888895Y10158500D01*
X-24355105Y10158500D01*
X-24397562Y10162681D01*
X-24432481Y10173274D01*
X-24464663Y10190476D01*
X-24492873Y10213627D01*
X-24516024Y10241837D01*
X-24533226Y10274019D01*
X-24543819Y10308938D01*
X-24548000Y10351395D01*
X-24548000Y11492605D01*
X-24543819Y11535062D01*
X-24533226Y11569981D01*
X-24516024Y11602163D01*
X-24492873Y11630373D01*
X-24464663Y11653524D01*
X-24432481Y11670726D01*
X-24397562Y11681319D01*
X-24355105Y11685500D01*
X-22888895Y11685500D01*
X-22846438Y11681319D01*
X-22846438Y11681319D01*
G37*
G36*
X-26402438Y11681319D02*
G01*
X-26367519Y11670726D01*
X-26335337Y11653524D01*
X-26307127Y11630373D01*
X-26283976Y11602163D01*
X-26266774Y11569981D01*
X-26256181Y11535062D01*
X-26252000Y11492605D01*
X-26252000Y10351395D01*
X-26256181Y10308938D01*
X-26266774Y10274019D01*
X-26283976Y10241837D01*
X-26307127Y10213627D01*
X-26335337Y10190476D01*
X-26367519Y10173274D01*
X-26402438Y10162681D01*
X-26444895Y10158500D01*
X-27911105Y10158500D01*
X-27953562Y10162681D01*
X-27988481Y10173274D01*
X-28020663Y10190476D01*
X-28048873Y10213627D01*
X-28072024Y10241837D01*
X-28089226Y10274019D01*
X-28099819Y10308938D01*
X-28104000Y10351395D01*
X-28104000Y11492605D01*
X-28099819Y11535062D01*
X-28089226Y11569981D01*
X-28072024Y11602163D01*
X-28048873Y11630373D01*
X-28020663Y11653524D01*
X-27988481Y11670726D01*
X-27953562Y11681319D01*
X-27911105Y11685500D01*
X-26444895Y11685500D01*
X-26402438Y11681319D01*
X-26402438Y11681319D01*
G37*
G36*
X-19701557Y12324481D02*
G01*
X-19635373Y12317963D01*
X-19465534Y12266443D01*
X-19309009Y12182778D01*
X-19273271Y12153448D01*
X-19171814Y12070186D01*
X-19088552Y11968729D01*
X-19059222Y11932991D01*
X-18975557Y11776466D01*
X-18924037Y11606627D01*
X-18906641Y11430000D01*
X-18924037Y11253373D01*
X-18975557Y11083534D01*
X-19059222Y10927009D01*
X-19088552Y10891271D01*
X-19171814Y10789814D01*
X-19273271Y10706552D01*
X-19309009Y10677222D01*
X-19465534Y10593557D01*
X-19635373Y10542037D01*
X-19701557Y10535519D01*
X-19767740Y10529000D01*
X-19856260Y10529000D01*
X-19922443Y10535519D01*
X-19988627Y10542037D01*
X-20158466Y10593557D01*
X-20314991Y10677222D01*
X-20350729Y10706552D01*
X-20452186Y10789814D01*
X-20535448Y10891271D01*
X-20564778Y10927009D01*
X-20648443Y11083534D01*
X-20699963Y11253373D01*
X-20717359Y11430000D01*
X-20699963Y11606627D01*
X-20648443Y11776466D01*
X-20564778Y11932991D01*
X-20535448Y11968729D01*
X-20452186Y12070186D01*
X-20350729Y12153448D01*
X-20314991Y12182778D01*
X-20158466Y12266443D01*
X-19988627Y12317963D01*
X-19922443Y12324481D01*
X-19856260Y12331000D01*
X-19767740Y12331000D01*
X-19701557Y12324481D01*
X-19701557Y12324481D01*
G37*
G36*
X-39391938Y13113819D02*
G01*
X-39357019Y13103226D01*
X-39324837Y13086024D01*
X-39296627Y13062873D01*
X-39273476Y13034663D01*
X-39256274Y13002481D01*
X-39245681Y12967562D01*
X-39241500Y12925105D01*
X-39241500Y11458895D01*
X-39245681Y11416438D01*
X-39256274Y11381519D01*
X-39273476Y11349337D01*
X-39296627Y11321127D01*
X-39324837Y11297976D01*
X-39357019Y11280774D01*
X-39391938Y11270181D01*
X-39434395Y11266000D01*
X-40575605Y11266000D01*
X-40618062Y11270181D01*
X-40652981Y11280774D01*
X-40685163Y11297976D01*
X-40713373Y11321127D01*
X-40736524Y11349337D01*
X-40753726Y11381519D01*
X-40764319Y11416438D01*
X-40768500Y11458895D01*
X-40768500Y12925105D01*
X-40764319Y12967562D01*
X-40753726Y13002481D01*
X-40736524Y13034663D01*
X-40713373Y13062873D01*
X-40685163Y13086024D01*
X-40652981Y13103226D01*
X-40618062Y13113819D01*
X-40575605Y13118000D01*
X-39434395Y13118000D01*
X-39391938Y13113819D01*
X-39391938Y13113819D01*
G37*
G36*
X-36416938Y13113819D02*
G01*
X-36382019Y13103226D01*
X-36349837Y13086024D01*
X-36321627Y13062873D01*
X-36298476Y13034663D01*
X-36281274Y13002481D01*
X-36270681Y12967562D01*
X-36266500Y12925105D01*
X-36266500Y11458895D01*
X-36270681Y11416438D01*
X-36281274Y11381519D01*
X-36298476Y11349337D01*
X-36321627Y11321127D01*
X-36349837Y11297976D01*
X-36382019Y11280774D01*
X-36416938Y11270181D01*
X-36459395Y11266000D01*
X-37600605Y11266000D01*
X-37643062Y11270181D01*
X-37677981Y11280774D01*
X-37710163Y11297976D01*
X-37738373Y11321127D01*
X-37761524Y11349337D01*
X-37778726Y11381519D01*
X-37789319Y11416438D01*
X-37793500Y11458895D01*
X-37793500Y12925105D01*
X-37789319Y12967562D01*
X-37778726Y13002481D01*
X-37761524Y13034663D01*
X-37738373Y13062873D01*
X-37710163Y13086024D01*
X-37677981Y13103226D01*
X-37643062Y13113819D01*
X-37600605Y13118000D01*
X-36459395Y13118000D01*
X-36416938Y13113819D01*
X-36416938Y13113819D01*
G37*
G36*
X-33857938Y13113819D02*
G01*
X-33823019Y13103226D01*
X-33790837Y13086024D01*
X-33762627Y13062873D01*
X-33739476Y13034663D01*
X-33722274Y13002481D01*
X-33711681Y12967562D01*
X-33707500Y12925105D01*
X-33707500Y11458895D01*
X-33711681Y11416438D01*
X-33722274Y11381519D01*
X-33739476Y11349337D01*
X-33762627Y11321127D01*
X-33790837Y11297976D01*
X-33823019Y11280774D01*
X-33857938Y11270181D01*
X-33900395Y11266000D01*
X-35041605Y11266000D01*
X-35084062Y11270181D01*
X-35118981Y11280774D01*
X-35151163Y11297976D01*
X-35179373Y11321127D01*
X-35202524Y11349337D01*
X-35219726Y11381519D01*
X-35230319Y11416438D01*
X-35234500Y11458895D01*
X-35234500Y12925105D01*
X-35230319Y12967562D01*
X-35219726Y13002481D01*
X-35202524Y13034663D01*
X-35179373Y13062873D01*
X-35151163Y13086024D01*
X-35118981Y13103226D01*
X-35084062Y13113819D01*
X-35041605Y13118000D01*
X-33900395Y13118000D01*
X-33857938Y13113819D01*
X-33857938Y13113819D01*
G37*
G36*
X-30882938Y13113819D02*
G01*
X-30848019Y13103226D01*
X-30815837Y13086024D01*
X-30787627Y13062873D01*
X-30764476Y13034663D01*
X-30747274Y13002481D01*
X-30736681Y12967562D01*
X-30732500Y12925105D01*
X-30732500Y11458895D01*
X-30736681Y11416438D01*
X-30747274Y11381519D01*
X-30764476Y11349337D01*
X-30787627Y11321127D01*
X-30815837Y11297976D01*
X-30848019Y11280774D01*
X-30882938Y11270181D01*
X-30925395Y11266000D01*
X-32066605Y11266000D01*
X-32109062Y11270181D01*
X-32143981Y11280774D01*
X-32176163Y11297976D01*
X-32204373Y11321127D01*
X-32227524Y11349337D01*
X-32244726Y11381519D01*
X-32255319Y11416438D01*
X-32259500Y11458895D01*
X-32259500Y12925105D01*
X-32255319Y12967562D01*
X-32244726Y13002481D01*
X-32227524Y13034663D01*
X-32204373Y13062873D01*
X-32176163Y13086024D01*
X-32143981Y13103226D01*
X-32109062Y13113819D01*
X-32066605Y13118000D01*
X-30925395Y13118000D01*
X-30882938Y13113819D01*
X-30882938Y13113819D01*
G37*
G36*
X-52467558Y14102482D02*
G01*
X-52401373Y14095963D01*
X-52231534Y14044443D01*
X-52075009Y13960778D01*
X-52039271Y13931448D01*
X-51937814Y13848186D01*
X-51854552Y13746729D01*
X-51825222Y13710991D01*
X-51741557Y13554466D01*
X-51690037Y13384627D01*
X-51672641Y13208000D01*
X-51690037Y13031373D01*
X-51741557Y12861534D01*
X-51825222Y12705009D01*
X-51854552Y12669271D01*
X-51937814Y12567814D01*
X-52039271Y12484552D01*
X-52075009Y12455222D01*
X-52231534Y12371557D01*
X-52401373Y12320037D01*
X-52467558Y12313518D01*
X-52533740Y12307000D01*
X-52622260Y12307000D01*
X-52688442Y12313518D01*
X-52754627Y12320037D01*
X-52924466Y12371557D01*
X-53080991Y12455222D01*
X-53116729Y12484552D01*
X-53218186Y12567814D01*
X-53301448Y12669271D01*
X-53330778Y12705009D01*
X-53414443Y12861534D01*
X-53465963Y13031373D01*
X-53483359Y13208000D01*
X-53465963Y13384627D01*
X-53414443Y13554466D01*
X-53330778Y13710991D01*
X-53301448Y13746729D01*
X-53218186Y13848186D01*
X-53116729Y13931448D01*
X-53080991Y13960778D01*
X-52924466Y14044443D01*
X-52754627Y14095963D01*
X-52688442Y14102482D01*
X-52622260Y14109000D01*
X-52533740Y14109000D01*
X-52467558Y14102482D01*
X-52467558Y14102482D01*
G37*
G36*
X-48246438Y14475319D02*
G01*
X-48211519Y14464726D01*
X-48179337Y14447524D01*
X-48151127Y14424373D01*
X-48127976Y14396163D01*
X-48110774Y14363981D01*
X-48100181Y14329062D01*
X-48096000Y14286605D01*
X-48096000Y13145395D01*
X-48100181Y13102938D01*
X-48110774Y13068019D01*
X-48127976Y13035837D01*
X-48151127Y13007627D01*
X-48179337Y12984476D01*
X-48211519Y12967274D01*
X-48246438Y12956681D01*
X-48288895Y12952500D01*
X-49755105Y12952500D01*
X-49797562Y12956681D01*
X-49832481Y12967274D01*
X-49864663Y12984476D01*
X-49892873Y13007627D01*
X-49916024Y13035837D01*
X-49933226Y13068019D01*
X-49943819Y13102938D01*
X-49948000Y13145395D01*
X-49948000Y14286605D01*
X-49943819Y14329062D01*
X-49933226Y14363981D01*
X-49916024Y14396163D01*
X-49892873Y14424373D01*
X-49864663Y14447524D01*
X-49832481Y14464726D01*
X-49797562Y14475319D01*
X-49755105Y14479500D01*
X-48288895Y14479500D01*
X-48246438Y14475319D01*
X-48246438Y14475319D01*
G37*
G36*
X-19717645Y14866066D02*
G01*
X-19635373Y14857963D01*
X-19465534Y14806443D01*
X-19309009Y14722778D01*
X-19283111Y14701524D01*
X-19171814Y14610186D01*
X-19096053Y14517869D01*
X-19059222Y14472991D01*
X-18975557Y14316466D01*
X-18924037Y14146627D01*
X-18906641Y13970000D01*
X-18924037Y13793373D01*
X-18975557Y13623534D01*
X-19059222Y13467009D01*
X-19088552Y13431271D01*
X-19171814Y13329814D01*
X-19273271Y13246552D01*
X-19309009Y13217222D01*
X-19309011Y13217221D01*
X-19457818Y13137681D01*
X-19465534Y13133557D01*
X-19635373Y13082037D01*
X-19701558Y13075518D01*
X-19767740Y13069000D01*
X-19856260Y13069000D01*
X-19922442Y13075518D01*
X-19988627Y13082037D01*
X-20158466Y13133557D01*
X-20166181Y13137681D01*
X-20314989Y13217221D01*
X-20314991Y13217222D01*
X-20350729Y13246552D01*
X-20452186Y13329814D01*
X-20535448Y13431271D01*
X-20564778Y13467009D01*
X-20648443Y13623534D01*
X-20699963Y13793373D01*
X-20717359Y13970000D01*
X-20699963Y14146627D01*
X-20648443Y14316466D01*
X-20564778Y14472991D01*
X-20527947Y14517869D01*
X-20452186Y14610186D01*
X-20340889Y14701524D01*
X-20314991Y14722778D01*
X-20158466Y14806443D01*
X-19988627Y14857963D01*
X-19906355Y14866066D01*
X-19856260Y14871000D01*
X-19767740Y14871000D01*
X-19717645Y14866066D01*
X-19717645Y14866066D01*
G37*
G36*
X-22846438Y14656319D02*
G01*
X-22811519Y14645726D01*
X-22779337Y14628524D01*
X-22751127Y14605373D01*
X-22727976Y14577163D01*
X-22710774Y14544981D01*
X-22700181Y14510062D01*
X-22696000Y14467605D01*
X-22696000Y13326395D01*
X-22700181Y13283938D01*
X-22710774Y13249019D01*
X-22727976Y13216837D01*
X-22751127Y13188627D01*
X-22779337Y13165476D01*
X-22811519Y13148274D01*
X-22846438Y13137681D01*
X-22888895Y13133500D01*
X-24355105Y13133500D01*
X-24397562Y13137681D01*
X-24432481Y13148274D01*
X-24464663Y13165476D01*
X-24492873Y13188627D01*
X-24516024Y13216837D01*
X-24533226Y13249019D01*
X-24543819Y13283938D01*
X-24548000Y13326395D01*
X-24548000Y14467605D01*
X-24543819Y14510062D01*
X-24533226Y14544981D01*
X-24516024Y14577163D01*
X-24492873Y14605373D01*
X-24464663Y14628524D01*
X-24432481Y14645726D01*
X-24397562Y14656319D01*
X-24355105Y14660500D01*
X-22888895Y14660500D01*
X-22846438Y14656319D01*
X-22846438Y14656319D01*
G37*
G36*
X-26402438Y14656319D02*
G01*
X-26367519Y14645726D01*
X-26335337Y14628524D01*
X-26307127Y14605373D01*
X-26283976Y14577163D01*
X-26266774Y14544981D01*
X-26256181Y14510062D01*
X-26252000Y14467605D01*
X-26252000Y13326395D01*
X-26256181Y13283938D01*
X-26266774Y13249019D01*
X-26283976Y13216837D01*
X-26307127Y13188627D01*
X-26335337Y13165476D01*
X-26367519Y13148274D01*
X-26402438Y13137681D01*
X-26444895Y13133500D01*
X-27911105Y13133500D01*
X-27953562Y13137681D01*
X-27988481Y13148274D01*
X-28020663Y13165476D01*
X-28048873Y13188627D01*
X-28072024Y13216837D01*
X-28089226Y13249019D01*
X-28099819Y13283938D01*
X-28104000Y13326395D01*
X-28104000Y14467605D01*
X-28099819Y14510062D01*
X-28089226Y14544981D01*
X-28072024Y14577163D01*
X-28048873Y14605373D01*
X-28020663Y14628524D01*
X-27988481Y14645726D01*
X-27953562Y14656319D01*
X-27911105Y14660500D01*
X-26444895Y14660500D01*
X-26402438Y14656319D01*
X-26402438Y14656319D01*
G37*
G36*
X-42658438Y14729319D02*
G01*
X-42623519Y14718726D01*
X-42591337Y14701524D01*
X-42563127Y14678373D01*
X-42539976Y14650163D01*
X-42522774Y14617981D01*
X-42512181Y14583062D01*
X-42508000Y14540605D01*
X-42508000Y13399395D01*
X-42512181Y13356938D01*
X-42522774Y13322019D01*
X-42539976Y13289837D01*
X-42563127Y13261627D01*
X-42591337Y13238476D01*
X-42623519Y13221274D01*
X-42658438Y13210681D01*
X-42700895Y13206500D01*
X-44167105Y13206500D01*
X-44209562Y13210681D01*
X-44244481Y13221274D01*
X-44276663Y13238476D01*
X-44304873Y13261627D01*
X-44328024Y13289837D01*
X-44345226Y13322019D01*
X-44355819Y13356938D01*
X-44360000Y13399395D01*
X-44360000Y14540605D01*
X-44355819Y14583062D01*
X-44345226Y14617981D01*
X-44328024Y14650163D01*
X-44304873Y14678373D01*
X-44276663Y14701524D01*
X-44244481Y14718726D01*
X-44209562Y14729319D01*
X-44167105Y14733500D01*
X-42700895Y14733500D01*
X-42658438Y14729319D01*
X-42658438Y14729319D01*
G37*
G36*
X-45302000Y16132328D02*
G01*
X-45321447Y16121934D01*
X-45340389Y16106389D01*
X-45355934Y16087447D01*
X-45367485Y16065836D01*
X-45374598Y16042387D01*
X-45377000Y16018001D01*
X-45377000Y14969999D01*
X-45374598Y14945613D01*
X-45367485Y14922164D01*
X-45355934Y14900553D01*
X-45340389Y14881611D01*
X-45321447Y14866066D01*
X-45302000Y14855672D01*
X-45302000Y14243000D01*
X-47154000Y14243000D01*
X-47154000Y14855672D01*
X-47134553Y14866066D01*
X-47115611Y14881611D01*
X-47100066Y14900553D01*
X-47088515Y14922164D01*
X-47081402Y14945613D01*
X-47079000Y14969999D01*
X-47079000Y16018001D01*
X-47081402Y16042387D01*
X-47088515Y16065836D01*
X-47100066Y16087447D01*
X-47115611Y16106389D01*
X-47134553Y16121934D01*
X-47154000Y16132328D01*
X-47154000Y16745000D01*
X-45302000Y16745000D01*
X-45302000Y16132328D01*
X-45302000Y16132328D01*
G37*
G36*
X-33771396Y16669653D02*
G01*
X-33734856Y16658568D01*
X-33701179Y16640567D01*
X-33671659Y16616341D01*
X-33647433Y16586821D01*
X-33629432Y16553144D01*
X-33618347Y16516604D01*
X-33614000Y16472462D01*
X-33614000Y15023538D01*
X-33618347Y14979396D01*
X-33629432Y14942856D01*
X-33647433Y14909179D01*
X-33671659Y14879659D01*
X-33701179Y14855433D01*
X-33734856Y14837432D01*
X-33771396Y14826347D01*
X-33815538Y14822000D01*
X-34764462Y14822000D01*
X-34808604Y14826347D01*
X-34845144Y14837432D01*
X-34878821Y14855433D01*
X-34908341Y14879659D01*
X-34932567Y14909179D01*
X-34950568Y14942856D01*
X-34961653Y14979396D01*
X-34966000Y15023538D01*
X-34966000Y16472462D01*
X-34961653Y16516604D01*
X-34950568Y16553144D01*
X-34932567Y16586821D01*
X-34908341Y16616341D01*
X-34878821Y16640567D01*
X-34845144Y16658568D01*
X-34808604Y16669653D01*
X-34764462Y16674000D01*
X-33815538Y16674000D01*
X-33771396Y16669653D01*
X-33771396Y16669653D01*
G37*
G36*
X-30971396Y16669653D02*
G01*
X-30934856Y16658568D01*
X-30901179Y16640567D01*
X-30871659Y16616341D01*
X-30847433Y16586821D01*
X-30829432Y16553144D01*
X-30818347Y16516604D01*
X-30814000Y16472462D01*
X-30814000Y15023538D01*
X-30818347Y14979396D01*
X-30829432Y14942856D01*
X-30847433Y14909179D01*
X-30871659Y14879659D01*
X-30901179Y14855433D01*
X-30934856Y14837432D01*
X-30971396Y14826347D01*
X-31015538Y14822000D01*
X-31964462Y14822000D01*
X-32008604Y14826347D01*
X-32045144Y14837432D01*
X-32078821Y14855433D01*
X-32108341Y14879659D01*
X-32132567Y14909179D01*
X-32150568Y14942856D01*
X-32161653Y14979396D01*
X-32166000Y15023538D01*
X-32166000Y16472462D01*
X-32161653Y16516604D01*
X-32150568Y16553144D01*
X-32132567Y16586821D01*
X-32108341Y16616341D01*
X-32078821Y16640567D01*
X-32045144Y16658568D01*
X-32008604Y16669653D01*
X-31964462Y16674000D01*
X-31015538Y16674000D01*
X-30971396Y16669653D01*
X-30971396Y16669653D01*
G37*
G36*
X-52467558Y16642482D02*
G01*
X-52401373Y16635963D01*
X-52231534Y16584443D01*
X-52075009Y16500778D01*
X-52069721Y16496438D01*
X-51937814Y16388186D01*
X-51865903Y16300561D01*
X-51825222Y16250991D01*
X-51741557Y16094466D01*
X-51690037Y15924627D01*
X-51672641Y15748000D01*
X-51690037Y15571373D01*
X-51741557Y15401534D01*
X-51825222Y15245009D01*
X-51828204Y15241376D01*
X-51937814Y15107814D01*
X-52020876Y15039648D01*
X-52075009Y14995222D01*
X-52231534Y14911557D01*
X-52401373Y14860037D01*
X-52467558Y14853518D01*
X-52533740Y14847000D01*
X-52622260Y14847000D01*
X-52688442Y14853518D01*
X-52754627Y14860037D01*
X-52924466Y14911557D01*
X-53080991Y14995222D01*
X-53135124Y15039648D01*
X-53218186Y15107814D01*
X-53327796Y15241376D01*
X-53330778Y15245009D01*
X-53414443Y15401534D01*
X-53465963Y15571373D01*
X-53483359Y15748000D01*
X-53465963Y15924627D01*
X-53414443Y16094466D01*
X-53330778Y16250991D01*
X-53290097Y16300561D01*
X-53218186Y16388186D01*
X-53086279Y16496438D01*
X-53080991Y16500778D01*
X-52924466Y16584443D01*
X-52754627Y16635963D01*
X-52688442Y16642482D01*
X-52622260Y16649000D01*
X-52533740Y16649000D01*
X-52467558Y16642482D01*
X-52467558Y16642482D01*
G37*
G36*
X-36470938Y16923819D02*
G01*
X-36436019Y16913226D01*
X-36403837Y16896024D01*
X-36375627Y16872873D01*
X-36352476Y16844663D01*
X-36335274Y16812481D01*
X-36324681Y16777562D01*
X-36320500Y16735105D01*
X-36320500Y15268895D01*
X-36324681Y15226438D01*
X-36335274Y15191519D01*
X-36352476Y15159337D01*
X-36375627Y15131127D01*
X-36403837Y15107976D01*
X-36436019Y15090774D01*
X-36470938Y15080181D01*
X-36513395Y15076000D01*
X-37654605Y15076000D01*
X-37697062Y15080181D01*
X-37731981Y15090774D01*
X-37764163Y15107976D01*
X-37792373Y15131127D01*
X-37815524Y15159337D01*
X-37832726Y15191519D01*
X-37843319Y15226438D01*
X-37847500Y15268895D01*
X-37847500Y16735105D01*
X-37843319Y16777562D01*
X-37832726Y16812481D01*
X-37815524Y16844663D01*
X-37792373Y16872873D01*
X-37764163Y16896024D01*
X-37731981Y16913226D01*
X-37697062Y16923819D01*
X-37654605Y16928000D01*
X-36513395Y16928000D01*
X-36470938Y16923819D01*
X-36470938Y16923819D01*
G37*
G36*
X-39445938Y16923819D02*
G01*
X-39411019Y16913226D01*
X-39378837Y16896024D01*
X-39350627Y16872873D01*
X-39327476Y16844663D01*
X-39310274Y16812481D01*
X-39299681Y16777562D01*
X-39295500Y16735105D01*
X-39295500Y15268895D01*
X-39299681Y15226438D01*
X-39310274Y15191519D01*
X-39327476Y15159337D01*
X-39350627Y15131127D01*
X-39378837Y15107976D01*
X-39411019Y15090774D01*
X-39445938Y15080181D01*
X-39488395Y15076000D01*
X-40629605Y15076000D01*
X-40672062Y15080181D01*
X-40706981Y15090774D01*
X-40739163Y15107976D01*
X-40767373Y15131127D01*
X-40790524Y15159337D01*
X-40807726Y15191519D01*
X-40818319Y15226438D01*
X-40822500Y15268895D01*
X-40822500Y16735105D01*
X-40818319Y16777562D01*
X-40807726Y16812481D01*
X-40790524Y16844663D01*
X-40767373Y16872873D01*
X-40739163Y16896024D01*
X-40706981Y16913226D01*
X-40672062Y16923819D01*
X-40629605Y16928000D01*
X-39488395Y16928000D01*
X-39445938Y16923819D01*
X-39445938Y16923819D01*
G37*
G36*
X-19701557Y17404481D02*
G01*
X-19635373Y17397963D01*
X-19465534Y17346443D01*
X-19309009Y17262778D01*
X-19307580Y17261605D01*
X-19171814Y17150186D01*
X-19088552Y17048729D01*
X-19059222Y17012991D01*
X-18975557Y16856466D01*
X-18924037Y16686627D01*
X-18906641Y16510000D01*
X-18924037Y16333373D01*
X-18975557Y16163534D01*
X-19059222Y16007009D01*
X-19060079Y16005965D01*
X-19171814Y15869814D01*
X-19273271Y15786552D01*
X-19309009Y15757222D01*
X-19465534Y15673557D01*
X-19635373Y15622037D01*
X-19701557Y15615519D01*
X-19767740Y15609000D01*
X-19856260Y15609000D01*
X-19922443Y15615519D01*
X-19988627Y15622037D01*
X-20158466Y15673557D01*
X-20314991Y15757222D01*
X-20350729Y15786552D01*
X-20452186Y15869814D01*
X-20563921Y16005965D01*
X-20564778Y16007009D01*
X-20648443Y16163534D01*
X-20699963Y16333373D01*
X-20717359Y16510000D01*
X-20699963Y16686627D01*
X-20648443Y16856466D01*
X-20564778Y17012991D01*
X-20535448Y17048729D01*
X-20452186Y17150186D01*
X-20316420Y17261605D01*
X-20314991Y17262778D01*
X-20158466Y17346443D01*
X-19988627Y17397963D01*
X-19922443Y17404481D01*
X-19856260Y17411000D01*
X-19767740Y17411000D01*
X-19701557Y17404481D01*
X-19701557Y17404481D01*
G37*
G36*
X-48246438Y17450319D02*
G01*
X-48211519Y17439726D01*
X-48179337Y17422524D01*
X-48151127Y17399373D01*
X-48127976Y17371163D01*
X-48110774Y17338981D01*
X-48100181Y17304062D01*
X-48096000Y17261605D01*
X-48096000Y16120395D01*
X-48100181Y16077938D01*
X-48110774Y16043019D01*
X-48127976Y16010837D01*
X-48151127Y15982627D01*
X-48179337Y15959476D01*
X-48211519Y15942274D01*
X-48246438Y15931681D01*
X-48288895Y15927500D01*
X-49755105Y15927500D01*
X-49797562Y15931681D01*
X-49832481Y15942274D01*
X-49864663Y15959476D01*
X-49892873Y15982627D01*
X-49916024Y16010837D01*
X-49933226Y16043019D01*
X-49943819Y16077938D01*
X-49948000Y16120395D01*
X-49948000Y17261605D01*
X-49943819Y17304062D01*
X-49933226Y17338981D01*
X-49916024Y17371163D01*
X-49892873Y17399373D01*
X-49864663Y17422524D01*
X-49832481Y17439726D01*
X-49797562Y17450319D01*
X-49755105Y17454500D01*
X-48288895Y17454500D01*
X-48246438Y17450319D01*
X-48246438Y17450319D01*
G37*
G36*
X-42658438Y17704319D02*
G01*
X-42623519Y17693726D01*
X-42591337Y17676524D01*
X-42563127Y17653373D01*
X-42539976Y17625163D01*
X-42522774Y17592981D01*
X-42512181Y17558062D01*
X-42508000Y17515605D01*
X-42508000Y16374395D01*
X-42512181Y16331938D01*
X-42522774Y16297019D01*
X-42539976Y16264837D01*
X-42563127Y16236627D01*
X-42591337Y16213476D01*
X-42623519Y16196274D01*
X-42658438Y16185681D01*
X-42700895Y16181500D01*
X-44167105Y16181500D01*
X-44209562Y16185681D01*
X-44244481Y16196274D01*
X-44276663Y16213476D01*
X-44304873Y16236627D01*
X-44328024Y16264837D01*
X-44345226Y16297019D01*
X-44355819Y16331938D01*
X-44360000Y16374395D01*
X-44360000Y17515605D01*
X-44355819Y17558062D01*
X-44345226Y17592981D01*
X-44328024Y17625163D01*
X-44304873Y17653373D01*
X-44276663Y17676524D01*
X-44244481Y17693726D01*
X-44209562Y17704319D01*
X-44167105Y17708500D01*
X-42700895Y17708500D01*
X-42658438Y17704319D01*
X-42658438Y17704319D01*
G37*
G36*
X-26310938Y18193819D02*
G01*
X-26276019Y18183226D01*
X-26243837Y18166024D01*
X-26215627Y18142873D01*
X-26192476Y18114663D01*
X-26175274Y18082481D01*
X-26164681Y18047562D01*
X-26160500Y18005105D01*
X-26160500Y16538895D01*
X-26164681Y16496438D01*
X-26175274Y16461519D01*
X-26192476Y16429337D01*
X-26215627Y16401127D01*
X-26243837Y16377976D01*
X-26276019Y16360774D01*
X-26310938Y16350181D01*
X-26353395Y16346000D01*
X-27494605Y16346000D01*
X-27537062Y16350181D01*
X-27571981Y16360774D01*
X-27604163Y16377976D01*
X-27632373Y16401127D01*
X-27655524Y16429337D01*
X-27672726Y16461519D01*
X-27683319Y16496438D01*
X-27687500Y16538895D01*
X-27687500Y18005105D01*
X-27683319Y18047562D01*
X-27672726Y18082481D01*
X-27655524Y18114663D01*
X-27632373Y18142873D01*
X-27604163Y18166024D01*
X-27571981Y18183226D01*
X-27537062Y18193819D01*
X-27494605Y18198000D01*
X-26353395Y18198000D01*
X-26310938Y18193819D01*
X-26310938Y18193819D01*
G37*
G36*
X-23335938Y18193819D02*
G01*
X-23301019Y18183226D01*
X-23268837Y18166024D01*
X-23240627Y18142873D01*
X-23217476Y18114663D01*
X-23200274Y18082481D01*
X-23189681Y18047562D01*
X-23185500Y18005105D01*
X-23185500Y16538895D01*
X-23189681Y16496438D01*
X-23200274Y16461519D01*
X-23217476Y16429337D01*
X-23240627Y16401127D01*
X-23268837Y16377976D01*
X-23301019Y16360774D01*
X-23335938Y16350181D01*
X-23378395Y16346000D01*
X-24519605Y16346000D01*
X-24562062Y16350181D01*
X-24596981Y16360774D01*
X-24629163Y16377976D01*
X-24657373Y16401127D01*
X-24680524Y16429337D01*
X-24697726Y16461519D01*
X-24708319Y16496438D01*
X-24712500Y16538895D01*
X-24712500Y18005105D01*
X-24708319Y18047562D01*
X-24697726Y18082481D01*
X-24680524Y18114663D01*
X-24657373Y18142873D01*
X-24629163Y18166024D01*
X-24596981Y18183226D01*
X-24562062Y18193819D01*
X-24519605Y18198000D01*
X-23378395Y18198000D01*
X-23335938Y18193819D01*
X-23335938Y18193819D01*
G37*
G36*
X-52467558Y19182482D02*
G01*
X-52401373Y19175963D01*
X-52231534Y19124443D01*
X-52075009Y19040778D01*
X-52039271Y19011448D01*
X-51937814Y18928186D01*
X-51857632Y18830482D01*
X-51825222Y18790991D01*
X-51825221Y18790989D01*
X-51759885Y18668756D01*
X-51741557Y18634466D01*
X-51690037Y18464627D01*
X-51672641Y18288000D01*
X-51690037Y18111373D01*
X-51741557Y17941534D01*
X-51825222Y17785009D01*
X-51854552Y17749271D01*
X-51937814Y17647814D01*
X-52039271Y17564552D01*
X-52075009Y17535222D01*
X-52231534Y17451557D01*
X-52401373Y17400037D01*
X-52467557Y17393519D01*
X-52533740Y17387000D01*
X-52622260Y17387000D01*
X-52688443Y17393519D01*
X-52754627Y17400037D01*
X-52924466Y17451557D01*
X-53080991Y17535222D01*
X-53116729Y17564552D01*
X-53218186Y17647814D01*
X-53301448Y17749271D01*
X-53330778Y17785009D01*
X-53414443Y17941534D01*
X-53465963Y18111373D01*
X-53483359Y18288000D01*
X-53465963Y18464627D01*
X-53414443Y18634466D01*
X-53396114Y18668756D01*
X-53330779Y18790989D01*
X-53330778Y18790991D01*
X-53298368Y18830482D01*
X-53218186Y18928186D01*
X-53116729Y19011448D01*
X-53080991Y19040778D01*
X-52924466Y19124443D01*
X-52754627Y19175963D01*
X-52688442Y19182482D01*
X-52622260Y19189000D01*
X-52533740Y19189000D01*
X-52467558Y19182482D01*
X-52467558Y19182482D01*
G37*
G36*
X-19701558Y19944482D02*
G01*
X-19635373Y19937963D01*
X-19465534Y19886443D01*
X-19309009Y19802778D01*
X-19303080Y19797912D01*
X-19171814Y19690186D01*
X-19088552Y19588729D01*
X-19059222Y19552991D01*
X-18975557Y19396466D01*
X-18924037Y19226627D01*
X-18906641Y19050000D01*
X-18924037Y18873373D01*
X-18975557Y18703534D01*
X-19059222Y18547009D01*
X-19088552Y18511271D01*
X-19171814Y18409814D01*
X-19273271Y18326552D01*
X-19309009Y18297222D01*
X-19465534Y18213557D01*
X-19635373Y18162037D01*
X-19701558Y18155518D01*
X-19767740Y18149000D01*
X-19856260Y18149000D01*
X-19922442Y18155518D01*
X-19988627Y18162037D01*
X-20158466Y18213557D01*
X-20314991Y18297222D01*
X-20350729Y18326552D01*
X-20452186Y18409814D01*
X-20535448Y18511271D01*
X-20564778Y18547009D01*
X-20648443Y18703534D01*
X-20699963Y18873373D01*
X-20717359Y19050000D01*
X-20699963Y19226627D01*
X-20648443Y19396466D01*
X-20564778Y19552991D01*
X-20535448Y19588729D01*
X-20452186Y19690186D01*
X-20320920Y19797912D01*
X-20314991Y19802778D01*
X-20158466Y19886443D01*
X-19988627Y19937963D01*
X-19922442Y19944482D01*
X-19856260Y19951000D01*
X-19767740Y19951000D01*
X-19701558Y19944482D01*
X-19701558Y19944482D01*
G37*
G36*
X-36434438Y20479819D02*
G01*
X-36399519Y20469226D01*
X-36367337Y20452024D01*
X-36339127Y20428873D01*
X-36315976Y20400663D01*
X-36298774Y20368481D01*
X-36288181Y20333562D01*
X-36284000Y20291105D01*
X-36284000Y18824895D01*
X-36288181Y18782438D01*
X-36298774Y18747519D01*
X-36315976Y18715337D01*
X-36339127Y18687127D01*
X-36367337Y18663976D01*
X-36399519Y18646774D01*
X-36434438Y18636181D01*
X-36476895Y18632000D01*
X-37618105Y18632000D01*
X-37660562Y18636181D01*
X-37695481Y18646774D01*
X-37727663Y18663976D01*
X-37755873Y18687127D01*
X-37779024Y18715337D01*
X-37796226Y18747519D01*
X-37806819Y18782438D01*
X-37811000Y18824895D01*
X-37811000Y20291105D01*
X-37806819Y20333562D01*
X-37796226Y20368481D01*
X-37779024Y20400663D01*
X-37755873Y20428873D01*
X-37727663Y20452024D01*
X-37695481Y20469226D01*
X-37660562Y20479819D01*
X-37618105Y20484000D01*
X-36476895Y20484000D01*
X-36434438Y20479819D01*
X-36434438Y20479819D01*
G37*
G36*
X-33459438Y20479819D02*
G01*
X-33424519Y20469226D01*
X-33392337Y20452024D01*
X-33364127Y20428873D01*
X-33340976Y20400663D01*
X-33323774Y20368481D01*
X-33313181Y20333562D01*
X-33309000Y20291105D01*
X-33309000Y18824895D01*
X-33313181Y18782438D01*
X-33323774Y18747519D01*
X-33340976Y18715337D01*
X-33364127Y18687127D01*
X-33392337Y18663976D01*
X-33424519Y18646774D01*
X-33459438Y18636181D01*
X-33501895Y18632000D01*
X-34643105Y18632000D01*
X-34685562Y18636181D01*
X-34720481Y18646774D01*
X-34752663Y18663976D01*
X-34780873Y18687127D01*
X-34804024Y18715337D01*
X-34821226Y18747519D01*
X-34831819Y18782438D01*
X-34836000Y18824895D01*
X-34836000Y20291105D01*
X-34831819Y20333562D01*
X-34821226Y20368481D01*
X-34804024Y20400663D01*
X-34780873Y20428873D01*
X-34752663Y20452024D01*
X-34720481Y20469226D01*
X-34685562Y20479819D01*
X-34643105Y20484000D01*
X-33501895Y20484000D01*
X-33459438Y20479819D01*
X-33459438Y20479819D01*
G37*
G36*
X-28883356Y20011213D02*
G01*
X-28846816Y20000128D01*
X-28813139Y19982127D01*
X-28783619Y19957901D01*
X-28759393Y19928381D01*
X-28741392Y19894704D01*
X-28730307Y19858164D01*
X-28725960Y19814022D01*
X-28725960Y18865098D01*
X-28730307Y18820956D01*
X-28741392Y18784416D01*
X-28759393Y18750739D01*
X-28783619Y18721219D01*
X-28813139Y18696993D01*
X-28846816Y18678992D01*
X-28883356Y18667907D01*
X-28927498Y18663560D01*
X-30376422Y18663560D01*
X-30420564Y18667907D01*
X-30457104Y18678992D01*
X-30490781Y18696993D01*
X-30520301Y18721219D01*
X-30544527Y18750739D01*
X-30562528Y18784416D01*
X-30573613Y18820956D01*
X-30577960Y18865098D01*
X-30577960Y19814022D01*
X-30573613Y19858164D01*
X-30562528Y19894704D01*
X-30544527Y19928381D01*
X-30520301Y19957901D01*
X-30490781Y19982127D01*
X-30457104Y20000128D01*
X-30420564Y20011213D01*
X-30376422Y20015560D01*
X-28927498Y20015560D01*
X-28883356Y20011213D01*
X-28883356Y20011213D01*
G37*
G36*
X-25513000Y22713999D02*
G01*
X-25510598Y22689613D01*
X-25503485Y22666164D01*
X-25491934Y22644553D01*
X-25476389Y22625611D01*
X-25457447Y22610066D01*
X-25435836Y22598515D01*
X-25412387Y22591402D01*
X-25388001Y22589000D01*
X-25321218Y22589000D01*
X-25296832Y22591402D01*
X-25273383Y22598515D01*
X-25241922Y22617372D01*
X-25216234Y22638453D01*
X-25179752Y22657953D01*
X-25179749Y22657954D01*
X-25140168Y22669961D01*
X-25136310Y22670341D01*
X-25109315Y22673000D01*
X-24319000Y22673000D01*
X-24319000Y22479448D01*
X-24318399Y22467210D01*
X-24317984Y22463000D01*
X-24318399Y22458790D01*
X-24319000Y22446552D01*
X-24319000Y21979448D01*
X-24318399Y21967210D01*
X-24317984Y21963000D01*
X-24318399Y21958790D01*
X-24319000Y21946552D01*
X-24319000Y21479448D01*
X-24318399Y21467210D01*
X-24317984Y21463000D01*
X-24318399Y21458790D01*
X-24319000Y21446552D01*
X-24319000Y20979448D01*
X-24318399Y20967210D01*
X-24317984Y20963000D01*
X-24318399Y20958790D01*
X-24319000Y20946552D01*
X-24319000Y20479448D01*
X-24318399Y20467210D01*
X-24317984Y20463000D01*
X-24318399Y20458790D01*
X-24319000Y20446552D01*
X-24319000Y20253000D01*
X-25109315Y20253000D01*
X-25136311Y20255659D01*
X-25140168Y20256039D01*
X-25179749Y20268046D01*
X-25179752Y20268047D01*
X-25216234Y20287547D01*
X-25241923Y20308628D01*
X-25262296Y20322242D01*
X-25284935Y20331618D01*
X-25321218Y20337000D01*
X-25388001Y20337000D01*
X-25412387Y20334598D01*
X-25435836Y20327485D01*
X-25457447Y20315934D01*
X-25476389Y20300389D01*
X-25491934Y20281447D01*
X-25503485Y20259836D01*
X-25510598Y20236387D01*
X-25513000Y20212001D01*
X-25513000Y19637000D01*
X-27065000Y19637000D01*
X-27065000Y20212001D01*
X-27067402Y20236387D01*
X-27074515Y20259836D01*
X-27086066Y20281447D01*
X-27101611Y20300389D01*
X-27120553Y20315934D01*
X-27142164Y20327485D01*
X-27165613Y20334598D01*
X-27189999Y20337000D01*
X-27256782Y20337000D01*
X-27281168Y20334598D01*
X-27304617Y20327485D01*
X-27336078Y20308628D01*
X-27361766Y20287547D01*
X-27398248Y20268047D01*
X-27398251Y20268046D01*
X-27437832Y20256039D01*
X-27441689Y20255659D01*
X-27468685Y20253000D01*
X-28259000Y20253000D01*
X-28259000Y20446552D01*
X-28259601Y20458790D01*
X-28260016Y20463000D01*
X-28259601Y20467210D01*
X-28259000Y20479448D01*
X-28259000Y20946552D01*
X-28259601Y20958790D01*
X-28260016Y20963000D01*
X-28259601Y20967210D01*
X-28259000Y20979448D01*
X-28259000Y21446552D01*
X-28259601Y21458790D01*
X-28260016Y21463000D01*
X-28259601Y21467210D01*
X-28259000Y21479448D01*
X-28259000Y21946552D01*
X-28259601Y21958790D01*
X-28260016Y21963000D01*
X-28259601Y21967210D01*
X-28259000Y21979448D01*
X-28259000Y22446552D01*
X-28259601Y22458790D01*
X-28260016Y22463000D01*
X-28259601Y22467210D01*
X-28259000Y22479448D01*
X-28259000Y22673000D01*
X-27468685Y22673000D01*
X-27441690Y22670341D01*
X-27437832Y22669961D01*
X-27398251Y22657954D01*
X-27398248Y22657953D01*
X-27361766Y22638453D01*
X-27336078Y22617372D01*
X-27315704Y22603758D01*
X-27293065Y22594382D01*
X-27256782Y22589000D01*
X-27189999Y22589000D01*
X-27165613Y22591402D01*
X-27142164Y22598515D01*
X-27120553Y22610066D01*
X-27101611Y22625611D01*
X-27086066Y22644553D01*
X-27074515Y22666164D01*
X-27067402Y22689613D01*
X-27065000Y22713999D01*
X-27065000Y23289000D01*
X-25513000Y23289000D01*
X-25513000Y22713999D01*
X-25513000Y22713999D01*
G37*
G36*
X-43931396Y21749653D02*
G01*
X-43894856Y21738568D01*
X-43861179Y21720567D01*
X-43831659Y21696341D01*
X-43807433Y21666821D01*
X-43789432Y21633144D01*
X-43778347Y21596604D01*
X-43774000Y21552462D01*
X-43774000Y20103538D01*
X-43778347Y20059396D01*
X-43789432Y20022856D01*
X-43807433Y19989179D01*
X-43831659Y19959659D01*
X-43861179Y19935433D01*
X-43894856Y19917432D01*
X-43931396Y19906347D01*
X-43975538Y19902000D01*
X-44924462Y19902000D01*
X-44968604Y19906347D01*
X-45005144Y19917432D01*
X-45038821Y19935433D01*
X-45068341Y19959659D01*
X-45092567Y19989179D01*
X-45110568Y20022856D01*
X-45121653Y20059396D01*
X-45126000Y20103538D01*
X-45126000Y21552462D01*
X-45121653Y21596604D01*
X-45110568Y21633144D01*
X-45092567Y21666821D01*
X-45068341Y21696341D01*
X-45038821Y21720567D01*
X-45005144Y21738568D01*
X-44968604Y21749653D01*
X-44924462Y21754000D01*
X-43975538Y21754000D01*
X-43931396Y21749653D01*
X-43931396Y21749653D01*
G37*
G36*
X-46731396Y21749653D02*
G01*
X-46694856Y21738568D01*
X-46661179Y21720567D01*
X-46631659Y21696341D01*
X-46607433Y21666821D01*
X-46589432Y21633144D01*
X-46578347Y21596604D01*
X-46574000Y21552462D01*
X-46574000Y20103538D01*
X-46578347Y20059396D01*
X-46589432Y20022856D01*
X-46607433Y19989179D01*
X-46631659Y19959659D01*
X-46661179Y19935433D01*
X-46694856Y19917432D01*
X-46731396Y19906347D01*
X-46775538Y19902000D01*
X-47724462Y19902000D01*
X-47768604Y19906347D01*
X-47805144Y19917432D01*
X-47838821Y19935433D01*
X-47868341Y19959659D01*
X-47892567Y19989179D01*
X-47910568Y20022856D01*
X-47921653Y20059396D01*
X-47926000Y20103538D01*
X-47926000Y21552462D01*
X-47921653Y21596604D01*
X-47910568Y21633144D01*
X-47892567Y21666821D01*
X-47868341Y21696341D01*
X-47838821Y21720567D01*
X-47805144Y21738568D01*
X-47768604Y21749653D01*
X-47724462Y21754000D01*
X-46775538Y21754000D01*
X-46731396Y21749653D01*
X-46731396Y21749653D01*
G37*
G36*
X-52467557Y21722481D02*
G01*
X-52401373Y21715963D01*
X-52231534Y21664443D01*
X-52231532Y21664442D01*
X-52174254Y21633826D01*
X-52075009Y21580778D01*
X-52040506Y21552462D01*
X-51937814Y21468186D01*
X-51885139Y21404000D01*
X-51825222Y21330991D01*
X-51741557Y21174466D01*
X-51690037Y21004627D01*
X-51672641Y20828000D01*
X-51690037Y20651373D01*
X-51740809Y20484000D01*
X-51741558Y20481532D01*
X-51757331Y20452024D01*
X-51825222Y20325009D01*
X-51854552Y20289271D01*
X-51937814Y20187814D01*
X-52020876Y20119648D01*
X-52075009Y20075222D01*
X-52231534Y19991557D01*
X-52401373Y19940037D01*
X-52467558Y19933518D01*
X-52533740Y19927000D01*
X-52622260Y19927000D01*
X-52688442Y19933518D01*
X-52754627Y19940037D01*
X-52924466Y19991557D01*
X-53080991Y20075222D01*
X-53135124Y20119648D01*
X-53218186Y20187814D01*
X-53301448Y20289271D01*
X-53330778Y20325009D01*
X-53398669Y20452024D01*
X-53414442Y20481532D01*
X-53415191Y20484000D01*
X-53465963Y20651373D01*
X-53483359Y20828000D01*
X-53465963Y21004627D01*
X-53414443Y21174466D01*
X-53330778Y21330991D01*
X-53270861Y21404000D01*
X-53218186Y21468186D01*
X-53115494Y21552462D01*
X-53080991Y21580778D01*
X-52981746Y21633826D01*
X-52924468Y21664442D01*
X-52924466Y21664443D01*
X-52754627Y21715963D01*
X-52688443Y21722481D01*
X-52622260Y21729000D01*
X-52533740Y21729000D01*
X-52467557Y21722481D01*
X-52467557Y21722481D01*
G37*
G36*
X-19701557Y22484481D02*
G01*
X-19635373Y22477963D01*
X-19465534Y22426443D01*
X-19309009Y22342778D01*
X-19303721Y22338438D01*
X-19171814Y22230186D01*
X-19112535Y22157953D01*
X-19059222Y22092991D01*
X-18975557Y21936466D01*
X-18924037Y21766627D01*
X-18906641Y21590000D01*
X-18924037Y21413373D01*
X-18975557Y21243534D01*
X-19059222Y21087009D01*
X-19076970Y21065383D01*
X-19171814Y20949814D01*
X-19254145Y20882248D01*
X-19309009Y20837222D01*
X-19309011Y20837221D01*
X-19460890Y20756039D01*
X-19465534Y20753557D01*
X-19635373Y20702037D01*
X-19701557Y20695519D01*
X-19767740Y20689000D01*
X-19856260Y20689000D01*
X-19922443Y20695519D01*
X-19988627Y20702037D01*
X-20158466Y20753557D01*
X-20163109Y20756039D01*
X-20314989Y20837221D01*
X-20314991Y20837222D01*
X-20369855Y20882248D01*
X-20452186Y20949814D01*
X-20547030Y21065383D01*
X-20564778Y21087009D01*
X-20648443Y21243534D01*
X-20699963Y21413373D01*
X-20717359Y21590000D01*
X-20699963Y21766627D01*
X-20648443Y21936466D01*
X-20564778Y22092991D01*
X-20511465Y22157953D01*
X-20452186Y22230186D01*
X-20320279Y22338438D01*
X-20314991Y22342778D01*
X-20158466Y22426443D01*
X-19988627Y22477963D01*
X-19922443Y22484481D01*
X-19856260Y22491000D01*
X-19767740Y22491000D01*
X-19701557Y22484481D01*
X-19701557Y22484481D01*
G37*
G36*
X-28883356Y22811213D02*
G01*
X-28846816Y22800128D01*
X-28813139Y22782127D01*
X-28783619Y22757901D01*
X-28759393Y22728381D01*
X-28741392Y22694704D01*
X-28730307Y22658164D01*
X-28725960Y22614022D01*
X-28725960Y21665098D01*
X-28730307Y21620956D01*
X-28741392Y21584416D01*
X-28759393Y21550739D01*
X-28783619Y21521219D01*
X-28813139Y21496993D01*
X-28846816Y21478992D01*
X-28883356Y21467907D01*
X-28927498Y21463560D01*
X-30376422Y21463560D01*
X-30420564Y21467907D01*
X-30457104Y21478992D01*
X-30490781Y21496993D01*
X-30520301Y21521219D01*
X-30544527Y21550739D01*
X-30562528Y21584416D01*
X-30573613Y21620956D01*
X-30577960Y21665098D01*
X-30577960Y22614022D01*
X-30573613Y22658164D01*
X-30562528Y22694704D01*
X-30544527Y22728381D01*
X-30520301Y22757901D01*
X-30490781Y22782127D01*
X-30457104Y22800128D01*
X-30420564Y22811213D01*
X-30376422Y22815560D01*
X-28927498Y22815560D01*
X-28883356Y22811213D01*
X-28883356Y22811213D01*
G37*
G36*
X-35275000Y21655000D02*
G01*
X-37877000Y21655000D01*
X-37877000Y23557000D01*
X-35275000Y23557000D01*
X-35275000Y21655000D01*
X-35275000Y21655000D01*
G37*
G36*
X-39275000Y21655000D02*
G01*
X-41877000Y21655000D01*
X-41877000Y23557000D01*
X-39275000Y23557000D01*
X-39275000Y21655000D01*
X-39275000Y21655000D01*
G37*
G36*
X-43836938Y24035819D02*
G01*
X-43802019Y24025226D01*
X-43769837Y24008024D01*
X-43741627Y23984873D01*
X-43718476Y23956663D01*
X-43701274Y23924481D01*
X-43690681Y23889562D01*
X-43686500Y23847105D01*
X-43686500Y22380895D01*
X-43690681Y22338438D01*
X-43701274Y22303519D01*
X-43718476Y22271337D01*
X-43741627Y22243127D01*
X-43769837Y22219976D01*
X-43802019Y22202774D01*
X-43836938Y22192181D01*
X-43879395Y22188000D01*
X-45020605Y22188000D01*
X-45063062Y22192181D01*
X-45097981Y22202774D01*
X-45130163Y22219976D01*
X-45158373Y22243127D01*
X-45181524Y22271337D01*
X-45198726Y22303519D01*
X-45209319Y22338438D01*
X-45213500Y22380895D01*
X-45213500Y23847105D01*
X-45209319Y23889562D01*
X-45198726Y23924481D01*
X-45181524Y23956663D01*
X-45158373Y23984873D01*
X-45130163Y24008024D01*
X-45097981Y24025226D01*
X-45063062Y24035819D01*
X-45020605Y24040000D01*
X-43879395Y24040000D01*
X-43836938Y24035819D01*
X-43836938Y24035819D01*
G37*
G36*
X-46811938Y24035819D02*
G01*
X-46777019Y24025226D01*
X-46744837Y24008024D01*
X-46716627Y23984873D01*
X-46693476Y23956663D01*
X-46676274Y23924481D01*
X-46665681Y23889562D01*
X-46661500Y23847105D01*
X-46661500Y22380895D01*
X-46665681Y22338438D01*
X-46676274Y22303519D01*
X-46693476Y22271337D01*
X-46716627Y22243127D01*
X-46744837Y22219976D01*
X-46777019Y22202774D01*
X-46811938Y22192181D01*
X-46854395Y22188000D01*
X-47995605Y22188000D01*
X-48038062Y22192181D01*
X-48072981Y22202774D01*
X-48105163Y22219976D01*
X-48133373Y22243127D01*
X-48156524Y22271337D01*
X-48173726Y22303519D01*
X-48184319Y22338438D01*
X-48188500Y22380895D01*
X-48188500Y23847105D01*
X-48184319Y23889562D01*
X-48173726Y23924481D01*
X-48156524Y23956663D01*
X-48133373Y23984873D01*
X-48105163Y24008024D01*
X-48072981Y24025226D01*
X-48038062Y24035819D01*
X-47995605Y24040000D01*
X-46854395Y24040000D01*
X-46811938Y24035819D01*
X-46811938Y24035819D01*
G37*
G36*
X-52467558Y24262482D02*
G01*
X-52401373Y24255963D01*
X-52231534Y24204443D01*
X-52075009Y24120778D01*
X-52039271Y24091448D01*
X-51937814Y24008186D01*
X-51854552Y23906729D01*
X-51825222Y23870991D01*
X-51741557Y23714466D01*
X-51690037Y23544627D01*
X-51672641Y23368000D01*
X-51690037Y23191373D01*
X-51741557Y23021534D01*
X-51825222Y22865009D01*
X-51854552Y22829271D01*
X-51937814Y22727814D01*
X-52012936Y22666164D01*
X-52075009Y22615222D01*
X-52231534Y22531557D01*
X-52401373Y22480037D01*
X-52467557Y22473519D01*
X-52533740Y22467000D01*
X-52622260Y22467000D01*
X-52688443Y22473519D01*
X-52754627Y22480037D01*
X-52924466Y22531557D01*
X-53080991Y22615222D01*
X-53143064Y22666164D01*
X-53218186Y22727814D01*
X-53301448Y22829271D01*
X-53330778Y22865009D01*
X-53414443Y23021534D01*
X-53465963Y23191373D01*
X-53483359Y23368000D01*
X-53465963Y23544627D01*
X-53414443Y23714466D01*
X-53330778Y23870991D01*
X-53301448Y23906729D01*
X-53218186Y24008186D01*
X-53116729Y24091448D01*
X-53080991Y24120778D01*
X-52924466Y24204443D01*
X-52754627Y24255963D01*
X-52688442Y24262482D01*
X-52622260Y24269000D01*
X-52533740Y24269000D01*
X-52467558Y24262482D01*
X-52467558Y24262482D01*
G37*
G36*
X-19701558Y25024482D02*
G01*
X-19635373Y25017963D01*
X-19465534Y24966443D01*
X-19309009Y24882778D01*
X-19273271Y24853448D01*
X-19171814Y24770186D01*
X-19096295Y24678164D01*
X-19059222Y24632991D01*
X-18975557Y24476466D01*
X-18924037Y24306627D01*
X-18906641Y24130000D01*
X-18924037Y23953373D01*
X-18975557Y23783534D01*
X-19059222Y23627009D01*
X-19088552Y23591271D01*
X-19171814Y23489814D01*
X-19273271Y23406552D01*
X-19309009Y23377222D01*
X-19465534Y23293557D01*
X-19635373Y23242037D01*
X-19701557Y23235519D01*
X-19767740Y23229000D01*
X-19856260Y23229000D01*
X-19922443Y23235519D01*
X-19988627Y23242037D01*
X-20158466Y23293557D01*
X-20314991Y23377222D01*
X-20350729Y23406552D01*
X-20452186Y23489814D01*
X-20535448Y23591271D01*
X-20564778Y23627009D01*
X-20648443Y23783534D01*
X-20699963Y23953373D01*
X-20717359Y24130000D01*
X-20699963Y24306627D01*
X-20648443Y24476466D01*
X-20564778Y24632991D01*
X-20527705Y24678164D01*
X-20452186Y24770186D01*
X-20350729Y24853448D01*
X-20314991Y24882778D01*
X-20158466Y24966443D01*
X-19988627Y25017963D01*
X-19922442Y25024482D01*
X-19856260Y25031000D01*
X-19767740Y25031000D01*
X-19701558Y25024482D01*
X-19701558Y25024482D01*
G37*
G36*
X-28873196Y24831213D02*
G01*
X-28836656Y24820128D01*
X-28802979Y24802127D01*
X-28773459Y24777901D01*
X-28749233Y24748381D01*
X-28731232Y24714704D01*
X-28720147Y24678164D01*
X-28715800Y24634022D01*
X-28715800Y23685098D01*
X-28720147Y23640956D01*
X-28731232Y23604416D01*
X-28749233Y23570739D01*
X-28773459Y23541219D01*
X-28802979Y23516993D01*
X-28836656Y23498992D01*
X-28873196Y23487907D01*
X-28917338Y23483560D01*
X-30366262Y23483560D01*
X-30410404Y23487907D01*
X-30446944Y23498992D01*
X-30480621Y23516993D01*
X-30510141Y23541219D01*
X-30534367Y23570739D01*
X-30552368Y23604416D01*
X-30563453Y23640956D01*
X-30567800Y23685098D01*
X-30567800Y24634022D01*
X-30563453Y24678164D01*
X-30552368Y24714704D01*
X-30534367Y24748381D01*
X-30510141Y24777901D01*
X-30480621Y24802127D01*
X-30446944Y24820128D01*
X-30410404Y24831213D01*
X-30366262Y24835560D01*
X-28917338Y24835560D01*
X-28873196Y24831213D01*
X-28873196Y24831213D01*
G37*
G36*
X-23335938Y26321819D02*
G01*
X-23301019Y26311226D01*
X-23268837Y26294024D01*
X-23240627Y26270873D01*
X-23217476Y26242663D01*
X-23200274Y26210481D01*
X-23189681Y26175562D01*
X-23185500Y26133105D01*
X-23185500Y24666895D01*
X-23189681Y24624438D01*
X-23200274Y24589519D01*
X-23217476Y24557337D01*
X-23240627Y24529127D01*
X-23268837Y24505976D01*
X-23301019Y24488774D01*
X-23335938Y24478181D01*
X-23378395Y24474000D01*
X-24519605Y24474000D01*
X-24562062Y24478181D01*
X-24596981Y24488774D01*
X-24629163Y24505976D01*
X-24657373Y24529127D01*
X-24680524Y24557337D01*
X-24697726Y24589519D01*
X-24708319Y24624438D01*
X-24712500Y24666895D01*
X-24712500Y26133105D01*
X-24708319Y26175562D01*
X-24697726Y26210481D01*
X-24680524Y26242663D01*
X-24657373Y26270873D01*
X-24629163Y26294024D01*
X-24596981Y26311226D01*
X-24562062Y26321819D01*
X-24519605Y26326000D01*
X-23378395Y26326000D01*
X-23335938Y26321819D01*
X-23335938Y26321819D01*
G37*
G36*
X-26310938Y26321819D02*
G01*
X-26276019Y26311226D01*
X-26243837Y26294024D01*
X-26215627Y26270873D01*
X-26192476Y26242663D01*
X-26175274Y26210481D01*
X-26164681Y26175562D01*
X-26160500Y26133105D01*
X-26160500Y24666895D01*
X-26164681Y24624438D01*
X-26175274Y24589519D01*
X-26192476Y24557337D01*
X-26215627Y24529127D01*
X-26243837Y24505976D01*
X-26276019Y24488774D01*
X-26310938Y24478181D01*
X-26353395Y24474000D01*
X-27494605Y24474000D01*
X-27537062Y24478181D01*
X-27571981Y24488774D01*
X-27604163Y24505976D01*
X-27632373Y24529127D01*
X-27655524Y24557337D01*
X-27672726Y24589519D01*
X-27683319Y24624438D01*
X-27687500Y24666895D01*
X-27687500Y26133105D01*
X-27683319Y26175562D01*
X-27672726Y26210481D01*
X-27655524Y26242663D01*
X-27632373Y26270873D01*
X-27604163Y26294024D01*
X-27571981Y26311226D01*
X-27537062Y26321819D01*
X-27494605Y26326000D01*
X-26353395Y26326000D01*
X-26310938Y26321819D01*
X-26310938Y26321819D01*
G37*
G36*
X-39483396Y26829653D02*
G01*
X-39446856Y26818568D01*
X-39413179Y26800567D01*
X-39383659Y26776341D01*
X-39359433Y26746821D01*
X-39341432Y26713144D01*
X-39330347Y26676604D01*
X-39326000Y26632462D01*
X-39326000Y25183538D01*
X-39330347Y25139396D01*
X-39341432Y25102856D01*
X-39359433Y25069179D01*
X-39383659Y25039659D01*
X-39413179Y25015433D01*
X-39446856Y24997432D01*
X-39483396Y24986347D01*
X-39527538Y24982000D01*
X-40476462Y24982000D01*
X-40520604Y24986347D01*
X-40557144Y24997432D01*
X-40590821Y25015433D01*
X-40620341Y25039659D01*
X-40644567Y25069179D01*
X-40662568Y25102856D01*
X-40673653Y25139396D01*
X-40678000Y25183538D01*
X-40678000Y26632462D01*
X-40673653Y26676604D01*
X-40662568Y26713144D01*
X-40644567Y26746821D01*
X-40620341Y26776341D01*
X-40590821Y26800567D01*
X-40557144Y26818568D01*
X-40520604Y26829653D01*
X-40476462Y26834000D01*
X-39527538Y26834000D01*
X-39483396Y26829653D01*
X-39483396Y26829653D01*
G37*
G36*
X-42283396Y26829653D02*
G01*
X-42246856Y26818568D01*
X-42213179Y26800567D01*
X-42183659Y26776341D01*
X-42159433Y26746821D01*
X-42141432Y26713144D01*
X-42130347Y26676604D01*
X-42126000Y26632462D01*
X-42126000Y25183538D01*
X-42130347Y25139396D01*
X-42141432Y25102856D01*
X-42159433Y25069179D01*
X-42183659Y25039659D01*
X-42213179Y25015433D01*
X-42246856Y24997432D01*
X-42283396Y24986347D01*
X-42327538Y24982000D01*
X-43276462Y24982000D01*
X-43320604Y24986347D01*
X-43357144Y24997432D01*
X-43390821Y25015433D01*
X-43420341Y25039659D01*
X-43444567Y25069179D01*
X-43462568Y25102856D01*
X-43473653Y25139396D01*
X-43478000Y25183538D01*
X-43478000Y26632462D01*
X-43473653Y26676604D01*
X-43462568Y26713144D01*
X-43444567Y26746821D01*
X-43420341Y26776341D01*
X-43390821Y26800567D01*
X-43357144Y26818568D01*
X-43320604Y26829653D01*
X-43276462Y26834000D01*
X-42327538Y26834000D01*
X-42283396Y26829653D01*
X-42283396Y26829653D01*
G37*
G36*
X-36825396Y26829653D02*
G01*
X-36788856Y26818568D01*
X-36755179Y26800567D01*
X-36725659Y26776341D01*
X-36701433Y26746821D01*
X-36683432Y26713144D01*
X-36672347Y26676604D01*
X-36668000Y26632462D01*
X-36668000Y25183538D01*
X-36672347Y25139396D01*
X-36683432Y25102856D01*
X-36701433Y25069179D01*
X-36725659Y25039659D01*
X-36755179Y25015433D01*
X-36788856Y24997432D01*
X-36825396Y24986347D01*
X-36869538Y24982000D01*
X-37818462Y24982000D01*
X-37862604Y24986347D01*
X-37899144Y24997432D01*
X-37932821Y25015433D01*
X-37962341Y25039659D01*
X-37986567Y25069179D01*
X-38004568Y25102856D01*
X-38015653Y25139396D01*
X-38020000Y25183538D01*
X-38020000Y26632462D01*
X-38015653Y26676604D01*
X-38004568Y26713144D01*
X-37986567Y26746821D01*
X-37962341Y26776341D01*
X-37932821Y26800567D01*
X-37899144Y26818568D01*
X-37862604Y26829653D01*
X-37818462Y26834000D01*
X-36869538Y26834000D01*
X-36825396Y26829653D01*
X-36825396Y26829653D01*
G37*
G36*
X-45455396Y26829653D02*
G01*
X-45418856Y26818568D01*
X-45385179Y26800567D01*
X-45355659Y26776341D01*
X-45331433Y26746821D01*
X-45313432Y26713144D01*
X-45302347Y26676604D01*
X-45298000Y26632462D01*
X-45298000Y25183538D01*
X-45302347Y25139396D01*
X-45313432Y25102856D01*
X-45331433Y25069179D01*
X-45355659Y25039659D01*
X-45385179Y25015433D01*
X-45418856Y24997432D01*
X-45455396Y24986347D01*
X-45499538Y24982000D01*
X-46448462Y24982000D01*
X-46492604Y24986347D01*
X-46529144Y24997432D01*
X-46562821Y25015433D01*
X-46592341Y25039659D01*
X-46616567Y25069179D01*
X-46634568Y25102856D01*
X-46645653Y25139396D01*
X-46650000Y25183538D01*
X-46650000Y26632462D01*
X-46645653Y26676604D01*
X-46634568Y26713144D01*
X-46616567Y26746821D01*
X-46592341Y26776341D01*
X-46562821Y26800567D01*
X-46529144Y26818568D01*
X-46492604Y26829653D01*
X-46448462Y26834000D01*
X-45499538Y26834000D01*
X-45455396Y26829653D01*
X-45455396Y26829653D01*
G37*
G36*
X-34025396Y26829653D02*
G01*
X-33988856Y26818568D01*
X-33955179Y26800567D01*
X-33925659Y26776341D01*
X-33901433Y26746821D01*
X-33883432Y26713144D01*
X-33872347Y26676604D01*
X-33868000Y26632462D01*
X-33868000Y25183538D01*
X-33872347Y25139396D01*
X-33883432Y25102856D01*
X-33901433Y25069179D01*
X-33925659Y25039659D01*
X-33955179Y25015433D01*
X-33988856Y24997432D01*
X-34025396Y24986347D01*
X-34069538Y24982000D01*
X-35018462Y24982000D01*
X-35062604Y24986347D01*
X-35099144Y24997432D01*
X-35132821Y25015433D01*
X-35162341Y25039659D01*
X-35186567Y25069179D01*
X-35204568Y25102856D01*
X-35215653Y25139396D01*
X-35220000Y25183538D01*
X-35220000Y26632462D01*
X-35215653Y26676604D01*
X-35204568Y26713144D01*
X-35186567Y26746821D01*
X-35162341Y26776341D01*
X-35132821Y26800567D01*
X-35099144Y26818568D01*
X-35062604Y26829653D01*
X-35018462Y26834000D01*
X-34069538Y26834000D01*
X-34025396Y26829653D01*
X-34025396Y26829653D01*
G37*
G36*
X-48255396Y26829653D02*
G01*
X-48218856Y26818568D01*
X-48185179Y26800567D01*
X-48155659Y26776341D01*
X-48131433Y26746821D01*
X-48113432Y26713144D01*
X-48102347Y26676604D01*
X-48098000Y26632462D01*
X-48098000Y25183538D01*
X-48102347Y25139396D01*
X-48113432Y25102856D01*
X-48131433Y25069179D01*
X-48155659Y25039659D01*
X-48185179Y25015433D01*
X-48218856Y24997432D01*
X-48255396Y24986347D01*
X-48299538Y24982000D01*
X-49248462Y24982000D01*
X-49292604Y24986347D01*
X-49329144Y24997432D01*
X-49362821Y25015433D01*
X-49392341Y25039659D01*
X-49416567Y25069179D01*
X-49434568Y25102856D01*
X-49445653Y25139396D01*
X-49450000Y25183538D01*
X-49450000Y26632462D01*
X-49445653Y26676604D01*
X-49434568Y26713144D01*
X-49416567Y26746821D01*
X-49392341Y26776341D01*
X-49362821Y26800567D01*
X-49329144Y26818568D01*
X-49292604Y26829653D01*
X-49248462Y26834000D01*
X-48299538Y26834000D01*
X-48255396Y26829653D01*
X-48255396Y26829653D01*
G37*
G36*
X-52467558Y26802482D02*
G01*
X-52401373Y26795963D01*
X-52231534Y26744443D01*
X-52075009Y26660778D01*
X-52040506Y26632462D01*
X-51937814Y26548186D01*
X-51886040Y26485098D01*
X-51825222Y26410991D01*
X-51825221Y26410989D01*
X-51759885Y26288756D01*
X-51741557Y26254466D01*
X-51690037Y26084627D01*
X-51672641Y25908000D01*
X-51690037Y25731373D01*
X-51741557Y25561534D01*
X-51825222Y25405009D01*
X-51854552Y25369271D01*
X-51937814Y25267814D01*
X-52020876Y25199648D01*
X-52075009Y25155222D01*
X-52231534Y25071557D01*
X-52401373Y25020037D01*
X-52467558Y25013518D01*
X-52533740Y25007000D01*
X-52622260Y25007000D01*
X-52688442Y25013518D01*
X-52754627Y25020037D01*
X-52924466Y25071557D01*
X-53080991Y25155222D01*
X-53135124Y25199648D01*
X-53218186Y25267814D01*
X-53301448Y25369271D01*
X-53330778Y25405009D01*
X-53414443Y25561534D01*
X-53465963Y25731373D01*
X-53483359Y25908000D01*
X-53465963Y26084627D01*
X-53414443Y26254466D01*
X-53396114Y26288756D01*
X-53330779Y26410989D01*
X-53330778Y26410991D01*
X-53269960Y26485098D01*
X-53218186Y26548186D01*
X-53115494Y26632462D01*
X-53080991Y26660778D01*
X-52924466Y26744443D01*
X-52754627Y26795963D01*
X-52688442Y26802482D01*
X-52622260Y26809000D01*
X-52533740Y26809000D01*
X-52467558Y26802482D01*
X-52467558Y26802482D01*
G37*
G36*
X-19701557Y27564481D02*
G01*
X-19635373Y27557963D01*
X-19465534Y27506443D01*
X-19309009Y27422778D01*
X-19303080Y27417912D01*
X-19171814Y27310186D01*
X-19088552Y27208729D01*
X-19059222Y27172991D01*
X-18975557Y27016466D01*
X-18924037Y26846627D01*
X-18906641Y26670000D01*
X-18924037Y26493373D01*
X-18975557Y26323534D01*
X-19059222Y26167009D01*
X-19088552Y26131271D01*
X-19171814Y26029814D01*
X-19273271Y25946552D01*
X-19309009Y25917222D01*
X-19465534Y25833557D01*
X-19635373Y25782037D01*
X-19701557Y25775519D01*
X-19767740Y25769000D01*
X-19856260Y25769000D01*
X-19922443Y25775519D01*
X-19988627Y25782037D01*
X-20158466Y25833557D01*
X-20314991Y25917222D01*
X-20350729Y25946552D01*
X-20452186Y26029814D01*
X-20535448Y26131271D01*
X-20564778Y26167009D01*
X-20648443Y26323534D01*
X-20699963Y26493373D01*
X-20717359Y26670000D01*
X-20699963Y26846627D01*
X-20648443Y27016466D01*
X-20564778Y27172991D01*
X-20535448Y27208729D01*
X-20452186Y27310186D01*
X-20320920Y27417912D01*
X-20314991Y27422778D01*
X-20158466Y27506443D01*
X-19988627Y27557963D01*
X-19922443Y27564481D01*
X-19856260Y27571000D01*
X-19767740Y27571000D01*
X-19701557Y27564481D01*
X-19701557Y27564481D01*
G37*
G36*
X-28873196Y27631213D02*
G01*
X-28836656Y27620128D01*
X-28802979Y27602127D01*
X-28773459Y27577901D01*
X-28749233Y27548381D01*
X-28731232Y27514704D01*
X-28720147Y27478164D01*
X-28715800Y27434022D01*
X-28715800Y26485098D01*
X-28720147Y26440956D01*
X-28731232Y26404416D01*
X-28749233Y26370739D01*
X-28773459Y26341219D01*
X-28802979Y26316993D01*
X-28836656Y26298992D01*
X-28873196Y26287907D01*
X-28917338Y26283560D01*
X-30366262Y26283560D01*
X-30410404Y26287907D01*
X-30446944Y26298992D01*
X-30480621Y26316993D01*
X-30510141Y26341219D01*
X-30534367Y26370739D01*
X-30552368Y26404416D01*
X-30563453Y26440956D01*
X-30567800Y26485098D01*
X-30567800Y27434022D01*
X-30563453Y27478164D01*
X-30552368Y27514704D01*
X-30534367Y27548381D01*
X-30510141Y27577901D01*
X-30480621Y27602127D01*
X-30446944Y27620128D01*
X-30410404Y27631213D01*
X-30366262Y27635560D01*
X-28917338Y27635560D01*
X-28873196Y27631213D01*
X-28873196Y27631213D01*
G37*
G36*
X-51677000Y27547000D02*
G01*
X-53479000Y27547000D01*
X-53479000Y29349000D01*
X-51677000Y29349000D01*
X-51677000Y27547000D01*
X-51677000Y27547000D01*
G37*
G36*
X-19701558Y30104482D02*
G01*
X-19635373Y30097963D01*
X-19465534Y30046443D01*
X-19309009Y29962778D01*
X-19273271Y29933448D01*
X-19171814Y29850186D01*
X-19095868Y29757644D01*
X-19059222Y29712991D01*
X-19059221Y29712989D01*
X-18981248Y29567114D01*
X-18975557Y29556466D01*
X-18924037Y29386627D01*
X-18906641Y29210000D01*
X-18924037Y29033373D01*
X-18975557Y28863534D01*
X-19059222Y28707009D01*
X-19088552Y28671271D01*
X-19171814Y28569814D01*
X-19273271Y28486552D01*
X-19309009Y28457222D01*
X-19465534Y28373557D01*
X-19635373Y28322037D01*
X-19701558Y28315518D01*
X-19767740Y28309000D01*
X-19856260Y28309000D01*
X-19922442Y28315518D01*
X-19988627Y28322037D01*
X-20158466Y28373557D01*
X-20314991Y28457222D01*
X-20350729Y28486552D01*
X-20452186Y28569814D01*
X-20535448Y28671271D01*
X-20564778Y28707009D01*
X-20648443Y28863534D01*
X-20699963Y29033373D01*
X-20717359Y29210000D01*
X-20699963Y29386627D01*
X-20648443Y29556466D01*
X-20642751Y29567114D01*
X-20564779Y29712989D01*
X-20564778Y29712991D01*
X-20528132Y29757644D01*
X-20452186Y29850186D01*
X-20350729Y29933448D01*
X-20314991Y29962778D01*
X-20158466Y30046443D01*
X-19988627Y30097963D01*
X-19922442Y30104482D01*
X-19856260Y30111000D01*
X-19767740Y30111000D01*
X-19701558Y30104482D01*
X-19701558Y30104482D01*
G37*
G36*
X-43084886Y29982389D02*
G01*
X-42985735Y29952312D01*
X-42894356Y29903469D01*
X-42814262Y29837738D01*
X-42748531Y29757644D01*
X-42699688Y29666265D01*
X-42669611Y29567114D01*
X-42659455Y29464000D01*
X-42669611Y29360886D01*
X-42699688Y29261735D01*
X-42748531Y29170356D01*
X-42814262Y29090262D01*
X-42894356Y29024531D01*
X-42985735Y28975688D01*
X-43084886Y28945611D01*
X-43162161Y28938000D01*
X-43513839Y28938000D01*
X-43591114Y28945611D01*
X-43690265Y28975688D01*
X-43781644Y29024531D01*
X-43861738Y29090262D01*
X-43927469Y29170356D01*
X-43976312Y29261735D01*
X-44006389Y29360886D01*
X-44016545Y29464000D01*
X-44006389Y29567114D01*
X-43976312Y29666265D01*
X-43927469Y29757644D01*
X-43861738Y29837738D01*
X-43781644Y29903469D01*
X-43690265Y29952312D01*
X-43591114Y29982389D01*
X-43513839Y29990000D01*
X-43162161Y29990000D01*
X-43084886Y29982389D01*
X-43084886Y29982389D01*
G37*
G36*
X-38084886Y29982389D02*
G01*
X-37985735Y29952312D01*
X-37894356Y29903469D01*
X-37814262Y29837738D01*
X-37748531Y29757644D01*
X-37699688Y29666265D01*
X-37669611Y29567114D01*
X-37659455Y29464000D01*
X-37669611Y29360886D01*
X-37699688Y29261735D01*
X-37748531Y29170356D01*
X-37814262Y29090262D01*
X-37894356Y29024531D01*
X-37985735Y28975688D01*
X-38084886Y28945611D01*
X-38162161Y28938000D01*
X-38513839Y28938000D01*
X-38591114Y28945611D01*
X-38690265Y28975688D01*
X-38781644Y29024531D01*
X-38861738Y29090262D01*
X-38927469Y29170356D01*
X-38976312Y29261735D01*
X-39006389Y29360886D01*
X-39016545Y29464000D01*
X-39006389Y29567114D01*
X-38976312Y29666265D01*
X-38927469Y29757644D01*
X-38861738Y29837738D01*
X-38781644Y29903469D01*
X-38690265Y29952312D01*
X-38591114Y29982389D01*
X-38513839Y29990000D01*
X-38162161Y29990000D01*
X-38084886Y29982389D01*
X-38084886Y29982389D01*
G37*
G36*
X-48883000Y30087000D02*
G01*
X-50685000Y30087000D01*
X-50685000Y31889000D01*
X-48883000Y31889000D01*
X-48883000Y30087000D01*
X-48883000Y30087000D01*
G37*
G36*
X-47133557Y31882481D02*
G01*
X-47067373Y31875963D01*
X-46897534Y31824443D01*
X-46741009Y31740778D01*
X-46709033Y31714536D01*
X-46603814Y31628186D01*
X-46531677Y31540285D01*
X-46491222Y31490991D01*
X-46407557Y31334466D01*
X-46356037Y31164627D01*
X-46338641Y30988000D01*
X-46356037Y30811373D01*
X-46407557Y30641534D01*
X-46491222Y30485009D01*
X-46520552Y30449271D01*
X-46603814Y30347814D01*
X-46705271Y30264552D01*
X-46741009Y30235222D01*
X-46897534Y30151557D01*
X-47067373Y30100037D01*
X-47133558Y30093518D01*
X-47199740Y30087000D01*
X-47288260Y30087000D01*
X-47354442Y30093518D01*
X-47420627Y30100037D01*
X-47590466Y30151557D01*
X-47746991Y30235222D01*
X-47782729Y30264552D01*
X-47884186Y30347814D01*
X-47967448Y30449271D01*
X-47996778Y30485009D01*
X-48080443Y30641534D01*
X-48131963Y30811373D01*
X-48149359Y30988000D01*
X-48131963Y31164627D01*
X-48080443Y31334466D01*
X-47996778Y31490991D01*
X-47956323Y31540285D01*
X-47884186Y31628186D01*
X-47778967Y31714536D01*
X-47746991Y31740778D01*
X-47590466Y31824443D01*
X-47420627Y31875963D01*
X-47354443Y31882481D01*
X-47288260Y31889000D01*
X-47199740Y31889000D01*
X-47133557Y31882481D01*
X-47133557Y31882481D01*
G37*
G36*
X-53737097Y33714925D02*
G01*
X-53509429Y33620622D01*
X-53304534Y33483715D01*
X-53130285Y33309466D01*
X-53130284Y33309464D01*
X-52993377Y33104569D01*
X-52929568Y32950519D01*
X-52899075Y32876903D01*
X-52851000Y32635213D01*
X-52851000Y32388787D01*
X-52899075Y32147097D01*
X-52993378Y31919429D01*
X-53130285Y31714534D01*
X-53304534Y31540285D01*
X-53509429Y31403378D01*
X-53509430Y31403377D01*
X-53509431Y31403377D01*
X-53737097Y31309075D01*
X-53978786Y31261000D01*
X-54225214Y31261000D01*
X-54466903Y31309075D01*
X-54694569Y31403377D01*
X-54694570Y31403377D01*
X-54694571Y31403378D01*
X-54899466Y31540285D01*
X-55073715Y31714534D01*
X-55210622Y31919429D01*
X-55304925Y32147097D01*
X-55353000Y32388787D01*
X-55353000Y32635213D01*
X-55304925Y32876903D01*
X-55274432Y32950519D01*
X-55210623Y33104569D01*
X-55073716Y33309464D01*
X-55073715Y33309466D01*
X-54899466Y33483715D01*
X-54694571Y33620622D01*
X-54466903Y33714925D01*
X-54225214Y33763000D01*
X-53978786Y33763000D01*
X-53737097Y33714925D01*
X-53737097Y33714925D01*
G37*
G36*
X-17923097Y33714925D02*
G01*
X-17695429Y33620622D01*
X-17490534Y33483715D01*
X-17316285Y33309466D01*
X-17316284Y33309464D01*
X-17179377Y33104569D01*
X-17115568Y32950519D01*
X-17085075Y32876903D01*
X-17037000Y32635213D01*
X-17037000Y32388787D01*
X-17085075Y32147097D01*
X-17179378Y31919429D01*
X-17316285Y31714534D01*
X-17490534Y31540285D01*
X-17695429Y31403378D01*
X-17695430Y31403377D01*
X-17695431Y31403377D01*
X-17923097Y31309075D01*
X-18164786Y31261000D01*
X-18411214Y31261000D01*
X-18652903Y31309075D01*
X-18880569Y31403377D01*
X-18880570Y31403377D01*
X-18880571Y31403378D01*
X-19085466Y31540285D01*
X-19259715Y31714534D01*
X-19396622Y31919429D01*
X-19490925Y32147097D01*
X-19539000Y32388787D01*
X-19539000Y32635213D01*
X-19490925Y32876903D01*
X-19460432Y32950519D01*
X-19396623Y33104569D01*
X-19259716Y33309464D01*
X-19259715Y33309466D01*
X-19085466Y33483715D01*
X-18880571Y33620622D01*
X-18652903Y33714925D01*
X-18411214Y33763000D01*
X-18164786Y33763000D01*
X-17923097Y33714925D01*
X-17923097Y33714925D01*
G37*
G36*
X-44229985Y32982027D02*
G01*
X-44126121Y32950521D01*
X-44098945Y32935995D01*
X-44030400Y32899357D01*
X-43946499Y32830501D01*
X-43877643Y32746600D01*
X-43841005Y32678055D01*
X-43826479Y32650879D01*
X-43794973Y32547015D01*
X-43787000Y32466067D01*
X-43787000Y31861933D01*
X-43794973Y31780985D01*
X-43826479Y31677121D01*
X-43877644Y31581400D01*
X-43946499Y31497499D01*
X-43954432Y31490989D01*
X-44030401Y31428643D01*
X-44077669Y31403378D01*
X-44126122Y31377479D01*
X-44229986Y31345973D01*
X-44338000Y31335334D01*
X-44446015Y31345973D01*
X-44549879Y31377479D01*
X-44598332Y31403378D01*
X-44645599Y31428643D01*
X-44658357Y31439113D01*
X-44729501Y31497499D01*
X-44798356Y31581400D01*
X-44849521Y31677122D01*
X-44881027Y31780986D01*
X-44889000Y31861934D01*
X-44889000Y32466067D01*
X-44881027Y32547015D01*
X-44849520Y32650879D01*
X-44849519Y32650882D01*
X-44798357Y32746599D01*
X-44729500Y32830501D01*
X-44645599Y32899357D01*
X-44577054Y32935995D01*
X-44549878Y32950521D01*
X-44446014Y32982027D01*
X-44338000Y32992666D01*
X-44229985Y32982027D01*
X-44229985Y32982027D01*
G37*
G36*
X-37229985Y32982027D02*
G01*
X-37126121Y32950521D01*
X-37098945Y32935995D01*
X-37030400Y32899357D01*
X-36946499Y32830501D01*
X-36877643Y32746600D01*
X-36841005Y32678055D01*
X-36826479Y32650879D01*
X-36794973Y32547015D01*
X-36787000Y32466067D01*
X-36787000Y31861933D01*
X-36794973Y31780985D01*
X-36826479Y31677121D01*
X-36877644Y31581400D01*
X-36946499Y31497499D01*
X-36954432Y31490989D01*
X-37030401Y31428643D01*
X-37077669Y31403378D01*
X-37126122Y31377479D01*
X-37229986Y31345973D01*
X-37338000Y31335334D01*
X-37446015Y31345973D01*
X-37549879Y31377479D01*
X-37598332Y31403378D01*
X-37645599Y31428643D01*
X-37658357Y31439113D01*
X-37729501Y31497499D01*
X-37798356Y31581400D01*
X-37849521Y31677122D01*
X-37881027Y31780986D01*
X-37889000Y31861934D01*
X-37889000Y32466067D01*
X-37881027Y32547015D01*
X-37849520Y32650879D01*
X-37849519Y32650882D01*
X-37798357Y32746599D01*
X-37729500Y32830501D01*
X-37645599Y32899357D01*
X-37577054Y32935995D01*
X-37549878Y32950521D01*
X-37446014Y32982027D01*
X-37338000Y32992666D01*
X-37229985Y32982027D01*
X-37229985Y32982027D01*
G37*
M02*
