G04 #@! TF.GenerationSoftware,KiCad,Pcbnew,(5.1.4)-1*
G04 #@! TF.CreationDate,2019-10-22T03:03:10-07:00*
G04 #@! TF.ProjectId,SAM_breakout_board,53414d5f-6272-4656-916b-6f75745f626f,rev?*
G04 #@! TF.SameCoordinates,PXd33a380PY5dfc8c0*
G04 #@! TF.FileFunction,Legend,Bot*
G04 #@! TF.FilePolarity,Positive*
%FSLAX46Y46*%
G04 Gerber Fmt 4.6, Leading zero omitted, Abs format (unit mm)*
G04 Created by KiCad (PCBNEW (5.1.4)-1) date 2019-10-22 03:03:10*
%MOMM*%
%LPD*%
G04 APERTURE LIST*
%ADD10C,0.100000*%
%ADD11C,0.150000*%
%ADD12C,0.050000*%
%ADD13C,0.120000*%
G04 APERTURE END LIST*
D10*
X-28360383Y33190155D02*
X-28288955Y33225869D01*
X-28253240Y33297298D01*
X-28253240Y33940155D01*
X-28646098Y33190155D02*
X-28646098Y33690155D01*
X-28646098Y33940155D02*
X-28610383Y33904440D01*
X-28646098Y33868726D01*
X-28681812Y33904440D01*
X-28646098Y33940155D01*
X-28646098Y33868726D01*
X-28896098Y33690155D02*
X-29181812Y33690155D01*
X-29003240Y33940155D02*
X-29003240Y33297298D01*
X-29038955Y33225869D01*
X-29110383Y33190155D01*
X-29181812Y33190155D01*
X-29324669Y33690155D02*
X-29610383Y33690155D01*
X-29431812Y33940155D02*
X-29431812Y33297298D01*
X-29467526Y33225869D01*
X-29538955Y33190155D01*
X-29610383Y33190155D01*
X-29967526Y33190155D02*
X-29896098Y33225869D01*
X-29860383Y33297298D01*
X-29860383Y33940155D01*
X-30538955Y33225869D02*
X-30467526Y33190155D01*
X-30324669Y33190155D01*
X-30253240Y33225869D01*
X-30217526Y33297298D01*
X-30217526Y33583012D01*
X-30253240Y33654440D01*
X-30324669Y33690155D01*
X-30467526Y33690155D01*
X-30538955Y33654440D01*
X-30574669Y33583012D01*
X-30574669Y33511583D01*
X-30217526Y33440155D01*
X-30717526Y33118726D02*
X-31288955Y33118726D01*
X-31788955Y33190155D02*
X-31788955Y33940155D01*
X-31788955Y33225869D02*
X-31717526Y33190155D01*
X-31574669Y33190155D01*
X-31503240Y33225869D01*
X-31467526Y33261583D01*
X-31431812Y33333012D01*
X-31431812Y33547298D01*
X-31467526Y33618726D01*
X-31503240Y33654440D01*
X-31574669Y33690155D01*
X-31717526Y33690155D01*
X-31788955Y33654440D01*
X-32431812Y33225869D02*
X-32360383Y33190155D01*
X-32217526Y33190155D01*
X-32146098Y33225869D01*
X-32110383Y33297298D01*
X-32110383Y33583012D01*
X-32146098Y33654440D01*
X-32217526Y33690155D01*
X-32360383Y33690155D01*
X-32431812Y33654440D01*
X-32467526Y33583012D01*
X-32467526Y33511583D01*
X-32110383Y33440155D01*
X-32717526Y33690155D02*
X-32896098Y33190155D01*
X-33074669Y33690155D01*
X-33360383Y33190155D02*
X-33360383Y33690155D01*
X-33360383Y33940155D02*
X-33324669Y33904440D01*
X-33360383Y33868726D01*
X-33396098Y33904440D01*
X-33360383Y33940155D01*
X-33360383Y33868726D01*
X-33824669Y33190155D02*
X-33753240Y33225869D01*
X-33717526Y33297298D01*
X-33717526Y33940155D01*
X-29324669Y32715155D02*
X-29574669Y31965155D01*
X-29824669Y32715155D01*
X-30467526Y31965155D02*
X-30038955Y31965155D01*
X-30253240Y31965155D02*
X-30253240Y32715155D01*
X-30181812Y32608012D01*
X-30110383Y32536583D01*
X-30038955Y32500869D01*
X-30788955Y32036583D02*
X-30824669Y32000869D01*
X-30788955Y31965155D01*
X-30753240Y32000869D01*
X-30788955Y32036583D01*
X-30788955Y31965155D01*
X-31288955Y32715155D02*
X-31360383Y32715155D01*
X-31431812Y32679440D01*
X-31467526Y32643726D01*
X-31503240Y32572298D01*
X-31538955Y32429440D01*
X-31538955Y32250869D01*
X-31503240Y32108012D01*
X-31467526Y32036583D01*
X-31431812Y32000869D01*
X-31360383Y31965155D01*
X-31288955Y31965155D01*
X-31217526Y32000869D01*
X-31181812Y32036583D01*
X-31146098Y32108012D01*
X-31110383Y32250869D01*
X-31110383Y32429440D01*
X-31146098Y32572298D01*
X-31181812Y32643726D01*
X-31217526Y32679440D01*
X-31288955Y32715155D01*
X-31860383Y32036583D02*
X-31896098Y32000869D01*
X-31860383Y31965155D01*
X-31824669Y32000869D01*
X-31860383Y32036583D01*
X-31860383Y31965155D01*
X-32360383Y32715155D02*
X-32431812Y32715155D01*
X-32503240Y32679440D01*
X-32538955Y32643726D01*
X-32574669Y32572298D01*
X-32610383Y32429440D01*
X-32610383Y32250869D01*
X-32574669Y32108012D01*
X-32538955Y32036583D01*
X-32503240Y32000869D01*
X-32431812Y31965155D01*
X-32360383Y31965155D01*
X-32288955Y32000869D01*
X-32253240Y32036583D01*
X-32217526Y32108012D01*
X-32181812Y32250869D01*
X-32181812Y32429440D01*
X-32217526Y32572298D01*
X-32253240Y32643726D01*
X-32288955Y32679440D01*
X-32360383Y32715155D01*
X-28360383Y30740155D02*
X-27931812Y30740155D01*
X-28146098Y30740155D02*
X-28146098Y31490155D01*
X-28074669Y31383012D01*
X-28003240Y31311583D01*
X-27931812Y31275869D01*
X-28824669Y31490155D02*
X-28896098Y31490155D01*
X-28967526Y31454440D01*
X-29003240Y31418726D01*
X-29038955Y31347298D01*
X-29074669Y31204440D01*
X-29074669Y31025869D01*
X-29038955Y30883012D01*
X-29003240Y30811583D01*
X-28967526Y30775869D01*
X-28896098Y30740155D01*
X-28824669Y30740155D01*
X-28753240Y30775869D01*
X-28717526Y30811583D01*
X-28681812Y30883012D01*
X-28646098Y31025869D01*
X-28646098Y31204440D01*
X-28681812Y31347298D01*
X-28717526Y31418726D01*
X-28753240Y31454440D01*
X-28824669Y31490155D01*
X-29396098Y30811583D02*
X-29431812Y30775869D01*
X-29396098Y30740155D01*
X-29360383Y30775869D01*
X-29396098Y30811583D01*
X-29396098Y30740155D01*
X-29717526Y31418726D02*
X-29753240Y31454440D01*
X-29824669Y31490155D01*
X-30003240Y31490155D01*
X-30074669Y31454440D01*
X-30110383Y31418726D01*
X-30146098Y31347298D01*
X-30146098Y31275869D01*
X-30110383Y31168726D01*
X-29681812Y30740155D01*
X-30146098Y30740155D01*
X-30431812Y31418726D02*
X-30467526Y31454440D01*
X-30538955Y31490155D01*
X-30717526Y31490155D01*
X-30788955Y31454440D01*
X-30824669Y31418726D01*
X-30860383Y31347298D01*
X-30860383Y31275869D01*
X-30824669Y31168726D01*
X-30396098Y30740155D01*
X-30860383Y30740155D01*
X-31181812Y30811583D02*
X-31217526Y30775869D01*
X-31181812Y30740155D01*
X-31146098Y30775869D01*
X-31181812Y30811583D01*
X-31181812Y30740155D01*
X-31503240Y31418726D02*
X-31538955Y31454440D01*
X-31610383Y31490155D01*
X-31788955Y31490155D01*
X-31860383Y31454440D01*
X-31896098Y31418726D01*
X-31931812Y31347298D01*
X-31931812Y31275869D01*
X-31896098Y31168726D01*
X-31467526Y30740155D01*
X-31931812Y30740155D01*
X-32396098Y31490155D02*
X-32467526Y31490155D01*
X-32538955Y31454440D01*
X-32574669Y31418726D01*
X-32610383Y31347298D01*
X-32646098Y31204440D01*
X-32646098Y31025869D01*
X-32610383Y30883012D01*
X-32574669Y30811583D01*
X-32538955Y30775869D01*
X-32467526Y30740155D01*
X-32396098Y30740155D01*
X-32324669Y30775869D01*
X-32288955Y30811583D01*
X-32253240Y30883012D01*
X-32217526Y31025869D01*
X-32217526Y31204440D01*
X-32253240Y31347298D01*
X-32288955Y31418726D01*
X-32324669Y31454440D01*
X-32396098Y31490155D01*
X-33360383Y30740155D02*
X-32931812Y30740155D01*
X-33146098Y30740155D02*
X-33146098Y31490155D01*
X-33074669Y31383012D01*
X-33003240Y31311583D01*
X-32931812Y31275869D01*
X-33717526Y30740155D02*
X-33860383Y30740155D01*
X-33931812Y30775869D01*
X-33967526Y30811583D01*
X-34038955Y30918726D01*
X-34074669Y31061583D01*
X-34074669Y31347298D01*
X-34038955Y31418726D01*
X-34003240Y31454440D01*
X-33931812Y31490155D01*
X-33788955Y31490155D01*
X-33717526Y31454440D01*
X-33681812Y31418726D01*
X-33646098Y31347298D01*
X-33646098Y31168726D01*
X-33681812Y31097298D01*
X-33717526Y31061583D01*
X-33788955Y31025869D01*
X-33931812Y31025869D01*
X-34003240Y31061583D01*
X-34038955Y31097298D01*
X-34074669Y31168726D01*
X-26574669Y29586583D02*
X-26538955Y29550869D01*
X-26431812Y29515155D01*
X-26360383Y29515155D01*
X-26253240Y29550869D01*
X-26181812Y29622298D01*
X-26146098Y29693726D01*
X-26110383Y29836583D01*
X-26110383Y29943726D01*
X-26146098Y30086583D01*
X-26181812Y30158012D01*
X-26253240Y30229440D01*
X-26360383Y30265155D01*
X-26431812Y30265155D01*
X-26538955Y30229440D01*
X-26574669Y30193726D01*
X-26896098Y29515155D02*
X-26896098Y30265155D01*
X-27217526Y29515155D02*
X-27217526Y29908012D01*
X-27181812Y29979440D01*
X-27110383Y30015155D01*
X-27003240Y30015155D01*
X-26931812Y29979440D01*
X-26896098Y29943726D01*
X-27574669Y29515155D02*
X-27574669Y30015155D01*
X-27574669Y29872298D02*
X-27610383Y29943726D01*
X-27646098Y29979440D01*
X-27717526Y30015155D01*
X-27788955Y30015155D01*
X-28038955Y29515155D02*
X-28038955Y30015155D01*
X-28038955Y30265155D02*
X-28003240Y30229440D01*
X-28038955Y30193726D01*
X-28074669Y30229440D01*
X-28038955Y30265155D01*
X-28038955Y30193726D01*
X-28360383Y29550869D02*
X-28431812Y29515155D01*
X-28574669Y29515155D01*
X-28646098Y29550869D01*
X-28681812Y29622298D01*
X-28681812Y29658012D01*
X-28646098Y29729440D01*
X-28574669Y29765155D01*
X-28467526Y29765155D01*
X-28396098Y29800869D01*
X-28360383Y29872298D01*
X-28360383Y29908012D01*
X-28396098Y29979440D01*
X-28467526Y30015155D01*
X-28574669Y30015155D01*
X-28646098Y29979440D01*
X-29788955Y30265155D02*
X-29788955Y29729440D01*
X-29753240Y29622298D01*
X-29681812Y29550869D01*
X-29574669Y29515155D01*
X-29503240Y29515155D01*
X-30253240Y29515155D02*
X-30181812Y29550869D01*
X-30146098Y29586583D01*
X-30110383Y29658012D01*
X-30110383Y29872298D01*
X-30146098Y29943726D01*
X-30181812Y29979440D01*
X-30253240Y30015155D01*
X-30360383Y30015155D01*
X-30431812Y29979440D01*
X-30467526Y29943726D01*
X-30503240Y29872298D01*
X-30503240Y29658012D01*
X-30467526Y29586583D01*
X-30431812Y29550869D01*
X-30360383Y29515155D01*
X-30253240Y29515155D01*
X-30824669Y29515155D02*
X-30824669Y30265155D01*
X-31146098Y29515155D02*
X-31146098Y29908012D01*
X-31110383Y29979440D01*
X-31038955Y30015155D01*
X-30931812Y30015155D01*
X-30860383Y29979440D01*
X-30824669Y29943726D01*
X-31503240Y30015155D02*
X-31503240Y29515155D01*
X-31503240Y29943726D02*
X-31538955Y29979440D01*
X-31610383Y30015155D01*
X-31717526Y30015155D01*
X-31788955Y29979440D01*
X-31824669Y29908012D01*
X-31824669Y29515155D01*
X-32146098Y29550869D02*
X-32217526Y29515155D01*
X-32360383Y29515155D01*
X-32431812Y29550869D01*
X-32467526Y29622298D01*
X-32467526Y29658012D01*
X-32431812Y29729440D01*
X-32360383Y29765155D01*
X-32253240Y29765155D01*
X-32181812Y29800869D01*
X-32146098Y29872298D01*
X-32146098Y29908012D01*
X-32181812Y29979440D01*
X-32253240Y30015155D01*
X-32360383Y30015155D01*
X-32431812Y29979440D01*
X-32896098Y29515155D02*
X-32824669Y29550869D01*
X-32788955Y29586583D01*
X-32753240Y29658012D01*
X-32753240Y29872298D01*
X-32788955Y29943726D01*
X-32824669Y29979440D01*
X-32896098Y30015155D01*
X-33003240Y30015155D01*
X-33074669Y29979440D01*
X-33110383Y29943726D01*
X-33146098Y29872298D01*
X-33146098Y29658012D01*
X-33110383Y29586583D01*
X-33074669Y29550869D01*
X-33003240Y29515155D01*
X-32896098Y29515155D01*
X-33467526Y30015155D02*
X-33467526Y29515155D01*
X-33467526Y29943726D02*
X-33503240Y29979440D01*
X-33574669Y30015155D01*
X-33681812Y30015155D01*
X-33753240Y29979440D01*
X-33788955Y29908012D01*
X-33788955Y29515155D01*
X-35324669Y29515155D02*
X-35288955Y29515155D01*
X-35217526Y29550869D01*
X-35110383Y29658012D01*
X-34931812Y29872298D01*
X-34860383Y29979440D01*
X-34824669Y30086583D01*
X-34824669Y30158012D01*
X-34860383Y30229440D01*
X-34931812Y30265155D01*
X-34967526Y30265155D01*
X-35038955Y30229440D01*
X-35074669Y30158012D01*
X-35074669Y30122298D01*
X-35038955Y30050869D01*
X-35003240Y30015155D01*
X-34788955Y29872298D01*
X-34753240Y29836583D01*
X-34717526Y29765155D01*
X-34717526Y29658012D01*
X-34753240Y29586583D01*
X-34788955Y29550869D01*
X-34860383Y29515155D01*
X-34967526Y29515155D01*
X-35038955Y29550869D01*
X-35074669Y29586583D01*
X-35181812Y29729440D01*
X-35217526Y29836583D01*
X-35217526Y29908012D01*
X-27699669Y29040155D02*
X-27699669Y28504440D01*
X-27663955Y28397298D01*
X-27592526Y28325869D01*
X-27485383Y28290155D01*
X-27413955Y28290155D01*
X-28163955Y28290155D02*
X-28092526Y28325869D01*
X-28056812Y28361583D01*
X-28021098Y28433012D01*
X-28021098Y28647298D01*
X-28056812Y28718726D01*
X-28092526Y28754440D01*
X-28163955Y28790155D01*
X-28271098Y28790155D01*
X-28342526Y28754440D01*
X-28378240Y28718726D01*
X-28413955Y28647298D01*
X-28413955Y28433012D01*
X-28378240Y28361583D01*
X-28342526Y28325869D01*
X-28271098Y28290155D01*
X-28163955Y28290155D01*
X-28735383Y28290155D02*
X-28735383Y29040155D01*
X-29056812Y28290155D02*
X-29056812Y28683012D01*
X-29021098Y28754440D01*
X-28949669Y28790155D01*
X-28842526Y28790155D01*
X-28771098Y28754440D01*
X-28735383Y28718726D01*
X-29413955Y28790155D02*
X-29413955Y28290155D01*
X-29413955Y28718726D02*
X-29449669Y28754440D01*
X-29521098Y28790155D01*
X-29628240Y28790155D01*
X-29699669Y28754440D01*
X-29735383Y28683012D01*
X-29735383Y28290155D01*
X-30592526Y29040155D02*
X-30771098Y28290155D01*
X-30913955Y28825869D01*
X-31056812Y28290155D01*
X-31235383Y29040155D01*
X-31521098Y28290155D02*
X-31521098Y28790155D01*
X-31521098Y29040155D02*
X-31485383Y29004440D01*
X-31521098Y28968726D01*
X-31556812Y29004440D01*
X-31521098Y29040155D01*
X-31521098Y28968726D01*
X-32199669Y28790155D02*
X-32199669Y28183012D01*
X-32163955Y28111583D01*
X-32128240Y28075869D01*
X-32056812Y28040155D01*
X-31949669Y28040155D01*
X-31878240Y28075869D01*
X-32199669Y28325869D02*
X-32128240Y28290155D01*
X-31985383Y28290155D01*
X-31913955Y28325869D01*
X-31878240Y28361583D01*
X-31842526Y28433012D01*
X-31842526Y28647298D01*
X-31878240Y28718726D01*
X-31913955Y28754440D01*
X-31985383Y28790155D01*
X-32128240Y28790155D01*
X-32199669Y28754440D01*
X-32878240Y28790155D02*
X-32878240Y28183012D01*
X-32842526Y28111583D01*
X-32806812Y28075869D01*
X-32735383Y28040155D01*
X-32628240Y28040155D01*
X-32556812Y28075869D01*
X-32878240Y28325869D02*
X-32806812Y28290155D01*
X-32663955Y28290155D01*
X-32592526Y28325869D01*
X-32556812Y28361583D01*
X-32521098Y28433012D01*
X-32521098Y28647298D01*
X-32556812Y28718726D01*
X-32592526Y28754440D01*
X-32663955Y28790155D01*
X-32806812Y28790155D01*
X-32878240Y28754440D01*
X-33235383Y28290155D02*
X-33235383Y28790155D01*
X-33235383Y29040155D02*
X-33199669Y29004440D01*
X-33235383Y28968726D01*
X-33271098Y29004440D01*
X-33235383Y29040155D01*
X-33235383Y28968726D01*
X-33592526Y28790155D02*
X-33592526Y28290155D01*
X-33592526Y28718726D02*
X-33628240Y28754440D01*
X-33699669Y28790155D01*
X-33806812Y28790155D01*
X-33878240Y28754440D01*
X-33913955Y28683012D01*
X-33913955Y28290155D01*
X-34235383Y28325869D02*
X-34306812Y28290155D01*
X-34449669Y28290155D01*
X-34521098Y28325869D01*
X-34556812Y28397298D01*
X-34556812Y28433012D01*
X-34521098Y28504440D01*
X-34449669Y28540155D01*
X-34342526Y28540155D01*
X-34271098Y28575869D01*
X-34235383Y28647298D01*
X-34235383Y28683012D01*
X-34271098Y28754440D01*
X-34342526Y28790155D01*
X-34449669Y28790155D01*
X-34521098Y28754440D01*
D11*
X-44627800Y14639540D02*
X-44627800Y14401444D01*
X-44389705Y14496682D02*
X-44627800Y14401444D01*
X-44865896Y14496682D01*
X-44484943Y14210968D02*
X-44627800Y14401444D01*
X-44770658Y14210968D01*
X-25059640Y23824180D02*
X-25059640Y23586084D01*
X-24821545Y23681322D02*
X-25059640Y23586084D01*
X-25297736Y23681322D01*
X-24916783Y23395608D02*
X-25059640Y23586084D01*
X-25202498Y23395608D01*
D10*
X-46159338Y10301210D02*
X-46159338Y10801210D01*
X-46373623Y10753591D02*
X-46397433Y10777400D01*
X-46445052Y10801210D01*
X-46564100Y10801210D01*
X-46611719Y10777400D01*
X-46635528Y10753591D01*
X-46659338Y10705972D01*
X-46659338Y10658353D01*
X-46635528Y10586924D01*
X-46349814Y10301210D01*
X-46659338Y10301210D01*
X-47159338Y10348829D02*
X-47135528Y10325020D01*
X-47064100Y10301210D01*
X-47016480Y10301210D01*
X-46945052Y10325020D01*
X-46897433Y10372639D01*
X-46873623Y10420258D01*
X-46849814Y10515496D01*
X-46849814Y10586924D01*
X-46873623Y10682162D01*
X-46897433Y10729781D01*
X-46945052Y10777400D01*
X-47016480Y10801210D01*
X-47064100Y10801210D01*
X-47135528Y10777400D01*
X-47159338Y10753591D01*
X-47373623Y10348829D02*
X-47397433Y10325020D01*
X-47373623Y10301210D01*
X-47349814Y10325020D01*
X-47373623Y10348829D01*
X-47373623Y10301210D01*
X-47373623Y10610734D02*
X-47397433Y10586924D01*
X-47373623Y10563115D01*
X-47349814Y10586924D01*
X-47373623Y10610734D01*
X-47373623Y10563115D01*
X-42766480Y9451210D02*
X-42766480Y9951210D01*
X-42956957Y9951210D01*
X-43004576Y9927400D01*
X-43028385Y9903591D01*
X-43052195Y9855972D01*
X-43052195Y9784543D01*
X-43028385Y9736924D01*
X-43004576Y9713115D01*
X-42956957Y9689305D01*
X-42766480Y9689305D01*
X-43242671Y9594067D02*
X-43480766Y9594067D01*
X-43195052Y9451210D02*
X-43361719Y9951210D01*
X-43528385Y9451210D01*
X-43790290Y9951210D02*
X-43837909Y9951210D01*
X-43885528Y9927400D01*
X-43909338Y9903591D01*
X-43933147Y9855972D01*
X-43956957Y9760734D01*
X-43956957Y9641686D01*
X-43933147Y9546448D01*
X-43909338Y9498829D01*
X-43885528Y9475020D01*
X-43837909Y9451210D01*
X-43790290Y9451210D01*
X-43742671Y9475020D01*
X-43718861Y9498829D01*
X-43695052Y9546448D01*
X-43671242Y9641686D01*
X-43671242Y9760734D01*
X-43695052Y9855972D01*
X-43718861Y9903591D01*
X-43742671Y9927400D01*
X-43790290Y9951210D01*
X-44242671Y9736924D02*
X-44195052Y9760734D01*
X-44171242Y9784543D01*
X-44147433Y9832162D01*
X-44147433Y9855972D01*
X-44171242Y9903591D01*
X-44195052Y9927400D01*
X-44242671Y9951210D01*
X-44337909Y9951210D01*
X-44385528Y9927400D01*
X-44409338Y9903591D01*
X-44433147Y9855972D01*
X-44433147Y9832162D01*
X-44409338Y9784543D01*
X-44385528Y9760734D01*
X-44337909Y9736924D01*
X-44242671Y9736924D01*
X-44195052Y9713115D01*
X-44171242Y9689305D01*
X-44147433Y9641686D01*
X-44147433Y9546448D01*
X-44171242Y9498829D01*
X-44195052Y9475020D01*
X-44242671Y9451210D01*
X-44337909Y9451210D01*
X-44385528Y9475020D01*
X-44409338Y9498829D01*
X-44433147Y9546448D01*
X-44433147Y9641686D01*
X-44409338Y9689305D01*
X-44385528Y9713115D01*
X-44337909Y9736924D01*
X-44671242Y9475020D02*
X-44671242Y9451210D01*
X-44647433Y9403591D01*
X-44623623Y9379781D01*
X-44885528Y9451210D02*
X-44885528Y9951210D01*
X-45076004Y9951210D01*
X-45123623Y9927400D01*
X-45147433Y9903591D01*
X-45171242Y9855972D01*
X-45171242Y9784543D01*
X-45147433Y9736924D01*
X-45123623Y9713115D01*
X-45076004Y9689305D01*
X-44885528Y9689305D01*
X-45361719Y9594067D02*
X-45599814Y9594067D01*
X-45314100Y9451210D02*
X-45480766Y9951210D01*
X-45647433Y9451210D01*
X-45909338Y9951210D02*
X-45956957Y9951210D01*
X-46004576Y9927400D01*
X-46028385Y9903591D01*
X-46052195Y9855972D01*
X-46076004Y9760734D01*
X-46076004Y9641686D01*
X-46052195Y9546448D01*
X-46028385Y9498829D01*
X-46004576Y9475020D01*
X-45956957Y9451210D01*
X-45909338Y9451210D01*
X-45861719Y9475020D01*
X-45837909Y9498829D01*
X-45814100Y9546448D01*
X-45790290Y9641686D01*
X-45790290Y9760734D01*
X-45814100Y9855972D01*
X-45837909Y9903591D01*
X-45861719Y9927400D01*
X-45909338Y9951210D01*
X-46314100Y9451210D02*
X-46409338Y9451210D01*
X-46456957Y9475020D01*
X-46480766Y9498829D01*
X-46528385Y9570258D01*
X-46552195Y9665496D01*
X-46552195Y9855972D01*
X-46528385Y9903591D01*
X-46504576Y9927400D01*
X-46456957Y9951210D01*
X-46361719Y9951210D01*
X-46314100Y9927400D01*
X-46290290Y9903591D01*
X-46266480Y9855972D01*
X-46266480Y9736924D01*
X-46290290Y9689305D01*
X-46314100Y9665496D01*
X-46361719Y9641686D01*
X-46456957Y9641686D01*
X-46504576Y9665496D01*
X-46528385Y9689305D01*
X-46552195Y9736924D01*
X-46790290Y9475020D02*
X-46790290Y9451210D01*
X-46766480Y9403591D01*
X-46742671Y9379781D01*
X-47004576Y9451210D02*
X-47004576Y9951210D01*
X-47195052Y9951210D01*
X-47242671Y9927400D01*
X-47266480Y9903591D01*
X-47290290Y9855972D01*
X-47290290Y9784543D01*
X-47266480Y9736924D01*
X-47242671Y9713115D01*
X-47195052Y9689305D01*
X-47004576Y9689305D01*
X-47480766Y9594067D02*
X-47718861Y9594067D01*
X-47433147Y9451210D02*
X-47599814Y9951210D01*
X-47766480Y9451210D01*
X-48195052Y9451210D02*
X-47909338Y9451210D01*
X-48052195Y9451210D02*
X-48052195Y9951210D01*
X-48004576Y9879781D01*
X-47956957Y9832162D01*
X-47909338Y9808353D01*
X-48385528Y9903591D02*
X-48409338Y9927400D01*
X-48456957Y9951210D01*
X-48576004Y9951210D01*
X-48623623Y9927400D01*
X-48647433Y9903591D01*
X-48671242Y9855972D01*
X-48671242Y9808353D01*
X-48647433Y9736924D01*
X-48361719Y9451210D01*
X-48671242Y9451210D01*
X-48909338Y9475020D02*
X-48909338Y9451210D01*
X-48885528Y9403591D01*
X-48861719Y9379781D01*
X-49123623Y9451210D02*
X-49123623Y9951210D01*
X-49314100Y9951210D01*
X-49361719Y9927400D01*
X-49385528Y9903591D01*
X-49409338Y9855972D01*
X-49409338Y9784543D01*
X-49385528Y9736924D01*
X-49361719Y9713115D01*
X-49314100Y9689305D01*
X-49123623Y9689305D01*
X-49599814Y9594067D02*
X-49837909Y9594067D01*
X-49552195Y9451210D02*
X-49718861Y9951210D01*
X-49885528Y9451210D01*
X-50314100Y9451210D02*
X-50028385Y9451210D01*
X-50171242Y9451210D02*
X-50171242Y9951210D01*
X-50123623Y9879781D01*
X-50076004Y9832162D01*
X-50028385Y9808353D01*
X-50480766Y9951210D02*
X-50790290Y9951210D01*
X-50623623Y9760734D01*
X-50695052Y9760734D01*
X-50742671Y9736924D01*
X-50766480Y9713115D01*
X-50790290Y9665496D01*
X-50790290Y9546448D01*
X-50766480Y9498829D01*
X-50742671Y9475020D01*
X-50695052Y9451210D01*
X-50552195Y9451210D01*
X-50504576Y9475020D01*
X-50480766Y9498829D01*
X-42766480Y8601210D02*
X-42766480Y9101210D01*
X-42956957Y9101210D01*
X-43004576Y9077400D01*
X-43028385Y9053591D01*
X-43052195Y9005972D01*
X-43052195Y8934543D01*
X-43028385Y8886924D01*
X-43004576Y8863115D01*
X-42956957Y8839305D01*
X-42766480Y8839305D01*
X-43242671Y8744067D02*
X-43480766Y8744067D01*
X-43195052Y8601210D02*
X-43361719Y9101210D01*
X-43528385Y8601210D01*
X-43956957Y8601210D02*
X-43671242Y8601210D01*
X-43814100Y8601210D02*
X-43814100Y9101210D01*
X-43766480Y9029781D01*
X-43718861Y8982162D01*
X-43671242Y8958353D01*
X-44385528Y9101210D02*
X-44290290Y9101210D01*
X-44242671Y9077400D01*
X-44218861Y9053591D01*
X-44171242Y8982162D01*
X-44147433Y8886924D01*
X-44147433Y8696448D01*
X-44171242Y8648829D01*
X-44195052Y8625020D01*
X-44242671Y8601210D01*
X-44337909Y8601210D01*
X-44385528Y8625020D01*
X-44409338Y8648829D01*
X-44433147Y8696448D01*
X-44433147Y8815496D01*
X-44409338Y8863115D01*
X-44385528Y8886924D01*
X-44337909Y8910734D01*
X-44242671Y8910734D01*
X-44195052Y8886924D01*
X-44171242Y8863115D01*
X-44147433Y8815496D01*
X-44671242Y8625020D02*
X-44671242Y8601210D01*
X-44647433Y8553591D01*
X-44623623Y8529781D01*
X-44885528Y8601210D02*
X-44885528Y9101210D01*
X-45076004Y9101210D01*
X-45123623Y9077400D01*
X-45147433Y9053591D01*
X-45171242Y9005972D01*
X-45171242Y8934543D01*
X-45147433Y8886924D01*
X-45123623Y8863115D01*
X-45076004Y8839305D01*
X-44885528Y8839305D01*
X-45361719Y8744067D02*
X-45599814Y8744067D01*
X-45314100Y8601210D02*
X-45480766Y9101210D01*
X-45647433Y8601210D01*
X-46076004Y8601210D02*
X-45790290Y8601210D01*
X-45933147Y8601210D02*
X-45933147Y9101210D01*
X-45885528Y9029781D01*
X-45837909Y8982162D01*
X-45790290Y8958353D01*
X-46242671Y9101210D02*
X-46576004Y9101210D01*
X-46361719Y8601210D01*
X-46790290Y8625020D02*
X-46790290Y8601210D01*
X-46766480Y8553591D01*
X-46742671Y8529781D01*
X-47004576Y8601210D02*
X-47004576Y9101210D01*
X-47195052Y9101210D01*
X-47242671Y9077400D01*
X-47266480Y9053591D01*
X-47290290Y9005972D01*
X-47290290Y8934543D01*
X-47266480Y8886924D01*
X-47242671Y8863115D01*
X-47195052Y8839305D01*
X-47004576Y8839305D01*
X-47480766Y8744067D02*
X-47718861Y8744067D01*
X-47433147Y8601210D02*
X-47599814Y9101210D01*
X-47766480Y8601210D01*
X-47909338Y9053591D02*
X-47933147Y9077400D01*
X-47980766Y9101210D01*
X-48099814Y9101210D01*
X-48147433Y9077400D01*
X-48171242Y9053591D01*
X-48195052Y9005972D01*
X-48195052Y8958353D01*
X-48171242Y8886924D01*
X-47885528Y8601210D01*
X-48195052Y8601210D01*
X-48385528Y9053591D02*
X-48409338Y9077400D01*
X-48456957Y9101210D01*
X-48576004Y9101210D01*
X-48623623Y9077400D01*
X-48647433Y9053591D01*
X-48671242Y9005972D01*
X-48671242Y8958353D01*
X-48647433Y8886924D01*
X-48361719Y8601210D01*
X-48671242Y8601210D01*
X-48909338Y8625020D02*
X-48909338Y8601210D01*
X-48885528Y8553591D01*
X-48861719Y8529781D01*
X-49123623Y8601210D02*
X-49123623Y9101210D01*
X-49314100Y9101210D01*
X-49361719Y9077400D01*
X-49385528Y9053591D01*
X-49409338Y9005972D01*
X-49409338Y8934543D01*
X-49385528Y8886924D01*
X-49361719Y8863115D01*
X-49314100Y8839305D01*
X-49123623Y8839305D01*
X-49599814Y8744067D02*
X-49837909Y8744067D01*
X-49552195Y8601210D02*
X-49718861Y9101210D01*
X-49885528Y8601210D01*
X-50028385Y9053591D02*
X-50052195Y9077400D01*
X-50099814Y9101210D01*
X-50218861Y9101210D01*
X-50266480Y9077400D01*
X-50290290Y9053591D01*
X-50314100Y9005972D01*
X-50314100Y8958353D01*
X-50290290Y8886924D01*
X-50004576Y8601210D01*
X-50314100Y8601210D01*
X-50480766Y9101210D02*
X-50790290Y9101210D01*
X-50623623Y8910734D01*
X-50695052Y8910734D01*
X-50742671Y8886924D01*
X-50766480Y8863115D01*
X-50790290Y8815496D01*
X-50790290Y8696448D01*
X-50766480Y8648829D01*
X-50742671Y8625020D01*
X-50695052Y8601210D01*
X-50552195Y8601210D01*
X-50504576Y8625020D01*
X-50480766Y8648829D01*
D12*
X-56642000Y-6350000D02*
X-56642000Y35052000D01*
X-15748000Y-6350000D02*
X-56642000Y-6350000D01*
X-15748000Y35052000D02*
X-15748000Y-6350000D01*
X-56642000Y35052000D02*
X-15748000Y35052000D01*
D13*
X-51562000Y-1016000D02*
X-51562000Y-2286000D01*
X-50292000Y-1016000D02*
X-51562000Y-1016000D01*
X-21972000Y-3328929D02*
X-21972000Y-3726000D01*
X-22732000Y-3328929D02*
X-22732000Y-3726000D01*
X-21972000Y-12386000D02*
X-21972000Y-6386000D01*
X-22732000Y-12386000D02*
X-21972000Y-12386000D01*
X-22732000Y-6386000D02*
X-22732000Y-12386000D01*
X-23622000Y-3726000D02*
X-23622000Y-6386000D01*
X-24512000Y-3328929D02*
X-24512000Y-3726000D01*
X-25272000Y-3328929D02*
X-25272000Y-3726000D01*
X-24512000Y-12386000D02*
X-24512000Y-6386000D01*
X-25272000Y-12386000D02*
X-24512000Y-12386000D01*
X-25272000Y-6386000D02*
X-25272000Y-12386000D01*
X-26162000Y-3726000D02*
X-26162000Y-6386000D01*
X-27052000Y-3328929D02*
X-27052000Y-3726000D01*
X-27812000Y-3328929D02*
X-27812000Y-3726000D01*
X-27052000Y-12386000D02*
X-27052000Y-6386000D01*
X-27812000Y-12386000D02*
X-27052000Y-12386000D01*
X-27812000Y-6386000D02*
X-27812000Y-12386000D01*
X-28702000Y-3726000D02*
X-28702000Y-6386000D01*
X-29592000Y-3328929D02*
X-29592000Y-3726000D01*
X-30352000Y-3328929D02*
X-30352000Y-3726000D01*
X-29592000Y-12386000D02*
X-29592000Y-6386000D01*
X-30352000Y-12386000D02*
X-29592000Y-12386000D01*
X-30352000Y-6386000D02*
X-30352000Y-12386000D01*
X-31242000Y-3726000D02*
X-31242000Y-6386000D01*
X-32132000Y-3328929D02*
X-32132000Y-3726000D01*
X-32892000Y-3328929D02*
X-32892000Y-3726000D01*
X-32132000Y-12386000D02*
X-32132000Y-6386000D01*
X-32892000Y-12386000D02*
X-32132000Y-12386000D01*
X-32892000Y-6386000D02*
X-32892000Y-12386000D01*
X-33782000Y-3726000D02*
X-33782000Y-6386000D01*
X-34672000Y-3328929D02*
X-34672000Y-3726000D01*
X-35432000Y-3328929D02*
X-35432000Y-3726000D01*
X-34672000Y-12386000D02*
X-34672000Y-6386000D01*
X-35432000Y-12386000D02*
X-34672000Y-12386000D01*
X-35432000Y-6386000D02*
X-35432000Y-12386000D01*
X-36322000Y-3726000D02*
X-36322000Y-6386000D01*
X-37212000Y-3328929D02*
X-37212000Y-3726000D01*
X-37972000Y-3328929D02*
X-37972000Y-3726000D01*
X-37212000Y-12386000D02*
X-37212000Y-6386000D01*
X-37972000Y-12386000D02*
X-37212000Y-12386000D01*
X-37972000Y-6386000D02*
X-37972000Y-12386000D01*
X-38862000Y-3726000D02*
X-38862000Y-6386000D01*
X-39752000Y-3328929D02*
X-39752000Y-3726000D01*
X-40512000Y-3328929D02*
X-40512000Y-3726000D01*
X-39752000Y-12386000D02*
X-39752000Y-6386000D01*
X-40512000Y-12386000D02*
X-39752000Y-12386000D01*
X-40512000Y-6386000D02*
X-40512000Y-12386000D01*
X-41402000Y-3726000D02*
X-41402000Y-6386000D01*
X-42292000Y-3328929D02*
X-42292000Y-3726000D01*
X-43052000Y-3328929D02*
X-43052000Y-3726000D01*
X-42292000Y-12386000D02*
X-42292000Y-6386000D01*
X-43052000Y-12386000D02*
X-42292000Y-12386000D01*
X-43052000Y-6386000D02*
X-43052000Y-12386000D01*
X-43942000Y-3726000D02*
X-43942000Y-6386000D01*
X-44832000Y-3328929D02*
X-44832000Y-3726000D01*
X-45592000Y-3328929D02*
X-45592000Y-3726000D01*
X-44832000Y-12386000D02*
X-44832000Y-6386000D01*
X-45592000Y-12386000D02*
X-44832000Y-12386000D01*
X-45592000Y-6386000D02*
X-45592000Y-12386000D01*
X-46482000Y-3726000D02*
X-46482000Y-6386000D01*
X-47372000Y-3328929D02*
X-47372000Y-3726000D01*
X-48132000Y-3328929D02*
X-48132000Y-3726000D01*
X-47372000Y-12386000D02*
X-47372000Y-6386000D01*
X-48132000Y-12386000D02*
X-47372000Y-12386000D01*
X-48132000Y-6386000D02*
X-48132000Y-12386000D01*
X-49022000Y-3726000D02*
X-49022000Y-6386000D01*
X-49912000Y-3396000D02*
X-49912000Y-3726000D01*
X-50672000Y-3396000D02*
X-50672000Y-3726000D01*
X-50012000Y-6386000D02*
X-50012000Y-12386000D01*
X-50132000Y-6386000D02*
X-50132000Y-12386000D01*
X-50252000Y-6386000D02*
X-50252000Y-12386000D01*
X-50372000Y-6386000D02*
X-50372000Y-12386000D01*
X-50492000Y-6386000D02*
X-50492000Y-12386000D01*
X-50612000Y-6386000D02*
X-50612000Y-12386000D01*
X-49912000Y-12386000D02*
X-49912000Y-6386000D01*
X-50672000Y-12386000D02*
X-49912000Y-12386000D01*
X-50672000Y-6386000D02*
X-50672000Y-12386000D01*
X-51622000Y-6386000D02*
X-51622000Y-3726000D01*
X-21022000Y-6386000D02*
X-51622000Y-6386000D01*
X-21022000Y-3726000D02*
X-21022000Y-6386000D01*
X-51622000Y-3726000D02*
X-21022000Y-3726000D01*
X-21082000Y0D02*
X-19812000Y0D01*
X-21082000Y1270000D02*
X-21082000Y0D01*
X-18769071Y29590000D02*
X-18372000Y29590000D01*
X-18769071Y28830000D02*
X-18372000Y28830000D01*
X-9712000Y29590000D02*
X-15712000Y29590000D01*
X-9712000Y28830000D02*
X-9712000Y29590000D01*
X-15712000Y28830000D02*
X-9712000Y28830000D01*
X-18372000Y27940000D02*
X-15712000Y27940000D01*
X-18769071Y27050000D02*
X-18372000Y27050000D01*
X-18769071Y26290000D02*
X-18372000Y26290000D01*
X-9712000Y27050000D02*
X-15712000Y27050000D01*
X-9712000Y26290000D02*
X-9712000Y27050000D01*
X-15712000Y26290000D02*
X-9712000Y26290000D01*
X-18372000Y25400000D02*
X-15712000Y25400000D01*
X-18769071Y24510000D02*
X-18372000Y24510000D01*
X-18769071Y23750000D02*
X-18372000Y23750000D01*
X-9712000Y24510000D02*
X-15712000Y24510000D01*
X-9712000Y23750000D02*
X-9712000Y24510000D01*
X-15712000Y23750000D02*
X-9712000Y23750000D01*
X-18372000Y22860000D02*
X-15712000Y22860000D01*
X-18769071Y21970000D02*
X-18372000Y21970000D01*
X-18769071Y21210000D02*
X-18372000Y21210000D01*
X-9712000Y21970000D02*
X-15712000Y21970000D01*
X-9712000Y21210000D02*
X-9712000Y21970000D01*
X-15712000Y21210000D02*
X-9712000Y21210000D01*
X-18372000Y20320000D02*
X-15712000Y20320000D01*
X-18769071Y19430000D02*
X-18372000Y19430000D01*
X-18769071Y18670000D02*
X-18372000Y18670000D01*
X-9712000Y19430000D02*
X-15712000Y19430000D01*
X-9712000Y18670000D02*
X-9712000Y19430000D01*
X-15712000Y18670000D02*
X-9712000Y18670000D01*
X-18372000Y17780000D02*
X-15712000Y17780000D01*
X-18769071Y16890000D02*
X-18372000Y16890000D01*
X-18769071Y16130000D02*
X-18372000Y16130000D01*
X-9712000Y16890000D02*
X-15712000Y16890000D01*
X-9712000Y16130000D02*
X-9712000Y16890000D01*
X-15712000Y16130000D02*
X-9712000Y16130000D01*
X-18372000Y15240000D02*
X-15712000Y15240000D01*
X-18769071Y14350000D02*
X-18372000Y14350000D01*
X-18769071Y13590000D02*
X-18372000Y13590000D01*
X-9712000Y14350000D02*
X-15712000Y14350000D01*
X-9712000Y13590000D02*
X-9712000Y14350000D01*
X-15712000Y13590000D02*
X-9712000Y13590000D01*
X-18372000Y12700000D02*
X-15712000Y12700000D01*
X-18769071Y11810000D02*
X-18372000Y11810000D01*
X-18769071Y11050000D02*
X-18372000Y11050000D01*
X-9712000Y11810000D02*
X-15712000Y11810000D01*
X-9712000Y11050000D02*
X-9712000Y11810000D01*
X-15712000Y11050000D02*
X-9712000Y11050000D01*
X-18372000Y10160000D02*
X-15712000Y10160000D01*
X-18769071Y9270000D02*
X-18372000Y9270000D01*
X-18769071Y8510000D02*
X-18372000Y8510000D01*
X-9712000Y9270000D02*
X-15712000Y9270000D01*
X-9712000Y8510000D02*
X-9712000Y9270000D01*
X-15712000Y8510000D02*
X-9712000Y8510000D01*
X-18372000Y7620000D02*
X-15712000Y7620000D01*
X-18769071Y6730000D02*
X-18372000Y6730000D01*
X-18769071Y5970000D02*
X-18372000Y5970000D01*
X-9712000Y6730000D02*
X-15712000Y6730000D01*
X-9712000Y5970000D02*
X-9712000Y6730000D01*
X-15712000Y5970000D02*
X-9712000Y5970000D01*
X-18372000Y5080000D02*
X-15712000Y5080000D01*
X-18769071Y4190000D02*
X-18372000Y4190000D01*
X-18769071Y3430000D02*
X-18372000Y3430000D01*
X-9712000Y4190000D02*
X-15712000Y4190000D01*
X-9712000Y3430000D02*
X-9712000Y4190000D01*
X-15712000Y3430000D02*
X-9712000Y3430000D01*
X-18372000Y2540000D02*
X-15712000Y2540000D01*
X-18702000Y1650000D02*
X-18372000Y1650000D01*
X-18702000Y890000D02*
X-18372000Y890000D01*
X-15712000Y1550000D02*
X-9712000Y1550000D01*
X-15712000Y1430000D02*
X-9712000Y1430000D01*
X-15712000Y1310000D02*
X-9712000Y1310000D01*
X-15712000Y1190000D02*
X-9712000Y1190000D01*
X-15712000Y1070000D02*
X-9712000Y1070000D01*
X-15712000Y950000D02*
X-9712000Y950000D01*
X-9712000Y1650000D02*
X-15712000Y1650000D01*
X-9712000Y890000D02*
X-9712000Y1650000D01*
X-15712000Y890000D02*
X-9712000Y890000D01*
X-15712000Y-60000D02*
X-18372000Y-60000D01*
X-15712000Y30540000D02*
X-15712000Y-60000D01*
X-18372000Y30540000D02*
X-15712000Y30540000D01*
X-18372000Y-60000D02*
X-18372000Y30540000D01*
X-30095436Y106000D02*
X-31299564Y106000D01*
X-30095436Y1926000D02*
X-31299564Y1926000D01*
X-24639000Y19813000D02*
X-24639000Y20063000D01*
X-27939000Y20063000D02*
X-27939000Y19813000D01*
X-27939000Y22863000D02*
X-27939000Y23113000D01*
X-24639000Y19813000D02*
X-25304000Y19813000D01*
X-27274000Y23113000D02*
X-27939000Y23113000D01*
X-24639000Y23113000D02*
X-25304000Y23113000D01*
X-27274000Y19813000D02*
X-27939000Y19813000D01*
X-45108000Y13994000D02*
X-45108000Y15994000D01*
X-47348000Y15994000D02*
X-47348000Y14994000D01*
X-28731800Y26161624D02*
X-28731800Y24957496D01*
X-30551800Y26161624D02*
X-30551800Y24957496D01*
X-32287936Y14838000D02*
X-33492064Y14838000D01*
X-32287936Y16658000D02*
X-33492064Y16658000D01*
X-28741960Y21341624D02*
X-28741960Y20137496D01*
X-30561960Y21341624D02*
X-30561960Y20137496D01*
X-36546064Y26818000D02*
X-35341936Y26818000D01*
X-36546064Y24998000D02*
X-35341936Y24998000D01*
X-47976064Y26818000D02*
X-46771936Y26818000D01*
X-47976064Y24998000D02*
X-46771936Y24998000D01*
X-42004064Y26818000D02*
X-40799936Y26818000D01*
X-42004064Y24998000D02*
X-40799936Y24998000D01*
X-45247936Y19918000D02*
X-46452064Y19918000D01*
X-45247936Y21738000D02*
X-46452064Y21738000D01*
X-50440000Y3461936D02*
X-50440000Y4666064D01*
X-48620000Y3461936D02*
X-48620000Y4666064D01*
X-43794000Y4666064D02*
X-43794000Y3461936D01*
X-45614000Y4666064D02*
X-45614000Y3461936D01*
X-24834436Y24490000D02*
X-26038564Y24490000D01*
X-24834436Y26310000D02*
X-26038564Y26310000D01*
X-46539564Y24024000D02*
X-45335436Y24024000D01*
X-46539564Y22204000D02*
X-45335436Y22204000D01*
X-51308000Y29718000D02*
X-52578000Y29718000D01*
X-51308000Y28448000D02*
X-51308000Y29718000D01*
X-53620929Y128000D02*
X-54018000Y128000D01*
X-53620929Y888000D02*
X-54018000Y888000D01*
X-62678000Y128000D02*
X-56678000Y128000D01*
X-62678000Y888000D02*
X-62678000Y128000D01*
X-56678000Y888000D02*
X-62678000Y888000D01*
X-54018000Y1778000D02*
X-56678000Y1778000D01*
X-53620929Y2668000D02*
X-54018000Y2668000D01*
X-53620929Y3428000D02*
X-54018000Y3428000D01*
X-62678000Y2668000D02*
X-56678000Y2668000D01*
X-62678000Y3428000D02*
X-62678000Y2668000D01*
X-56678000Y3428000D02*
X-62678000Y3428000D01*
X-54018000Y4318000D02*
X-56678000Y4318000D01*
X-53620929Y5208000D02*
X-54018000Y5208000D01*
X-53620929Y5968000D02*
X-54018000Y5968000D01*
X-62678000Y5208000D02*
X-56678000Y5208000D01*
X-62678000Y5968000D02*
X-62678000Y5208000D01*
X-56678000Y5968000D02*
X-62678000Y5968000D01*
X-54018000Y6858000D02*
X-56678000Y6858000D01*
X-53620929Y7748000D02*
X-54018000Y7748000D01*
X-53620929Y8508000D02*
X-54018000Y8508000D01*
X-62678000Y7748000D02*
X-56678000Y7748000D01*
X-62678000Y8508000D02*
X-62678000Y7748000D01*
X-56678000Y8508000D02*
X-62678000Y8508000D01*
X-54018000Y9398000D02*
X-56678000Y9398000D01*
X-53620929Y10288000D02*
X-54018000Y10288000D01*
X-53620929Y11048000D02*
X-54018000Y11048000D01*
X-62678000Y10288000D02*
X-56678000Y10288000D01*
X-62678000Y11048000D02*
X-62678000Y10288000D01*
X-56678000Y11048000D02*
X-62678000Y11048000D01*
X-54018000Y11938000D02*
X-56678000Y11938000D01*
X-53620929Y12828000D02*
X-54018000Y12828000D01*
X-53620929Y13588000D02*
X-54018000Y13588000D01*
X-62678000Y12828000D02*
X-56678000Y12828000D01*
X-62678000Y13588000D02*
X-62678000Y12828000D01*
X-56678000Y13588000D02*
X-62678000Y13588000D01*
X-54018000Y14478000D02*
X-56678000Y14478000D01*
X-53620929Y15368000D02*
X-54018000Y15368000D01*
X-53620929Y16128000D02*
X-54018000Y16128000D01*
X-62678000Y15368000D02*
X-56678000Y15368000D01*
X-62678000Y16128000D02*
X-62678000Y15368000D01*
X-56678000Y16128000D02*
X-62678000Y16128000D01*
X-54018000Y17018000D02*
X-56678000Y17018000D01*
X-53620929Y17908000D02*
X-54018000Y17908000D01*
X-53620929Y18668000D02*
X-54018000Y18668000D01*
X-62678000Y17908000D02*
X-56678000Y17908000D01*
X-62678000Y18668000D02*
X-62678000Y17908000D01*
X-56678000Y18668000D02*
X-62678000Y18668000D01*
X-54018000Y19558000D02*
X-56678000Y19558000D01*
X-53620929Y20448000D02*
X-54018000Y20448000D01*
X-53620929Y21208000D02*
X-54018000Y21208000D01*
X-62678000Y20448000D02*
X-56678000Y20448000D01*
X-62678000Y21208000D02*
X-62678000Y20448000D01*
X-56678000Y21208000D02*
X-62678000Y21208000D01*
X-54018000Y22098000D02*
X-56678000Y22098000D01*
X-53620929Y22988000D02*
X-54018000Y22988000D01*
X-53620929Y23748000D02*
X-54018000Y23748000D01*
X-62678000Y22988000D02*
X-56678000Y22988000D01*
X-62678000Y23748000D02*
X-62678000Y22988000D01*
X-56678000Y23748000D02*
X-62678000Y23748000D01*
X-54018000Y24638000D02*
X-56678000Y24638000D01*
X-53620929Y25528000D02*
X-54018000Y25528000D01*
X-53620929Y26288000D02*
X-54018000Y26288000D01*
X-62678000Y25528000D02*
X-56678000Y25528000D01*
X-62678000Y26288000D02*
X-62678000Y25528000D01*
X-56678000Y26288000D02*
X-62678000Y26288000D01*
X-54018000Y27178000D02*
X-56678000Y27178000D01*
X-53688000Y28068000D02*
X-54018000Y28068000D01*
X-53688000Y28828000D02*
X-54018000Y28828000D01*
X-56678000Y28168000D02*
X-62678000Y28168000D01*
X-56678000Y28288000D02*
X-62678000Y28288000D01*
X-56678000Y28408000D02*
X-62678000Y28408000D01*
X-56678000Y28528000D02*
X-62678000Y28528000D01*
X-56678000Y28648000D02*
X-62678000Y28648000D01*
X-56678000Y28768000D02*
X-62678000Y28768000D01*
X-62678000Y28068000D02*
X-56678000Y28068000D01*
X-62678000Y28828000D02*
X-62678000Y28068000D01*
X-56678000Y28828000D02*
X-62678000Y28828000D01*
X-56678000Y29778000D02*
X-54018000Y29778000D01*
X-56678000Y-822000D02*
X-56678000Y29778000D01*
X-54018000Y-822000D02*
X-56678000Y-822000D01*
X-54018000Y29778000D02*
X-54018000Y-822000D01*
X-35866000Y3826252D02*
X-35866000Y3303748D01*
X-37286000Y3826252D02*
X-37286000Y3303748D01*
X-35176000Y24256000D02*
X-40576000Y24256000D01*
X-35176000Y20956000D02*
X-40576000Y20956000D01*
X-35176000Y24256000D02*
X-35176000Y20956000D01*
X-36162064Y20468000D02*
X-34957936Y20468000D01*
X-36162064Y18648000D02*
X-34957936Y18648000D01*
X-37969436Y15092000D02*
X-39173564Y15092000D01*
X-37969436Y16912000D02*
X-39173564Y16912000D01*
X-37915436Y11282000D02*
X-39119564Y11282000D01*
X-37915436Y13102000D02*
X-39119564Y13102000D01*
X-32381436Y11282000D02*
X-33585564Y11282000D01*
X-32381436Y13102000D02*
X-33585564Y13102000D01*
X-26038564Y18182000D02*
X-24834436Y18182000D01*
X-26038564Y16362000D02*
X-24834436Y16362000D01*
X-26268000Y13011564D02*
X-26268000Y11807436D01*
X-28088000Y13011564D02*
X-28088000Y11807436D01*
X-22712000Y13011564D02*
X-22712000Y11807436D01*
X-24532000Y13011564D02*
X-24532000Y11807436D01*
X-25748064Y5482000D02*
X-24543936Y5482000D01*
X-25748064Y3662000D02*
X-24543936Y3662000D01*
X-30095436Y7218000D02*
X-31299564Y7218000D01*
X-30095436Y9038000D02*
X-31299564Y9038000D01*
X-25748064Y9038000D02*
X-24543936Y9038000D01*
X-25748064Y7218000D02*
X-24543936Y7218000D01*
X-25711564Y1926000D02*
X-24507436Y1926000D01*
X-25711564Y106000D02*
X-24507436Y106000D01*
X-30095436Y3662000D02*
X-31299564Y3662000D01*
X-30095436Y5482000D02*
X-31299564Y5482000D01*
X-42524000Y16059564D02*
X-42524000Y14855436D01*
X-44344000Y16059564D02*
X-44344000Y14855436D01*
X-46334000Y4702564D02*
X-46334000Y3498436D01*
X-48154000Y4702564D02*
X-48154000Y3498436D01*
X-49932000Y14601436D02*
X-49932000Y15805564D01*
X-48112000Y14601436D02*
X-48112000Y15805564D01*
D11*
X-30530834Y2478858D02*
X-30483215Y2431239D01*
X-30340358Y2383620D01*
X-30245120Y2383620D01*
X-30102262Y2431239D01*
X-30007024Y2526477D01*
X-29959405Y2621715D01*
X-29911786Y2812191D01*
X-29911786Y2955048D01*
X-29959405Y3145524D01*
X-30007024Y3240762D01*
X-30102262Y3336000D01*
X-30245120Y3383620D01*
X-30340358Y3383620D01*
X-30483215Y3336000D01*
X-30530834Y3288381D01*
X-31102262Y2955048D02*
X-31007024Y3002667D01*
X-30959405Y3050286D01*
X-30911786Y3145524D01*
X-30911786Y3193143D01*
X-30959405Y3288381D01*
X-31007024Y3336000D01*
X-31102262Y3383620D01*
X-31292739Y3383620D01*
X-31387977Y3336000D01*
X-31435596Y3288381D01*
X-31483215Y3193143D01*
X-31483215Y3145524D01*
X-31435596Y3050286D01*
X-31387977Y3002667D01*
X-31292739Y2955048D01*
X-31102262Y2955048D01*
X-31007024Y2907429D01*
X-30959405Y2859810D01*
X-30911786Y2764572D01*
X-30911786Y2574096D01*
X-30959405Y2478858D01*
X-31007024Y2431239D01*
X-31102262Y2383620D01*
X-31292739Y2383620D01*
X-31387977Y2431239D01*
X-31435596Y2478858D01*
X-31483215Y2574096D01*
X-31483215Y2764572D01*
X-31435596Y2859810D01*
X-31387977Y2907429D01*
X-31292739Y2955048D01*
X-23910540Y21107305D02*
X-23101016Y21107305D01*
X-23005778Y21059686D01*
X-22958159Y21012067D01*
X-22910540Y20916829D01*
X-22910540Y20726353D01*
X-22958159Y20631115D01*
X-23005778Y20583496D01*
X-23101016Y20535877D01*
X-23910540Y20535877D01*
X-23815301Y20107305D02*
X-23862920Y20059686D01*
X-23910540Y19964448D01*
X-23910540Y19726353D01*
X-23862920Y19631115D01*
X-23815301Y19583496D01*
X-23720063Y19535877D01*
X-23624825Y19535877D01*
X-23481968Y19583496D01*
X-22910540Y20154924D01*
X-22910540Y19535877D01*
X-45516896Y13283180D02*
X-45516896Y12473656D01*
X-45564515Y12378418D01*
X-45612134Y12330799D01*
X-45707372Y12283180D01*
X-45897848Y12283180D01*
X-45993086Y12330799D01*
X-46040705Y12378418D01*
X-46088324Y12473656D01*
X-46088324Y13283180D01*
X-47088324Y12283180D02*
X-46516896Y12283180D01*
X-46802610Y12283180D02*
X-46802610Y13283180D01*
X-46707372Y13140322D01*
X-46612134Y13045084D01*
X-46516896Y12997465D01*
X-31009420Y26202418D02*
X-31485610Y26535751D01*
X-31009420Y26773846D02*
X-32009420Y26773846D01*
X-32009420Y26392894D01*
X-31961800Y26297656D01*
X-31914181Y26250037D01*
X-31818943Y26202418D01*
X-31676086Y26202418D01*
X-31580848Y26250037D01*
X-31533229Y26297656D01*
X-31485610Y26392894D01*
X-31485610Y26773846D01*
X-31009420Y25250037D02*
X-31009420Y25821465D01*
X-31009420Y25535751D02*
X-32009420Y25535751D01*
X-31866562Y25630989D01*
X-31771324Y25726227D01*
X-31723705Y25821465D01*
X-32009420Y24630989D02*
X-32009420Y24535751D01*
X-31961800Y24440513D01*
X-31914181Y24392894D01*
X-31818943Y24345275D01*
X-31628467Y24297656D01*
X-31390372Y24297656D01*
X-31199896Y24345275D01*
X-31104658Y24392894D01*
X-31057039Y24440513D01*
X-31009420Y24535751D01*
X-31009420Y24630989D01*
X-31057039Y24726227D01*
X-31104658Y24773846D01*
X-31199896Y24821465D01*
X-31390372Y24869084D01*
X-31628467Y24869084D01*
X-31818943Y24821465D01*
X-31914181Y24773846D01*
X-31961800Y24726227D01*
X-32009420Y24630989D01*
X-32723334Y17115620D02*
X-32390000Y17591810D01*
X-32151905Y17115620D02*
X-32151905Y18115620D01*
X-32532858Y18115620D01*
X-32628096Y18068000D01*
X-32675715Y18020381D01*
X-32723334Y17925143D01*
X-32723334Y17782286D01*
X-32675715Y17687048D01*
X-32628096Y17639429D01*
X-32532858Y17591810D01*
X-32151905Y17591810D01*
X-33199524Y17115620D02*
X-33390000Y17115620D01*
X-33485239Y17163239D01*
X-33532858Y17210858D01*
X-33628096Y17353715D01*
X-33675715Y17544191D01*
X-33675715Y17925143D01*
X-33628096Y18020381D01*
X-33580477Y18068000D01*
X-33485239Y18115620D01*
X-33294762Y18115620D01*
X-33199524Y18068000D01*
X-33151905Y18020381D01*
X-33104286Y17925143D01*
X-33104286Y17687048D01*
X-33151905Y17591810D01*
X-33199524Y17544191D01*
X-33294762Y17496572D01*
X-33485239Y17496572D01*
X-33580477Y17544191D01*
X-33628096Y17591810D01*
X-33675715Y17687048D01*
X-31019580Y20906227D02*
X-31495770Y21239560D01*
X-31019580Y21477656D02*
X-32019580Y21477656D01*
X-32019580Y21096703D01*
X-31971960Y21001465D01*
X-31924341Y20953846D01*
X-31829103Y20906227D01*
X-31686246Y20906227D01*
X-31591008Y20953846D01*
X-31543389Y21001465D01*
X-31495770Y21096703D01*
X-31495770Y21477656D01*
X-31591008Y20334799D02*
X-31638627Y20430037D01*
X-31686246Y20477656D01*
X-31781484Y20525275D01*
X-31829103Y20525275D01*
X-31924341Y20477656D01*
X-31971960Y20430037D01*
X-32019580Y20334799D01*
X-32019580Y20144322D01*
X-31971960Y20049084D01*
X-31924341Y20001465D01*
X-31829103Y19953846D01*
X-31781484Y19953846D01*
X-31686246Y20001465D01*
X-31638627Y20049084D01*
X-31591008Y20144322D01*
X-31591008Y20334799D01*
X-31543389Y20430037D01*
X-31495770Y20477656D01*
X-31400532Y20525275D01*
X-31210056Y20525275D01*
X-31114818Y20477656D01*
X-31067199Y20430037D01*
X-31019580Y20334799D01*
X-31019580Y20144322D01*
X-31067199Y20049084D01*
X-31114818Y20001465D01*
X-31210056Y19953846D01*
X-31400532Y19953846D01*
X-31495770Y20001465D01*
X-31543389Y20049084D01*
X-31591008Y20144322D01*
X-35777334Y23635620D02*
X-35444000Y24111810D01*
X-35205905Y23635620D02*
X-35205905Y24635620D01*
X-35586858Y24635620D01*
X-35682096Y24588000D01*
X-35729715Y24540381D01*
X-35777334Y24445143D01*
X-35777334Y24302286D01*
X-35729715Y24207048D01*
X-35682096Y24159429D01*
X-35586858Y24111810D01*
X-35205905Y24111810D01*
X-36110667Y24635620D02*
X-36777334Y24635620D01*
X-36348762Y23635620D01*
X-47331334Y27233620D02*
X-46998000Y27709810D01*
X-46759905Y27233620D02*
X-46759905Y28233620D01*
X-47140858Y28233620D01*
X-47236096Y28186000D01*
X-47283715Y28138381D01*
X-47331334Y28043143D01*
X-47331334Y27900286D01*
X-47283715Y27805048D01*
X-47236096Y27757429D01*
X-47140858Y27709810D01*
X-46759905Y27709810D01*
X-48188477Y28233620D02*
X-47998000Y28233620D01*
X-47902762Y28186000D01*
X-47855143Y28138381D01*
X-47759905Y27995524D01*
X-47712286Y27805048D01*
X-47712286Y27424096D01*
X-47759905Y27328858D01*
X-47807524Y27281239D01*
X-47902762Y27233620D01*
X-48093239Y27233620D01*
X-48188477Y27281239D01*
X-48236096Y27328858D01*
X-48283715Y27424096D01*
X-48283715Y27662191D01*
X-48236096Y27757429D01*
X-48188477Y27805048D01*
X-48093239Y27852667D01*
X-47902762Y27852667D01*
X-47807524Y27805048D01*
X-47759905Y27757429D01*
X-47712286Y27662191D01*
X-41489334Y27233620D02*
X-41156000Y27709810D01*
X-40917905Y27233620D02*
X-40917905Y28233620D01*
X-41298858Y28233620D01*
X-41394096Y28186000D01*
X-41441715Y28138381D01*
X-41489334Y28043143D01*
X-41489334Y27900286D01*
X-41441715Y27805048D01*
X-41394096Y27757429D01*
X-41298858Y27709810D01*
X-40917905Y27709810D01*
X-42394096Y28233620D02*
X-41917905Y28233620D01*
X-41870286Y27757429D01*
X-41917905Y27805048D01*
X-42013143Y27852667D01*
X-42251239Y27852667D01*
X-42346477Y27805048D01*
X-42394096Y27757429D01*
X-42441715Y27662191D01*
X-42441715Y27424096D01*
X-42394096Y27328858D01*
X-42346477Y27281239D01*
X-42251239Y27233620D01*
X-42013143Y27233620D01*
X-41917905Y27281239D01*
X-41870286Y27328858D01*
X-48452780Y20420627D02*
X-48928970Y20753960D01*
X-48452780Y20992056D02*
X-49452780Y20992056D01*
X-49452780Y20611103D01*
X-49405160Y20515865D01*
X-49357541Y20468246D01*
X-49262303Y20420627D01*
X-49119446Y20420627D01*
X-49024208Y20468246D01*
X-48976589Y20515865D01*
X-48928970Y20611103D01*
X-48928970Y20992056D01*
X-49119446Y19563484D02*
X-48452780Y19563484D01*
X-49500399Y19801580D02*
X-48786113Y20039675D01*
X-48786113Y19420627D01*
X-49353174Y482340D02*
X-49019840Y958530D01*
X-48781745Y482340D02*
X-48781745Y1482340D01*
X-49162698Y1482340D01*
X-49257936Y1434720D01*
X-49305555Y1387101D01*
X-49353174Y1291863D01*
X-49353174Y1149006D01*
X-49305555Y1053768D01*
X-49257936Y1006149D01*
X-49162698Y958530D01*
X-48781745Y958530D01*
X-49686507Y1482340D02*
X-50305555Y1482340D01*
X-49972221Y1101387D01*
X-50115079Y1101387D01*
X-50210317Y1053768D01*
X-50257936Y1006149D01*
X-50305555Y910911D01*
X-50305555Y672816D01*
X-50257936Y577578D01*
X-50210317Y529959D01*
X-50115079Y482340D01*
X-49829364Y482340D01*
X-49734126Y529959D01*
X-49686507Y577578D01*
X-42412660Y4139227D02*
X-42888850Y4472560D01*
X-42412660Y4710656D02*
X-43412660Y4710656D01*
X-43412660Y4329703D01*
X-43365040Y4234465D01*
X-43317421Y4186846D01*
X-43222183Y4139227D01*
X-43079326Y4139227D01*
X-42984088Y4186846D01*
X-42936469Y4234465D01*
X-42888850Y4329703D01*
X-42888850Y4710656D01*
X-43317421Y3758275D02*
X-43365040Y3710656D01*
X-43412660Y3615418D01*
X-43412660Y3377322D01*
X-43365040Y3282084D01*
X-43317421Y3234465D01*
X-43222183Y3186846D01*
X-43126945Y3186846D01*
X-42984088Y3234465D01*
X-42412660Y3805894D01*
X-42412660Y3186846D01*
X-26320454Y26639260D02*
X-25844263Y26639260D01*
X-25844263Y27639260D01*
X-26606168Y27544021D02*
X-26653787Y27591640D01*
X-26749025Y27639260D01*
X-26987120Y27639260D01*
X-27082359Y27591640D01*
X-27129978Y27544021D01*
X-27177597Y27448783D01*
X-27177597Y27353545D01*
X-27129978Y27210688D01*
X-26558549Y26639260D01*
X-27177597Y26639260D01*
X-42341540Y23331467D02*
X-42341540Y23807658D01*
X-43341540Y23807658D01*
X-42341540Y22474324D02*
X-42341540Y23045753D01*
X-42341540Y22760039D02*
X-43341540Y22760039D01*
X-43198682Y22855277D01*
X-43103444Y22950515D01*
X-43055825Y23045753D01*
X-34828789Y3530814D02*
X-34828789Y3864147D01*
X-34304980Y3864147D02*
X-35304980Y3864147D01*
X-35304980Y3387957D01*
X-34828789Y2673671D02*
X-34781170Y2530814D01*
X-34733551Y2483195D01*
X-34638313Y2435576D01*
X-34495456Y2435576D01*
X-34400218Y2483195D01*
X-34352599Y2530814D01*
X-34304980Y2626052D01*
X-34304980Y3007004D01*
X-35304980Y3007004D01*
X-35304980Y2673671D01*
X-35257360Y2578433D01*
X-35209741Y2530814D01*
X-35114503Y2483195D01*
X-35019265Y2483195D01*
X-34924027Y2530814D01*
X-34876408Y2578433D01*
X-34828789Y2673671D01*
X-34828789Y3007004D01*
X-34304980Y1483195D02*
X-34304980Y2054623D01*
X-34304980Y1768909D02*
X-35304980Y1768909D01*
X-35162122Y1864147D01*
X-35066884Y1959385D01*
X-35019265Y2054623D01*
X-37837905Y24653620D02*
X-37837905Y25653620D01*
X-38076000Y25653620D01*
X-38218858Y25606000D01*
X-38314096Y25510762D01*
X-38361715Y25415524D01*
X-38409334Y25225048D01*
X-38409334Y25082191D01*
X-38361715Y24891715D01*
X-38314096Y24796477D01*
X-38218858Y24701239D01*
X-38076000Y24653620D01*
X-37837905Y24653620D01*
X-39266477Y25320286D02*
X-39266477Y24653620D01*
X-39028381Y25701239D02*
X-38790286Y24986953D01*
X-39409334Y24986953D01*
X-32941023Y21156658D02*
X-32893404Y21109039D01*
X-32750547Y21061420D01*
X-32655309Y21061420D01*
X-32512452Y21109039D01*
X-32417214Y21204277D01*
X-32369595Y21299515D01*
X-32321976Y21489991D01*
X-32321976Y21632848D01*
X-32369595Y21823324D01*
X-32417214Y21918562D01*
X-32512452Y22013800D01*
X-32655309Y22061420D01*
X-32750547Y22061420D01*
X-32893404Y22013800D01*
X-32941023Y21966181D01*
X-33893404Y21061420D02*
X-33321976Y21061420D01*
X-33607690Y21061420D02*
X-33607690Y22061420D01*
X-33512452Y21918562D01*
X-33417214Y21823324D01*
X-33321976Y21775705D01*
X-34464833Y21632848D02*
X-34369595Y21680467D01*
X-34321976Y21728086D01*
X-34274357Y21823324D01*
X-34274357Y21870943D01*
X-34321976Y21966181D01*
X-34369595Y22013800D01*
X-34464833Y22061420D01*
X-34655309Y22061420D01*
X-34750547Y22013800D01*
X-34798166Y21966181D01*
X-34845785Y21870943D01*
X-34845785Y21823324D01*
X-34798166Y21728086D01*
X-34750547Y21680467D01*
X-34655309Y21632848D01*
X-34464833Y21632848D01*
X-34369595Y21585229D01*
X-34321976Y21537610D01*
X-34274357Y21442372D01*
X-34274357Y21251896D01*
X-34321976Y21156658D01*
X-34369595Y21109039D01*
X-34464833Y21061420D01*
X-34655309Y21061420D01*
X-34750547Y21109039D01*
X-34798166Y21156658D01*
X-34845785Y21251896D01*
X-34845785Y21442372D01*
X-34798166Y21537610D01*
X-34750547Y21585229D01*
X-34655309Y21632848D01*
X-37928643Y17464858D02*
X-37881024Y17417239D01*
X-37738167Y17369620D01*
X-37642929Y17369620D01*
X-37500072Y17417239D01*
X-37404834Y17512477D01*
X-37357215Y17607715D01*
X-37309596Y17798191D01*
X-37309596Y17941048D01*
X-37357215Y18131524D01*
X-37404834Y18226762D01*
X-37500072Y18322000D01*
X-37642929Y18369620D01*
X-37738167Y18369620D01*
X-37881024Y18322000D01*
X-37928643Y18274381D01*
X-38881024Y17369620D02*
X-38309596Y17369620D01*
X-38595310Y17369620D02*
X-38595310Y18369620D01*
X-38500072Y18226762D01*
X-38404834Y18131524D01*
X-38309596Y18083905D01*
X-39214358Y18369620D02*
X-39881024Y18369620D01*
X-39452453Y17369620D01*
X-37874643Y13654858D02*
X-37827024Y13607239D01*
X-37684167Y13559620D01*
X-37588929Y13559620D01*
X-37446072Y13607239D01*
X-37350834Y13702477D01*
X-37303215Y13797715D01*
X-37255596Y13988191D01*
X-37255596Y14131048D01*
X-37303215Y14321524D01*
X-37350834Y14416762D01*
X-37446072Y14512000D01*
X-37588929Y14559620D01*
X-37684167Y14559620D01*
X-37827024Y14512000D01*
X-37874643Y14464381D01*
X-38827024Y13559620D02*
X-38255596Y13559620D01*
X-38541310Y13559620D02*
X-38541310Y14559620D01*
X-38446072Y14416762D01*
X-38350834Y14321524D01*
X-38255596Y14273905D01*
X-39684167Y14559620D02*
X-39493691Y14559620D01*
X-39398453Y14512000D01*
X-39350834Y14464381D01*
X-39255596Y14321524D01*
X-39207977Y14131048D01*
X-39207977Y13750096D01*
X-39255596Y13654858D01*
X-39303215Y13607239D01*
X-39398453Y13559620D01*
X-39588929Y13559620D01*
X-39684167Y13607239D01*
X-39731786Y13654858D01*
X-39779405Y13750096D01*
X-39779405Y13988191D01*
X-39731786Y14083429D01*
X-39684167Y14131048D01*
X-39588929Y14178667D01*
X-39398453Y14178667D01*
X-39303215Y14131048D01*
X-39255596Y14083429D01*
X-39207977Y13988191D01*
X-32340643Y13654858D02*
X-32293024Y13607239D01*
X-32150167Y13559620D01*
X-32054929Y13559620D01*
X-31912072Y13607239D01*
X-31816834Y13702477D01*
X-31769215Y13797715D01*
X-31721596Y13988191D01*
X-31721596Y14131048D01*
X-31769215Y14321524D01*
X-31816834Y14416762D01*
X-31912072Y14512000D01*
X-32054929Y14559620D01*
X-32150167Y14559620D01*
X-32293024Y14512000D01*
X-32340643Y14464381D01*
X-33293024Y13559620D02*
X-32721596Y13559620D01*
X-33007310Y13559620D02*
X-33007310Y14559620D01*
X-32912072Y14416762D01*
X-32816834Y14321524D01*
X-32721596Y14273905D01*
X-34197786Y14559620D02*
X-33721596Y14559620D01*
X-33673977Y14083429D01*
X-33721596Y14131048D01*
X-33816834Y14178667D01*
X-34054929Y14178667D01*
X-34150167Y14131048D01*
X-34197786Y14083429D01*
X-34245405Y13988191D01*
X-34245405Y13750096D01*
X-34197786Y13654858D01*
X-34150167Y13607239D01*
X-34054929Y13559620D01*
X-33816834Y13559620D01*
X-33721596Y13607239D01*
X-33673977Y13654858D01*
X-24793643Y15094858D02*
X-24746024Y15047239D01*
X-24603167Y14999620D01*
X-24507929Y14999620D01*
X-24365072Y15047239D01*
X-24269834Y15142477D01*
X-24222215Y15237715D01*
X-24174596Y15428191D01*
X-24174596Y15571048D01*
X-24222215Y15761524D01*
X-24269834Y15856762D01*
X-24365072Y15952000D01*
X-24507929Y15999620D01*
X-24603167Y15999620D01*
X-24746024Y15952000D01*
X-24793643Y15904381D01*
X-25746024Y14999620D02*
X-25174596Y14999620D01*
X-25460310Y14999620D02*
X-25460310Y15999620D01*
X-25365072Y15856762D01*
X-25269834Y15761524D01*
X-25174596Y15713905D01*
X-26126977Y15904381D02*
X-26174596Y15952000D01*
X-26269834Y15999620D01*
X-26507929Y15999620D01*
X-26603167Y15952000D01*
X-26650786Y15904381D01*
X-26698405Y15809143D01*
X-26698405Y15713905D01*
X-26650786Y15571048D01*
X-26079358Y14999620D01*
X-26698405Y14999620D01*
X-28640858Y13052358D02*
X-28593239Y13099977D01*
X-28545620Y13242834D01*
X-28545620Y13338072D01*
X-28593239Y13480929D01*
X-28688477Y13576167D01*
X-28783715Y13623786D01*
X-28974191Y13671405D01*
X-29117048Y13671405D01*
X-29307524Y13623786D01*
X-29402762Y13576167D01*
X-29498000Y13480929D01*
X-29545620Y13338072D01*
X-29545620Y13242834D01*
X-29498000Y13099977D01*
X-29450381Y13052358D01*
X-28545620Y12099977D02*
X-28545620Y12671405D01*
X-28545620Y12385691D02*
X-29545620Y12385691D01*
X-29402762Y12480929D01*
X-29307524Y12576167D01*
X-29259905Y12671405D01*
X-28545620Y11147596D02*
X-28545620Y11719024D01*
X-28545620Y11433310D02*
X-29545620Y11433310D01*
X-29402762Y11528548D01*
X-29307524Y11623786D01*
X-29259905Y11719024D01*
X-25084858Y13052358D02*
X-25037239Y13099977D01*
X-24989620Y13242834D01*
X-24989620Y13338072D01*
X-25037239Y13480929D01*
X-25132477Y13576167D01*
X-25227715Y13623786D01*
X-25418191Y13671405D01*
X-25561048Y13671405D01*
X-25751524Y13623786D01*
X-25846762Y13576167D01*
X-25942000Y13480929D01*
X-25989620Y13338072D01*
X-25989620Y13242834D01*
X-25942000Y13099977D01*
X-25894381Y13052358D01*
X-24989620Y12099977D02*
X-24989620Y12671405D01*
X-24989620Y12385691D02*
X-25989620Y12385691D01*
X-25846762Y12480929D01*
X-25751524Y12576167D01*
X-25703905Y12671405D01*
X-25989620Y11480929D02*
X-25989620Y11385691D01*
X-25942000Y11290453D01*
X-25894381Y11242834D01*
X-25799143Y11195215D01*
X-25608667Y11147596D01*
X-25370572Y11147596D01*
X-25180096Y11195215D01*
X-25084858Y11242834D01*
X-25037239Y11290453D01*
X-24989620Y11385691D01*
X-24989620Y11480929D01*
X-25037239Y11576167D01*
X-25084858Y11623786D01*
X-25180096Y11671405D01*
X-25370572Y11719024D01*
X-25608667Y11719024D01*
X-25799143Y11671405D01*
X-25894381Y11623786D01*
X-25942000Y11576167D01*
X-25989620Y11480929D01*
X-26396654Y2340338D02*
X-26349035Y2292719D01*
X-26206178Y2245100D01*
X-26110940Y2245100D01*
X-25968082Y2292719D01*
X-25872844Y2387957D01*
X-25825225Y2483195D01*
X-25777606Y2673671D01*
X-25777606Y2816528D01*
X-25825225Y3007004D01*
X-25872844Y3102242D01*
X-25968082Y3197480D01*
X-26110940Y3245100D01*
X-26206178Y3245100D01*
X-26349035Y3197480D01*
X-26396654Y3149861D01*
X-26872844Y2245100D02*
X-27063320Y2245100D01*
X-27158559Y2292719D01*
X-27206178Y2340338D01*
X-27301416Y2483195D01*
X-27349035Y2673671D01*
X-27349035Y3054623D01*
X-27301416Y3149861D01*
X-27253797Y3197480D01*
X-27158559Y3245100D01*
X-26968082Y3245100D01*
X-26872844Y3197480D01*
X-26825225Y3149861D01*
X-26777606Y3054623D01*
X-26777606Y2816528D01*
X-26825225Y2721290D01*
X-26872844Y2673671D01*
X-26968082Y2626052D01*
X-27158559Y2626052D01*
X-27253797Y2673671D01*
X-27301416Y2721290D01*
X-27349035Y2816528D01*
X-32121814Y9574258D02*
X-32074195Y9526639D01*
X-31931338Y9479020D01*
X-31836100Y9479020D01*
X-31693242Y9526639D01*
X-31598004Y9621877D01*
X-31550385Y9717115D01*
X-31502766Y9907591D01*
X-31502766Y10050448D01*
X-31550385Y10240924D01*
X-31598004Y10336162D01*
X-31693242Y10431400D01*
X-31836100Y10479020D01*
X-31931338Y10479020D01*
X-32074195Y10431400D01*
X-32121814Y10383781D01*
X-32455147Y10479020D02*
X-33121814Y10479020D01*
X-32693242Y9479020D01*
X-24979334Y5950858D02*
X-24931715Y5903239D01*
X-24788858Y5855620D01*
X-24693620Y5855620D01*
X-24550762Y5903239D01*
X-24455524Y5998477D01*
X-24407905Y6093715D01*
X-24360286Y6284191D01*
X-24360286Y6427048D01*
X-24407905Y6617524D01*
X-24455524Y6712762D01*
X-24550762Y6808000D01*
X-24693620Y6855620D01*
X-24788858Y6855620D01*
X-24931715Y6808000D01*
X-24979334Y6760381D01*
X-25836477Y6855620D02*
X-25646000Y6855620D01*
X-25550762Y6808000D01*
X-25503143Y6760381D01*
X-25407905Y6617524D01*
X-25360286Y6427048D01*
X-25360286Y6046096D01*
X-25407905Y5950858D01*
X-25455524Y5903239D01*
X-25550762Y5855620D01*
X-25741239Y5855620D01*
X-25836477Y5903239D01*
X-25884096Y5950858D01*
X-25931715Y6046096D01*
X-25931715Y6284191D01*
X-25884096Y6379429D01*
X-25836477Y6427048D01*
X-25741239Y6474667D01*
X-25550762Y6474667D01*
X-25455524Y6427048D01*
X-25407905Y6379429D01*
X-25360286Y6284191D01*
X-24942834Y-1161142D02*
X-24895215Y-1208761D01*
X-24752358Y-1256380D01*
X-24657120Y-1256380D01*
X-24514262Y-1208761D01*
X-24419024Y-1113523D01*
X-24371405Y-1018285D01*
X-24323786Y-827809D01*
X-24323786Y-684952D01*
X-24371405Y-494476D01*
X-24419024Y-399238D01*
X-24514262Y-304000D01*
X-24657120Y-256380D01*
X-24752358Y-256380D01*
X-24895215Y-304000D01*
X-24942834Y-351619D01*
X-25847596Y-256380D02*
X-25371405Y-256380D01*
X-25323786Y-732571D01*
X-25371405Y-684952D01*
X-25466643Y-637333D01*
X-25704739Y-637333D01*
X-25799977Y-684952D01*
X-25847596Y-732571D01*
X-25895215Y-827809D01*
X-25895215Y-1065904D01*
X-25847596Y-1161142D01*
X-25799977Y-1208761D01*
X-25704739Y-1256380D01*
X-25466643Y-1256380D01*
X-25371405Y-1208761D01*
X-25323786Y-1161142D01*
X-30530834Y6034858D02*
X-30483215Y5987239D01*
X-30340358Y5939620D01*
X-30245120Y5939620D01*
X-30102262Y5987239D01*
X-30007024Y6082477D01*
X-29959405Y6177715D01*
X-29911786Y6368191D01*
X-29911786Y6511048D01*
X-29959405Y6701524D01*
X-30007024Y6796762D01*
X-30102262Y6892000D01*
X-30245120Y6939620D01*
X-30340358Y6939620D01*
X-30483215Y6892000D01*
X-30530834Y6844381D01*
X-31387977Y6606286D02*
X-31387977Y5939620D01*
X-31149881Y6987239D02*
X-30911786Y6272953D01*
X-31530834Y6272953D01*
X-41298858Y14390667D02*
X-41251239Y14438286D01*
X-41203620Y14581143D01*
X-41203620Y14676381D01*
X-41251239Y14819239D01*
X-41346477Y14914477D01*
X-41441715Y14962096D01*
X-41632191Y15009715D01*
X-41775048Y15009715D01*
X-41965524Y14962096D01*
X-42060762Y14914477D01*
X-42156000Y14819239D01*
X-42203620Y14676381D01*
X-42203620Y14581143D01*
X-42156000Y14438286D01*
X-42108381Y14390667D01*
X-42203620Y14057334D02*
X-42203620Y13438286D01*
X-41822667Y13771620D01*
X-41822667Y13628762D01*
X-41775048Y13533524D01*
X-41727429Y13485905D01*
X-41632191Y13438286D01*
X-41394096Y13438286D01*
X-41298858Y13485905D01*
X-41251239Y13533524D01*
X-41203620Y13628762D01*
X-41203620Y13914477D01*
X-41251239Y14009715D01*
X-41298858Y14057334D01*
X-46945254Y547098D02*
X-46897635Y499479D01*
X-46754778Y451860D01*
X-46659540Y451860D01*
X-46516682Y499479D01*
X-46421444Y594717D01*
X-46373825Y689955D01*
X-46326206Y880431D01*
X-46326206Y1023288D01*
X-46373825Y1213764D01*
X-46421444Y1309002D01*
X-46516682Y1404240D01*
X-46659540Y1451860D01*
X-46754778Y1451860D01*
X-46897635Y1404240D01*
X-46945254Y1356621D01*
X-47326206Y1356621D02*
X-47373825Y1404240D01*
X-47469063Y1451860D01*
X-47707159Y1451860D01*
X-47802397Y1404240D01*
X-47850016Y1356621D01*
X-47897635Y1261383D01*
X-47897635Y1166145D01*
X-47850016Y1023288D01*
X-47278587Y451860D01*
X-47897635Y451860D01*
X-51411143Y13803334D02*
X-51458762Y13755715D01*
X-51506381Y13612858D01*
X-51506381Y13517620D01*
X-51458762Y13374762D01*
X-51363524Y13279524D01*
X-51268286Y13231905D01*
X-51077810Y13184286D01*
X-50934953Y13184286D01*
X-50744477Y13231905D01*
X-50649239Y13279524D01*
X-50554000Y13374762D01*
X-50506381Y13517620D01*
X-50506381Y13612858D01*
X-50554000Y13755715D01*
X-50601620Y13803334D01*
X-51506381Y14755715D02*
X-51506381Y14184286D01*
X-51506381Y14470000D02*
X-50506381Y14470000D01*
X-50649239Y14374762D01*
X-50744477Y14279524D01*
X-50792096Y14184286D01*
M02*
