M48
; DRILL file {KiCad (5.1.4)-1} date 10/22/2019 3:03:37 AM
; FORMAT={-:-/ absolute / inch / decimal}
; #@! TF.CreationDate,2019-10-22T03:03:37-07:00
; #@! TF.GenerationSoftware,Kicad,Pcbnew,(5.1.4)-1
; #@! TF.FileFunction,Plated,1,2,PTH
FMAT,2
INCH
T1C0.0098
T2C0.0118
T3C0.0157
T4C0.0197
T5C0.0217
T6C0.0256
T7C0.0394
%
G90
G05
T1
X-1.8397Y0.61
X-1.8003Y0.61
T2
X-1.0547Y0.8647
X-1.0547Y0.8253
X-1.035Y0.845
X-1.0153Y0.8647
X-1.0153Y0.8253
T3
X-1.9687Y0.16
X-1.9432Y0.9285
X-1.9354Y1.1072
X-1.93Y0.6085
X-1.9286Y0.3106
X-1.92Y1.02
X-1.9025Y0.42
X-1.89Y0.73
X-1.8714Y1.058
X-1.87Y1.01
X-1.86Y0.82
X-1.8072Y0.74
X-1.7649Y0.6208
X-1.745Y0.42
X-1.7298Y0.6809
X-1.72Y0.73
X-1.68Y1.02
X-1.6749Y0.4947
X-1.6544Y0.3873
X-1.6434Y0.5233
X-1.63Y1.05
X-1.63Y1.0
X-1.515Y0.61
X-1.47Y1.02
X-1.4518Y0.3042
X-1.445Y0.55
X-1.44Y0.1
X-1.41Y1.02
X-1.39Y0.71
X-1.3886Y0.4014
X-1.385Y0.29
X-1.3839Y0.1828
X-1.38Y0.55
X-1.3625Y0.3343
X-1.35Y0.9285
X-1.3448Y0.2956
X-1.2895Y0.914
X-1.27Y0.32
X-1.255Y0.04
X-1.205Y0.045
X-1.2019Y0.9919
X-1.195Y0.395
X-1.1591Y0.6115
X-1.15Y0.176
X-1.07Y0.43
X-1.0622Y0.9338
X-1.0323Y0.1977
X-0.99Y0.135
X-0.9785Y1.0728
X-0.975Y0.765
X-0.94Y1.14
X-0.9376Y0.6678
X-0.93Y0.9216
X-0.93Y0.43
X-0.93Y0.32
X-0.93Y0.32
X-0.9273Y0.0473
X-0.8838Y0.8409
X-0.876Y0.7628
X-0.8725Y0.0312
X-0.8633Y0.6948
X-0.8595Y0.8099
X-0.7171Y1.1959
X-0.7052Y0.0262
X-0.7015Y-0.013
T6
X-1.6056Y0.2714
X-1.6056Y0.2214
X-1.6056Y0.1714
X-1.6056Y0.1214
X-1.6056Y0.0714
X-1.5556Y0.2714
X-1.5556Y0.2214
X-1.5556Y0.1714
X-1.5556Y0.1214
X-1.5556Y0.0714
T7
X-1.98Y-0.09
X-1.88Y-0.09
X-1.78Y-0.09
X-1.68Y-0.09
X-1.58Y-0.09
X-1.48Y-0.09
X-1.38Y-0.09
X-1.28Y-0.09
X-1.18Y-0.09
X-1.08Y-0.09
X-0.98Y-0.09
X-0.88Y-0.09
X-1.96Y1.22
X-1.86Y1.22
X-2.07Y1.12
X-2.07Y1.02
X-2.07Y0.92
X-2.07Y0.82
X-2.07Y0.72
X-2.07Y0.62
X-2.07Y0.52
X-2.07Y0.42
X-2.07Y0.32
X-2.07Y0.22
X-2.07Y0.12
X-2.07Y0.02
X-0.78Y1.15
X-0.78Y1.05
X-0.78Y0.95
X-0.78Y0.85
X-0.78Y0.75
X-0.78Y0.65
X-0.78Y0.55
X-0.78Y0.45
X-0.78Y0.35
X-0.78Y0.25
X-0.78Y0.15
X-0.78Y0.05
T4
G00X-1.7456Y1.2535
M15
G01X-1.7456Y1.2791
M16
G05
G00X-1.47Y1.2535
M15
G01X-1.47Y1.2791
M16
G05
T5
G00X-1.7003Y1.16
M15
G01X-1.7121Y1.16
M16
G05
G00X-1.5035Y1.16
M15
G01X-1.5153Y1.16
M16
G05
T0
M30
