G04 #@! TF.GenerationSoftware,KiCad,Pcbnew,(5.1.4)-1*
G04 #@! TF.CreationDate,2019-10-22T03:03:10-07:00*
G04 #@! TF.ProjectId,SAM_breakout_board,53414d5f-6272-4656-916b-6f75745f626f,rev?*
G04 #@! TF.SameCoordinates,PXd33a380PY5dfc8c0*
G04 #@! TF.FileFunction,Soldermask,Top*
G04 #@! TF.FilePolarity,Negative*
%FSLAX46Y46*%
G04 Gerber Fmt 4.6, Leading zero omitted, Abs format (unit mm)*
G04 Created by KiCad (PCBNEW (5.1.4)-1) date 2019-10-22 03:03:10*
%MOMM*%
%LPD*%
G04 APERTURE LIST*
%ADD10C,0.050000*%
%ADD11C,0.100000*%
G04 APERTURE END LIST*
D10*
X-56642000Y-6350000D02*
X-56642000Y35052000D01*
X-15748000Y-6350000D02*
X-56642000Y-6350000D01*
X-15748000Y35052000D02*
X-15748000Y-6350000D01*
X-56642000Y35052000D02*
X-15748000Y35052000D01*
D11*
G36*
X-17923097Y-2607075D02*
G01*
X-17861797Y-2632466D01*
X-17695429Y-2701378D01*
X-17490534Y-2838285D01*
X-17316285Y-3012534D01*
X-17179378Y-3217429D01*
X-17085075Y-3445097D01*
X-17037000Y-3686787D01*
X-17037000Y-3933213D01*
X-17085075Y-4174903D01*
X-17179378Y-4402571D01*
X-17316285Y-4607466D01*
X-17490534Y-4781715D01*
X-17695429Y-4918622D01*
X-17695430Y-4918623D01*
X-17695431Y-4918623D01*
X-17923097Y-5012925D01*
X-18164786Y-5061000D01*
X-18411214Y-5061000D01*
X-18652903Y-5012925D01*
X-18880569Y-4918623D01*
X-18880570Y-4918623D01*
X-18880571Y-4918622D01*
X-19085466Y-4781715D01*
X-19259715Y-4607466D01*
X-19396622Y-4402571D01*
X-19490925Y-4174903D01*
X-19539000Y-3933213D01*
X-19539000Y-3686787D01*
X-19490925Y-3445097D01*
X-19396622Y-3217429D01*
X-19259715Y-3012534D01*
X-19085466Y-2838285D01*
X-18880571Y-2701378D01*
X-18714202Y-2632466D01*
X-18652903Y-2607075D01*
X-18411214Y-2559000D01*
X-18164786Y-2559000D01*
X-17923097Y-2607075D01*
X-17923097Y-2607075D01*
G37*
G36*
X-53737097Y-2607075D02*
G01*
X-53675797Y-2632466D01*
X-53509429Y-2701378D01*
X-53304534Y-2838285D01*
X-53130285Y-3012534D01*
X-52993378Y-3217429D01*
X-52899075Y-3445097D01*
X-52851000Y-3686787D01*
X-52851000Y-3933213D01*
X-52899075Y-4174903D01*
X-52993378Y-4402571D01*
X-53130285Y-4607466D01*
X-53304534Y-4781715D01*
X-53509429Y-4918622D01*
X-53509430Y-4918623D01*
X-53509431Y-4918623D01*
X-53737097Y-5012925D01*
X-53978786Y-5061000D01*
X-54225214Y-5061000D01*
X-54466903Y-5012925D01*
X-54694569Y-4918623D01*
X-54694570Y-4918623D01*
X-54694571Y-4918622D01*
X-54899466Y-4781715D01*
X-55073715Y-4607466D01*
X-55210622Y-4402571D01*
X-55304925Y-4174903D01*
X-55353000Y-3933213D01*
X-55353000Y-3686787D01*
X-55304925Y-3445097D01*
X-55210622Y-3217429D01*
X-55073715Y-3012534D01*
X-54899466Y-2838285D01*
X-54694571Y-2701378D01*
X-54528202Y-2632466D01*
X-54466903Y-2607075D01*
X-54225214Y-2559000D01*
X-53978786Y-2559000D01*
X-53737097Y-2607075D01*
X-53737097Y-2607075D01*
G37*
G36*
X-24781557Y-1391519D02*
G01*
X-24715373Y-1398037D01*
X-24545534Y-1449557D01*
X-24389009Y-1533222D01*
X-24353271Y-1562552D01*
X-24251814Y-1645814D01*
X-24168552Y-1747271D01*
X-24139222Y-1783009D01*
X-24055557Y-1939534D01*
X-24004037Y-2109373D01*
X-23986641Y-2286000D01*
X-24004037Y-2462627D01*
X-24055557Y-2632466D01*
X-24139222Y-2788991D01*
X-24168552Y-2824729D01*
X-24251814Y-2926186D01*
X-24353271Y-3009448D01*
X-24389009Y-3038778D01*
X-24545534Y-3122443D01*
X-24715373Y-3173963D01*
X-24781557Y-3180481D01*
X-24847740Y-3187000D01*
X-24936260Y-3187000D01*
X-25002443Y-3180481D01*
X-25068627Y-3173963D01*
X-25238466Y-3122443D01*
X-25394991Y-3038778D01*
X-25430729Y-3009448D01*
X-25532186Y-2926186D01*
X-25615448Y-2824729D01*
X-25644778Y-2788991D01*
X-25728443Y-2632466D01*
X-25779963Y-2462627D01*
X-25797359Y-2286000D01*
X-25779963Y-2109373D01*
X-25728443Y-1939534D01*
X-25644778Y-1783009D01*
X-25615448Y-1747271D01*
X-25532186Y-1645814D01*
X-25430729Y-1562552D01*
X-25394991Y-1533222D01*
X-25238466Y-1449557D01*
X-25068627Y-1398037D01*
X-25002443Y-1391519D01*
X-24936260Y-1385000D01*
X-24847740Y-1385000D01*
X-24781557Y-1391519D01*
X-24781557Y-1391519D01*
G37*
G36*
X-27321557Y-1391519D02*
G01*
X-27255373Y-1398037D01*
X-27085534Y-1449557D01*
X-26929009Y-1533222D01*
X-26893271Y-1562552D01*
X-26791814Y-1645814D01*
X-26708552Y-1747271D01*
X-26679222Y-1783009D01*
X-26595557Y-1939534D01*
X-26544037Y-2109373D01*
X-26526641Y-2286000D01*
X-26544037Y-2462627D01*
X-26595557Y-2632466D01*
X-26679222Y-2788991D01*
X-26708552Y-2824729D01*
X-26791814Y-2926186D01*
X-26893271Y-3009448D01*
X-26929009Y-3038778D01*
X-27085534Y-3122443D01*
X-27255373Y-3173963D01*
X-27321557Y-3180481D01*
X-27387740Y-3187000D01*
X-27476260Y-3187000D01*
X-27542443Y-3180481D01*
X-27608627Y-3173963D01*
X-27778466Y-3122443D01*
X-27934991Y-3038778D01*
X-27970729Y-3009448D01*
X-28072186Y-2926186D01*
X-28155448Y-2824729D01*
X-28184778Y-2788991D01*
X-28268443Y-2632466D01*
X-28319963Y-2462627D01*
X-28337359Y-2286000D01*
X-28319963Y-2109373D01*
X-28268443Y-1939534D01*
X-28184778Y-1783009D01*
X-28155448Y-1747271D01*
X-28072186Y-1645814D01*
X-27970729Y-1562552D01*
X-27934991Y-1533222D01*
X-27778466Y-1449557D01*
X-27608627Y-1398037D01*
X-27542443Y-1391519D01*
X-27476260Y-1385000D01*
X-27387740Y-1385000D01*
X-27321557Y-1391519D01*
X-27321557Y-1391519D01*
G37*
G36*
X-29861557Y-1391519D02*
G01*
X-29795373Y-1398037D01*
X-29625534Y-1449557D01*
X-29469009Y-1533222D01*
X-29433271Y-1562552D01*
X-29331814Y-1645814D01*
X-29248552Y-1747271D01*
X-29219222Y-1783009D01*
X-29135557Y-1939534D01*
X-29084037Y-2109373D01*
X-29066641Y-2286000D01*
X-29084037Y-2462627D01*
X-29135557Y-2632466D01*
X-29219222Y-2788991D01*
X-29248552Y-2824729D01*
X-29331814Y-2926186D01*
X-29433271Y-3009448D01*
X-29469009Y-3038778D01*
X-29625534Y-3122443D01*
X-29795373Y-3173963D01*
X-29861557Y-3180481D01*
X-29927740Y-3187000D01*
X-30016260Y-3187000D01*
X-30082443Y-3180481D01*
X-30148627Y-3173963D01*
X-30318466Y-3122443D01*
X-30474991Y-3038778D01*
X-30510729Y-3009448D01*
X-30612186Y-2926186D01*
X-30695448Y-2824729D01*
X-30724778Y-2788991D01*
X-30808443Y-2632466D01*
X-30859963Y-2462627D01*
X-30877359Y-2286000D01*
X-30859963Y-2109373D01*
X-30808443Y-1939534D01*
X-30724778Y-1783009D01*
X-30695448Y-1747271D01*
X-30612186Y-1645814D01*
X-30510729Y-1562552D01*
X-30474991Y-1533222D01*
X-30318466Y-1449557D01*
X-30148627Y-1398037D01*
X-30082443Y-1391519D01*
X-30016260Y-1385000D01*
X-29927740Y-1385000D01*
X-29861557Y-1391519D01*
X-29861557Y-1391519D01*
G37*
G36*
X-32401557Y-1391519D02*
G01*
X-32335373Y-1398037D01*
X-32165534Y-1449557D01*
X-32009009Y-1533222D01*
X-31973271Y-1562552D01*
X-31871814Y-1645814D01*
X-31788552Y-1747271D01*
X-31759222Y-1783009D01*
X-31675557Y-1939534D01*
X-31624037Y-2109373D01*
X-31606641Y-2286000D01*
X-31624037Y-2462627D01*
X-31675557Y-2632466D01*
X-31759222Y-2788991D01*
X-31788552Y-2824729D01*
X-31871814Y-2926186D01*
X-31973271Y-3009448D01*
X-32009009Y-3038778D01*
X-32165534Y-3122443D01*
X-32335373Y-3173963D01*
X-32401557Y-3180481D01*
X-32467740Y-3187000D01*
X-32556260Y-3187000D01*
X-32622443Y-3180481D01*
X-32688627Y-3173963D01*
X-32858466Y-3122443D01*
X-33014991Y-3038778D01*
X-33050729Y-3009448D01*
X-33152186Y-2926186D01*
X-33235448Y-2824729D01*
X-33264778Y-2788991D01*
X-33348443Y-2632466D01*
X-33399963Y-2462627D01*
X-33417359Y-2286000D01*
X-33399963Y-2109373D01*
X-33348443Y-1939534D01*
X-33264778Y-1783009D01*
X-33235448Y-1747271D01*
X-33152186Y-1645814D01*
X-33050729Y-1562552D01*
X-33014991Y-1533222D01*
X-32858466Y-1449557D01*
X-32688627Y-1398037D01*
X-32622443Y-1391519D01*
X-32556260Y-1385000D01*
X-32467740Y-1385000D01*
X-32401557Y-1391519D01*
X-32401557Y-1391519D01*
G37*
G36*
X-34941557Y-1391519D02*
G01*
X-34875373Y-1398037D01*
X-34705534Y-1449557D01*
X-34549009Y-1533222D01*
X-34513271Y-1562552D01*
X-34411814Y-1645814D01*
X-34328552Y-1747271D01*
X-34299222Y-1783009D01*
X-34215557Y-1939534D01*
X-34164037Y-2109373D01*
X-34146641Y-2286000D01*
X-34164037Y-2462627D01*
X-34215557Y-2632466D01*
X-34299222Y-2788991D01*
X-34328552Y-2824729D01*
X-34411814Y-2926186D01*
X-34513271Y-3009448D01*
X-34549009Y-3038778D01*
X-34705534Y-3122443D01*
X-34875373Y-3173963D01*
X-34941557Y-3180481D01*
X-35007740Y-3187000D01*
X-35096260Y-3187000D01*
X-35162443Y-3180481D01*
X-35228627Y-3173963D01*
X-35398466Y-3122443D01*
X-35554991Y-3038778D01*
X-35590729Y-3009448D01*
X-35692186Y-2926186D01*
X-35775448Y-2824729D01*
X-35804778Y-2788991D01*
X-35888443Y-2632466D01*
X-35939963Y-2462627D01*
X-35957359Y-2286000D01*
X-35939963Y-2109373D01*
X-35888443Y-1939534D01*
X-35804778Y-1783009D01*
X-35775448Y-1747271D01*
X-35692186Y-1645814D01*
X-35590729Y-1562552D01*
X-35554991Y-1533222D01*
X-35398466Y-1449557D01*
X-35228627Y-1398037D01*
X-35162443Y-1391519D01*
X-35096260Y-1385000D01*
X-35007740Y-1385000D01*
X-34941557Y-1391519D01*
X-34941557Y-1391519D01*
G37*
G36*
X-37481557Y-1391519D02*
G01*
X-37415373Y-1398037D01*
X-37245534Y-1449557D01*
X-37089009Y-1533222D01*
X-37053271Y-1562552D01*
X-36951814Y-1645814D01*
X-36868552Y-1747271D01*
X-36839222Y-1783009D01*
X-36755557Y-1939534D01*
X-36704037Y-2109373D01*
X-36686641Y-2286000D01*
X-36704037Y-2462627D01*
X-36755557Y-2632466D01*
X-36839222Y-2788991D01*
X-36868552Y-2824729D01*
X-36951814Y-2926186D01*
X-37053271Y-3009448D01*
X-37089009Y-3038778D01*
X-37245534Y-3122443D01*
X-37415373Y-3173963D01*
X-37481557Y-3180481D01*
X-37547740Y-3187000D01*
X-37636260Y-3187000D01*
X-37702443Y-3180481D01*
X-37768627Y-3173963D01*
X-37938466Y-3122443D01*
X-38094991Y-3038778D01*
X-38130729Y-3009448D01*
X-38232186Y-2926186D01*
X-38315448Y-2824729D01*
X-38344778Y-2788991D01*
X-38428443Y-2632466D01*
X-38479963Y-2462627D01*
X-38497359Y-2286000D01*
X-38479963Y-2109373D01*
X-38428443Y-1939534D01*
X-38344778Y-1783009D01*
X-38315448Y-1747271D01*
X-38232186Y-1645814D01*
X-38130729Y-1562552D01*
X-38094991Y-1533222D01*
X-37938466Y-1449557D01*
X-37768627Y-1398037D01*
X-37702443Y-1391519D01*
X-37636260Y-1385000D01*
X-37547740Y-1385000D01*
X-37481557Y-1391519D01*
X-37481557Y-1391519D01*
G37*
G36*
X-40021557Y-1391519D02*
G01*
X-39955373Y-1398037D01*
X-39785534Y-1449557D01*
X-39629009Y-1533222D01*
X-39593271Y-1562552D01*
X-39491814Y-1645814D01*
X-39408552Y-1747271D01*
X-39379222Y-1783009D01*
X-39295557Y-1939534D01*
X-39244037Y-2109373D01*
X-39226641Y-2286000D01*
X-39244037Y-2462627D01*
X-39295557Y-2632466D01*
X-39379222Y-2788991D01*
X-39408552Y-2824729D01*
X-39491814Y-2926186D01*
X-39593271Y-3009448D01*
X-39629009Y-3038778D01*
X-39785534Y-3122443D01*
X-39955373Y-3173963D01*
X-40021557Y-3180481D01*
X-40087740Y-3187000D01*
X-40176260Y-3187000D01*
X-40242443Y-3180481D01*
X-40308627Y-3173963D01*
X-40478466Y-3122443D01*
X-40634991Y-3038778D01*
X-40670729Y-3009448D01*
X-40772186Y-2926186D01*
X-40855448Y-2824729D01*
X-40884778Y-2788991D01*
X-40968443Y-2632466D01*
X-41019963Y-2462627D01*
X-41037359Y-2286000D01*
X-41019963Y-2109373D01*
X-40968443Y-1939534D01*
X-40884778Y-1783009D01*
X-40855448Y-1747271D01*
X-40772186Y-1645814D01*
X-40670729Y-1562552D01*
X-40634991Y-1533222D01*
X-40478466Y-1449557D01*
X-40308627Y-1398037D01*
X-40242443Y-1391519D01*
X-40176260Y-1385000D01*
X-40087740Y-1385000D01*
X-40021557Y-1391519D01*
X-40021557Y-1391519D01*
G37*
G36*
X-42561557Y-1391519D02*
G01*
X-42495373Y-1398037D01*
X-42325534Y-1449557D01*
X-42169009Y-1533222D01*
X-42133271Y-1562552D01*
X-42031814Y-1645814D01*
X-41948552Y-1747271D01*
X-41919222Y-1783009D01*
X-41835557Y-1939534D01*
X-41784037Y-2109373D01*
X-41766641Y-2286000D01*
X-41784037Y-2462627D01*
X-41835557Y-2632466D01*
X-41919222Y-2788991D01*
X-41948552Y-2824729D01*
X-42031814Y-2926186D01*
X-42133271Y-3009448D01*
X-42169009Y-3038778D01*
X-42325534Y-3122443D01*
X-42495373Y-3173963D01*
X-42561557Y-3180481D01*
X-42627740Y-3187000D01*
X-42716260Y-3187000D01*
X-42782443Y-3180481D01*
X-42848627Y-3173963D01*
X-43018466Y-3122443D01*
X-43174991Y-3038778D01*
X-43210729Y-3009448D01*
X-43312186Y-2926186D01*
X-43395448Y-2824729D01*
X-43424778Y-2788991D01*
X-43508443Y-2632466D01*
X-43559963Y-2462627D01*
X-43577359Y-2286000D01*
X-43559963Y-2109373D01*
X-43508443Y-1939534D01*
X-43424778Y-1783009D01*
X-43395448Y-1747271D01*
X-43312186Y-1645814D01*
X-43210729Y-1562552D01*
X-43174991Y-1533222D01*
X-43018466Y-1449557D01*
X-42848627Y-1398037D01*
X-42782443Y-1391519D01*
X-42716260Y-1385000D01*
X-42627740Y-1385000D01*
X-42561557Y-1391519D01*
X-42561557Y-1391519D01*
G37*
G36*
X-45101557Y-1391519D02*
G01*
X-45035373Y-1398037D01*
X-44865534Y-1449557D01*
X-44709009Y-1533222D01*
X-44673271Y-1562552D01*
X-44571814Y-1645814D01*
X-44488552Y-1747271D01*
X-44459222Y-1783009D01*
X-44375557Y-1939534D01*
X-44324037Y-2109373D01*
X-44306641Y-2286000D01*
X-44324037Y-2462627D01*
X-44375557Y-2632466D01*
X-44459222Y-2788991D01*
X-44488552Y-2824729D01*
X-44571814Y-2926186D01*
X-44673271Y-3009448D01*
X-44709009Y-3038778D01*
X-44865534Y-3122443D01*
X-45035373Y-3173963D01*
X-45101557Y-3180481D01*
X-45167740Y-3187000D01*
X-45256260Y-3187000D01*
X-45322443Y-3180481D01*
X-45388627Y-3173963D01*
X-45558466Y-3122443D01*
X-45714991Y-3038778D01*
X-45750729Y-3009448D01*
X-45852186Y-2926186D01*
X-45935448Y-2824729D01*
X-45964778Y-2788991D01*
X-46048443Y-2632466D01*
X-46099963Y-2462627D01*
X-46117359Y-2286000D01*
X-46099963Y-2109373D01*
X-46048443Y-1939534D01*
X-45964778Y-1783009D01*
X-45935448Y-1747271D01*
X-45852186Y-1645814D01*
X-45750729Y-1562552D01*
X-45714991Y-1533222D01*
X-45558466Y-1449557D01*
X-45388627Y-1398037D01*
X-45322443Y-1391519D01*
X-45256260Y-1385000D01*
X-45167740Y-1385000D01*
X-45101557Y-1391519D01*
X-45101557Y-1391519D01*
G37*
G36*
X-47641557Y-1391519D02*
G01*
X-47575373Y-1398037D01*
X-47405534Y-1449557D01*
X-47249009Y-1533222D01*
X-47213271Y-1562552D01*
X-47111814Y-1645814D01*
X-47028552Y-1747271D01*
X-46999222Y-1783009D01*
X-46915557Y-1939534D01*
X-46864037Y-2109373D01*
X-46846641Y-2286000D01*
X-46864037Y-2462627D01*
X-46915557Y-2632466D01*
X-46999222Y-2788991D01*
X-47028552Y-2824729D01*
X-47111814Y-2926186D01*
X-47213271Y-3009448D01*
X-47249009Y-3038778D01*
X-47405534Y-3122443D01*
X-47575373Y-3173963D01*
X-47641557Y-3180481D01*
X-47707740Y-3187000D01*
X-47796260Y-3187000D01*
X-47862443Y-3180481D01*
X-47928627Y-3173963D01*
X-48098466Y-3122443D01*
X-48254991Y-3038778D01*
X-48290729Y-3009448D01*
X-48392186Y-2926186D01*
X-48475448Y-2824729D01*
X-48504778Y-2788991D01*
X-48588443Y-2632466D01*
X-48639963Y-2462627D01*
X-48657359Y-2286000D01*
X-48639963Y-2109373D01*
X-48588443Y-1939534D01*
X-48504778Y-1783009D01*
X-48475448Y-1747271D01*
X-48392186Y-1645814D01*
X-48290729Y-1562552D01*
X-48254991Y-1533222D01*
X-48098466Y-1449557D01*
X-47928627Y-1398037D01*
X-47862443Y-1391519D01*
X-47796260Y-1385000D01*
X-47707740Y-1385000D01*
X-47641557Y-1391519D01*
X-47641557Y-1391519D01*
G37*
G36*
X-49391000Y-3187000D02*
G01*
X-51193000Y-3187000D01*
X-51193000Y-1385000D01*
X-49391000Y-1385000D01*
X-49391000Y-3187000D01*
X-49391000Y-3187000D01*
G37*
G36*
X-22241557Y-1391519D02*
G01*
X-22175373Y-1398037D01*
X-22005534Y-1449557D01*
X-21849009Y-1533222D01*
X-21813271Y-1562552D01*
X-21711814Y-1645814D01*
X-21628552Y-1747271D01*
X-21599222Y-1783009D01*
X-21515557Y-1939534D01*
X-21464037Y-2109373D01*
X-21446641Y-2286000D01*
X-21464037Y-2462627D01*
X-21515557Y-2632466D01*
X-21599222Y-2788991D01*
X-21628552Y-2824729D01*
X-21711814Y-2926186D01*
X-21813271Y-3009448D01*
X-21849009Y-3038778D01*
X-22005534Y-3122443D01*
X-22175373Y-3173963D01*
X-22241557Y-3180481D01*
X-22307740Y-3187000D01*
X-22396260Y-3187000D01*
X-22462443Y-3180481D01*
X-22528627Y-3173963D01*
X-22698466Y-3122443D01*
X-22854991Y-3038778D01*
X-22890729Y-3009448D01*
X-22992186Y-2926186D01*
X-23075448Y-2824729D01*
X-23104778Y-2788991D01*
X-23188443Y-2632466D01*
X-23239963Y-2462627D01*
X-23257359Y-2286000D01*
X-23239963Y-2109373D01*
X-23188443Y-1939534D01*
X-23104778Y-1783009D01*
X-23075448Y-1747271D01*
X-22992186Y-1645814D01*
X-22890729Y-1562552D01*
X-22854991Y-1533222D01*
X-22698466Y-1449557D01*
X-22528627Y-1398037D01*
X-22462443Y-1391519D01*
X-22396260Y-1385000D01*
X-22307740Y-1385000D01*
X-22241557Y-1391519D01*
X-22241557Y-1391519D01*
G37*
G36*
X-52467557Y1402481D02*
G01*
X-52401373Y1395963D01*
X-52231534Y1344443D01*
X-52075009Y1260778D01*
X-52039271Y1231448D01*
X-51937814Y1148186D01*
X-51854552Y1046729D01*
X-51825222Y1010991D01*
X-51741557Y854466D01*
X-51690037Y684627D01*
X-51672641Y508000D01*
X-51690037Y331373D01*
X-51741557Y161534D01*
X-51825222Y5009D01*
X-51854552Y-30729D01*
X-51937814Y-132186D01*
X-52039271Y-215448D01*
X-52075009Y-244778D01*
X-52231534Y-328443D01*
X-52401373Y-379963D01*
X-52467557Y-386481D01*
X-52533740Y-393000D01*
X-52622260Y-393000D01*
X-52688442Y-386482D01*
X-52754627Y-379963D01*
X-52924466Y-328443D01*
X-53080991Y-244778D01*
X-53116729Y-215448D01*
X-53218186Y-132186D01*
X-53301448Y-30729D01*
X-53330778Y5009D01*
X-53414443Y161534D01*
X-53465963Y331373D01*
X-53483359Y508000D01*
X-53465963Y684627D01*
X-53414443Y854466D01*
X-53330778Y1010991D01*
X-53301448Y1046729D01*
X-53218186Y1148186D01*
X-53116729Y1231448D01*
X-53080991Y1260778D01*
X-52924466Y1344443D01*
X-52754627Y1395963D01*
X-52688442Y1402482D01*
X-52622260Y1409000D01*
X-52533740Y1409000D01*
X-52467557Y1402481D01*
X-52467557Y1402481D01*
G37*
G36*
X-48439000Y-287000D02*
G01*
X-49541000Y-287000D01*
X-49541000Y2615000D01*
X-48439000Y2615000D01*
X-48439000Y-287000D01*
X-48439000Y-287000D01*
G37*
G36*
X-44439000Y-287000D02*
G01*
X-45541000Y-287000D01*
X-45541000Y2615000D01*
X-44439000Y2615000D01*
X-44439000Y-287000D01*
X-44439000Y-287000D01*
G37*
G36*
X-18911000Y369000D02*
G01*
X-20713000Y369000D01*
X-20713000Y2171000D01*
X-18911000Y2171000D01*
X-18911000Y369000D01*
X-18911000Y369000D01*
G37*
G36*
X-27822520Y615420D02*
G01*
X-29824520Y615420D01*
X-29824520Y2017420D01*
X-27822520Y2017420D01*
X-27822520Y615420D01*
X-27822520Y615420D01*
G37*
G36*
X-24622520Y615420D02*
G01*
X-26624520Y615420D01*
X-26624520Y2017420D01*
X-24622520Y2017420D01*
X-24622520Y615420D01*
X-24622520Y615420D01*
G37*
G36*
X-40231240Y7216295D02*
G01*
X-40228838Y7191909D01*
X-40221725Y7168460D01*
X-40210174Y7146849D01*
X-40194629Y7127907D01*
X-40175687Y7112362D01*
X-40154076Y7100811D01*
X-40130627Y7093698D01*
X-40106241Y7091296D01*
X-40081855Y7093698D01*
X-40058406Y7100811D01*
X-40036795Y7112362D01*
X-40017853Y7127907D01*
X-40002308Y7146849D01*
X-39996007Y7157362D01*
X-39972596Y7201160D01*
X-39903741Y7285061D01*
X-39895824Y7291558D01*
X-39819840Y7353917D01*
X-39751295Y7390555D01*
X-39724119Y7405081D01*
X-39620255Y7436587D01*
X-39539307Y7444560D01*
X-39485173Y7444560D01*
X-39404225Y7436587D01*
X-39300361Y7405081D01*
X-39273185Y7390555D01*
X-39204640Y7353917D01*
X-39120739Y7285061D01*
X-39051883Y7201160D01*
X-39015245Y7132615D01*
X-39000719Y7105439D01*
X-38969213Y7001575D01*
X-38958574Y6893560D01*
X-38969213Y6785545D01*
X-39000719Y6681681D01*
X-39001049Y6681064D01*
X-39051883Y6585960D01*
X-39120739Y6502059D01*
X-39204640Y6433203D01*
X-39273185Y6396565D01*
X-39300361Y6382039D01*
X-39313109Y6378172D01*
X-39335736Y6368800D01*
X-39356110Y6355186D01*
X-39373437Y6337859D01*
X-39387051Y6317485D01*
X-39396428Y6294846D01*
X-39401209Y6270813D01*
X-39401209Y6246309D01*
X-39396429Y6222275D01*
X-39387052Y6199636D01*
X-39373438Y6179262D01*
X-39356111Y6161935D01*
X-39335737Y6148321D01*
X-39313109Y6138948D01*
X-39300361Y6135081D01*
X-39281808Y6125164D01*
X-39204640Y6083917D01*
X-39120739Y6015061D01*
X-39051883Y5931160D01*
X-39015245Y5862615D01*
X-39000719Y5835439D01*
X-38969213Y5731575D01*
X-38958574Y5623560D01*
X-38969213Y5515545D01*
X-39000719Y5411681D01*
X-39000721Y5411678D01*
X-39051883Y5315960D01*
X-39120739Y5232059D01*
X-39204640Y5163203D01*
X-39273185Y5126565D01*
X-39300361Y5112039D01*
X-39313109Y5108172D01*
X-39335736Y5098800D01*
X-39356110Y5085186D01*
X-39373437Y5067859D01*
X-39387051Y5047485D01*
X-39396428Y5024846D01*
X-39401209Y5000813D01*
X-39401209Y4976309D01*
X-39396429Y4952275D01*
X-39387052Y4929636D01*
X-39373438Y4909262D01*
X-39356111Y4891935D01*
X-39335737Y4878321D01*
X-39313109Y4868948D01*
X-39300361Y4865081D01*
X-39273185Y4850555D01*
X-39204640Y4813917D01*
X-39120739Y4745061D01*
X-39051883Y4661160D01*
X-39043188Y4644892D01*
X-39000719Y4565439D01*
X-38969213Y4461575D01*
X-38958574Y4353560D01*
X-38969213Y4245545D01*
X-39000719Y4141681D01*
X-39000721Y4141678D01*
X-39051883Y4045960D01*
X-39120739Y3962059D01*
X-39204640Y3893203D01*
X-39273185Y3856565D01*
X-39300361Y3842039D01*
X-39313109Y3838172D01*
X-39335736Y3828800D01*
X-39356110Y3815186D01*
X-39373437Y3797859D01*
X-39387051Y3777485D01*
X-39396428Y3754846D01*
X-39401209Y3730813D01*
X-39401209Y3706309D01*
X-39396429Y3682275D01*
X-39387052Y3659636D01*
X-39373438Y3639262D01*
X-39356111Y3621935D01*
X-39335737Y3608321D01*
X-39313109Y3598948D01*
X-39300361Y3595081D01*
X-39273185Y3580555D01*
X-39204640Y3543917D01*
X-39120739Y3475061D01*
X-39051883Y3391160D01*
X-39015245Y3322615D01*
X-39000719Y3295439D01*
X-38969213Y3191575D01*
X-38958574Y3083560D01*
X-38969213Y2975545D01*
X-39000719Y2871681D01*
X-39000721Y2871678D01*
X-39051883Y2775960D01*
X-39120739Y2692059D01*
X-39204640Y2623203D01*
X-39273185Y2586565D01*
X-39300361Y2572039D01*
X-39313109Y2568172D01*
X-39335736Y2558800D01*
X-39356110Y2545186D01*
X-39373437Y2527859D01*
X-39387051Y2507485D01*
X-39396428Y2484846D01*
X-39401209Y2460813D01*
X-39401209Y2436309D01*
X-39396429Y2412275D01*
X-39387052Y2389636D01*
X-39373438Y2369262D01*
X-39356111Y2351935D01*
X-39335737Y2338321D01*
X-39313109Y2328948D01*
X-39300361Y2325081D01*
X-39273185Y2310555D01*
X-39204640Y2273917D01*
X-39120739Y2205061D01*
X-39051883Y2121160D01*
X-39030764Y2081648D01*
X-39000719Y2025439D01*
X-38969213Y1921575D01*
X-38958574Y1813560D01*
X-38969213Y1705545D01*
X-39000719Y1601681D01*
X-39000721Y1601678D01*
X-39051883Y1505960D01*
X-39120739Y1422059D01*
X-39204640Y1353203D01*
X-39273185Y1316565D01*
X-39300361Y1302039D01*
X-39404225Y1270533D01*
X-39485173Y1262560D01*
X-39539307Y1262560D01*
X-39620255Y1270533D01*
X-39724119Y1302039D01*
X-39751295Y1316565D01*
X-39819840Y1353203D01*
X-39903741Y1422059D01*
X-39972597Y1505960D01*
X-40023759Y1601678D01*
X-40023761Y1601681D01*
X-40027628Y1614429D01*
X-40037000Y1637056D01*
X-40050614Y1657430D01*
X-40067941Y1674757D01*
X-40088315Y1688371D01*
X-40110954Y1697748D01*
X-40134987Y1702529D01*
X-40159491Y1702529D01*
X-40183525Y1697749D01*
X-40206164Y1688372D01*
X-40226538Y1674758D01*
X-40243865Y1657431D01*
X-40257479Y1637057D01*
X-40266852Y1614429D01*
X-40270719Y1601681D01*
X-40270721Y1601678D01*
X-40321883Y1505960D01*
X-40390739Y1422059D01*
X-40474640Y1353203D01*
X-40543185Y1316565D01*
X-40570361Y1302039D01*
X-40674225Y1270533D01*
X-40755173Y1262560D01*
X-40809307Y1262560D01*
X-40890255Y1270533D01*
X-40994119Y1302039D01*
X-41021295Y1316565D01*
X-41089840Y1353203D01*
X-41173741Y1422059D01*
X-41242597Y1505960D01*
X-41293759Y1601678D01*
X-41293761Y1601681D01*
X-41325267Y1705545D01*
X-41335906Y1813560D01*
X-41325267Y1921575D01*
X-41293761Y2025439D01*
X-41263716Y2081648D01*
X-41242597Y2121160D01*
X-41173741Y2205061D01*
X-41089840Y2273917D01*
X-41021295Y2310555D01*
X-40994119Y2325081D01*
X-40981371Y2328948D01*
X-40958744Y2338320D01*
X-40938370Y2351934D01*
X-40921043Y2369261D01*
X-40907429Y2389635D01*
X-40898052Y2412274D01*
X-40893271Y2436307D01*
X-40893271Y2460811D01*
X-40893271Y2460813D01*
X-40671209Y2460813D01*
X-40671209Y2436309D01*
X-40666429Y2412275D01*
X-40657052Y2389636D01*
X-40643438Y2369262D01*
X-40626111Y2351935D01*
X-40605737Y2338321D01*
X-40583109Y2328948D01*
X-40570361Y2325081D01*
X-40543185Y2310555D01*
X-40474640Y2273917D01*
X-40390739Y2205061D01*
X-40321883Y2121160D01*
X-40300764Y2081648D01*
X-40270719Y2025439D01*
X-40266852Y2012691D01*
X-40257480Y1990064D01*
X-40243866Y1969690D01*
X-40226539Y1952363D01*
X-40206165Y1938749D01*
X-40183526Y1929372D01*
X-40159493Y1924591D01*
X-40134989Y1924591D01*
X-40110955Y1929371D01*
X-40088316Y1938748D01*
X-40067942Y1952362D01*
X-40050615Y1969689D01*
X-40037001Y1990063D01*
X-40027628Y2012691D01*
X-40023761Y2025439D01*
X-39993716Y2081648D01*
X-39972597Y2121160D01*
X-39903741Y2205061D01*
X-39819840Y2273917D01*
X-39751295Y2310555D01*
X-39724119Y2325081D01*
X-39711371Y2328948D01*
X-39688744Y2338320D01*
X-39668370Y2351934D01*
X-39651043Y2369261D01*
X-39637429Y2389635D01*
X-39628052Y2412274D01*
X-39623271Y2436307D01*
X-39623271Y2460811D01*
X-39628051Y2484845D01*
X-39637428Y2507484D01*
X-39651042Y2527858D01*
X-39668369Y2545185D01*
X-39688743Y2558799D01*
X-39711371Y2568172D01*
X-39724119Y2572039D01*
X-39751295Y2586565D01*
X-39819840Y2623203D01*
X-39903741Y2692059D01*
X-39972597Y2775960D01*
X-40023759Y2871678D01*
X-40023761Y2871681D01*
X-40027628Y2884429D01*
X-40037000Y2907056D01*
X-40050614Y2927430D01*
X-40067941Y2944757D01*
X-40088315Y2958371D01*
X-40110954Y2967748D01*
X-40134987Y2972529D01*
X-40159491Y2972529D01*
X-40183525Y2967749D01*
X-40206164Y2958372D01*
X-40226538Y2944758D01*
X-40243865Y2927431D01*
X-40257479Y2907057D01*
X-40266852Y2884429D01*
X-40270719Y2871681D01*
X-40270721Y2871678D01*
X-40321883Y2775960D01*
X-40390739Y2692059D01*
X-40474640Y2623203D01*
X-40543185Y2586565D01*
X-40570361Y2572039D01*
X-40583109Y2568172D01*
X-40605736Y2558800D01*
X-40626110Y2545186D01*
X-40643437Y2527859D01*
X-40657051Y2507485D01*
X-40666428Y2484846D01*
X-40671209Y2460813D01*
X-40893271Y2460813D01*
X-40898051Y2484845D01*
X-40907428Y2507484D01*
X-40921042Y2527858D01*
X-40938369Y2545185D01*
X-40958743Y2558799D01*
X-40981371Y2568172D01*
X-40994119Y2572039D01*
X-41021295Y2586565D01*
X-41089840Y2623203D01*
X-41173741Y2692059D01*
X-41242597Y2775960D01*
X-41293759Y2871678D01*
X-41293761Y2871681D01*
X-41325267Y2975545D01*
X-41335906Y3083560D01*
X-41325267Y3191575D01*
X-41293761Y3295439D01*
X-41279235Y3322615D01*
X-41242597Y3391160D01*
X-41173741Y3475061D01*
X-41089840Y3543917D01*
X-41021295Y3580555D01*
X-40994119Y3595081D01*
X-40981371Y3598948D01*
X-40958744Y3608320D01*
X-40938370Y3621934D01*
X-40921043Y3639261D01*
X-40907429Y3659635D01*
X-40898052Y3682274D01*
X-40893271Y3706307D01*
X-40893271Y3730811D01*
X-40893271Y3730813D01*
X-40671209Y3730813D01*
X-40671209Y3706309D01*
X-40666429Y3682275D01*
X-40657052Y3659636D01*
X-40643438Y3639262D01*
X-40626111Y3621935D01*
X-40605737Y3608321D01*
X-40583109Y3598948D01*
X-40570361Y3595081D01*
X-40543185Y3580555D01*
X-40474640Y3543917D01*
X-40390739Y3475061D01*
X-40321883Y3391160D01*
X-40285245Y3322615D01*
X-40270719Y3295439D01*
X-40266852Y3282691D01*
X-40257480Y3260064D01*
X-40243866Y3239690D01*
X-40226539Y3222363D01*
X-40206165Y3208749D01*
X-40183526Y3199372D01*
X-40159493Y3194591D01*
X-40134989Y3194591D01*
X-40110955Y3199371D01*
X-40088316Y3208748D01*
X-40067942Y3222362D01*
X-40050615Y3239689D01*
X-40037001Y3260063D01*
X-40027628Y3282691D01*
X-40023761Y3295439D01*
X-40009235Y3322615D01*
X-39972597Y3391160D01*
X-39903741Y3475061D01*
X-39819840Y3543917D01*
X-39751295Y3580555D01*
X-39724119Y3595081D01*
X-39711371Y3598948D01*
X-39688744Y3608320D01*
X-39668370Y3621934D01*
X-39651043Y3639261D01*
X-39637429Y3659635D01*
X-39628052Y3682274D01*
X-39623271Y3706307D01*
X-39623271Y3730811D01*
X-39628051Y3754845D01*
X-39637428Y3777484D01*
X-39651042Y3797858D01*
X-39668369Y3815185D01*
X-39688743Y3828799D01*
X-39711371Y3838172D01*
X-39724119Y3842039D01*
X-39751295Y3856565D01*
X-39819840Y3893203D01*
X-39903741Y3962059D01*
X-39972597Y4045960D01*
X-40023759Y4141678D01*
X-40023761Y4141681D01*
X-40027628Y4154429D01*
X-40037000Y4177056D01*
X-40050614Y4197430D01*
X-40067941Y4214757D01*
X-40088315Y4228371D01*
X-40110954Y4237748D01*
X-40134987Y4242529D01*
X-40159491Y4242529D01*
X-40183525Y4237749D01*
X-40206164Y4228372D01*
X-40226538Y4214758D01*
X-40243865Y4197431D01*
X-40257479Y4177057D01*
X-40266852Y4154429D01*
X-40270719Y4141681D01*
X-40270721Y4141678D01*
X-40321883Y4045960D01*
X-40390739Y3962059D01*
X-40474640Y3893203D01*
X-40543185Y3856565D01*
X-40570361Y3842039D01*
X-40583109Y3838172D01*
X-40605736Y3828800D01*
X-40626110Y3815186D01*
X-40643437Y3797859D01*
X-40657051Y3777485D01*
X-40666428Y3754846D01*
X-40671209Y3730813D01*
X-40893271Y3730813D01*
X-40898051Y3754845D01*
X-40907428Y3777484D01*
X-40921042Y3797858D01*
X-40938369Y3815185D01*
X-40958743Y3828799D01*
X-40981371Y3838172D01*
X-40994119Y3842039D01*
X-41021295Y3856565D01*
X-41089840Y3893203D01*
X-41173741Y3962059D01*
X-41242597Y4045960D01*
X-41293759Y4141678D01*
X-41293761Y4141681D01*
X-41325267Y4245545D01*
X-41335906Y4353560D01*
X-41325267Y4461575D01*
X-41293761Y4565439D01*
X-41251292Y4644892D01*
X-41242597Y4661160D01*
X-41173741Y4745061D01*
X-41089840Y4813917D01*
X-41021295Y4850555D01*
X-40994119Y4865081D01*
X-40981371Y4868948D01*
X-40958744Y4878320D01*
X-40938370Y4891934D01*
X-40921043Y4909261D01*
X-40907429Y4929635D01*
X-40898052Y4952274D01*
X-40893271Y4976307D01*
X-40893271Y5000811D01*
X-40893271Y5000813D01*
X-40671209Y5000813D01*
X-40671209Y4976309D01*
X-40666429Y4952275D01*
X-40657052Y4929636D01*
X-40643438Y4909262D01*
X-40626111Y4891935D01*
X-40605737Y4878321D01*
X-40583109Y4868948D01*
X-40570361Y4865081D01*
X-40543185Y4850555D01*
X-40474640Y4813917D01*
X-40390739Y4745061D01*
X-40321883Y4661160D01*
X-40313188Y4644892D01*
X-40270719Y4565439D01*
X-40266852Y4552691D01*
X-40257480Y4530064D01*
X-40243866Y4509690D01*
X-40226539Y4492363D01*
X-40206165Y4478749D01*
X-40183526Y4469372D01*
X-40159493Y4464591D01*
X-40134989Y4464591D01*
X-40110955Y4469371D01*
X-40088316Y4478748D01*
X-40067942Y4492362D01*
X-40050615Y4509689D01*
X-40037001Y4530063D01*
X-40027628Y4552691D01*
X-40023761Y4565439D01*
X-39981292Y4644892D01*
X-39972597Y4661160D01*
X-39903741Y4745061D01*
X-39819840Y4813917D01*
X-39751295Y4850555D01*
X-39724119Y4865081D01*
X-39711371Y4868948D01*
X-39688744Y4878320D01*
X-39668370Y4891934D01*
X-39651043Y4909261D01*
X-39637429Y4929635D01*
X-39628052Y4952274D01*
X-39623271Y4976307D01*
X-39623271Y5000811D01*
X-39628051Y5024845D01*
X-39637428Y5047484D01*
X-39651042Y5067858D01*
X-39668369Y5085185D01*
X-39688743Y5098799D01*
X-39711371Y5108172D01*
X-39724119Y5112039D01*
X-39751295Y5126565D01*
X-39819840Y5163203D01*
X-39903741Y5232059D01*
X-39972597Y5315960D01*
X-40023759Y5411678D01*
X-40023761Y5411681D01*
X-40027628Y5424429D01*
X-40037000Y5447056D01*
X-40050614Y5467430D01*
X-40067941Y5484757D01*
X-40088315Y5498371D01*
X-40110954Y5507748D01*
X-40134987Y5512529D01*
X-40159491Y5512529D01*
X-40183525Y5507749D01*
X-40206164Y5498372D01*
X-40226538Y5484758D01*
X-40243865Y5467431D01*
X-40257479Y5447057D01*
X-40266852Y5424429D01*
X-40270719Y5411681D01*
X-40270721Y5411678D01*
X-40321883Y5315960D01*
X-40390739Y5232059D01*
X-40474640Y5163203D01*
X-40543185Y5126565D01*
X-40570361Y5112039D01*
X-40583109Y5108172D01*
X-40605736Y5098800D01*
X-40626110Y5085186D01*
X-40643437Y5067859D01*
X-40657051Y5047485D01*
X-40666428Y5024846D01*
X-40671209Y5000813D01*
X-40893271Y5000813D01*
X-40898051Y5024845D01*
X-40907428Y5047484D01*
X-40921042Y5067858D01*
X-40938369Y5085185D01*
X-40958743Y5098799D01*
X-40981371Y5108172D01*
X-40994119Y5112039D01*
X-41021295Y5126565D01*
X-41089840Y5163203D01*
X-41173741Y5232059D01*
X-41242597Y5315960D01*
X-41293759Y5411678D01*
X-41293761Y5411681D01*
X-41325267Y5515545D01*
X-41335906Y5623560D01*
X-41325267Y5731575D01*
X-41293761Y5835439D01*
X-41279235Y5862615D01*
X-41242597Y5931160D01*
X-41173741Y6015061D01*
X-41089841Y6083915D01*
X-41089842Y6083915D01*
X-41089840Y6083916D01*
X-41046047Y6107324D01*
X-41025677Y6120935D01*
X-41008350Y6138262D01*
X-40994736Y6158636D01*
X-40985359Y6181275D01*
X-40980578Y6205308D01*
X-40980578Y6217561D01*
X-40584504Y6217561D01*
X-40582102Y6193175D01*
X-40574989Y6169726D01*
X-40563438Y6148115D01*
X-40547893Y6129173D01*
X-40528951Y6113628D01*
X-40518438Y6107327D01*
X-40474640Y6083916D01*
X-40474638Y6083915D01*
X-40474639Y6083915D01*
X-40390739Y6015061D01*
X-40321883Y5931160D01*
X-40285245Y5862615D01*
X-40270719Y5835439D01*
X-40266852Y5822691D01*
X-40257480Y5800064D01*
X-40243866Y5779690D01*
X-40226539Y5762363D01*
X-40206165Y5748749D01*
X-40183526Y5739372D01*
X-40159493Y5734591D01*
X-40134989Y5734591D01*
X-40110955Y5739371D01*
X-40088316Y5748748D01*
X-40067942Y5762362D01*
X-40050615Y5779689D01*
X-40037001Y5800063D01*
X-40027628Y5822691D01*
X-40023761Y5835439D01*
X-40009235Y5862615D01*
X-39972597Y5931160D01*
X-39903741Y6015061D01*
X-39819840Y6083917D01*
X-39742672Y6125164D01*
X-39724119Y6135081D01*
X-39711371Y6138948D01*
X-39688744Y6148320D01*
X-39668370Y6161934D01*
X-39651043Y6179261D01*
X-39637429Y6199635D01*
X-39628052Y6222274D01*
X-39623271Y6246307D01*
X-39623271Y6270811D01*
X-39628051Y6294845D01*
X-39637428Y6317484D01*
X-39651042Y6337858D01*
X-39668369Y6355185D01*
X-39688743Y6368799D01*
X-39711371Y6378172D01*
X-39724119Y6382039D01*
X-39751295Y6396565D01*
X-39819840Y6433203D01*
X-39903741Y6502059D01*
X-39972595Y6585959D01*
X-39972596Y6585960D01*
X-39996004Y6629753D01*
X-40009615Y6650123D01*
X-40026942Y6667450D01*
X-40047316Y6681064D01*
X-40069955Y6690441D01*
X-40093988Y6695222D01*
X-40118492Y6695222D01*
X-40142526Y6690442D01*
X-40165164Y6681065D01*
X-40185539Y6667451D01*
X-40202866Y6650124D01*
X-40216480Y6629750D01*
X-40225857Y6607111D01*
X-40230638Y6583078D01*
X-40231240Y6570825D01*
X-40231240Y6342560D01*
X-40459505Y6342560D01*
X-40483891Y6340158D01*
X-40507340Y6333045D01*
X-40528951Y6321494D01*
X-40547893Y6305949D01*
X-40563438Y6287007D01*
X-40574989Y6265396D01*
X-40582102Y6241947D01*
X-40584504Y6217561D01*
X-40980578Y6217561D01*
X-40980578Y6229812D01*
X-40985358Y6253846D01*
X-40994735Y6276484D01*
X-41008349Y6296859D01*
X-41025676Y6314186D01*
X-41046050Y6327800D01*
X-41068689Y6337177D01*
X-41092722Y6341958D01*
X-41104975Y6342560D01*
X-41333240Y6342560D01*
X-41333240Y7444560D01*
X-40231240Y7444560D01*
X-40231240Y7216295D01*
X-40231240Y7216295D01*
G37*
G36*
X-31101438Y3172319D02*
G01*
X-31066519Y3161726D01*
X-31034337Y3144524D01*
X-31006127Y3121373D01*
X-30982976Y3093163D01*
X-30965774Y3060981D01*
X-30955181Y3026062D01*
X-30951000Y2983605D01*
X-30951000Y1842395D01*
X-30955181Y1799938D01*
X-30965774Y1765019D01*
X-30982976Y1732837D01*
X-31006127Y1704627D01*
X-31034337Y1681476D01*
X-31066519Y1664274D01*
X-31101438Y1653681D01*
X-31143895Y1649500D01*
X-32610105Y1649500D01*
X-32652562Y1653681D01*
X-32687481Y1664274D01*
X-32719663Y1681476D01*
X-32747873Y1704627D01*
X-32771024Y1732837D01*
X-32788226Y1765019D01*
X-32798819Y1799938D01*
X-32803000Y1842395D01*
X-32803000Y2983605D01*
X-32798819Y3026062D01*
X-32788226Y3060981D01*
X-32771024Y3093163D01*
X-32747873Y3121373D01*
X-32719663Y3144524D01*
X-32687481Y3161726D01*
X-32652562Y3172319D01*
X-32610105Y3176500D01*
X-31143895Y3176500D01*
X-31101438Y3172319D01*
X-31101438Y3172319D01*
G37*
G36*
X-22407018Y3311359D02*
G01*
X-22372099Y3300766D01*
X-22339917Y3283564D01*
X-22311707Y3260413D01*
X-22288556Y3232203D01*
X-22271354Y3200021D01*
X-22260761Y3165102D01*
X-22256580Y3122645D01*
X-22256580Y1981435D01*
X-22260761Y1938978D01*
X-22271354Y1904059D01*
X-22288556Y1871877D01*
X-22311707Y1843667D01*
X-22339917Y1820516D01*
X-22372099Y1803314D01*
X-22407018Y1792721D01*
X-22449475Y1788540D01*
X-23915685Y1788540D01*
X-23958142Y1792721D01*
X-23993061Y1803314D01*
X-24025243Y1820516D01*
X-24053453Y1843667D01*
X-24076604Y1871877D01*
X-24093806Y1904059D01*
X-24104399Y1938978D01*
X-24108580Y1981435D01*
X-24108580Y3122645D01*
X-24104399Y3165102D01*
X-24093806Y3200021D01*
X-24076604Y3232203D01*
X-24053453Y3260413D01*
X-24025243Y3283564D01*
X-23993061Y3300766D01*
X-23958142Y3311359D01*
X-23915685Y3315540D01*
X-22449475Y3315540D01*
X-22407018Y3311359D01*
X-22407018Y3311359D01*
G37*
G36*
X-35807396Y3211653D02*
G01*
X-35770856Y3200568D01*
X-35737179Y3182567D01*
X-35707659Y3158341D01*
X-35683433Y3128821D01*
X-35665432Y3095144D01*
X-35654347Y3058604D01*
X-35650000Y3014462D01*
X-35650000Y2065538D01*
X-35654347Y2021396D01*
X-35665432Y1984856D01*
X-35683433Y1951179D01*
X-35707659Y1921659D01*
X-35737179Y1897433D01*
X-35770856Y1879432D01*
X-35807396Y1868347D01*
X-35851538Y1864000D01*
X-37300462Y1864000D01*
X-37344604Y1868347D01*
X-37381144Y1879432D01*
X-37414821Y1897433D01*
X-37444341Y1921659D01*
X-37468567Y1951179D01*
X-37486568Y1984856D01*
X-37497653Y2021396D01*
X-37502000Y2065538D01*
X-37502000Y3014462D01*
X-37497653Y3058604D01*
X-37486568Y3095144D01*
X-37468567Y3128821D01*
X-37444341Y3158341D01*
X-37414821Y3182567D01*
X-37381144Y3200568D01*
X-37344604Y3211653D01*
X-37300462Y3216000D01*
X-35851538Y3216000D01*
X-35807396Y3211653D01*
X-35807396Y3211653D01*
G37*
G36*
X-52467558Y3942482D02*
G01*
X-52401373Y3935963D01*
X-52231534Y3884443D01*
X-52075009Y3800778D01*
X-52039271Y3771448D01*
X-51937814Y3688186D01*
X-51872271Y3608320D01*
X-51825222Y3550991D01*
X-51741557Y3394466D01*
X-51690037Y3224627D01*
X-51672641Y3048000D01*
X-51690037Y2871373D01*
X-51741557Y2701534D01*
X-51741558Y2701532D01*
X-51783389Y2623272D01*
X-51825222Y2545009D01*
X-51835439Y2532560D01*
X-51937814Y2407814D01*
X-52022493Y2338321D01*
X-52075009Y2295222D01*
X-52231534Y2211557D01*
X-52401373Y2160037D01*
X-52467558Y2153518D01*
X-52533740Y2147000D01*
X-52622260Y2147000D01*
X-52688442Y2153518D01*
X-52754627Y2160037D01*
X-52924466Y2211557D01*
X-53080991Y2295222D01*
X-53133507Y2338321D01*
X-53218186Y2407814D01*
X-53320561Y2532560D01*
X-53330778Y2545009D01*
X-53372611Y2623272D01*
X-53414442Y2701532D01*
X-53414443Y2701534D01*
X-53465963Y2871373D01*
X-53483359Y3048000D01*
X-53465963Y3224627D01*
X-53414443Y3394466D01*
X-53330778Y3550991D01*
X-53283729Y3608320D01*
X-53218186Y3688186D01*
X-53116729Y3771448D01*
X-53080991Y3800778D01*
X-52924466Y3884443D01*
X-52754627Y3935963D01*
X-52688442Y3942482D01*
X-52622260Y3949000D01*
X-52533740Y3949000D01*
X-52467558Y3942482D01*
X-52467558Y3942482D01*
G37*
G36*
X-19701557Y4704481D02*
G01*
X-19635373Y4697963D01*
X-19465534Y4646443D01*
X-19309009Y4562778D01*
X-19296733Y4552703D01*
X-19171814Y4450186D01*
X-19092516Y4353560D01*
X-19059222Y4312991D01*
X-18975557Y4156466D01*
X-18924037Y3986627D01*
X-18906641Y3810000D01*
X-18924037Y3633373D01*
X-18975557Y3463534D01*
X-19059222Y3307009D01*
X-19078463Y3283564D01*
X-19171814Y3169814D01*
X-19261970Y3095826D01*
X-19309009Y3057222D01*
X-19465534Y2973557D01*
X-19635373Y2922037D01*
X-19701558Y2915518D01*
X-19767740Y2909000D01*
X-19856260Y2909000D01*
X-19922442Y2915518D01*
X-19988627Y2922037D01*
X-20158466Y2973557D01*
X-20314991Y3057222D01*
X-20362030Y3095826D01*
X-20452186Y3169814D01*
X-20545537Y3283564D01*
X-20564778Y3307009D01*
X-20648443Y3463534D01*
X-20699963Y3633373D01*
X-20717359Y3810000D01*
X-20699963Y3986627D01*
X-20648443Y4156466D01*
X-20564778Y4312991D01*
X-20531484Y4353560D01*
X-20452186Y4450186D01*
X-20327267Y4552703D01*
X-20314991Y4562778D01*
X-20158466Y4646443D01*
X-19988627Y4697963D01*
X-19922443Y4704481D01*
X-19856260Y4711000D01*
X-19767740Y4711000D01*
X-19701557Y4704481D01*
X-19701557Y4704481D01*
G37*
G36*
X-31101438Y6147319D02*
G01*
X-31066519Y6136726D01*
X-31034337Y6119524D01*
X-31006127Y6096373D01*
X-30982976Y6068163D01*
X-30965774Y6035981D01*
X-30955181Y6001062D01*
X-30951000Y5958605D01*
X-30951000Y4817395D01*
X-30955181Y4774938D01*
X-30965774Y4740019D01*
X-30982976Y4707837D01*
X-31006127Y4679627D01*
X-31034337Y4656476D01*
X-31066519Y4639274D01*
X-31101438Y4628681D01*
X-31143895Y4624500D01*
X-32610105Y4624500D01*
X-32652562Y4628681D01*
X-32687481Y4639274D01*
X-32719663Y4656476D01*
X-32747873Y4679627D01*
X-32771024Y4707837D01*
X-32788226Y4740019D01*
X-32798819Y4774938D01*
X-32803000Y4817395D01*
X-32803000Y5958605D01*
X-32798819Y6001062D01*
X-32788226Y6035981D01*
X-32771024Y6068163D01*
X-32747873Y6096373D01*
X-32719663Y6119524D01*
X-32687481Y6136726D01*
X-32652562Y6147319D01*
X-32610105Y6151500D01*
X-31143895Y6151500D01*
X-31101438Y6147319D01*
X-31101438Y6147319D01*
G37*
G36*
X-35807396Y6011653D02*
G01*
X-35770856Y6000568D01*
X-35737179Y5982567D01*
X-35707659Y5958341D01*
X-35683433Y5928821D01*
X-35665432Y5895144D01*
X-35654347Y5858604D01*
X-35650000Y5814462D01*
X-35650000Y4865538D01*
X-35654347Y4821396D01*
X-35665432Y4784856D01*
X-35683433Y4751179D01*
X-35707659Y4721659D01*
X-35737179Y4697433D01*
X-35770856Y4679432D01*
X-35807396Y4668347D01*
X-35851538Y4664000D01*
X-37300462Y4664000D01*
X-37344604Y4668347D01*
X-37381144Y4679432D01*
X-37414821Y4697433D01*
X-37444341Y4721659D01*
X-37468567Y4751179D01*
X-37486568Y4784856D01*
X-37497653Y4821396D01*
X-37502000Y4865538D01*
X-37502000Y5814462D01*
X-37497653Y5858604D01*
X-37486568Y5895144D01*
X-37468567Y5928821D01*
X-37444341Y5958341D01*
X-37414821Y5982567D01*
X-37381144Y6000568D01*
X-37344604Y6011653D01*
X-37300462Y6016000D01*
X-35851538Y6016000D01*
X-35807396Y6011653D01*
X-35807396Y6011653D01*
G37*
G36*
X-52467557Y6482481D02*
G01*
X-52401373Y6475963D01*
X-52231534Y6424443D01*
X-52075009Y6340778D01*
X-52042607Y6314186D01*
X-51937814Y6228186D01*
X-51862756Y6136726D01*
X-51825222Y6090991D01*
X-51741557Y5934466D01*
X-51690037Y5764627D01*
X-51672641Y5588000D01*
X-51690037Y5411373D01*
X-51741557Y5241534D01*
X-51741558Y5241532D01*
X-51783390Y5163271D01*
X-51825222Y5085009D01*
X-51835439Y5072560D01*
X-51937814Y4947814D01*
X-52022493Y4878321D01*
X-52075009Y4835222D01*
X-52105981Y4818667D01*
X-52209115Y4763540D01*
X-52231534Y4751557D01*
X-52401373Y4700037D01*
X-52467557Y4693519D01*
X-52533740Y4687000D01*
X-52622260Y4687000D01*
X-52688443Y4693519D01*
X-52754627Y4700037D01*
X-52924466Y4751557D01*
X-52946884Y4763540D01*
X-53050019Y4818667D01*
X-53080991Y4835222D01*
X-53133507Y4878321D01*
X-53218186Y4947814D01*
X-53320561Y5072560D01*
X-53330778Y5085009D01*
X-53372610Y5163271D01*
X-53414442Y5241532D01*
X-53414443Y5241534D01*
X-53465963Y5411373D01*
X-53483359Y5588000D01*
X-53465963Y5764627D01*
X-53414443Y5934466D01*
X-53330778Y6090991D01*
X-53293244Y6136726D01*
X-53218186Y6228186D01*
X-53113393Y6314186D01*
X-53080991Y6340778D01*
X-52924466Y6424443D01*
X-52754627Y6475963D01*
X-52688443Y6482481D01*
X-52622260Y6489000D01*
X-52533740Y6489000D01*
X-52467557Y6482481D01*
X-52467557Y6482481D01*
G37*
G36*
X-22407018Y6286359D02*
G01*
X-22372099Y6275766D01*
X-22339917Y6258564D01*
X-22311707Y6235413D01*
X-22288556Y6207203D01*
X-22271354Y6175021D01*
X-22260761Y6140102D01*
X-22256580Y6097645D01*
X-22256580Y4956435D01*
X-22260761Y4913978D01*
X-22271354Y4879059D01*
X-22288556Y4846877D01*
X-22311707Y4818667D01*
X-22339917Y4795516D01*
X-22372099Y4778314D01*
X-22407018Y4767721D01*
X-22449475Y4763540D01*
X-23915685Y4763540D01*
X-23958142Y4767721D01*
X-23993061Y4778314D01*
X-24025243Y4795516D01*
X-24053453Y4818667D01*
X-24076604Y4846877D01*
X-24093806Y4879059D01*
X-24104399Y4913978D01*
X-24108580Y4956435D01*
X-24108580Y6097645D01*
X-24104399Y6140102D01*
X-24093806Y6175021D01*
X-24076604Y6207203D01*
X-24053453Y6235413D01*
X-24025243Y6258564D01*
X-23993061Y6275766D01*
X-23958142Y6286359D01*
X-23915685Y6290540D01*
X-22449475Y6290540D01*
X-22407018Y6286359D01*
X-22407018Y6286359D01*
G37*
G36*
X-19701557Y7244481D02*
G01*
X-19635373Y7237963D01*
X-19465534Y7186443D01*
X-19309009Y7102778D01*
X-19273271Y7073448D01*
X-19171814Y6990186D01*
X-19092516Y6893560D01*
X-19059222Y6852991D01*
X-18975557Y6696466D01*
X-18924037Y6526627D01*
X-18906641Y6350000D01*
X-18924037Y6173373D01*
X-18975557Y6003534D01*
X-19059222Y5847009D01*
X-19079170Y5822703D01*
X-19171814Y5709814D01*
X-19273271Y5626552D01*
X-19309009Y5597222D01*
X-19465534Y5513557D01*
X-19635373Y5462037D01*
X-19701557Y5455519D01*
X-19767740Y5449000D01*
X-19856260Y5449000D01*
X-19922443Y5455519D01*
X-19988627Y5462037D01*
X-20158466Y5513557D01*
X-20314991Y5597222D01*
X-20350729Y5626552D01*
X-20452186Y5709814D01*
X-20544830Y5822703D01*
X-20564778Y5847009D01*
X-20648443Y6003534D01*
X-20699963Y6173373D01*
X-20717359Y6350000D01*
X-20699963Y6526627D01*
X-20648443Y6696466D01*
X-20564778Y6852991D01*
X-20531484Y6893560D01*
X-20452186Y6990186D01*
X-20350729Y7073448D01*
X-20314991Y7102778D01*
X-20158466Y7186443D01*
X-19988627Y7237963D01*
X-19922443Y7244481D01*
X-19856260Y7251000D01*
X-19767740Y7251000D01*
X-19701557Y7244481D01*
X-19701557Y7244481D01*
G37*
G36*
X-44439000Y5513000D02*
G01*
X-45541000Y5513000D01*
X-45541000Y8415000D01*
X-44439000Y8415000D01*
X-44439000Y5513000D01*
X-44439000Y5513000D01*
G37*
G36*
X-48439000Y5513000D02*
G01*
X-49541000Y5513000D01*
X-49541000Y8415000D01*
X-48439000Y8415000D01*
X-48439000Y5513000D01*
X-48439000Y5513000D01*
G37*
G36*
X-27822520Y6215420D02*
G01*
X-29824520Y6215420D01*
X-29824520Y7617420D01*
X-27822520Y7617420D01*
X-27822520Y6215420D01*
X-27822520Y6215420D01*
G37*
G36*
X-24622520Y6215420D02*
G01*
X-26624520Y6215420D01*
X-26624520Y7617420D01*
X-24622520Y7617420D01*
X-24622520Y6215420D01*
X-24622520Y6215420D01*
G37*
G36*
X-52467558Y9022482D02*
G01*
X-52401373Y9015963D01*
X-52231534Y8964443D01*
X-52075009Y8880778D01*
X-52039271Y8851448D01*
X-51937814Y8768186D01*
X-51854552Y8666729D01*
X-51825222Y8630991D01*
X-51741557Y8474466D01*
X-51690037Y8304627D01*
X-51672641Y8128000D01*
X-51690037Y7951373D01*
X-51741557Y7781534D01*
X-51825222Y7625009D01*
X-51854552Y7589271D01*
X-51937814Y7487814D01*
X-52038626Y7405081D01*
X-52075009Y7375222D01*
X-52231534Y7291557D01*
X-52401373Y7240037D01*
X-52467558Y7233518D01*
X-52533740Y7227000D01*
X-52622260Y7227000D01*
X-52688443Y7233519D01*
X-52754627Y7240037D01*
X-52924466Y7291557D01*
X-53080991Y7375222D01*
X-53117374Y7405081D01*
X-53218186Y7487814D01*
X-53301448Y7589271D01*
X-53330778Y7625009D01*
X-53414443Y7781534D01*
X-53465963Y7951373D01*
X-53483359Y8128000D01*
X-53465963Y8304627D01*
X-53414443Y8474466D01*
X-53330778Y8630991D01*
X-53301448Y8666729D01*
X-53218186Y8768186D01*
X-53116729Y8851448D01*
X-53080991Y8880778D01*
X-52924466Y8964443D01*
X-52754627Y9015963D01*
X-52688442Y9022482D01*
X-52622260Y9029000D01*
X-52533740Y9029000D01*
X-52467558Y9022482D01*
X-52467558Y9022482D01*
G37*
G36*
X-19701558Y9784482D02*
G01*
X-19635373Y9777963D01*
X-19465534Y9726443D01*
X-19465532Y9726442D01*
X-19387272Y9684611D01*
X-19309009Y9642778D01*
X-19273271Y9613448D01*
X-19171814Y9530186D01*
X-19088552Y9428729D01*
X-19059222Y9392991D01*
X-18975557Y9236466D01*
X-18924037Y9066627D01*
X-18906641Y8890000D01*
X-18924037Y8713373D01*
X-18975557Y8543534D01*
X-19059222Y8387009D01*
X-19088552Y8351271D01*
X-19171814Y8249814D01*
X-19273271Y8166552D01*
X-19309009Y8137222D01*
X-19465534Y8053557D01*
X-19635373Y8002037D01*
X-19701558Y7995518D01*
X-19767740Y7989000D01*
X-19856260Y7989000D01*
X-19922442Y7995518D01*
X-19988627Y8002037D01*
X-20158466Y8053557D01*
X-20314991Y8137222D01*
X-20350729Y8166552D01*
X-20452186Y8249814D01*
X-20535448Y8351271D01*
X-20564778Y8387009D01*
X-20648443Y8543534D01*
X-20699963Y8713373D01*
X-20717359Y8890000D01*
X-20699963Y9066627D01*
X-20648443Y9236466D01*
X-20564778Y9392991D01*
X-20535448Y9428729D01*
X-20452186Y9530186D01*
X-20350729Y9613448D01*
X-20314991Y9642778D01*
X-20236729Y9684610D01*
X-20158468Y9726442D01*
X-20158466Y9726443D01*
X-19988627Y9777963D01*
X-19922442Y9784482D01*
X-19856260Y9791000D01*
X-19767740Y9791000D01*
X-19701558Y9784482D01*
X-19701558Y9784482D01*
G37*
G36*
X-47022000Y9717000D02*
G01*
X-49624000Y9717000D01*
X-49624000Y11619000D01*
X-47022000Y11619000D01*
X-47022000Y9717000D01*
X-47022000Y9717000D01*
G37*
G36*
X-43022000Y9717000D02*
G01*
X-45624000Y9717000D01*
X-45624000Y11619000D01*
X-43022000Y11619000D01*
X-43022000Y9717000D01*
X-43022000Y9717000D01*
G37*
G36*
X-52467557Y11562481D02*
G01*
X-52401373Y11555963D01*
X-52231534Y11504443D01*
X-52075009Y11420778D01*
X-52039271Y11391448D01*
X-51937814Y11308186D01*
X-51854552Y11206729D01*
X-51825222Y11170991D01*
X-51741557Y11014466D01*
X-51690037Y10844627D01*
X-51672641Y10668000D01*
X-51690037Y10491373D01*
X-51741557Y10321534D01*
X-51825222Y10165009D01*
X-51854552Y10129271D01*
X-51937814Y10027814D01*
X-52039271Y9944552D01*
X-52075009Y9915222D01*
X-52231534Y9831557D01*
X-52401373Y9780037D01*
X-52467558Y9773518D01*
X-52533740Y9767000D01*
X-52622260Y9767000D01*
X-52688442Y9773518D01*
X-52754627Y9780037D01*
X-52924466Y9831557D01*
X-53080991Y9915222D01*
X-53116729Y9944552D01*
X-53218186Y10027814D01*
X-53301448Y10129271D01*
X-53330778Y10165009D01*
X-53414443Y10321534D01*
X-53465963Y10491373D01*
X-53483359Y10668000D01*
X-53465963Y10844627D01*
X-53414443Y11014466D01*
X-53330778Y11170991D01*
X-53301448Y11206729D01*
X-53218186Y11308186D01*
X-53116729Y11391448D01*
X-53080991Y11420778D01*
X-52924466Y11504443D01*
X-52754627Y11555963D01*
X-52688443Y11562481D01*
X-52622260Y11569000D01*
X-52533740Y11569000D01*
X-52467557Y11562481D01*
X-52467557Y11562481D01*
G37*
G36*
X-19701557Y12324481D02*
G01*
X-19635373Y12317963D01*
X-19465534Y12266443D01*
X-19309009Y12182778D01*
X-19273271Y12153448D01*
X-19171814Y12070186D01*
X-19088552Y11968729D01*
X-19059222Y11932991D01*
X-18975557Y11776466D01*
X-18924037Y11606627D01*
X-18906641Y11430000D01*
X-18924037Y11253373D01*
X-18975557Y11083534D01*
X-19059222Y10927009D01*
X-19088552Y10891271D01*
X-19171814Y10789814D01*
X-19273271Y10706552D01*
X-19309009Y10677222D01*
X-19465534Y10593557D01*
X-19635373Y10542037D01*
X-19701557Y10535519D01*
X-19767740Y10529000D01*
X-19856260Y10529000D01*
X-19922443Y10535519D01*
X-19988627Y10542037D01*
X-20158466Y10593557D01*
X-20314991Y10677222D01*
X-20350729Y10706552D01*
X-20452186Y10789814D01*
X-20535448Y10891271D01*
X-20564778Y10927009D01*
X-20648443Y11083534D01*
X-20699963Y11253373D01*
X-20717359Y11430000D01*
X-20699963Y11606627D01*
X-20648443Y11776466D01*
X-20564778Y11932991D01*
X-20535448Y11968729D01*
X-20452186Y12070186D01*
X-20350729Y12153448D01*
X-20314991Y12182778D01*
X-20158466Y12266443D01*
X-19988627Y12317963D01*
X-19922443Y12324481D01*
X-19856260Y12331000D01*
X-19767740Y12331000D01*
X-19701557Y12324481D01*
X-19701557Y12324481D01*
G37*
G36*
X-32634000Y10951000D02*
G01*
X-38486000Y10951000D01*
X-38486000Y12353000D01*
X-32634000Y12353000D01*
X-32634000Y10951000D01*
X-32634000Y10951000D01*
G37*
G36*
X-52467558Y14102482D02*
G01*
X-52401373Y14095963D01*
X-52231534Y14044443D01*
X-52075009Y13960778D01*
X-52039271Y13931448D01*
X-51937814Y13848186D01*
X-51854552Y13746729D01*
X-51825222Y13710991D01*
X-51741557Y13554466D01*
X-51690037Y13384627D01*
X-51672641Y13208000D01*
X-51690037Y13031373D01*
X-51741557Y12861534D01*
X-51825222Y12705009D01*
X-51854552Y12669271D01*
X-51937814Y12567814D01*
X-52039271Y12484552D01*
X-52075009Y12455222D01*
X-52231534Y12371557D01*
X-52401373Y12320037D01*
X-52467558Y12313518D01*
X-52533740Y12307000D01*
X-52622260Y12307000D01*
X-52688442Y12313518D01*
X-52754627Y12320037D01*
X-52924466Y12371557D01*
X-53080991Y12455222D01*
X-53116729Y12484552D01*
X-53218186Y12567814D01*
X-53301448Y12669271D01*
X-53330778Y12705009D01*
X-53414443Y12861534D01*
X-53465963Y13031373D01*
X-53483359Y13208000D01*
X-53465963Y13384627D01*
X-53414443Y13554466D01*
X-53330778Y13710991D01*
X-53301448Y13746729D01*
X-53218186Y13848186D01*
X-53116729Y13931448D01*
X-53080991Y13960778D01*
X-52924466Y14044443D01*
X-52754627Y14095963D01*
X-52688442Y14102482D01*
X-52622260Y14109000D01*
X-52533740Y14109000D01*
X-52467558Y14102482D01*
X-52467558Y14102482D01*
G37*
G36*
X-19701557Y14864481D02*
G01*
X-19635373Y14857963D01*
X-19465534Y14806443D01*
X-19309009Y14722778D01*
X-19273271Y14693448D01*
X-19171814Y14610186D01*
X-19088552Y14508729D01*
X-19059222Y14472991D01*
X-18975557Y14316466D01*
X-18924037Y14146627D01*
X-18906641Y13970000D01*
X-18924037Y13793373D01*
X-18975557Y13623534D01*
X-19059222Y13467009D01*
X-19088552Y13431271D01*
X-19171814Y13329814D01*
X-19273271Y13246552D01*
X-19309009Y13217222D01*
X-19465534Y13133557D01*
X-19635373Y13082037D01*
X-19696669Y13076000D01*
X-19767740Y13069000D01*
X-19856260Y13069000D01*
X-19927331Y13076000D01*
X-19988627Y13082037D01*
X-20158466Y13133557D01*
X-20314991Y13217222D01*
X-20350729Y13246552D01*
X-20452186Y13329814D01*
X-20535448Y13431271D01*
X-20564778Y13467009D01*
X-20648443Y13623534D01*
X-20699963Y13793373D01*
X-20717359Y13970000D01*
X-20699963Y14146627D01*
X-20648443Y14316466D01*
X-20564778Y14472991D01*
X-20535448Y14508729D01*
X-20452186Y14610186D01*
X-20350729Y14693448D01*
X-20314991Y14722778D01*
X-20158466Y14806443D01*
X-19988627Y14857963D01*
X-19922443Y14864481D01*
X-19856260Y14871000D01*
X-19767740Y14871000D01*
X-19701557Y14864481D01*
X-19701557Y14864481D01*
G37*
G36*
X-39209000Y13076000D02*
G01*
X-40611000Y13076000D01*
X-40611000Y18928000D01*
X-39209000Y18928000D01*
X-39209000Y13076000D01*
X-39209000Y13076000D01*
G37*
G36*
X-30509000Y13076000D02*
G01*
X-31911000Y13076000D01*
X-31911000Y18928000D01*
X-30509000Y18928000D01*
X-30509000Y13076000D01*
X-30509000Y13076000D01*
G37*
G36*
X-52467558Y16642482D02*
G01*
X-52401373Y16635963D01*
X-52231534Y16584443D01*
X-52075009Y16500778D01*
X-52039271Y16471448D01*
X-51937814Y16388186D01*
X-51854552Y16286729D01*
X-51825222Y16250991D01*
X-51741557Y16094466D01*
X-51690037Y15924627D01*
X-51672641Y15748000D01*
X-51690037Y15571373D01*
X-51741557Y15401534D01*
X-51825222Y15245009D01*
X-51854552Y15209271D01*
X-51937814Y15107814D01*
X-52039271Y15024552D01*
X-52075009Y14995222D01*
X-52075011Y14995221D01*
X-52200771Y14928000D01*
X-52231534Y14911557D01*
X-52401373Y14860037D01*
X-52467558Y14853518D01*
X-52533740Y14847000D01*
X-52622260Y14847000D01*
X-52688442Y14853518D01*
X-52754627Y14860037D01*
X-52924466Y14911557D01*
X-52955228Y14928000D01*
X-53080989Y14995221D01*
X-53080991Y14995222D01*
X-53116729Y15024552D01*
X-53218186Y15107814D01*
X-53301448Y15209271D01*
X-53330778Y15245009D01*
X-53414443Y15401534D01*
X-53465963Y15571373D01*
X-53483359Y15748000D01*
X-53465963Y15924627D01*
X-53414443Y16094466D01*
X-53330778Y16250991D01*
X-53301448Y16286729D01*
X-53218186Y16388186D01*
X-53116729Y16471448D01*
X-53080991Y16500778D01*
X-52924466Y16584443D01*
X-52754627Y16635963D01*
X-52688442Y16642482D01*
X-52622260Y16649000D01*
X-52533740Y16649000D01*
X-52467558Y16642482D01*
X-52467558Y16642482D01*
G37*
G36*
X-19701557Y17404481D02*
G01*
X-19635373Y17397963D01*
X-19465534Y17346443D01*
X-19309009Y17262778D01*
X-19273271Y17233448D01*
X-19171814Y17150186D01*
X-19088552Y17048729D01*
X-19059222Y17012991D01*
X-18975557Y16856466D01*
X-18924037Y16686627D01*
X-18906641Y16510000D01*
X-18924037Y16333373D01*
X-18975557Y16163534D01*
X-19059222Y16007009D01*
X-19088552Y15971271D01*
X-19171814Y15869814D01*
X-19273271Y15786552D01*
X-19309009Y15757222D01*
X-19465534Y15673557D01*
X-19635373Y15622037D01*
X-19701557Y15615519D01*
X-19767740Y15609000D01*
X-19856260Y15609000D01*
X-19922443Y15615519D01*
X-19988627Y15622037D01*
X-20158466Y15673557D01*
X-20314991Y15757222D01*
X-20350729Y15786552D01*
X-20452186Y15869814D01*
X-20535448Y15971271D01*
X-20564778Y16007009D01*
X-20648443Y16163534D01*
X-20699963Y16333373D01*
X-20717359Y16510000D01*
X-20699963Y16686627D01*
X-20648443Y16856466D01*
X-20564778Y17012991D01*
X-20535448Y17048729D01*
X-20452186Y17150186D01*
X-20350729Y17233448D01*
X-20314991Y17262778D01*
X-20158466Y17346443D01*
X-19988627Y17397963D01*
X-19922443Y17404481D01*
X-19856260Y17411000D01*
X-19767740Y17411000D01*
X-19701557Y17404481D01*
X-19701557Y17404481D01*
G37*
G36*
X-52467558Y19182482D02*
G01*
X-52401373Y19175963D01*
X-52231534Y19124443D01*
X-52075009Y19040778D01*
X-52039271Y19011448D01*
X-51937814Y18928186D01*
X-51854552Y18826729D01*
X-51825222Y18790991D01*
X-51741557Y18634466D01*
X-51690037Y18464627D01*
X-51672641Y18288000D01*
X-51690037Y18111373D01*
X-51741557Y17941534D01*
X-51825222Y17785009D01*
X-51854552Y17749271D01*
X-51937814Y17647814D01*
X-52025321Y17576000D01*
X-52075009Y17535222D01*
X-52231534Y17451557D01*
X-52401373Y17400037D01*
X-52467557Y17393519D01*
X-52533740Y17387000D01*
X-52622260Y17387000D01*
X-52688443Y17393519D01*
X-52754627Y17400037D01*
X-52924466Y17451557D01*
X-53080991Y17535222D01*
X-53130679Y17576000D01*
X-53218186Y17647814D01*
X-53301448Y17749271D01*
X-53330778Y17785009D01*
X-53414443Y17941534D01*
X-53465963Y18111373D01*
X-53483359Y18288000D01*
X-53465963Y18464627D01*
X-53414443Y18634466D01*
X-53330778Y18790991D01*
X-53301448Y18826729D01*
X-53218186Y18928186D01*
X-53116729Y19011448D01*
X-53080991Y19040778D01*
X-52924466Y19124443D01*
X-52754627Y19175963D01*
X-52688442Y19182482D01*
X-52622260Y19189000D01*
X-52533740Y19189000D01*
X-52467558Y19182482D01*
X-52467558Y19182482D01*
G37*
G36*
X-46641000Y17845000D02*
G01*
X-49243000Y17845000D01*
X-49243000Y19747000D01*
X-46641000Y19747000D01*
X-46641000Y17845000D01*
X-46641000Y17845000D01*
G37*
G36*
X-42641000Y17845000D02*
G01*
X-45243000Y17845000D01*
X-45243000Y19747000D01*
X-42641000Y19747000D01*
X-42641000Y17845000D01*
X-42641000Y17845000D01*
G37*
G36*
X-19701558Y19944482D02*
G01*
X-19635373Y19937963D01*
X-19465534Y19886443D01*
X-19309009Y19802778D01*
X-19273271Y19773448D01*
X-19171814Y19690186D01*
X-19088552Y19588729D01*
X-19059222Y19552991D01*
X-18975557Y19396466D01*
X-18924037Y19226627D01*
X-18906641Y19050000D01*
X-18924037Y18873373D01*
X-18975557Y18703534D01*
X-19059222Y18547009D01*
X-19088552Y18511271D01*
X-19171814Y18409814D01*
X-19273271Y18326552D01*
X-19309009Y18297222D01*
X-19465534Y18213557D01*
X-19635373Y18162037D01*
X-19701558Y18155518D01*
X-19767740Y18149000D01*
X-19856260Y18149000D01*
X-19922442Y18155518D01*
X-19988627Y18162037D01*
X-20158466Y18213557D01*
X-20314991Y18297222D01*
X-20350729Y18326552D01*
X-20452186Y18409814D01*
X-20535448Y18511271D01*
X-20564778Y18547009D01*
X-20648443Y18703534D01*
X-20699963Y18873373D01*
X-20717359Y19050000D01*
X-20699963Y19226627D01*
X-20648443Y19396466D01*
X-20564778Y19552991D01*
X-20535448Y19588729D01*
X-20452186Y19690186D01*
X-20350729Y19773448D01*
X-20314991Y19802778D01*
X-20158466Y19886443D01*
X-19988627Y19937963D01*
X-19922442Y19944482D01*
X-19856260Y19951000D01*
X-19767740Y19951000D01*
X-19701558Y19944482D01*
X-19701558Y19944482D01*
G37*
G36*
X-32634000Y19651000D02*
G01*
X-38486000Y19651000D01*
X-38486000Y21053000D01*
X-32634000Y21053000D01*
X-32634000Y19651000D01*
X-32634000Y19651000D01*
G37*
G36*
X-52467557Y21722481D02*
G01*
X-52401373Y21715963D01*
X-52231534Y21664443D01*
X-52075009Y21580778D01*
X-52045362Y21556447D01*
X-51937814Y21468186D01*
X-51874605Y21391164D01*
X-51825222Y21330991D01*
X-51741557Y21174466D01*
X-51690037Y21004627D01*
X-51672641Y20828000D01*
X-51690037Y20651373D01*
X-51741557Y20481534D01*
X-51825222Y20325009D01*
X-51854552Y20289271D01*
X-51937814Y20187814D01*
X-52039271Y20104552D01*
X-52075009Y20075222D01*
X-52231534Y19991557D01*
X-52401373Y19940037D01*
X-52467558Y19933518D01*
X-52533740Y19927000D01*
X-52622260Y19927000D01*
X-52688442Y19933518D01*
X-52754627Y19940037D01*
X-52924466Y19991557D01*
X-53080991Y20075222D01*
X-53116729Y20104552D01*
X-53218186Y20187814D01*
X-53301448Y20289271D01*
X-53330778Y20325009D01*
X-53414443Y20481534D01*
X-53465963Y20651373D01*
X-53483359Y20828000D01*
X-53465963Y21004627D01*
X-53414443Y21174466D01*
X-53330778Y21330991D01*
X-53281395Y21391164D01*
X-53218186Y21468186D01*
X-53110638Y21556447D01*
X-53080991Y21580778D01*
X-52924466Y21664443D01*
X-52754627Y21715963D01*
X-52688443Y21722481D01*
X-52622260Y21729000D01*
X-52533740Y21729000D01*
X-52467557Y21722481D01*
X-52467557Y21722481D01*
G37*
G36*
X-26686617Y22300511D02*
G01*
X-26686614Y22300510D01*
X-26686615Y22300510D01*
X-26622742Y22274054D01*
X-26565252Y22235640D01*
X-26516360Y22186748D01*
X-26477946Y22129258D01*
X-26456376Y22077182D01*
X-26451489Y22065383D01*
X-26438000Y21997570D01*
X-26438000Y21938999D01*
X-26435598Y21914613D01*
X-26428485Y21891164D01*
X-26416934Y21869553D01*
X-26401389Y21850611D01*
X-26382447Y21835066D01*
X-26360836Y21823515D01*
X-26337387Y21816402D01*
X-26313001Y21814000D01*
X-26264999Y21814000D01*
X-26240613Y21816402D01*
X-26217164Y21823515D01*
X-26195553Y21835066D01*
X-26176611Y21850611D01*
X-26161066Y21869553D01*
X-26149515Y21891164D01*
X-26142402Y21914613D01*
X-26140000Y21938999D01*
X-26140000Y21997570D01*
X-26126511Y22065383D01*
X-26121624Y22077182D01*
X-26100054Y22129258D01*
X-26061640Y22186748D01*
X-26012748Y22235640D01*
X-25955258Y22274054D01*
X-25891385Y22300510D01*
X-25891386Y22300510D01*
X-25891383Y22300511D01*
X-25823570Y22314000D01*
X-25754430Y22314000D01*
X-25686617Y22300511D01*
X-25686614Y22300510D01*
X-25686615Y22300510D01*
X-25622742Y22274054D01*
X-25565252Y22235640D01*
X-25516360Y22186748D01*
X-25477946Y22129258D01*
X-25456376Y22077182D01*
X-25451489Y22065383D01*
X-25438000Y21997570D01*
X-25438000Y21928430D01*
X-25451489Y21860617D01*
X-25451490Y21860615D01*
X-25477946Y21796742D01*
X-25516360Y21739252D01*
X-25565252Y21690360D01*
X-25622742Y21651946D01*
X-25674818Y21630376D01*
X-25686617Y21625489D01*
X-25754430Y21612000D01*
X-25813001Y21612000D01*
X-25837387Y21609598D01*
X-25860836Y21602485D01*
X-25882447Y21590934D01*
X-25901389Y21575389D01*
X-25916934Y21556447D01*
X-25928485Y21534836D01*
X-25935598Y21511387D01*
X-25938000Y21487001D01*
X-25938000Y21438999D01*
X-25935598Y21414613D01*
X-25928485Y21391164D01*
X-25916934Y21369553D01*
X-25901389Y21350611D01*
X-25882447Y21335066D01*
X-25860836Y21323515D01*
X-25837387Y21316402D01*
X-25813001Y21314000D01*
X-25754430Y21314000D01*
X-25686617Y21300511D01*
X-25686614Y21300510D01*
X-25686615Y21300510D01*
X-25622742Y21274054D01*
X-25565252Y21235640D01*
X-25516360Y21186748D01*
X-25477946Y21129258D01*
X-25460447Y21087009D01*
X-25451489Y21065383D01*
X-25438000Y20997570D01*
X-25438000Y20928430D01*
X-25451489Y20860617D01*
X-25451490Y20860615D01*
X-25477946Y20796742D01*
X-25516360Y20739252D01*
X-25565252Y20690360D01*
X-25622742Y20651946D01*
X-25674818Y20630376D01*
X-25686617Y20625489D01*
X-25754430Y20612000D01*
X-25823570Y20612000D01*
X-25891383Y20625489D01*
X-25903182Y20630376D01*
X-25955258Y20651946D01*
X-26012748Y20690360D01*
X-26061640Y20739252D01*
X-26100054Y20796742D01*
X-26126510Y20860615D01*
X-26126511Y20860617D01*
X-26140000Y20928430D01*
X-26140000Y20987001D01*
X-26142402Y21011387D01*
X-26149515Y21034836D01*
X-26161066Y21056447D01*
X-26176611Y21075389D01*
X-26195553Y21090934D01*
X-26217164Y21102485D01*
X-26240613Y21109598D01*
X-26264999Y21112000D01*
X-26313001Y21112000D01*
X-26337387Y21109598D01*
X-26360836Y21102485D01*
X-26382447Y21090934D01*
X-26401389Y21075389D01*
X-26416934Y21056447D01*
X-26428485Y21034836D01*
X-26435598Y21011387D01*
X-26438000Y20987001D01*
X-26438000Y20928430D01*
X-26451489Y20860617D01*
X-26451490Y20860615D01*
X-26477946Y20796742D01*
X-26516360Y20739252D01*
X-26565252Y20690360D01*
X-26622742Y20651946D01*
X-26674818Y20630376D01*
X-26686617Y20625489D01*
X-26754430Y20612000D01*
X-26823570Y20612000D01*
X-26891383Y20625489D01*
X-26903182Y20630376D01*
X-26955258Y20651946D01*
X-27012748Y20690360D01*
X-27061640Y20739252D01*
X-27100054Y20796742D01*
X-27126510Y20860615D01*
X-27126511Y20860617D01*
X-27140000Y20928430D01*
X-27140000Y20997570D01*
X-27126511Y21065383D01*
X-27117553Y21087009D01*
X-27100054Y21129258D01*
X-27061640Y21186748D01*
X-27012748Y21235640D01*
X-26955258Y21274054D01*
X-26891385Y21300510D01*
X-26891386Y21300510D01*
X-26891383Y21300511D01*
X-26823570Y21314000D01*
X-26764999Y21314000D01*
X-26740613Y21316402D01*
X-26717164Y21323515D01*
X-26695553Y21335066D01*
X-26676611Y21350611D01*
X-26661066Y21369553D01*
X-26649515Y21391164D01*
X-26642402Y21414613D01*
X-26640000Y21438999D01*
X-26640000Y21487001D01*
X-26642402Y21511387D01*
X-26649515Y21534836D01*
X-26661066Y21556447D01*
X-26676611Y21575389D01*
X-26695553Y21590934D01*
X-26717164Y21602485D01*
X-26740613Y21609598D01*
X-26764999Y21612000D01*
X-26823570Y21612000D01*
X-26891383Y21625489D01*
X-26903182Y21630376D01*
X-26955258Y21651946D01*
X-27012748Y21690360D01*
X-27061640Y21739252D01*
X-27100054Y21796742D01*
X-27126510Y21860615D01*
X-27126511Y21860617D01*
X-27140000Y21928430D01*
X-27140000Y21997570D01*
X-27126511Y22065383D01*
X-27121624Y22077182D01*
X-27100054Y22129258D01*
X-27061640Y22186748D01*
X-27012748Y22235640D01*
X-26955258Y22274054D01*
X-26891385Y22300510D01*
X-26891386Y22300510D01*
X-26891383Y22300511D01*
X-26823570Y22314000D01*
X-26754430Y22314000D01*
X-26686617Y22300511D01*
X-26686617Y22300511D01*
G37*
G36*
X-19701557Y22484481D02*
G01*
X-19635373Y22477963D01*
X-19465534Y22426443D01*
X-19309009Y22342778D01*
X-19273943Y22314000D01*
X-19171814Y22230186D01*
X-19088988Y22129261D01*
X-19059222Y22092991D01*
X-18975557Y21936466D01*
X-18924037Y21766627D01*
X-18906641Y21590000D01*
X-18924037Y21413373D01*
X-18975557Y21243534D01*
X-19059222Y21087009D01*
X-19076970Y21065383D01*
X-19171814Y20949814D01*
X-19273271Y20866552D01*
X-19309009Y20837222D01*
X-19465534Y20753557D01*
X-19635373Y20702037D01*
X-19701557Y20695519D01*
X-19767740Y20689000D01*
X-19856260Y20689000D01*
X-19922443Y20695519D01*
X-19988627Y20702037D01*
X-20158466Y20753557D01*
X-20314991Y20837222D01*
X-20350729Y20866552D01*
X-20452186Y20949814D01*
X-20547030Y21065383D01*
X-20564778Y21087009D01*
X-20648443Y21243534D01*
X-20699963Y21413373D01*
X-20717359Y21590000D01*
X-20699963Y21766627D01*
X-20648443Y21936466D01*
X-20564778Y22092991D01*
X-20535012Y22129261D01*
X-20452186Y22230186D01*
X-20350057Y22314000D01*
X-20314991Y22342778D01*
X-20158466Y22426443D01*
X-19988627Y22477963D01*
X-19922443Y22484481D01*
X-19856260Y22491000D01*
X-19767740Y22491000D01*
X-19701557Y22484481D01*
X-19701557Y22484481D01*
G37*
G36*
X-52467558Y24262482D02*
G01*
X-52401373Y24255963D01*
X-52231534Y24204443D01*
X-52075009Y24120778D01*
X-52039271Y24091448D01*
X-51937814Y24008186D01*
X-51854552Y23906729D01*
X-51825222Y23870991D01*
X-51741557Y23714466D01*
X-51690037Y23544627D01*
X-51672641Y23368000D01*
X-51690037Y23191373D01*
X-51741557Y23021534D01*
X-51825222Y22865009D01*
X-51854552Y22829271D01*
X-51937814Y22727814D01*
X-52039271Y22644552D01*
X-52075009Y22615222D01*
X-52231534Y22531557D01*
X-52401373Y22480037D01*
X-52467557Y22473519D01*
X-52533740Y22467000D01*
X-52622260Y22467000D01*
X-52688443Y22473519D01*
X-52754627Y22480037D01*
X-52924466Y22531557D01*
X-53080991Y22615222D01*
X-53116729Y22644552D01*
X-53218186Y22727814D01*
X-53301448Y22829271D01*
X-53330778Y22865009D01*
X-53414443Y23021534D01*
X-53465963Y23191373D01*
X-53483359Y23368000D01*
X-53465963Y23544627D01*
X-53414443Y23714466D01*
X-53330778Y23870991D01*
X-53301448Y23906729D01*
X-53218186Y24008186D01*
X-53116729Y24091448D01*
X-53080991Y24120778D01*
X-52924466Y24204443D01*
X-52754627Y24255963D01*
X-52688442Y24262482D01*
X-52622260Y24269000D01*
X-52533740Y24269000D01*
X-52467558Y24262482D01*
X-52467558Y24262482D01*
G37*
G36*
X-19701558Y25024482D02*
G01*
X-19635373Y25017963D01*
X-19465534Y24966443D01*
X-19309009Y24882778D01*
X-19273271Y24853448D01*
X-19171814Y24770186D01*
X-19088552Y24668729D01*
X-19059222Y24632991D01*
X-18975557Y24476466D01*
X-18924037Y24306627D01*
X-18906641Y24130000D01*
X-18924037Y23953373D01*
X-18975557Y23783534D01*
X-19059222Y23627009D01*
X-19088552Y23591271D01*
X-19171814Y23489814D01*
X-19273271Y23406552D01*
X-19309009Y23377222D01*
X-19465534Y23293557D01*
X-19635373Y23242037D01*
X-19701557Y23235519D01*
X-19767740Y23229000D01*
X-19856260Y23229000D01*
X-19922443Y23235519D01*
X-19988627Y23242037D01*
X-20158466Y23293557D01*
X-20314991Y23377222D01*
X-20350729Y23406552D01*
X-20452186Y23489814D01*
X-20535448Y23591271D01*
X-20564778Y23627009D01*
X-20648443Y23783534D01*
X-20699963Y23953373D01*
X-20717359Y24130000D01*
X-20699963Y24306627D01*
X-20648443Y24476466D01*
X-20564778Y24632991D01*
X-20535448Y24668729D01*
X-20452186Y24770186D01*
X-20350729Y24853448D01*
X-20314991Y24882778D01*
X-20158466Y24966443D01*
X-19988627Y25017963D01*
X-19922442Y25024482D01*
X-19856260Y25031000D01*
X-19767740Y25031000D01*
X-19701558Y25024482D01*
X-19701558Y25024482D01*
G37*
G36*
X-33895396Y26829653D02*
G01*
X-33858856Y26818568D01*
X-33825179Y26800567D01*
X-33795659Y26776341D01*
X-33771433Y26746821D01*
X-33753432Y26713144D01*
X-33742347Y26676604D01*
X-33738000Y26632462D01*
X-33738000Y25183538D01*
X-33742347Y25139396D01*
X-33753432Y25102856D01*
X-33771433Y25069179D01*
X-33795659Y25039659D01*
X-33825179Y25015433D01*
X-33858856Y24997432D01*
X-33895396Y24986347D01*
X-33939538Y24982000D01*
X-34888462Y24982000D01*
X-34932604Y24986347D01*
X-34969144Y24997432D01*
X-35002821Y25015433D01*
X-35032341Y25039659D01*
X-35056567Y25069179D01*
X-35074568Y25102856D01*
X-35085653Y25139396D01*
X-35090000Y25183538D01*
X-35090000Y26632462D01*
X-35085653Y26676604D01*
X-35074568Y26713144D01*
X-35056567Y26746821D01*
X-35032341Y26776341D01*
X-35002821Y26800567D01*
X-34969144Y26818568D01*
X-34932604Y26829653D01*
X-34888462Y26834000D01*
X-33939538Y26834000D01*
X-33895396Y26829653D01*
X-33895396Y26829653D01*
G37*
G36*
X-36695396Y26829653D02*
G01*
X-36658856Y26818568D01*
X-36625179Y26800567D01*
X-36595659Y26776341D01*
X-36571433Y26746821D01*
X-36553432Y26713144D01*
X-36542347Y26676604D01*
X-36538000Y26632462D01*
X-36538000Y25183538D01*
X-36542347Y25139396D01*
X-36553432Y25102856D01*
X-36571433Y25069179D01*
X-36595659Y25039659D01*
X-36625179Y25015433D01*
X-36658856Y24997432D01*
X-36695396Y24986347D01*
X-36739538Y24982000D01*
X-37688462Y24982000D01*
X-37732604Y24986347D01*
X-37769144Y24997432D01*
X-37802821Y25015433D01*
X-37832341Y25039659D01*
X-37856567Y25069179D01*
X-37874568Y25102856D01*
X-37885653Y25139396D01*
X-37890000Y25183538D01*
X-37890000Y26632462D01*
X-37885653Y26676604D01*
X-37874568Y26713144D01*
X-37856567Y26746821D01*
X-37832341Y26776341D01*
X-37802821Y26800567D01*
X-37769144Y26818568D01*
X-37732604Y26829653D01*
X-37688462Y26834000D01*
X-36739538Y26834000D01*
X-36695396Y26829653D01*
X-36695396Y26829653D01*
G37*
G36*
X-39495796Y26829653D02*
G01*
X-39459256Y26818568D01*
X-39425579Y26800567D01*
X-39396059Y26776341D01*
X-39371833Y26746821D01*
X-39353832Y26713144D01*
X-39342747Y26676604D01*
X-39338400Y26632462D01*
X-39338400Y25183538D01*
X-39342747Y25139396D01*
X-39353832Y25102856D01*
X-39371833Y25069179D01*
X-39396059Y25039659D01*
X-39425579Y25015433D01*
X-39459256Y24997432D01*
X-39495796Y24986347D01*
X-39539938Y24982000D01*
X-40488862Y24982000D01*
X-40533004Y24986347D01*
X-40569544Y24997432D01*
X-40603221Y25015433D01*
X-40632741Y25039659D01*
X-40656967Y25069179D01*
X-40674968Y25102856D01*
X-40686053Y25139396D01*
X-40690400Y25183538D01*
X-40690400Y26632462D01*
X-40686053Y26676604D01*
X-40674968Y26713144D01*
X-40656967Y26746821D01*
X-40632741Y26776341D01*
X-40603221Y26800567D01*
X-40569544Y26818568D01*
X-40533004Y26829653D01*
X-40488862Y26834000D01*
X-39539938Y26834000D01*
X-39495796Y26829653D01*
X-39495796Y26829653D01*
G37*
G36*
X-45579396Y26829653D02*
G01*
X-45542856Y26818568D01*
X-45509179Y26800567D01*
X-45479659Y26776341D01*
X-45455433Y26746821D01*
X-45437432Y26713144D01*
X-45426347Y26676604D01*
X-45422000Y26632462D01*
X-45422000Y25183538D01*
X-45426347Y25139396D01*
X-45437432Y25102856D01*
X-45455433Y25069179D01*
X-45479659Y25039659D01*
X-45509179Y25015433D01*
X-45542856Y24997432D01*
X-45579396Y24986347D01*
X-45623538Y24982000D01*
X-46572462Y24982000D01*
X-46616604Y24986347D01*
X-46653144Y24997432D01*
X-46686821Y25015433D01*
X-46716341Y25039659D01*
X-46740567Y25069179D01*
X-46758568Y25102856D01*
X-46769653Y25139396D01*
X-46774000Y25183538D01*
X-46774000Y26632462D01*
X-46769653Y26676604D01*
X-46758568Y26713144D01*
X-46740567Y26746821D01*
X-46716341Y26776341D01*
X-46686821Y26800567D01*
X-46653144Y26818568D01*
X-46616604Y26829653D01*
X-46572462Y26834000D01*
X-45623538Y26834000D01*
X-45579396Y26829653D01*
X-45579396Y26829653D01*
G37*
G36*
X-48379396Y26829653D02*
G01*
X-48342856Y26818568D01*
X-48309179Y26800567D01*
X-48279659Y26776341D01*
X-48255433Y26746821D01*
X-48237432Y26713144D01*
X-48226347Y26676604D01*
X-48222000Y26632462D01*
X-48222000Y25183538D01*
X-48226347Y25139396D01*
X-48237432Y25102856D01*
X-48255433Y25069179D01*
X-48279659Y25039659D01*
X-48309179Y25015433D01*
X-48342856Y24997432D01*
X-48379396Y24986347D01*
X-48423538Y24982000D01*
X-49372462Y24982000D01*
X-49416604Y24986347D01*
X-49453144Y24997432D01*
X-49486821Y25015433D01*
X-49516341Y25039659D01*
X-49540567Y25069179D01*
X-49558568Y25102856D01*
X-49569653Y25139396D01*
X-49574000Y25183538D01*
X-49574000Y26632462D01*
X-49569653Y26676604D01*
X-49558568Y26713144D01*
X-49540567Y26746821D01*
X-49516341Y26776341D01*
X-49486821Y26800567D01*
X-49453144Y26818568D01*
X-49416604Y26829653D01*
X-49372462Y26834000D01*
X-48423538Y26834000D01*
X-48379396Y26829653D01*
X-48379396Y26829653D01*
G37*
G36*
X-42295796Y26829653D02*
G01*
X-42259256Y26818568D01*
X-42225579Y26800567D01*
X-42196059Y26776341D01*
X-42171833Y26746821D01*
X-42153832Y26713144D01*
X-42142747Y26676604D01*
X-42138400Y26632462D01*
X-42138400Y25183538D01*
X-42142747Y25139396D01*
X-42153832Y25102856D01*
X-42171833Y25069179D01*
X-42196059Y25039659D01*
X-42225579Y25015433D01*
X-42259256Y24997432D01*
X-42295796Y24986347D01*
X-42339938Y24982000D01*
X-43288862Y24982000D01*
X-43333004Y24986347D01*
X-43369544Y24997432D01*
X-43403221Y25015433D01*
X-43432741Y25039659D01*
X-43456967Y25069179D01*
X-43474968Y25102856D01*
X-43486053Y25139396D01*
X-43490400Y25183538D01*
X-43490400Y26632462D01*
X-43486053Y26676604D01*
X-43474968Y26713144D01*
X-43456967Y26746821D01*
X-43432741Y26776341D01*
X-43403221Y26800567D01*
X-43369544Y26818568D01*
X-43333004Y26829653D01*
X-43288862Y26834000D01*
X-42339938Y26834000D01*
X-42295796Y26829653D01*
X-42295796Y26829653D01*
G37*
G36*
X-52467558Y26802482D02*
G01*
X-52401373Y26795963D01*
X-52231534Y26744443D01*
X-52075009Y26660778D01*
X-52040506Y26632462D01*
X-51937814Y26548186D01*
X-51854552Y26446729D01*
X-51825222Y26410991D01*
X-51741557Y26254466D01*
X-51690037Y26084627D01*
X-51672641Y25908000D01*
X-51690037Y25731373D01*
X-51741557Y25561534D01*
X-51825222Y25405009D01*
X-51854552Y25369271D01*
X-51937814Y25267814D01*
X-52020876Y25199648D01*
X-52075009Y25155222D01*
X-52231534Y25071557D01*
X-52401373Y25020037D01*
X-52467558Y25013518D01*
X-52533740Y25007000D01*
X-52622260Y25007000D01*
X-52688442Y25013518D01*
X-52754627Y25020037D01*
X-52924466Y25071557D01*
X-53080991Y25155222D01*
X-53135124Y25199648D01*
X-53218186Y25267814D01*
X-53301448Y25369271D01*
X-53330778Y25405009D01*
X-53414443Y25561534D01*
X-53465963Y25731373D01*
X-53483359Y25908000D01*
X-53465963Y26084627D01*
X-53414443Y26254466D01*
X-53330778Y26410991D01*
X-53301448Y26446729D01*
X-53218186Y26548186D01*
X-53115494Y26632462D01*
X-53080991Y26660778D01*
X-52924466Y26744443D01*
X-52754627Y26795963D01*
X-52688442Y26802482D01*
X-52622260Y26809000D01*
X-52533740Y26809000D01*
X-52467558Y26802482D01*
X-52467558Y26802482D01*
G37*
G36*
X-22313000Y25307000D02*
G01*
X-23915000Y25307000D01*
X-23915000Y26509000D01*
X-22313000Y26509000D01*
X-22313000Y25307000D01*
X-22313000Y25307000D01*
G37*
G36*
X-31213000Y25307000D02*
G01*
X-32815000Y25307000D01*
X-32815000Y26509000D01*
X-31213000Y26509000D01*
X-31213000Y25307000D01*
X-31213000Y25307000D01*
G37*
G36*
X-19701557Y27564481D02*
G01*
X-19635373Y27557963D01*
X-19465534Y27506443D01*
X-19309009Y27422778D01*
X-19273271Y27393448D01*
X-19171814Y27310186D01*
X-19088552Y27208729D01*
X-19059222Y27172991D01*
X-18975557Y27016466D01*
X-18924037Y26846627D01*
X-18906641Y26670000D01*
X-18924037Y26493373D01*
X-18975557Y26323534D01*
X-19059222Y26167009D01*
X-19088552Y26131271D01*
X-19171814Y26029814D01*
X-19273271Y25946552D01*
X-19309009Y25917222D01*
X-19465534Y25833557D01*
X-19635373Y25782037D01*
X-19701557Y25775519D01*
X-19767740Y25769000D01*
X-19856260Y25769000D01*
X-19922443Y25775519D01*
X-19988627Y25782037D01*
X-20158466Y25833557D01*
X-20314991Y25917222D01*
X-20350729Y25946552D01*
X-20452186Y26029814D01*
X-20535448Y26131271D01*
X-20564778Y26167009D01*
X-20648443Y26323534D01*
X-20699963Y26493373D01*
X-20717359Y26670000D01*
X-20699963Y26846627D01*
X-20648443Y27016466D01*
X-20564778Y27172991D01*
X-20535448Y27208729D01*
X-20452186Y27310186D01*
X-20350729Y27393448D01*
X-20314991Y27422778D01*
X-20158466Y27506443D01*
X-19988627Y27557963D01*
X-19922443Y27564481D01*
X-19856260Y27571000D01*
X-19767740Y27571000D01*
X-19701557Y27564481D01*
X-19701557Y27564481D01*
G37*
G36*
X-51677000Y27547000D02*
G01*
X-53479000Y27547000D01*
X-53479000Y29349000D01*
X-51677000Y29349000D01*
X-51677000Y27547000D01*
X-51677000Y27547000D01*
G37*
G36*
X-32873000Y28163000D02*
G01*
X-33675000Y28163000D01*
X-33675000Y30765000D01*
X-32873000Y30765000D01*
X-32873000Y28163000D01*
X-32873000Y28163000D01*
G37*
G36*
X-31373000Y28163000D02*
G01*
X-32175000Y28163000D01*
X-32175000Y30765000D01*
X-31373000Y30765000D01*
X-31373000Y28163000D01*
X-31373000Y28163000D01*
G37*
G36*
X-19701558Y30104482D02*
G01*
X-19635373Y30097963D01*
X-19465534Y30046443D01*
X-19309009Y29962778D01*
X-19273271Y29933448D01*
X-19171814Y29850186D01*
X-19095868Y29757644D01*
X-19059222Y29712991D01*
X-19059221Y29712989D01*
X-18981248Y29567114D01*
X-18975557Y29556466D01*
X-18924037Y29386627D01*
X-18906641Y29210000D01*
X-18924037Y29033373D01*
X-18975557Y28863534D01*
X-19059222Y28707009D01*
X-19088552Y28671271D01*
X-19171814Y28569814D01*
X-19273271Y28486552D01*
X-19309009Y28457222D01*
X-19465534Y28373557D01*
X-19635373Y28322037D01*
X-19701558Y28315518D01*
X-19767740Y28309000D01*
X-19856260Y28309000D01*
X-19922442Y28315518D01*
X-19988627Y28322037D01*
X-20158466Y28373557D01*
X-20314991Y28457222D01*
X-20350729Y28486552D01*
X-20452186Y28569814D01*
X-20535448Y28671271D01*
X-20564778Y28707009D01*
X-20648443Y28863534D01*
X-20699963Y29033373D01*
X-20717359Y29210000D01*
X-20699963Y29386627D01*
X-20648443Y29556466D01*
X-20642751Y29567114D01*
X-20564779Y29712989D01*
X-20564778Y29712991D01*
X-20528132Y29757644D01*
X-20452186Y29850186D01*
X-20350729Y29933448D01*
X-20314991Y29962778D01*
X-20158466Y30046443D01*
X-19988627Y30097963D01*
X-19922442Y30104482D01*
X-19856260Y30111000D01*
X-19767740Y30111000D01*
X-19701558Y30104482D01*
X-19701558Y30104482D01*
G37*
G36*
X-39287000Y28738000D02*
G01*
X-42389000Y28738000D01*
X-42389000Y30190000D01*
X-39287000Y30190000D01*
X-39287000Y28738000D01*
X-39287000Y28738000D01*
G37*
G36*
X-43084886Y29982389D02*
G01*
X-42985735Y29952312D01*
X-42894356Y29903469D01*
X-42814262Y29837738D01*
X-42748531Y29757644D01*
X-42699688Y29666265D01*
X-42669611Y29567114D01*
X-42659455Y29464000D01*
X-42669611Y29360886D01*
X-42699688Y29261735D01*
X-42748531Y29170356D01*
X-42814262Y29090262D01*
X-42894356Y29024531D01*
X-42985735Y28975688D01*
X-43084886Y28945611D01*
X-43162161Y28938000D01*
X-43513839Y28938000D01*
X-43591114Y28945611D01*
X-43690265Y28975688D01*
X-43781644Y29024531D01*
X-43861738Y29090262D01*
X-43927469Y29170356D01*
X-43976312Y29261735D01*
X-44006389Y29360886D01*
X-44016545Y29464000D01*
X-44006389Y29567114D01*
X-43976312Y29666265D01*
X-43927469Y29757644D01*
X-43861738Y29837738D01*
X-43781644Y29903469D01*
X-43690265Y29952312D01*
X-43591114Y29982389D01*
X-43513839Y29990000D01*
X-43162161Y29990000D01*
X-43084886Y29982389D01*
X-43084886Y29982389D01*
G37*
G36*
X-38084886Y29982389D02*
G01*
X-37985735Y29952312D01*
X-37894356Y29903469D01*
X-37814262Y29837738D01*
X-37748531Y29757644D01*
X-37699688Y29666265D01*
X-37669611Y29567114D01*
X-37659455Y29464000D01*
X-37669611Y29360886D01*
X-37699688Y29261735D01*
X-37748531Y29170356D01*
X-37814262Y29090262D01*
X-37894356Y29024531D01*
X-37985735Y28975688D01*
X-38084886Y28945611D01*
X-38162161Y28938000D01*
X-38513839Y28938000D01*
X-38591114Y28945611D01*
X-38690265Y28975688D01*
X-38781644Y29024531D01*
X-38861738Y29090262D01*
X-38927469Y29170356D01*
X-38976312Y29261735D01*
X-39006389Y29360886D01*
X-39016545Y29464000D01*
X-39006389Y29567114D01*
X-38976312Y29666265D01*
X-38927469Y29757644D01*
X-38861738Y29837738D01*
X-38781644Y29903469D01*
X-38690265Y29952312D01*
X-38591114Y29982389D01*
X-38513839Y29990000D01*
X-38162161Y29990000D01*
X-38084886Y29982389D01*
X-38084886Y29982389D01*
G37*
G36*
X-47133557Y31882481D02*
G01*
X-47067373Y31875963D01*
X-46897534Y31824443D01*
X-46741009Y31740778D01*
X-46709033Y31714536D01*
X-46603814Y31628186D01*
X-46531677Y31540285D01*
X-46491222Y31490991D01*
X-46407557Y31334466D01*
X-46356037Y31164627D01*
X-46338641Y30988000D01*
X-46356037Y30811373D01*
X-46407557Y30641534D01*
X-46491222Y30485009D01*
X-46520552Y30449271D01*
X-46603814Y30347814D01*
X-46705271Y30264552D01*
X-46741009Y30235222D01*
X-46897534Y30151557D01*
X-47067373Y30100037D01*
X-47133558Y30093518D01*
X-47199740Y30087000D01*
X-47288260Y30087000D01*
X-47354442Y30093518D01*
X-47420627Y30100037D01*
X-47590466Y30151557D01*
X-47746991Y30235222D01*
X-47782729Y30264552D01*
X-47884186Y30347814D01*
X-47967448Y30449271D01*
X-47996778Y30485009D01*
X-48080443Y30641534D01*
X-48131963Y30811373D01*
X-48149359Y30988000D01*
X-48131963Y31164627D01*
X-48080443Y31334466D01*
X-47996778Y31490991D01*
X-47956323Y31540285D01*
X-47884186Y31628186D01*
X-47778967Y31714536D01*
X-47746991Y31740778D01*
X-47590466Y31824443D01*
X-47420627Y31875963D01*
X-47354443Y31882481D01*
X-47288260Y31889000D01*
X-47199740Y31889000D01*
X-47133557Y31882481D01*
X-47133557Y31882481D01*
G37*
G36*
X-48883000Y30087000D02*
G01*
X-50685000Y30087000D01*
X-50685000Y31889000D01*
X-48883000Y31889000D01*
X-48883000Y30087000D01*
X-48883000Y30087000D01*
G37*
G36*
X-17923097Y33714925D02*
G01*
X-17695429Y33620622D01*
X-17490534Y33483715D01*
X-17316285Y33309466D01*
X-17316284Y33309464D01*
X-17179377Y33104569D01*
X-17115568Y32950519D01*
X-17085075Y32876903D01*
X-17037000Y32635213D01*
X-17037000Y32388787D01*
X-17085075Y32147097D01*
X-17179378Y31919429D01*
X-17316285Y31714534D01*
X-17490534Y31540285D01*
X-17695429Y31403378D01*
X-17695430Y31403377D01*
X-17695431Y31403377D01*
X-17923097Y31309075D01*
X-18164786Y31261000D01*
X-18411214Y31261000D01*
X-18652903Y31309075D01*
X-18880569Y31403377D01*
X-18880570Y31403377D01*
X-18880571Y31403378D01*
X-19085466Y31540285D01*
X-19259715Y31714534D01*
X-19396622Y31919429D01*
X-19490925Y32147097D01*
X-19539000Y32388787D01*
X-19539000Y32635213D01*
X-19490925Y32876903D01*
X-19460432Y32950519D01*
X-19396623Y33104569D01*
X-19259716Y33309464D01*
X-19259715Y33309466D01*
X-19085466Y33483715D01*
X-18880571Y33620622D01*
X-18652903Y33714925D01*
X-18411214Y33763000D01*
X-18164786Y33763000D01*
X-17923097Y33714925D01*
X-17923097Y33714925D01*
G37*
G36*
X-53737097Y33714925D02*
G01*
X-53509429Y33620622D01*
X-53304534Y33483715D01*
X-53130285Y33309466D01*
X-53130284Y33309464D01*
X-52993377Y33104569D01*
X-52929568Y32950519D01*
X-52899075Y32876903D01*
X-52851000Y32635213D01*
X-52851000Y32388787D01*
X-52899075Y32147097D01*
X-52993378Y31919429D01*
X-53130285Y31714534D01*
X-53304534Y31540285D01*
X-53509429Y31403378D01*
X-53509430Y31403377D01*
X-53509431Y31403377D01*
X-53737097Y31309075D01*
X-53978786Y31261000D01*
X-54225214Y31261000D01*
X-54466903Y31309075D01*
X-54694569Y31403377D01*
X-54694570Y31403377D01*
X-54694571Y31403378D01*
X-54899466Y31540285D01*
X-55073715Y31714534D01*
X-55210622Y31919429D01*
X-55304925Y32147097D01*
X-55353000Y32388787D01*
X-55353000Y32635213D01*
X-55304925Y32876903D01*
X-55274432Y32950519D01*
X-55210623Y33104569D01*
X-55073716Y33309464D01*
X-55073715Y33309466D01*
X-54899466Y33483715D01*
X-54694571Y33620622D01*
X-54466903Y33714925D01*
X-54225214Y33763000D01*
X-53978786Y33763000D01*
X-53737097Y33714925D01*
X-53737097Y33714925D01*
G37*
G36*
X-21877000Y31307000D02*
G01*
X-24479000Y31307000D01*
X-24479000Y33209000D01*
X-21877000Y33209000D01*
X-21877000Y31307000D01*
X-21877000Y31307000D01*
G37*
G36*
X-25877000Y31307000D02*
G01*
X-28479000Y31307000D01*
X-28479000Y33209000D01*
X-25877000Y33209000D01*
X-25877000Y31307000D01*
X-25877000Y31307000D01*
G37*
G36*
X-44229985Y32982027D02*
G01*
X-44126121Y32950521D01*
X-44098945Y32935995D01*
X-44030400Y32899357D01*
X-43946499Y32830501D01*
X-43877643Y32746600D01*
X-43841005Y32678055D01*
X-43826479Y32650879D01*
X-43794973Y32547015D01*
X-43787000Y32466067D01*
X-43787000Y31861933D01*
X-43794973Y31780985D01*
X-43826479Y31677121D01*
X-43877644Y31581400D01*
X-43946499Y31497499D01*
X-43954432Y31490989D01*
X-44030401Y31428643D01*
X-44077669Y31403378D01*
X-44126122Y31377479D01*
X-44229986Y31345973D01*
X-44338000Y31335334D01*
X-44446015Y31345973D01*
X-44549879Y31377479D01*
X-44598332Y31403378D01*
X-44645599Y31428643D01*
X-44658357Y31439113D01*
X-44729501Y31497499D01*
X-44798356Y31581400D01*
X-44849521Y31677122D01*
X-44881027Y31780986D01*
X-44889000Y31861934D01*
X-44889000Y32466067D01*
X-44881027Y32547015D01*
X-44849520Y32650879D01*
X-44849519Y32650882D01*
X-44798357Y32746599D01*
X-44729500Y32830501D01*
X-44645599Y32899357D01*
X-44577054Y32935995D01*
X-44549878Y32950521D01*
X-44446014Y32982027D01*
X-44338000Y32992666D01*
X-44229985Y32982027D01*
X-44229985Y32982027D01*
G37*
G36*
X-37229985Y32982027D02*
G01*
X-37126121Y32950521D01*
X-37098945Y32935995D01*
X-37030400Y32899357D01*
X-36946499Y32830501D01*
X-36877643Y32746600D01*
X-36841005Y32678055D01*
X-36826479Y32650879D01*
X-36794973Y32547015D01*
X-36787000Y32466067D01*
X-36787000Y31861933D01*
X-36794973Y31780985D01*
X-36826479Y31677121D01*
X-36877644Y31581400D01*
X-36946499Y31497499D01*
X-36954432Y31490989D01*
X-37030401Y31428643D01*
X-37077669Y31403378D01*
X-37126122Y31377479D01*
X-37229986Y31345973D01*
X-37338000Y31335334D01*
X-37446015Y31345973D01*
X-37549879Y31377479D01*
X-37598332Y31403378D01*
X-37645599Y31428643D01*
X-37658357Y31439113D01*
X-37729501Y31497499D01*
X-37798356Y31581400D01*
X-37849521Y31677122D01*
X-37881027Y31780986D01*
X-37889000Y31861934D01*
X-37889000Y32466067D01*
X-37881027Y32547015D01*
X-37849520Y32650879D01*
X-37849519Y32650882D01*
X-37798357Y32746599D01*
X-37729500Y32830501D01*
X-37645599Y32899357D01*
X-37577054Y32935995D01*
X-37549878Y32950521D01*
X-37446014Y32982027D01*
X-37338000Y32992666D01*
X-37229985Y32982027D01*
X-37229985Y32982027D01*
G37*
G36*
X-29223000Y32063000D02*
G01*
X-30425000Y32063000D01*
X-30425000Y34065000D01*
X-29223000Y34065000D01*
X-29223000Y32063000D01*
X-29223000Y32063000D01*
G37*
G36*
X-34623000Y32063000D02*
G01*
X-35825000Y32063000D01*
X-35825000Y34065000D01*
X-34623000Y34065000D01*
X-34623000Y32063000D01*
X-34623000Y32063000D01*
G37*
M02*
