G04 #@! TF.GenerationSoftware,KiCad,Pcbnew,(5.1.4)-1*
G04 #@! TF.CreationDate,2019-10-22T03:03:10-07:00*
G04 #@! TF.ProjectId,SAM_breakout_board,53414d5f-6272-4656-916b-6f75745f626f,rev?*
G04 #@! TF.SameCoordinates,PXd33a380PY5dfc8c0*
G04 #@! TF.FileFunction,Paste,Bot*
G04 #@! TF.FilePolarity,Positive*
%FSLAX46Y46*%
G04 Gerber Fmt 4.6, Leading zero omitted, Abs format (unit mm)*
G04 Created by KiCad (PCBNEW (5.1.4)-1) date 2019-10-22 03:03:10*
%MOMM*%
%LPD*%
G04 APERTURE LIST*
%ADD10C,0.050000*%
%ADD11C,0.100000*%
%ADD12C,1.425000*%
%ADD13R,0.230000X0.600000*%
%ADD14R,0.650000X0.900000*%
%ADD15O,0.800000X0.230000*%
%ADD16R,0.230000X0.230000*%
%ADD17R,0.150000X0.600000*%
%ADD18R,0.650000X0.750000*%
%ADD19R,0.250000X0.500000*%
%ADD20C,1.250000*%
%ADD21C,1.150000*%
%ADD22R,2.500000X1.800000*%
G04 APERTURE END LIST*
D10*
X-56642000Y-6350000D02*
X-56642000Y35052000D01*
X-15748000Y-6350000D02*
X-56642000Y-6350000D01*
X-15748000Y35052000D02*
X-15748000Y-6350000D01*
X-56642000Y35052000D02*
X-15748000Y35052000D01*
D11*
G36*
X-31697996Y1889796D02*
G01*
X-31673727Y1886196D01*
X-31649929Y1880235D01*
X-31626829Y1871970D01*
X-31604651Y1861480D01*
X-31583607Y1848867D01*
X-31563902Y1834253D01*
X-31545723Y1817777D01*
X-31529247Y1799598D01*
X-31514633Y1779893D01*
X-31502020Y1758849D01*
X-31491530Y1736671D01*
X-31483265Y1713571D01*
X-31477304Y1689773D01*
X-31473704Y1665504D01*
X-31472500Y1641000D01*
X-31472500Y391000D01*
X-31473704Y366496D01*
X-31477304Y342227D01*
X-31483265Y318429D01*
X-31491530Y295329D01*
X-31502020Y273151D01*
X-31514633Y252107D01*
X-31529247Y232402D01*
X-31545723Y214223D01*
X-31563902Y197747D01*
X-31583607Y183133D01*
X-31604651Y170520D01*
X-31626829Y160030D01*
X-31649929Y151765D01*
X-31673727Y145804D01*
X-31697996Y142204D01*
X-31722500Y141000D01*
X-32647500Y141000D01*
X-32672004Y142204D01*
X-32696273Y145804D01*
X-32720071Y151765D01*
X-32743171Y160030D01*
X-32765349Y170520D01*
X-32786393Y183133D01*
X-32806098Y197747D01*
X-32824277Y214223D01*
X-32840753Y232402D01*
X-32855367Y252107D01*
X-32867980Y273151D01*
X-32878470Y295329D01*
X-32886735Y318429D01*
X-32892696Y342227D01*
X-32896296Y366496D01*
X-32897500Y391000D01*
X-32897500Y1641000D01*
X-32896296Y1665504D01*
X-32892696Y1689773D01*
X-32886735Y1713571D01*
X-32878470Y1736671D01*
X-32867980Y1758849D01*
X-32855367Y1779893D01*
X-32840753Y1799598D01*
X-32824277Y1817777D01*
X-32806098Y1834253D01*
X-32786393Y1848867D01*
X-32765349Y1861480D01*
X-32743171Y1871970D01*
X-32720071Y1880235D01*
X-32696273Y1886196D01*
X-32672004Y1889796D01*
X-32647500Y1891000D01*
X-31722500Y1891000D01*
X-31697996Y1889796D01*
X-31697996Y1889796D01*
G37*
D12*
X-32185000Y1016000D03*
D11*
G36*
X-28722996Y1889796D02*
G01*
X-28698727Y1886196D01*
X-28674929Y1880235D01*
X-28651829Y1871970D01*
X-28629651Y1861480D01*
X-28608607Y1848867D01*
X-28588902Y1834253D01*
X-28570723Y1817777D01*
X-28554247Y1799598D01*
X-28539633Y1779893D01*
X-28527020Y1758849D01*
X-28516530Y1736671D01*
X-28508265Y1713571D01*
X-28502304Y1689773D01*
X-28498704Y1665504D01*
X-28497500Y1641000D01*
X-28497500Y391000D01*
X-28498704Y366496D01*
X-28502304Y342227D01*
X-28508265Y318429D01*
X-28516530Y295329D01*
X-28527020Y273151D01*
X-28539633Y252107D01*
X-28554247Y232402D01*
X-28570723Y214223D01*
X-28588902Y197747D01*
X-28608607Y183133D01*
X-28629651Y170520D01*
X-28651829Y160030D01*
X-28674929Y151765D01*
X-28698727Y145804D01*
X-28722996Y142204D01*
X-28747500Y141000D01*
X-29672500Y141000D01*
X-29697004Y142204D01*
X-29721273Y145804D01*
X-29745071Y151765D01*
X-29768171Y160030D01*
X-29790349Y170520D01*
X-29811393Y183133D01*
X-29831098Y197747D01*
X-29849277Y214223D01*
X-29865753Y232402D01*
X-29880367Y252107D01*
X-29892980Y273151D01*
X-29903470Y295329D01*
X-29911735Y318429D01*
X-29917696Y342227D01*
X-29921296Y366496D01*
X-29922500Y391000D01*
X-29922500Y1641000D01*
X-29921296Y1665504D01*
X-29917696Y1689773D01*
X-29911735Y1713571D01*
X-29903470Y1736671D01*
X-29892980Y1758849D01*
X-29880367Y1779893D01*
X-29865753Y1799598D01*
X-29849277Y1817777D01*
X-29831098Y1834253D01*
X-29811393Y1848867D01*
X-29790349Y1861480D01*
X-29768171Y1871970D01*
X-29745071Y1880235D01*
X-29721273Y1886196D01*
X-29697004Y1889796D01*
X-29672500Y1891000D01*
X-28747500Y1891000D01*
X-28722996Y1889796D01*
X-28722996Y1889796D01*
G37*
D12*
X-29210000Y1016000D03*
D13*
X-26889000Y20038000D03*
X-26489000Y20038000D03*
X-26089000Y20038000D03*
X-25689000Y20038000D03*
X-26889000Y22888000D03*
X-26489000Y22888000D03*
X-26089000Y22888000D03*
X-25689000Y22888000D03*
D14*
X-26724000Y22023000D03*
X-25854000Y20903000D03*
X-26724000Y20903000D03*
X-25854000Y22023000D03*
D15*
X-27764000Y22463000D03*
X-27764000Y21963000D03*
X-27764000Y21463000D03*
D16*
X-28049000Y20963000D03*
X-28049000Y20463000D03*
D15*
X-24814000Y20463000D03*
D16*
X-24529000Y20963000D03*
D15*
X-24814000Y21463000D03*
D16*
X-24529000Y21963000D03*
X-24529000Y22463000D03*
D17*
X-26489000Y20038000D03*
X-26089000Y20038000D03*
X-26489000Y22888000D03*
X-26089000Y22888000D03*
D16*
X-28049000Y22463000D03*
X-28049000Y21963000D03*
X-28049000Y21463000D03*
D15*
X-27764000Y20963000D03*
X-27764000Y20463000D03*
D16*
X-24529000Y20463000D03*
D15*
X-24814000Y20963000D03*
D16*
X-24529000Y21463000D03*
D15*
X-24814000Y21963000D03*
X-24814000Y22463000D03*
D17*
X-26889000Y22888000D03*
X-25689000Y22888000D03*
X-26889000Y20038000D03*
X-25689000Y20038000D03*
D18*
X-45828000Y15494000D03*
X-46628000Y15494000D03*
D19*
X-46478000Y16444000D03*
X-46978000Y16444000D03*
X-46978000Y14544000D03*
X-45978000Y14544000D03*
X-45478000Y14544000D03*
X-45478000Y16444000D03*
X-45978000Y16444000D03*
X-46478000Y14544000D03*
D11*
G36*
X-28992296Y24783356D02*
G01*
X-28968027Y24779756D01*
X-28944229Y24773795D01*
X-28921129Y24765530D01*
X-28898951Y24755040D01*
X-28877907Y24742427D01*
X-28858202Y24727813D01*
X-28840023Y24711337D01*
X-28823547Y24693158D01*
X-28808933Y24673453D01*
X-28796320Y24652409D01*
X-28785830Y24630231D01*
X-28777565Y24607131D01*
X-28771604Y24583333D01*
X-28768004Y24559064D01*
X-28766800Y24534560D01*
X-28766800Y23784560D01*
X-28768004Y23760056D01*
X-28771604Y23735787D01*
X-28777565Y23711989D01*
X-28785830Y23688889D01*
X-28796320Y23666711D01*
X-28808933Y23645667D01*
X-28823547Y23625962D01*
X-28840023Y23607783D01*
X-28858202Y23591307D01*
X-28877907Y23576693D01*
X-28898951Y23564080D01*
X-28921129Y23553590D01*
X-28944229Y23545325D01*
X-28968027Y23539364D01*
X-28992296Y23535764D01*
X-29016800Y23534560D01*
X-30266800Y23534560D01*
X-30291304Y23535764D01*
X-30315573Y23539364D01*
X-30339371Y23545325D01*
X-30362471Y23553590D01*
X-30384649Y23564080D01*
X-30405693Y23576693D01*
X-30425398Y23591307D01*
X-30443577Y23607783D01*
X-30460053Y23625962D01*
X-30474667Y23645667D01*
X-30487280Y23666711D01*
X-30497770Y23688889D01*
X-30506035Y23711989D01*
X-30511996Y23735787D01*
X-30515596Y23760056D01*
X-30516800Y23784560D01*
X-30516800Y24534560D01*
X-30515596Y24559064D01*
X-30511996Y24583333D01*
X-30506035Y24607131D01*
X-30497770Y24630231D01*
X-30487280Y24652409D01*
X-30474667Y24673453D01*
X-30460053Y24693158D01*
X-30443577Y24711337D01*
X-30425398Y24727813D01*
X-30405693Y24742427D01*
X-30384649Y24755040D01*
X-30362471Y24765530D01*
X-30339371Y24773795D01*
X-30315573Y24779756D01*
X-30291304Y24783356D01*
X-30266800Y24784560D01*
X-29016800Y24784560D01*
X-28992296Y24783356D01*
X-28992296Y24783356D01*
G37*
D20*
X-29641800Y24159560D03*
D11*
G36*
X-28992296Y27583356D02*
G01*
X-28968027Y27579756D01*
X-28944229Y27573795D01*
X-28921129Y27565530D01*
X-28898951Y27555040D01*
X-28877907Y27542427D01*
X-28858202Y27527813D01*
X-28840023Y27511337D01*
X-28823547Y27493158D01*
X-28808933Y27473453D01*
X-28796320Y27452409D01*
X-28785830Y27430231D01*
X-28777565Y27407131D01*
X-28771604Y27383333D01*
X-28768004Y27359064D01*
X-28766800Y27334560D01*
X-28766800Y26584560D01*
X-28768004Y26560056D01*
X-28771604Y26535787D01*
X-28777565Y26511989D01*
X-28785830Y26488889D01*
X-28796320Y26466711D01*
X-28808933Y26445667D01*
X-28823547Y26425962D01*
X-28840023Y26407783D01*
X-28858202Y26391307D01*
X-28877907Y26376693D01*
X-28898951Y26364080D01*
X-28921129Y26353590D01*
X-28944229Y26345325D01*
X-28968027Y26339364D01*
X-28992296Y26335764D01*
X-29016800Y26334560D01*
X-30266800Y26334560D01*
X-30291304Y26335764D01*
X-30315573Y26339364D01*
X-30339371Y26345325D01*
X-30362471Y26353590D01*
X-30384649Y26364080D01*
X-30405693Y26376693D01*
X-30425398Y26391307D01*
X-30443577Y26407783D01*
X-30460053Y26425962D01*
X-30474667Y26445667D01*
X-30487280Y26466711D01*
X-30497770Y26488889D01*
X-30506035Y26511989D01*
X-30511996Y26535787D01*
X-30515596Y26560056D01*
X-30516800Y26584560D01*
X-30516800Y27334560D01*
X-30515596Y27359064D01*
X-30511996Y27383333D01*
X-30506035Y27407131D01*
X-30497770Y27430231D01*
X-30487280Y27452409D01*
X-30474667Y27473453D01*
X-30460053Y27493158D01*
X-30443577Y27511337D01*
X-30425398Y27527813D01*
X-30405693Y27542427D01*
X-30384649Y27555040D01*
X-30362471Y27565530D01*
X-30339371Y27573795D01*
X-30315573Y27579756D01*
X-30291304Y27583356D01*
X-30266800Y27584560D01*
X-29016800Y27584560D01*
X-28992296Y27583356D01*
X-28992296Y27583356D01*
G37*
D20*
X-29641800Y26959560D03*
D11*
G36*
X-33890496Y16621796D02*
G01*
X-33866227Y16618196D01*
X-33842429Y16612235D01*
X-33819329Y16603970D01*
X-33797151Y16593480D01*
X-33776107Y16580867D01*
X-33756402Y16566253D01*
X-33738223Y16549777D01*
X-33721747Y16531598D01*
X-33707133Y16511893D01*
X-33694520Y16490849D01*
X-33684030Y16468671D01*
X-33675765Y16445571D01*
X-33669804Y16421773D01*
X-33666204Y16397504D01*
X-33665000Y16373000D01*
X-33665000Y15123000D01*
X-33666204Y15098496D01*
X-33669804Y15074227D01*
X-33675765Y15050429D01*
X-33684030Y15027329D01*
X-33694520Y15005151D01*
X-33707133Y14984107D01*
X-33721747Y14964402D01*
X-33738223Y14946223D01*
X-33756402Y14929747D01*
X-33776107Y14915133D01*
X-33797151Y14902520D01*
X-33819329Y14892030D01*
X-33842429Y14883765D01*
X-33866227Y14877804D01*
X-33890496Y14874204D01*
X-33915000Y14873000D01*
X-34665000Y14873000D01*
X-34689504Y14874204D01*
X-34713773Y14877804D01*
X-34737571Y14883765D01*
X-34760671Y14892030D01*
X-34782849Y14902520D01*
X-34803893Y14915133D01*
X-34823598Y14929747D01*
X-34841777Y14946223D01*
X-34858253Y14964402D01*
X-34872867Y14984107D01*
X-34885480Y15005151D01*
X-34895970Y15027329D01*
X-34904235Y15050429D01*
X-34910196Y15074227D01*
X-34913796Y15098496D01*
X-34915000Y15123000D01*
X-34915000Y16373000D01*
X-34913796Y16397504D01*
X-34910196Y16421773D01*
X-34904235Y16445571D01*
X-34895970Y16468671D01*
X-34885480Y16490849D01*
X-34872867Y16511893D01*
X-34858253Y16531598D01*
X-34841777Y16549777D01*
X-34823598Y16566253D01*
X-34803893Y16580867D01*
X-34782849Y16593480D01*
X-34760671Y16603970D01*
X-34737571Y16612235D01*
X-34713773Y16618196D01*
X-34689504Y16621796D01*
X-34665000Y16623000D01*
X-33915000Y16623000D01*
X-33890496Y16621796D01*
X-33890496Y16621796D01*
G37*
D20*
X-34290000Y15748000D03*
D11*
G36*
X-31090496Y16621796D02*
G01*
X-31066227Y16618196D01*
X-31042429Y16612235D01*
X-31019329Y16603970D01*
X-30997151Y16593480D01*
X-30976107Y16580867D01*
X-30956402Y16566253D01*
X-30938223Y16549777D01*
X-30921747Y16531598D01*
X-30907133Y16511893D01*
X-30894520Y16490849D01*
X-30884030Y16468671D01*
X-30875765Y16445571D01*
X-30869804Y16421773D01*
X-30866204Y16397504D01*
X-30865000Y16373000D01*
X-30865000Y15123000D01*
X-30866204Y15098496D01*
X-30869804Y15074227D01*
X-30875765Y15050429D01*
X-30884030Y15027329D01*
X-30894520Y15005151D01*
X-30907133Y14984107D01*
X-30921747Y14964402D01*
X-30938223Y14946223D01*
X-30956402Y14929747D01*
X-30976107Y14915133D01*
X-30997151Y14902520D01*
X-31019329Y14892030D01*
X-31042429Y14883765D01*
X-31066227Y14877804D01*
X-31090496Y14874204D01*
X-31115000Y14873000D01*
X-31865000Y14873000D01*
X-31889504Y14874204D01*
X-31913773Y14877804D01*
X-31937571Y14883765D01*
X-31960671Y14892030D01*
X-31982849Y14902520D01*
X-32003893Y14915133D01*
X-32023598Y14929747D01*
X-32041777Y14946223D01*
X-32058253Y14964402D01*
X-32072867Y14984107D01*
X-32085480Y15005151D01*
X-32095970Y15027329D01*
X-32104235Y15050429D01*
X-32110196Y15074227D01*
X-32113796Y15098496D01*
X-32115000Y15123000D01*
X-32115000Y16373000D01*
X-32113796Y16397504D01*
X-32110196Y16421773D01*
X-32104235Y16445571D01*
X-32095970Y16468671D01*
X-32085480Y16490849D01*
X-32072867Y16511893D01*
X-32058253Y16531598D01*
X-32041777Y16549777D01*
X-32023598Y16566253D01*
X-32003893Y16580867D01*
X-31982849Y16593480D01*
X-31960671Y16603970D01*
X-31937571Y16612235D01*
X-31913773Y16618196D01*
X-31889504Y16621796D01*
X-31865000Y16623000D01*
X-31115000Y16623000D01*
X-31090496Y16621796D01*
X-31090496Y16621796D01*
G37*
D20*
X-31490000Y15748000D03*
D11*
G36*
X-29002456Y19963356D02*
G01*
X-28978187Y19959756D01*
X-28954389Y19953795D01*
X-28931289Y19945530D01*
X-28909111Y19935040D01*
X-28888067Y19922427D01*
X-28868362Y19907813D01*
X-28850183Y19891337D01*
X-28833707Y19873158D01*
X-28819093Y19853453D01*
X-28806480Y19832409D01*
X-28795990Y19810231D01*
X-28787725Y19787131D01*
X-28781764Y19763333D01*
X-28778164Y19739064D01*
X-28776960Y19714560D01*
X-28776960Y18964560D01*
X-28778164Y18940056D01*
X-28781764Y18915787D01*
X-28787725Y18891989D01*
X-28795990Y18868889D01*
X-28806480Y18846711D01*
X-28819093Y18825667D01*
X-28833707Y18805962D01*
X-28850183Y18787783D01*
X-28868362Y18771307D01*
X-28888067Y18756693D01*
X-28909111Y18744080D01*
X-28931289Y18733590D01*
X-28954389Y18725325D01*
X-28978187Y18719364D01*
X-29002456Y18715764D01*
X-29026960Y18714560D01*
X-30276960Y18714560D01*
X-30301464Y18715764D01*
X-30325733Y18719364D01*
X-30349531Y18725325D01*
X-30372631Y18733590D01*
X-30394809Y18744080D01*
X-30415853Y18756693D01*
X-30435558Y18771307D01*
X-30453737Y18787783D01*
X-30470213Y18805962D01*
X-30484827Y18825667D01*
X-30497440Y18846711D01*
X-30507930Y18868889D01*
X-30516195Y18891989D01*
X-30522156Y18915787D01*
X-30525756Y18940056D01*
X-30526960Y18964560D01*
X-30526960Y19714560D01*
X-30525756Y19739064D01*
X-30522156Y19763333D01*
X-30516195Y19787131D01*
X-30507930Y19810231D01*
X-30497440Y19832409D01*
X-30484827Y19853453D01*
X-30470213Y19873158D01*
X-30453737Y19891337D01*
X-30435558Y19907813D01*
X-30415853Y19922427D01*
X-30394809Y19935040D01*
X-30372631Y19945530D01*
X-30349531Y19953795D01*
X-30325733Y19959756D01*
X-30301464Y19963356D01*
X-30276960Y19964560D01*
X-29026960Y19964560D01*
X-29002456Y19963356D01*
X-29002456Y19963356D01*
G37*
D20*
X-29651960Y19339560D03*
D11*
G36*
X-29002456Y22763356D02*
G01*
X-28978187Y22759756D01*
X-28954389Y22753795D01*
X-28931289Y22745530D01*
X-28909111Y22735040D01*
X-28888067Y22722427D01*
X-28868362Y22707813D01*
X-28850183Y22691337D01*
X-28833707Y22673158D01*
X-28819093Y22653453D01*
X-28806480Y22632409D01*
X-28795990Y22610231D01*
X-28787725Y22587131D01*
X-28781764Y22563333D01*
X-28778164Y22539064D01*
X-28776960Y22514560D01*
X-28776960Y21764560D01*
X-28778164Y21740056D01*
X-28781764Y21715787D01*
X-28787725Y21691989D01*
X-28795990Y21668889D01*
X-28806480Y21646711D01*
X-28819093Y21625667D01*
X-28833707Y21605962D01*
X-28850183Y21587783D01*
X-28868362Y21571307D01*
X-28888067Y21556693D01*
X-28909111Y21544080D01*
X-28931289Y21533590D01*
X-28954389Y21525325D01*
X-28978187Y21519364D01*
X-29002456Y21515764D01*
X-29026960Y21514560D01*
X-30276960Y21514560D01*
X-30301464Y21515764D01*
X-30325733Y21519364D01*
X-30349531Y21525325D01*
X-30372631Y21533590D01*
X-30394809Y21544080D01*
X-30415853Y21556693D01*
X-30435558Y21571307D01*
X-30453737Y21587783D01*
X-30470213Y21605962D01*
X-30484827Y21625667D01*
X-30497440Y21646711D01*
X-30507930Y21668889D01*
X-30516195Y21691989D01*
X-30522156Y21715787D01*
X-30525756Y21740056D01*
X-30526960Y21764560D01*
X-30526960Y22514560D01*
X-30525756Y22539064D01*
X-30522156Y22563333D01*
X-30516195Y22587131D01*
X-30507930Y22610231D01*
X-30497440Y22632409D01*
X-30484827Y22653453D01*
X-30470213Y22673158D01*
X-30453737Y22691337D01*
X-30435558Y22707813D01*
X-30415853Y22722427D01*
X-30394809Y22735040D01*
X-30372631Y22745530D01*
X-30349531Y22753795D01*
X-30325733Y22759756D01*
X-30301464Y22763356D01*
X-30276960Y22764560D01*
X-29026960Y22764560D01*
X-29002456Y22763356D01*
X-29002456Y22763356D01*
G37*
D20*
X-29651960Y22139560D03*
D11*
G36*
X-34144496Y26781796D02*
G01*
X-34120227Y26778196D01*
X-34096429Y26772235D01*
X-34073329Y26763970D01*
X-34051151Y26753480D01*
X-34030107Y26740867D01*
X-34010402Y26726253D01*
X-33992223Y26709777D01*
X-33975747Y26691598D01*
X-33961133Y26671893D01*
X-33948520Y26650849D01*
X-33938030Y26628671D01*
X-33929765Y26605571D01*
X-33923804Y26581773D01*
X-33920204Y26557504D01*
X-33919000Y26533000D01*
X-33919000Y25283000D01*
X-33920204Y25258496D01*
X-33923804Y25234227D01*
X-33929765Y25210429D01*
X-33938030Y25187329D01*
X-33948520Y25165151D01*
X-33961133Y25144107D01*
X-33975747Y25124402D01*
X-33992223Y25106223D01*
X-34010402Y25089747D01*
X-34030107Y25075133D01*
X-34051151Y25062520D01*
X-34073329Y25052030D01*
X-34096429Y25043765D01*
X-34120227Y25037804D01*
X-34144496Y25034204D01*
X-34169000Y25033000D01*
X-34919000Y25033000D01*
X-34943504Y25034204D01*
X-34967773Y25037804D01*
X-34991571Y25043765D01*
X-35014671Y25052030D01*
X-35036849Y25062520D01*
X-35057893Y25075133D01*
X-35077598Y25089747D01*
X-35095777Y25106223D01*
X-35112253Y25124402D01*
X-35126867Y25144107D01*
X-35139480Y25165151D01*
X-35149970Y25187329D01*
X-35158235Y25210429D01*
X-35164196Y25234227D01*
X-35167796Y25258496D01*
X-35169000Y25283000D01*
X-35169000Y26533000D01*
X-35167796Y26557504D01*
X-35164196Y26581773D01*
X-35158235Y26605571D01*
X-35149970Y26628671D01*
X-35139480Y26650849D01*
X-35126867Y26671893D01*
X-35112253Y26691598D01*
X-35095777Y26709777D01*
X-35077598Y26726253D01*
X-35057893Y26740867D01*
X-35036849Y26753480D01*
X-35014671Y26763970D01*
X-34991571Y26772235D01*
X-34967773Y26778196D01*
X-34943504Y26781796D01*
X-34919000Y26783000D01*
X-34169000Y26783000D01*
X-34144496Y26781796D01*
X-34144496Y26781796D01*
G37*
D20*
X-34544000Y25908000D03*
D11*
G36*
X-36944496Y26781796D02*
G01*
X-36920227Y26778196D01*
X-36896429Y26772235D01*
X-36873329Y26763970D01*
X-36851151Y26753480D01*
X-36830107Y26740867D01*
X-36810402Y26726253D01*
X-36792223Y26709777D01*
X-36775747Y26691598D01*
X-36761133Y26671893D01*
X-36748520Y26650849D01*
X-36738030Y26628671D01*
X-36729765Y26605571D01*
X-36723804Y26581773D01*
X-36720204Y26557504D01*
X-36719000Y26533000D01*
X-36719000Y25283000D01*
X-36720204Y25258496D01*
X-36723804Y25234227D01*
X-36729765Y25210429D01*
X-36738030Y25187329D01*
X-36748520Y25165151D01*
X-36761133Y25144107D01*
X-36775747Y25124402D01*
X-36792223Y25106223D01*
X-36810402Y25089747D01*
X-36830107Y25075133D01*
X-36851151Y25062520D01*
X-36873329Y25052030D01*
X-36896429Y25043765D01*
X-36920227Y25037804D01*
X-36944496Y25034204D01*
X-36969000Y25033000D01*
X-37719000Y25033000D01*
X-37743504Y25034204D01*
X-37767773Y25037804D01*
X-37791571Y25043765D01*
X-37814671Y25052030D01*
X-37836849Y25062520D01*
X-37857893Y25075133D01*
X-37877598Y25089747D01*
X-37895777Y25106223D01*
X-37912253Y25124402D01*
X-37926867Y25144107D01*
X-37939480Y25165151D01*
X-37949970Y25187329D01*
X-37958235Y25210429D01*
X-37964196Y25234227D01*
X-37967796Y25258496D01*
X-37969000Y25283000D01*
X-37969000Y26533000D01*
X-37967796Y26557504D01*
X-37964196Y26581773D01*
X-37958235Y26605571D01*
X-37949970Y26628671D01*
X-37939480Y26650849D01*
X-37926867Y26671893D01*
X-37912253Y26691598D01*
X-37895777Y26709777D01*
X-37877598Y26726253D01*
X-37857893Y26740867D01*
X-37836849Y26753480D01*
X-37814671Y26763970D01*
X-37791571Y26772235D01*
X-37767773Y26778196D01*
X-37743504Y26781796D01*
X-37719000Y26783000D01*
X-36969000Y26783000D01*
X-36944496Y26781796D01*
X-36944496Y26781796D01*
G37*
D20*
X-37344000Y25908000D03*
D11*
G36*
X-45574496Y26781796D02*
G01*
X-45550227Y26778196D01*
X-45526429Y26772235D01*
X-45503329Y26763970D01*
X-45481151Y26753480D01*
X-45460107Y26740867D01*
X-45440402Y26726253D01*
X-45422223Y26709777D01*
X-45405747Y26691598D01*
X-45391133Y26671893D01*
X-45378520Y26650849D01*
X-45368030Y26628671D01*
X-45359765Y26605571D01*
X-45353804Y26581773D01*
X-45350204Y26557504D01*
X-45349000Y26533000D01*
X-45349000Y25283000D01*
X-45350204Y25258496D01*
X-45353804Y25234227D01*
X-45359765Y25210429D01*
X-45368030Y25187329D01*
X-45378520Y25165151D01*
X-45391133Y25144107D01*
X-45405747Y25124402D01*
X-45422223Y25106223D01*
X-45440402Y25089747D01*
X-45460107Y25075133D01*
X-45481151Y25062520D01*
X-45503329Y25052030D01*
X-45526429Y25043765D01*
X-45550227Y25037804D01*
X-45574496Y25034204D01*
X-45599000Y25033000D01*
X-46349000Y25033000D01*
X-46373504Y25034204D01*
X-46397773Y25037804D01*
X-46421571Y25043765D01*
X-46444671Y25052030D01*
X-46466849Y25062520D01*
X-46487893Y25075133D01*
X-46507598Y25089747D01*
X-46525777Y25106223D01*
X-46542253Y25124402D01*
X-46556867Y25144107D01*
X-46569480Y25165151D01*
X-46579970Y25187329D01*
X-46588235Y25210429D01*
X-46594196Y25234227D01*
X-46597796Y25258496D01*
X-46599000Y25283000D01*
X-46599000Y26533000D01*
X-46597796Y26557504D01*
X-46594196Y26581773D01*
X-46588235Y26605571D01*
X-46579970Y26628671D01*
X-46569480Y26650849D01*
X-46556867Y26671893D01*
X-46542253Y26691598D01*
X-46525777Y26709777D01*
X-46507598Y26726253D01*
X-46487893Y26740867D01*
X-46466849Y26753480D01*
X-46444671Y26763970D01*
X-46421571Y26772235D01*
X-46397773Y26778196D01*
X-46373504Y26781796D01*
X-46349000Y26783000D01*
X-45599000Y26783000D01*
X-45574496Y26781796D01*
X-45574496Y26781796D01*
G37*
D20*
X-45974000Y25908000D03*
D11*
G36*
X-48374496Y26781796D02*
G01*
X-48350227Y26778196D01*
X-48326429Y26772235D01*
X-48303329Y26763970D01*
X-48281151Y26753480D01*
X-48260107Y26740867D01*
X-48240402Y26726253D01*
X-48222223Y26709777D01*
X-48205747Y26691598D01*
X-48191133Y26671893D01*
X-48178520Y26650849D01*
X-48168030Y26628671D01*
X-48159765Y26605571D01*
X-48153804Y26581773D01*
X-48150204Y26557504D01*
X-48149000Y26533000D01*
X-48149000Y25283000D01*
X-48150204Y25258496D01*
X-48153804Y25234227D01*
X-48159765Y25210429D01*
X-48168030Y25187329D01*
X-48178520Y25165151D01*
X-48191133Y25144107D01*
X-48205747Y25124402D01*
X-48222223Y25106223D01*
X-48240402Y25089747D01*
X-48260107Y25075133D01*
X-48281151Y25062520D01*
X-48303329Y25052030D01*
X-48326429Y25043765D01*
X-48350227Y25037804D01*
X-48374496Y25034204D01*
X-48399000Y25033000D01*
X-49149000Y25033000D01*
X-49173504Y25034204D01*
X-49197773Y25037804D01*
X-49221571Y25043765D01*
X-49244671Y25052030D01*
X-49266849Y25062520D01*
X-49287893Y25075133D01*
X-49307598Y25089747D01*
X-49325777Y25106223D01*
X-49342253Y25124402D01*
X-49356867Y25144107D01*
X-49369480Y25165151D01*
X-49379970Y25187329D01*
X-49388235Y25210429D01*
X-49394196Y25234227D01*
X-49397796Y25258496D01*
X-49399000Y25283000D01*
X-49399000Y26533000D01*
X-49397796Y26557504D01*
X-49394196Y26581773D01*
X-49388235Y26605571D01*
X-49379970Y26628671D01*
X-49369480Y26650849D01*
X-49356867Y26671893D01*
X-49342253Y26691598D01*
X-49325777Y26709777D01*
X-49307598Y26726253D01*
X-49287893Y26740867D01*
X-49266849Y26753480D01*
X-49244671Y26763970D01*
X-49221571Y26772235D01*
X-49197773Y26778196D01*
X-49173504Y26781796D01*
X-49149000Y26783000D01*
X-48399000Y26783000D01*
X-48374496Y26781796D01*
X-48374496Y26781796D01*
G37*
D20*
X-48774000Y25908000D03*
D11*
G36*
X-39602496Y26781796D02*
G01*
X-39578227Y26778196D01*
X-39554429Y26772235D01*
X-39531329Y26763970D01*
X-39509151Y26753480D01*
X-39488107Y26740867D01*
X-39468402Y26726253D01*
X-39450223Y26709777D01*
X-39433747Y26691598D01*
X-39419133Y26671893D01*
X-39406520Y26650849D01*
X-39396030Y26628671D01*
X-39387765Y26605571D01*
X-39381804Y26581773D01*
X-39378204Y26557504D01*
X-39377000Y26533000D01*
X-39377000Y25283000D01*
X-39378204Y25258496D01*
X-39381804Y25234227D01*
X-39387765Y25210429D01*
X-39396030Y25187329D01*
X-39406520Y25165151D01*
X-39419133Y25144107D01*
X-39433747Y25124402D01*
X-39450223Y25106223D01*
X-39468402Y25089747D01*
X-39488107Y25075133D01*
X-39509151Y25062520D01*
X-39531329Y25052030D01*
X-39554429Y25043765D01*
X-39578227Y25037804D01*
X-39602496Y25034204D01*
X-39627000Y25033000D01*
X-40377000Y25033000D01*
X-40401504Y25034204D01*
X-40425773Y25037804D01*
X-40449571Y25043765D01*
X-40472671Y25052030D01*
X-40494849Y25062520D01*
X-40515893Y25075133D01*
X-40535598Y25089747D01*
X-40553777Y25106223D01*
X-40570253Y25124402D01*
X-40584867Y25144107D01*
X-40597480Y25165151D01*
X-40607970Y25187329D01*
X-40616235Y25210429D01*
X-40622196Y25234227D01*
X-40625796Y25258496D01*
X-40627000Y25283000D01*
X-40627000Y26533000D01*
X-40625796Y26557504D01*
X-40622196Y26581773D01*
X-40616235Y26605571D01*
X-40607970Y26628671D01*
X-40597480Y26650849D01*
X-40584867Y26671893D01*
X-40570253Y26691598D01*
X-40553777Y26709777D01*
X-40535598Y26726253D01*
X-40515893Y26740867D01*
X-40494849Y26753480D01*
X-40472671Y26763970D01*
X-40449571Y26772235D01*
X-40425773Y26778196D01*
X-40401504Y26781796D01*
X-40377000Y26783000D01*
X-39627000Y26783000D01*
X-39602496Y26781796D01*
X-39602496Y26781796D01*
G37*
D20*
X-40002000Y25908000D03*
D11*
G36*
X-42402496Y26781796D02*
G01*
X-42378227Y26778196D01*
X-42354429Y26772235D01*
X-42331329Y26763970D01*
X-42309151Y26753480D01*
X-42288107Y26740867D01*
X-42268402Y26726253D01*
X-42250223Y26709777D01*
X-42233747Y26691598D01*
X-42219133Y26671893D01*
X-42206520Y26650849D01*
X-42196030Y26628671D01*
X-42187765Y26605571D01*
X-42181804Y26581773D01*
X-42178204Y26557504D01*
X-42177000Y26533000D01*
X-42177000Y25283000D01*
X-42178204Y25258496D01*
X-42181804Y25234227D01*
X-42187765Y25210429D01*
X-42196030Y25187329D01*
X-42206520Y25165151D01*
X-42219133Y25144107D01*
X-42233747Y25124402D01*
X-42250223Y25106223D01*
X-42268402Y25089747D01*
X-42288107Y25075133D01*
X-42309151Y25062520D01*
X-42331329Y25052030D01*
X-42354429Y25043765D01*
X-42378227Y25037804D01*
X-42402496Y25034204D01*
X-42427000Y25033000D01*
X-43177000Y25033000D01*
X-43201504Y25034204D01*
X-43225773Y25037804D01*
X-43249571Y25043765D01*
X-43272671Y25052030D01*
X-43294849Y25062520D01*
X-43315893Y25075133D01*
X-43335598Y25089747D01*
X-43353777Y25106223D01*
X-43370253Y25124402D01*
X-43384867Y25144107D01*
X-43397480Y25165151D01*
X-43407970Y25187329D01*
X-43416235Y25210429D01*
X-43422196Y25234227D01*
X-43425796Y25258496D01*
X-43427000Y25283000D01*
X-43427000Y26533000D01*
X-43425796Y26557504D01*
X-43422196Y26581773D01*
X-43416235Y26605571D01*
X-43407970Y26628671D01*
X-43397480Y26650849D01*
X-43384867Y26671893D01*
X-43370253Y26691598D01*
X-43353777Y26709777D01*
X-43335598Y26726253D01*
X-43315893Y26740867D01*
X-43294849Y26753480D01*
X-43272671Y26763970D01*
X-43249571Y26772235D01*
X-43225773Y26778196D01*
X-43201504Y26781796D01*
X-43177000Y26783000D01*
X-42427000Y26783000D01*
X-42402496Y26781796D01*
X-42402496Y26781796D01*
G37*
D20*
X-42802000Y25908000D03*
D11*
G36*
X-46850496Y21701796D02*
G01*
X-46826227Y21698196D01*
X-46802429Y21692235D01*
X-46779329Y21683970D01*
X-46757151Y21673480D01*
X-46736107Y21660867D01*
X-46716402Y21646253D01*
X-46698223Y21629777D01*
X-46681747Y21611598D01*
X-46667133Y21591893D01*
X-46654520Y21570849D01*
X-46644030Y21548671D01*
X-46635765Y21525571D01*
X-46629804Y21501773D01*
X-46626204Y21477504D01*
X-46625000Y21453000D01*
X-46625000Y20203000D01*
X-46626204Y20178496D01*
X-46629804Y20154227D01*
X-46635765Y20130429D01*
X-46644030Y20107329D01*
X-46654520Y20085151D01*
X-46667133Y20064107D01*
X-46681747Y20044402D01*
X-46698223Y20026223D01*
X-46716402Y20009747D01*
X-46736107Y19995133D01*
X-46757151Y19982520D01*
X-46779329Y19972030D01*
X-46802429Y19963765D01*
X-46826227Y19957804D01*
X-46850496Y19954204D01*
X-46875000Y19953000D01*
X-47625000Y19953000D01*
X-47649504Y19954204D01*
X-47673773Y19957804D01*
X-47697571Y19963765D01*
X-47720671Y19972030D01*
X-47742849Y19982520D01*
X-47763893Y19995133D01*
X-47783598Y20009747D01*
X-47801777Y20026223D01*
X-47818253Y20044402D01*
X-47832867Y20064107D01*
X-47845480Y20085151D01*
X-47855970Y20107329D01*
X-47864235Y20130429D01*
X-47870196Y20154227D01*
X-47873796Y20178496D01*
X-47875000Y20203000D01*
X-47875000Y21453000D01*
X-47873796Y21477504D01*
X-47870196Y21501773D01*
X-47864235Y21525571D01*
X-47855970Y21548671D01*
X-47845480Y21570849D01*
X-47832867Y21591893D01*
X-47818253Y21611598D01*
X-47801777Y21629777D01*
X-47783598Y21646253D01*
X-47763893Y21660867D01*
X-47742849Y21673480D01*
X-47720671Y21683970D01*
X-47697571Y21692235D01*
X-47673773Y21698196D01*
X-47649504Y21701796D01*
X-47625000Y21703000D01*
X-46875000Y21703000D01*
X-46850496Y21701796D01*
X-46850496Y21701796D01*
G37*
D20*
X-47250000Y20828000D03*
D11*
G36*
X-44050496Y21701796D02*
G01*
X-44026227Y21698196D01*
X-44002429Y21692235D01*
X-43979329Y21683970D01*
X-43957151Y21673480D01*
X-43936107Y21660867D01*
X-43916402Y21646253D01*
X-43898223Y21629777D01*
X-43881747Y21611598D01*
X-43867133Y21591893D01*
X-43854520Y21570849D01*
X-43844030Y21548671D01*
X-43835765Y21525571D01*
X-43829804Y21501773D01*
X-43826204Y21477504D01*
X-43825000Y21453000D01*
X-43825000Y20203000D01*
X-43826204Y20178496D01*
X-43829804Y20154227D01*
X-43835765Y20130429D01*
X-43844030Y20107329D01*
X-43854520Y20085151D01*
X-43867133Y20064107D01*
X-43881747Y20044402D01*
X-43898223Y20026223D01*
X-43916402Y20009747D01*
X-43936107Y19995133D01*
X-43957151Y19982520D01*
X-43979329Y19972030D01*
X-44002429Y19963765D01*
X-44026227Y19957804D01*
X-44050496Y19954204D01*
X-44075000Y19953000D01*
X-44825000Y19953000D01*
X-44849504Y19954204D01*
X-44873773Y19957804D01*
X-44897571Y19963765D01*
X-44920671Y19972030D01*
X-44942849Y19982520D01*
X-44963893Y19995133D01*
X-44983598Y20009747D01*
X-45001777Y20026223D01*
X-45018253Y20044402D01*
X-45032867Y20064107D01*
X-45045480Y20085151D01*
X-45055970Y20107329D01*
X-45064235Y20130429D01*
X-45070196Y20154227D01*
X-45073796Y20178496D01*
X-45075000Y20203000D01*
X-45075000Y21453000D01*
X-45073796Y21477504D01*
X-45070196Y21501773D01*
X-45064235Y21525571D01*
X-45055970Y21548671D01*
X-45045480Y21570849D01*
X-45032867Y21591893D01*
X-45018253Y21611598D01*
X-45001777Y21629777D01*
X-44983598Y21646253D01*
X-44963893Y21660867D01*
X-44942849Y21673480D01*
X-44920671Y21683970D01*
X-44897571Y21692235D01*
X-44873773Y21698196D01*
X-44849504Y21701796D01*
X-44825000Y21703000D01*
X-44075000Y21703000D01*
X-44050496Y21701796D01*
X-44050496Y21701796D01*
G37*
D20*
X-44450000Y20828000D03*
D11*
G36*
X-48880496Y6087796D02*
G01*
X-48856227Y6084196D01*
X-48832429Y6078235D01*
X-48809329Y6069970D01*
X-48787151Y6059480D01*
X-48766107Y6046867D01*
X-48746402Y6032253D01*
X-48728223Y6015777D01*
X-48711747Y5997598D01*
X-48697133Y5977893D01*
X-48684520Y5956849D01*
X-48674030Y5934671D01*
X-48665765Y5911571D01*
X-48659804Y5887773D01*
X-48656204Y5863504D01*
X-48655000Y5839000D01*
X-48655000Y5089000D01*
X-48656204Y5064496D01*
X-48659804Y5040227D01*
X-48665765Y5016429D01*
X-48674030Y4993329D01*
X-48684520Y4971151D01*
X-48697133Y4950107D01*
X-48711747Y4930402D01*
X-48728223Y4912223D01*
X-48746402Y4895747D01*
X-48766107Y4881133D01*
X-48787151Y4868520D01*
X-48809329Y4858030D01*
X-48832429Y4849765D01*
X-48856227Y4843804D01*
X-48880496Y4840204D01*
X-48905000Y4839000D01*
X-50155000Y4839000D01*
X-50179504Y4840204D01*
X-50203773Y4843804D01*
X-50227571Y4849765D01*
X-50250671Y4858030D01*
X-50272849Y4868520D01*
X-50293893Y4881133D01*
X-50313598Y4895747D01*
X-50331777Y4912223D01*
X-50348253Y4930402D01*
X-50362867Y4950107D01*
X-50375480Y4971151D01*
X-50385970Y4993329D01*
X-50394235Y5016429D01*
X-50400196Y5040227D01*
X-50403796Y5064496D01*
X-50405000Y5089000D01*
X-50405000Y5839000D01*
X-50403796Y5863504D01*
X-50400196Y5887773D01*
X-50394235Y5911571D01*
X-50385970Y5934671D01*
X-50375480Y5956849D01*
X-50362867Y5977893D01*
X-50348253Y5997598D01*
X-50331777Y6015777D01*
X-50313598Y6032253D01*
X-50293893Y6046867D01*
X-50272849Y6059480D01*
X-50250671Y6069970D01*
X-50227571Y6078235D01*
X-50203773Y6084196D01*
X-50179504Y6087796D01*
X-50155000Y6089000D01*
X-48905000Y6089000D01*
X-48880496Y6087796D01*
X-48880496Y6087796D01*
G37*
D20*
X-49530000Y5464000D03*
D11*
G36*
X-48880496Y3287796D02*
G01*
X-48856227Y3284196D01*
X-48832429Y3278235D01*
X-48809329Y3269970D01*
X-48787151Y3259480D01*
X-48766107Y3246867D01*
X-48746402Y3232253D01*
X-48728223Y3215777D01*
X-48711747Y3197598D01*
X-48697133Y3177893D01*
X-48684520Y3156849D01*
X-48674030Y3134671D01*
X-48665765Y3111571D01*
X-48659804Y3087773D01*
X-48656204Y3063504D01*
X-48655000Y3039000D01*
X-48655000Y2289000D01*
X-48656204Y2264496D01*
X-48659804Y2240227D01*
X-48665765Y2216429D01*
X-48674030Y2193329D01*
X-48684520Y2171151D01*
X-48697133Y2150107D01*
X-48711747Y2130402D01*
X-48728223Y2112223D01*
X-48746402Y2095747D01*
X-48766107Y2081133D01*
X-48787151Y2068520D01*
X-48809329Y2058030D01*
X-48832429Y2049765D01*
X-48856227Y2043804D01*
X-48880496Y2040204D01*
X-48905000Y2039000D01*
X-50155000Y2039000D01*
X-50179504Y2040204D01*
X-50203773Y2043804D01*
X-50227571Y2049765D01*
X-50250671Y2058030D01*
X-50272849Y2068520D01*
X-50293893Y2081133D01*
X-50313598Y2095747D01*
X-50331777Y2112223D01*
X-50348253Y2130402D01*
X-50362867Y2150107D01*
X-50375480Y2171151D01*
X-50385970Y2193329D01*
X-50394235Y2216429D01*
X-50400196Y2240227D01*
X-50403796Y2264496D01*
X-50405000Y2289000D01*
X-50405000Y3039000D01*
X-50403796Y3063504D01*
X-50400196Y3087773D01*
X-50394235Y3111571D01*
X-50385970Y3134671D01*
X-50375480Y3156849D01*
X-50362867Y3177893D01*
X-50348253Y3197598D01*
X-50331777Y3215777D01*
X-50313598Y3232253D01*
X-50293893Y3246867D01*
X-50272849Y3259480D01*
X-50250671Y3269970D01*
X-50227571Y3278235D01*
X-50203773Y3284196D01*
X-50179504Y3287796D01*
X-50155000Y3289000D01*
X-48905000Y3289000D01*
X-48880496Y3287796D01*
X-48880496Y3287796D01*
G37*
D20*
X-49530000Y2664000D03*
D11*
G36*
X-44054496Y3287796D02*
G01*
X-44030227Y3284196D01*
X-44006429Y3278235D01*
X-43983329Y3269970D01*
X-43961151Y3259480D01*
X-43940107Y3246867D01*
X-43920402Y3232253D01*
X-43902223Y3215777D01*
X-43885747Y3197598D01*
X-43871133Y3177893D01*
X-43858520Y3156849D01*
X-43848030Y3134671D01*
X-43839765Y3111571D01*
X-43833804Y3087773D01*
X-43830204Y3063504D01*
X-43829000Y3039000D01*
X-43829000Y2289000D01*
X-43830204Y2264496D01*
X-43833804Y2240227D01*
X-43839765Y2216429D01*
X-43848030Y2193329D01*
X-43858520Y2171151D01*
X-43871133Y2150107D01*
X-43885747Y2130402D01*
X-43902223Y2112223D01*
X-43920402Y2095747D01*
X-43940107Y2081133D01*
X-43961151Y2068520D01*
X-43983329Y2058030D01*
X-44006429Y2049765D01*
X-44030227Y2043804D01*
X-44054496Y2040204D01*
X-44079000Y2039000D01*
X-45329000Y2039000D01*
X-45353504Y2040204D01*
X-45377773Y2043804D01*
X-45401571Y2049765D01*
X-45424671Y2058030D01*
X-45446849Y2068520D01*
X-45467893Y2081133D01*
X-45487598Y2095747D01*
X-45505777Y2112223D01*
X-45522253Y2130402D01*
X-45536867Y2150107D01*
X-45549480Y2171151D01*
X-45559970Y2193329D01*
X-45568235Y2216429D01*
X-45574196Y2240227D01*
X-45577796Y2264496D01*
X-45579000Y2289000D01*
X-45579000Y3039000D01*
X-45577796Y3063504D01*
X-45574196Y3087773D01*
X-45568235Y3111571D01*
X-45559970Y3134671D01*
X-45549480Y3156849D01*
X-45536867Y3177893D01*
X-45522253Y3197598D01*
X-45505777Y3215777D01*
X-45487598Y3232253D01*
X-45467893Y3246867D01*
X-45446849Y3259480D01*
X-45424671Y3269970D01*
X-45401571Y3278235D01*
X-45377773Y3284196D01*
X-45353504Y3287796D01*
X-45329000Y3289000D01*
X-44079000Y3289000D01*
X-44054496Y3287796D01*
X-44054496Y3287796D01*
G37*
D20*
X-44704000Y2664000D03*
D11*
G36*
X-44054496Y6087796D02*
G01*
X-44030227Y6084196D01*
X-44006429Y6078235D01*
X-43983329Y6069970D01*
X-43961151Y6059480D01*
X-43940107Y6046867D01*
X-43920402Y6032253D01*
X-43902223Y6015777D01*
X-43885747Y5997598D01*
X-43871133Y5977893D01*
X-43858520Y5956849D01*
X-43848030Y5934671D01*
X-43839765Y5911571D01*
X-43833804Y5887773D01*
X-43830204Y5863504D01*
X-43829000Y5839000D01*
X-43829000Y5089000D01*
X-43830204Y5064496D01*
X-43833804Y5040227D01*
X-43839765Y5016429D01*
X-43848030Y4993329D01*
X-43858520Y4971151D01*
X-43871133Y4950107D01*
X-43885747Y4930402D01*
X-43902223Y4912223D01*
X-43920402Y4895747D01*
X-43940107Y4881133D01*
X-43961151Y4868520D01*
X-43983329Y4858030D01*
X-44006429Y4849765D01*
X-44030227Y4843804D01*
X-44054496Y4840204D01*
X-44079000Y4839000D01*
X-45329000Y4839000D01*
X-45353504Y4840204D01*
X-45377773Y4843804D01*
X-45401571Y4849765D01*
X-45424671Y4858030D01*
X-45446849Y4868520D01*
X-45467893Y4881133D01*
X-45487598Y4895747D01*
X-45505777Y4912223D01*
X-45522253Y4930402D01*
X-45536867Y4950107D01*
X-45549480Y4971151D01*
X-45559970Y4993329D01*
X-45568235Y5016429D01*
X-45574196Y5040227D01*
X-45577796Y5064496D01*
X-45579000Y5089000D01*
X-45579000Y5839000D01*
X-45577796Y5863504D01*
X-45574196Y5887773D01*
X-45568235Y5911571D01*
X-45559970Y5934671D01*
X-45549480Y5956849D01*
X-45536867Y5977893D01*
X-45522253Y5997598D01*
X-45505777Y6015777D01*
X-45487598Y6032253D01*
X-45467893Y6046867D01*
X-45446849Y6059480D01*
X-45424671Y6069970D01*
X-45401571Y6078235D01*
X-45377773Y6084196D01*
X-45353504Y6087796D01*
X-45329000Y6089000D01*
X-44079000Y6089000D01*
X-44054496Y6087796D01*
X-44054496Y6087796D01*
G37*
D20*
X-44704000Y5464000D03*
D11*
G36*
X-26436996Y26273796D02*
G01*
X-26412727Y26270196D01*
X-26388929Y26264235D01*
X-26365829Y26255970D01*
X-26343651Y26245480D01*
X-26322607Y26232867D01*
X-26302902Y26218253D01*
X-26284723Y26201777D01*
X-26268247Y26183598D01*
X-26253633Y26163893D01*
X-26241020Y26142849D01*
X-26230530Y26120671D01*
X-26222265Y26097571D01*
X-26216304Y26073773D01*
X-26212704Y26049504D01*
X-26211500Y26025000D01*
X-26211500Y24775000D01*
X-26212704Y24750496D01*
X-26216304Y24726227D01*
X-26222265Y24702429D01*
X-26230530Y24679329D01*
X-26241020Y24657151D01*
X-26253633Y24636107D01*
X-26268247Y24616402D01*
X-26284723Y24598223D01*
X-26302902Y24581747D01*
X-26322607Y24567133D01*
X-26343651Y24554520D01*
X-26365829Y24544030D01*
X-26388929Y24535765D01*
X-26412727Y24529804D01*
X-26436996Y24526204D01*
X-26461500Y24525000D01*
X-27386500Y24525000D01*
X-27411004Y24526204D01*
X-27435273Y24529804D01*
X-27459071Y24535765D01*
X-27482171Y24544030D01*
X-27504349Y24554520D01*
X-27525393Y24567133D01*
X-27545098Y24581747D01*
X-27563277Y24598223D01*
X-27579753Y24616402D01*
X-27594367Y24636107D01*
X-27606980Y24657151D01*
X-27617470Y24679329D01*
X-27625735Y24702429D01*
X-27631696Y24726227D01*
X-27635296Y24750496D01*
X-27636500Y24775000D01*
X-27636500Y26025000D01*
X-27635296Y26049504D01*
X-27631696Y26073773D01*
X-27625735Y26097571D01*
X-27617470Y26120671D01*
X-27606980Y26142849D01*
X-27594367Y26163893D01*
X-27579753Y26183598D01*
X-27563277Y26201777D01*
X-27545098Y26218253D01*
X-27525393Y26232867D01*
X-27504349Y26245480D01*
X-27482171Y26255970D01*
X-27459071Y26264235D01*
X-27435273Y26270196D01*
X-27411004Y26273796D01*
X-27386500Y26275000D01*
X-26461500Y26275000D01*
X-26436996Y26273796D01*
X-26436996Y26273796D01*
G37*
D12*
X-26924000Y25400000D03*
D11*
G36*
X-23461996Y26273796D02*
G01*
X-23437727Y26270196D01*
X-23413929Y26264235D01*
X-23390829Y26255970D01*
X-23368651Y26245480D01*
X-23347607Y26232867D01*
X-23327902Y26218253D01*
X-23309723Y26201777D01*
X-23293247Y26183598D01*
X-23278633Y26163893D01*
X-23266020Y26142849D01*
X-23255530Y26120671D01*
X-23247265Y26097571D01*
X-23241304Y26073773D01*
X-23237704Y26049504D01*
X-23236500Y26025000D01*
X-23236500Y24775000D01*
X-23237704Y24750496D01*
X-23241304Y24726227D01*
X-23247265Y24702429D01*
X-23255530Y24679329D01*
X-23266020Y24657151D01*
X-23278633Y24636107D01*
X-23293247Y24616402D01*
X-23309723Y24598223D01*
X-23327902Y24581747D01*
X-23347607Y24567133D01*
X-23368651Y24554520D01*
X-23390829Y24544030D01*
X-23413929Y24535765D01*
X-23437727Y24529804D01*
X-23461996Y24526204D01*
X-23486500Y24525000D01*
X-24411500Y24525000D01*
X-24436004Y24526204D01*
X-24460273Y24529804D01*
X-24484071Y24535765D01*
X-24507171Y24544030D01*
X-24529349Y24554520D01*
X-24550393Y24567133D01*
X-24570098Y24581747D01*
X-24588277Y24598223D01*
X-24604753Y24616402D01*
X-24619367Y24636107D01*
X-24631980Y24657151D01*
X-24642470Y24679329D01*
X-24650735Y24702429D01*
X-24656696Y24726227D01*
X-24660296Y24750496D01*
X-24661500Y24775000D01*
X-24661500Y26025000D01*
X-24660296Y26049504D01*
X-24656696Y26073773D01*
X-24650735Y26097571D01*
X-24642470Y26120671D01*
X-24631980Y26142849D01*
X-24619367Y26163893D01*
X-24604753Y26183598D01*
X-24588277Y26201777D01*
X-24570098Y26218253D01*
X-24550393Y26232867D01*
X-24529349Y26245480D01*
X-24507171Y26255970D01*
X-24484071Y26264235D01*
X-24460273Y26270196D01*
X-24436004Y26273796D01*
X-24411500Y26275000D01*
X-23486500Y26275000D01*
X-23461996Y26273796D01*
X-23461996Y26273796D01*
G37*
D12*
X-23949000Y25400000D03*
D11*
G36*
X-43962996Y23987796D02*
G01*
X-43938727Y23984196D01*
X-43914929Y23978235D01*
X-43891829Y23969970D01*
X-43869651Y23959480D01*
X-43848607Y23946867D01*
X-43828902Y23932253D01*
X-43810723Y23915777D01*
X-43794247Y23897598D01*
X-43779633Y23877893D01*
X-43767020Y23856849D01*
X-43756530Y23834671D01*
X-43748265Y23811571D01*
X-43742304Y23787773D01*
X-43738704Y23763504D01*
X-43737500Y23739000D01*
X-43737500Y22489000D01*
X-43738704Y22464496D01*
X-43742304Y22440227D01*
X-43748265Y22416429D01*
X-43756530Y22393329D01*
X-43767020Y22371151D01*
X-43779633Y22350107D01*
X-43794247Y22330402D01*
X-43810723Y22312223D01*
X-43828902Y22295747D01*
X-43848607Y22281133D01*
X-43869651Y22268520D01*
X-43891829Y22258030D01*
X-43914929Y22249765D01*
X-43938727Y22243804D01*
X-43962996Y22240204D01*
X-43987500Y22239000D01*
X-44912500Y22239000D01*
X-44937004Y22240204D01*
X-44961273Y22243804D01*
X-44985071Y22249765D01*
X-45008171Y22258030D01*
X-45030349Y22268520D01*
X-45051393Y22281133D01*
X-45071098Y22295747D01*
X-45089277Y22312223D01*
X-45105753Y22330402D01*
X-45120367Y22350107D01*
X-45132980Y22371151D01*
X-45143470Y22393329D01*
X-45151735Y22416429D01*
X-45157696Y22440227D01*
X-45161296Y22464496D01*
X-45162500Y22489000D01*
X-45162500Y23739000D01*
X-45161296Y23763504D01*
X-45157696Y23787773D01*
X-45151735Y23811571D01*
X-45143470Y23834671D01*
X-45132980Y23856849D01*
X-45120367Y23877893D01*
X-45105753Y23897598D01*
X-45089277Y23915777D01*
X-45071098Y23932253D01*
X-45051393Y23946867D01*
X-45030349Y23959480D01*
X-45008171Y23969970D01*
X-44985071Y23978235D01*
X-44961273Y23984196D01*
X-44937004Y23987796D01*
X-44912500Y23989000D01*
X-43987500Y23989000D01*
X-43962996Y23987796D01*
X-43962996Y23987796D01*
G37*
D12*
X-44450000Y23114000D03*
D11*
G36*
X-46937996Y23987796D02*
G01*
X-46913727Y23984196D01*
X-46889929Y23978235D01*
X-46866829Y23969970D01*
X-46844651Y23959480D01*
X-46823607Y23946867D01*
X-46803902Y23932253D01*
X-46785723Y23915777D01*
X-46769247Y23897598D01*
X-46754633Y23877893D01*
X-46742020Y23856849D01*
X-46731530Y23834671D01*
X-46723265Y23811571D01*
X-46717304Y23787773D01*
X-46713704Y23763504D01*
X-46712500Y23739000D01*
X-46712500Y22489000D01*
X-46713704Y22464496D01*
X-46717304Y22440227D01*
X-46723265Y22416429D01*
X-46731530Y22393329D01*
X-46742020Y22371151D01*
X-46754633Y22350107D01*
X-46769247Y22330402D01*
X-46785723Y22312223D01*
X-46803902Y22295747D01*
X-46823607Y22281133D01*
X-46844651Y22268520D01*
X-46866829Y22258030D01*
X-46889929Y22249765D01*
X-46913727Y22243804D01*
X-46937996Y22240204D01*
X-46962500Y22239000D01*
X-47887500Y22239000D01*
X-47912004Y22240204D01*
X-47936273Y22243804D01*
X-47960071Y22249765D01*
X-47983171Y22258030D01*
X-48005349Y22268520D01*
X-48026393Y22281133D01*
X-48046098Y22295747D01*
X-48064277Y22312223D01*
X-48080753Y22330402D01*
X-48095367Y22350107D01*
X-48107980Y22371151D01*
X-48118470Y22393329D01*
X-48126735Y22416429D01*
X-48132696Y22440227D01*
X-48136296Y22464496D01*
X-48137500Y22489000D01*
X-48137500Y23739000D01*
X-48136296Y23763504D01*
X-48132696Y23787773D01*
X-48126735Y23811571D01*
X-48118470Y23834671D01*
X-48107980Y23856849D01*
X-48095367Y23877893D01*
X-48080753Y23897598D01*
X-48064277Y23915777D01*
X-48046098Y23932253D01*
X-48026393Y23946867D01*
X-48005349Y23959480D01*
X-47983171Y23969970D01*
X-47960071Y23978235D01*
X-47936273Y23984196D01*
X-47912004Y23987796D01*
X-47887500Y23989000D01*
X-46962500Y23989000D01*
X-46937996Y23987796D01*
X-46937996Y23987796D01*
G37*
D12*
X-47425000Y23114000D03*
D11*
G36*
X-36101495Y3113796D02*
G01*
X-36077227Y3110196D01*
X-36053428Y3104235D01*
X-36030329Y3095970D01*
X-36008150Y3085480D01*
X-35987107Y3072868D01*
X-35967401Y3058253D01*
X-35949223Y3041777D01*
X-35932747Y3023599D01*
X-35918132Y3003893D01*
X-35905520Y2982850D01*
X-35895030Y2960671D01*
X-35886765Y2937572D01*
X-35880804Y2913773D01*
X-35877204Y2889505D01*
X-35876000Y2865001D01*
X-35876000Y2214999D01*
X-35877204Y2190495D01*
X-35880804Y2166227D01*
X-35886765Y2142428D01*
X-35895030Y2119329D01*
X-35905520Y2097150D01*
X-35918132Y2076107D01*
X-35932747Y2056401D01*
X-35949223Y2038223D01*
X-35967401Y2021747D01*
X-35987107Y2007132D01*
X-36008150Y1994520D01*
X-36030329Y1984030D01*
X-36053428Y1975765D01*
X-36077227Y1969804D01*
X-36101495Y1966204D01*
X-36125999Y1965000D01*
X-37026001Y1965000D01*
X-37050505Y1966204D01*
X-37074773Y1969804D01*
X-37098572Y1975765D01*
X-37121671Y1984030D01*
X-37143850Y1994520D01*
X-37164893Y2007132D01*
X-37184599Y2021747D01*
X-37202777Y2038223D01*
X-37219253Y2056401D01*
X-37233868Y2076107D01*
X-37246480Y2097150D01*
X-37256970Y2119329D01*
X-37265235Y2142428D01*
X-37271196Y2166227D01*
X-37274796Y2190495D01*
X-37276000Y2214999D01*
X-37276000Y2865001D01*
X-37274796Y2889505D01*
X-37271196Y2913773D01*
X-37265235Y2937572D01*
X-37256970Y2960671D01*
X-37246480Y2982850D01*
X-37233868Y3003893D01*
X-37219253Y3023599D01*
X-37202777Y3041777D01*
X-37184599Y3058253D01*
X-37164893Y3072868D01*
X-37143850Y3085480D01*
X-37121671Y3095970D01*
X-37098572Y3104235D01*
X-37074773Y3110196D01*
X-37050505Y3113796D01*
X-37026001Y3115000D01*
X-36125999Y3115000D01*
X-36101495Y3113796D01*
X-36101495Y3113796D01*
G37*
D21*
X-36576000Y2540000D03*
D11*
G36*
X-36101495Y5163796D02*
G01*
X-36077227Y5160196D01*
X-36053428Y5154235D01*
X-36030329Y5145970D01*
X-36008150Y5135480D01*
X-35987107Y5122868D01*
X-35967401Y5108253D01*
X-35949223Y5091777D01*
X-35932747Y5073599D01*
X-35918132Y5053893D01*
X-35905520Y5032850D01*
X-35895030Y5010671D01*
X-35886765Y4987572D01*
X-35880804Y4963773D01*
X-35877204Y4939505D01*
X-35876000Y4915001D01*
X-35876000Y4264999D01*
X-35877204Y4240495D01*
X-35880804Y4216227D01*
X-35886765Y4192428D01*
X-35895030Y4169329D01*
X-35905520Y4147150D01*
X-35918132Y4126107D01*
X-35932747Y4106401D01*
X-35949223Y4088223D01*
X-35967401Y4071747D01*
X-35987107Y4057132D01*
X-36008150Y4044520D01*
X-36030329Y4034030D01*
X-36053428Y4025765D01*
X-36077227Y4019804D01*
X-36101495Y4016204D01*
X-36125999Y4015000D01*
X-37026001Y4015000D01*
X-37050505Y4016204D01*
X-37074773Y4019804D01*
X-37098572Y4025765D01*
X-37121671Y4034030D01*
X-37143850Y4044520D01*
X-37164893Y4057132D01*
X-37184599Y4071747D01*
X-37202777Y4088223D01*
X-37219253Y4106401D01*
X-37233868Y4126107D01*
X-37246480Y4147150D01*
X-37256970Y4169329D01*
X-37265235Y4192428D01*
X-37271196Y4216227D01*
X-37274796Y4240495D01*
X-37276000Y4264999D01*
X-37276000Y4915001D01*
X-37274796Y4939505D01*
X-37271196Y4963773D01*
X-37265235Y4987572D01*
X-37256970Y5010671D01*
X-37246480Y5032850D01*
X-37233868Y5053893D01*
X-37219253Y5073599D01*
X-37202777Y5091777D01*
X-37184599Y5108253D01*
X-37164893Y5122868D01*
X-37143850Y5135480D01*
X-37121671Y5145970D01*
X-37098572Y5154235D01*
X-37074773Y5160196D01*
X-37050505Y5163796D01*
X-37026001Y5165000D01*
X-36125999Y5165000D01*
X-36101495Y5163796D01*
X-36101495Y5163796D01*
G37*
D21*
X-36576000Y4590000D03*
D22*
X-40576000Y22606000D03*
X-36576000Y22606000D03*
D11*
G36*
X-33585496Y20431796D02*
G01*
X-33561227Y20428196D01*
X-33537429Y20422235D01*
X-33514329Y20413970D01*
X-33492151Y20403480D01*
X-33471107Y20390867D01*
X-33451402Y20376253D01*
X-33433223Y20359777D01*
X-33416747Y20341598D01*
X-33402133Y20321893D01*
X-33389520Y20300849D01*
X-33379030Y20278671D01*
X-33370765Y20255571D01*
X-33364804Y20231773D01*
X-33361204Y20207504D01*
X-33360000Y20183000D01*
X-33360000Y18933000D01*
X-33361204Y18908496D01*
X-33364804Y18884227D01*
X-33370765Y18860429D01*
X-33379030Y18837329D01*
X-33389520Y18815151D01*
X-33402133Y18794107D01*
X-33416747Y18774402D01*
X-33433223Y18756223D01*
X-33451402Y18739747D01*
X-33471107Y18725133D01*
X-33492151Y18712520D01*
X-33514329Y18702030D01*
X-33537429Y18693765D01*
X-33561227Y18687804D01*
X-33585496Y18684204D01*
X-33610000Y18683000D01*
X-34535000Y18683000D01*
X-34559504Y18684204D01*
X-34583773Y18687804D01*
X-34607571Y18693765D01*
X-34630671Y18702030D01*
X-34652849Y18712520D01*
X-34673893Y18725133D01*
X-34693598Y18739747D01*
X-34711777Y18756223D01*
X-34728253Y18774402D01*
X-34742867Y18794107D01*
X-34755480Y18815151D01*
X-34765970Y18837329D01*
X-34774235Y18860429D01*
X-34780196Y18884227D01*
X-34783796Y18908496D01*
X-34785000Y18933000D01*
X-34785000Y20183000D01*
X-34783796Y20207504D01*
X-34780196Y20231773D01*
X-34774235Y20255571D01*
X-34765970Y20278671D01*
X-34755480Y20300849D01*
X-34742867Y20321893D01*
X-34728253Y20341598D01*
X-34711777Y20359777D01*
X-34693598Y20376253D01*
X-34673893Y20390867D01*
X-34652849Y20403480D01*
X-34630671Y20413970D01*
X-34607571Y20422235D01*
X-34583773Y20428196D01*
X-34559504Y20431796D01*
X-34535000Y20433000D01*
X-33610000Y20433000D01*
X-33585496Y20431796D01*
X-33585496Y20431796D01*
G37*
D12*
X-34072500Y19558000D03*
D11*
G36*
X-36560496Y20431796D02*
G01*
X-36536227Y20428196D01*
X-36512429Y20422235D01*
X-36489329Y20413970D01*
X-36467151Y20403480D01*
X-36446107Y20390867D01*
X-36426402Y20376253D01*
X-36408223Y20359777D01*
X-36391747Y20341598D01*
X-36377133Y20321893D01*
X-36364520Y20300849D01*
X-36354030Y20278671D01*
X-36345765Y20255571D01*
X-36339804Y20231773D01*
X-36336204Y20207504D01*
X-36335000Y20183000D01*
X-36335000Y18933000D01*
X-36336204Y18908496D01*
X-36339804Y18884227D01*
X-36345765Y18860429D01*
X-36354030Y18837329D01*
X-36364520Y18815151D01*
X-36377133Y18794107D01*
X-36391747Y18774402D01*
X-36408223Y18756223D01*
X-36426402Y18739747D01*
X-36446107Y18725133D01*
X-36467151Y18712520D01*
X-36489329Y18702030D01*
X-36512429Y18693765D01*
X-36536227Y18687804D01*
X-36560496Y18684204D01*
X-36585000Y18683000D01*
X-37510000Y18683000D01*
X-37534504Y18684204D01*
X-37558773Y18687804D01*
X-37582571Y18693765D01*
X-37605671Y18702030D01*
X-37627849Y18712520D01*
X-37648893Y18725133D01*
X-37668598Y18739747D01*
X-37686777Y18756223D01*
X-37703253Y18774402D01*
X-37717867Y18794107D01*
X-37730480Y18815151D01*
X-37740970Y18837329D01*
X-37749235Y18860429D01*
X-37755196Y18884227D01*
X-37758796Y18908496D01*
X-37760000Y18933000D01*
X-37760000Y20183000D01*
X-37758796Y20207504D01*
X-37755196Y20231773D01*
X-37749235Y20255571D01*
X-37740970Y20278671D01*
X-37730480Y20300849D01*
X-37717867Y20321893D01*
X-37703253Y20341598D01*
X-37686777Y20359777D01*
X-37668598Y20376253D01*
X-37648893Y20390867D01*
X-37627849Y20403480D01*
X-37605671Y20413970D01*
X-37582571Y20422235D01*
X-37558773Y20428196D01*
X-37534504Y20431796D01*
X-37510000Y20433000D01*
X-36585000Y20433000D01*
X-36560496Y20431796D01*
X-36560496Y20431796D01*
G37*
D12*
X-37047500Y19558000D03*
D11*
G36*
X-39571996Y16875796D02*
G01*
X-39547727Y16872196D01*
X-39523929Y16866235D01*
X-39500829Y16857970D01*
X-39478651Y16847480D01*
X-39457607Y16834867D01*
X-39437902Y16820253D01*
X-39419723Y16803777D01*
X-39403247Y16785598D01*
X-39388633Y16765893D01*
X-39376020Y16744849D01*
X-39365530Y16722671D01*
X-39357265Y16699571D01*
X-39351304Y16675773D01*
X-39347704Y16651504D01*
X-39346500Y16627000D01*
X-39346500Y15377000D01*
X-39347704Y15352496D01*
X-39351304Y15328227D01*
X-39357265Y15304429D01*
X-39365530Y15281329D01*
X-39376020Y15259151D01*
X-39388633Y15238107D01*
X-39403247Y15218402D01*
X-39419723Y15200223D01*
X-39437902Y15183747D01*
X-39457607Y15169133D01*
X-39478651Y15156520D01*
X-39500829Y15146030D01*
X-39523929Y15137765D01*
X-39547727Y15131804D01*
X-39571996Y15128204D01*
X-39596500Y15127000D01*
X-40521500Y15127000D01*
X-40546004Y15128204D01*
X-40570273Y15131804D01*
X-40594071Y15137765D01*
X-40617171Y15146030D01*
X-40639349Y15156520D01*
X-40660393Y15169133D01*
X-40680098Y15183747D01*
X-40698277Y15200223D01*
X-40714753Y15218402D01*
X-40729367Y15238107D01*
X-40741980Y15259151D01*
X-40752470Y15281329D01*
X-40760735Y15304429D01*
X-40766696Y15328227D01*
X-40770296Y15352496D01*
X-40771500Y15377000D01*
X-40771500Y16627000D01*
X-40770296Y16651504D01*
X-40766696Y16675773D01*
X-40760735Y16699571D01*
X-40752470Y16722671D01*
X-40741980Y16744849D01*
X-40729367Y16765893D01*
X-40714753Y16785598D01*
X-40698277Y16803777D01*
X-40680098Y16820253D01*
X-40660393Y16834867D01*
X-40639349Y16847480D01*
X-40617171Y16857970D01*
X-40594071Y16866235D01*
X-40570273Y16872196D01*
X-40546004Y16875796D01*
X-40521500Y16877000D01*
X-39596500Y16877000D01*
X-39571996Y16875796D01*
X-39571996Y16875796D01*
G37*
D12*
X-40059000Y16002000D03*
D11*
G36*
X-36596996Y16875796D02*
G01*
X-36572727Y16872196D01*
X-36548929Y16866235D01*
X-36525829Y16857970D01*
X-36503651Y16847480D01*
X-36482607Y16834867D01*
X-36462902Y16820253D01*
X-36444723Y16803777D01*
X-36428247Y16785598D01*
X-36413633Y16765893D01*
X-36401020Y16744849D01*
X-36390530Y16722671D01*
X-36382265Y16699571D01*
X-36376304Y16675773D01*
X-36372704Y16651504D01*
X-36371500Y16627000D01*
X-36371500Y15377000D01*
X-36372704Y15352496D01*
X-36376304Y15328227D01*
X-36382265Y15304429D01*
X-36390530Y15281329D01*
X-36401020Y15259151D01*
X-36413633Y15238107D01*
X-36428247Y15218402D01*
X-36444723Y15200223D01*
X-36462902Y15183747D01*
X-36482607Y15169133D01*
X-36503651Y15156520D01*
X-36525829Y15146030D01*
X-36548929Y15137765D01*
X-36572727Y15131804D01*
X-36596996Y15128204D01*
X-36621500Y15127000D01*
X-37546500Y15127000D01*
X-37571004Y15128204D01*
X-37595273Y15131804D01*
X-37619071Y15137765D01*
X-37642171Y15146030D01*
X-37664349Y15156520D01*
X-37685393Y15169133D01*
X-37705098Y15183747D01*
X-37723277Y15200223D01*
X-37739753Y15218402D01*
X-37754367Y15238107D01*
X-37766980Y15259151D01*
X-37777470Y15281329D01*
X-37785735Y15304429D01*
X-37791696Y15328227D01*
X-37795296Y15352496D01*
X-37796500Y15377000D01*
X-37796500Y16627000D01*
X-37795296Y16651504D01*
X-37791696Y16675773D01*
X-37785735Y16699571D01*
X-37777470Y16722671D01*
X-37766980Y16744849D01*
X-37754367Y16765893D01*
X-37739753Y16785598D01*
X-37723277Y16803777D01*
X-37705098Y16820253D01*
X-37685393Y16834867D01*
X-37664349Y16847480D01*
X-37642171Y16857970D01*
X-37619071Y16866235D01*
X-37595273Y16872196D01*
X-37571004Y16875796D01*
X-37546500Y16877000D01*
X-36621500Y16877000D01*
X-36596996Y16875796D01*
X-36596996Y16875796D01*
G37*
D12*
X-37084000Y16002000D03*
D11*
G36*
X-39517996Y13065796D02*
G01*
X-39493727Y13062196D01*
X-39469929Y13056235D01*
X-39446829Y13047970D01*
X-39424651Y13037480D01*
X-39403607Y13024867D01*
X-39383902Y13010253D01*
X-39365723Y12993777D01*
X-39349247Y12975598D01*
X-39334633Y12955893D01*
X-39322020Y12934849D01*
X-39311530Y12912671D01*
X-39303265Y12889571D01*
X-39297304Y12865773D01*
X-39293704Y12841504D01*
X-39292500Y12817000D01*
X-39292500Y11567000D01*
X-39293704Y11542496D01*
X-39297304Y11518227D01*
X-39303265Y11494429D01*
X-39311530Y11471329D01*
X-39322020Y11449151D01*
X-39334633Y11428107D01*
X-39349247Y11408402D01*
X-39365723Y11390223D01*
X-39383902Y11373747D01*
X-39403607Y11359133D01*
X-39424651Y11346520D01*
X-39446829Y11336030D01*
X-39469929Y11327765D01*
X-39493727Y11321804D01*
X-39517996Y11318204D01*
X-39542500Y11317000D01*
X-40467500Y11317000D01*
X-40492004Y11318204D01*
X-40516273Y11321804D01*
X-40540071Y11327765D01*
X-40563171Y11336030D01*
X-40585349Y11346520D01*
X-40606393Y11359133D01*
X-40626098Y11373747D01*
X-40644277Y11390223D01*
X-40660753Y11408402D01*
X-40675367Y11428107D01*
X-40687980Y11449151D01*
X-40698470Y11471329D01*
X-40706735Y11494429D01*
X-40712696Y11518227D01*
X-40716296Y11542496D01*
X-40717500Y11567000D01*
X-40717500Y12817000D01*
X-40716296Y12841504D01*
X-40712696Y12865773D01*
X-40706735Y12889571D01*
X-40698470Y12912671D01*
X-40687980Y12934849D01*
X-40675367Y12955893D01*
X-40660753Y12975598D01*
X-40644277Y12993777D01*
X-40626098Y13010253D01*
X-40606393Y13024867D01*
X-40585349Y13037480D01*
X-40563171Y13047970D01*
X-40540071Y13056235D01*
X-40516273Y13062196D01*
X-40492004Y13065796D01*
X-40467500Y13067000D01*
X-39542500Y13067000D01*
X-39517996Y13065796D01*
X-39517996Y13065796D01*
G37*
D12*
X-40005000Y12192000D03*
D11*
G36*
X-36542996Y13065796D02*
G01*
X-36518727Y13062196D01*
X-36494929Y13056235D01*
X-36471829Y13047970D01*
X-36449651Y13037480D01*
X-36428607Y13024867D01*
X-36408902Y13010253D01*
X-36390723Y12993777D01*
X-36374247Y12975598D01*
X-36359633Y12955893D01*
X-36347020Y12934849D01*
X-36336530Y12912671D01*
X-36328265Y12889571D01*
X-36322304Y12865773D01*
X-36318704Y12841504D01*
X-36317500Y12817000D01*
X-36317500Y11567000D01*
X-36318704Y11542496D01*
X-36322304Y11518227D01*
X-36328265Y11494429D01*
X-36336530Y11471329D01*
X-36347020Y11449151D01*
X-36359633Y11428107D01*
X-36374247Y11408402D01*
X-36390723Y11390223D01*
X-36408902Y11373747D01*
X-36428607Y11359133D01*
X-36449651Y11346520D01*
X-36471829Y11336030D01*
X-36494929Y11327765D01*
X-36518727Y11321804D01*
X-36542996Y11318204D01*
X-36567500Y11317000D01*
X-37492500Y11317000D01*
X-37517004Y11318204D01*
X-37541273Y11321804D01*
X-37565071Y11327765D01*
X-37588171Y11336030D01*
X-37610349Y11346520D01*
X-37631393Y11359133D01*
X-37651098Y11373747D01*
X-37669277Y11390223D01*
X-37685753Y11408402D01*
X-37700367Y11428107D01*
X-37712980Y11449151D01*
X-37723470Y11471329D01*
X-37731735Y11494429D01*
X-37737696Y11518227D01*
X-37741296Y11542496D01*
X-37742500Y11567000D01*
X-37742500Y12817000D01*
X-37741296Y12841504D01*
X-37737696Y12865773D01*
X-37731735Y12889571D01*
X-37723470Y12912671D01*
X-37712980Y12934849D01*
X-37700367Y12955893D01*
X-37685753Y12975598D01*
X-37669277Y12993777D01*
X-37651098Y13010253D01*
X-37631393Y13024867D01*
X-37610349Y13037480D01*
X-37588171Y13047970D01*
X-37565071Y13056235D01*
X-37541273Y13062196D01*
X-37517004Y13065796D01*
X-37492500Y13067000D01*
X-36567500Y13067000D01*
X-36542996Y13065796D01*
X-36542996Y13065796D01*
G37*
D12*
X-37030000Y12192000D03*
D11*
G36*
X-33983996Y13065796D02*
G01*
X-33959727Y13062196D01*
X-33935929Y13056235D01*
X-33912829Y13047970D01*
X-33890651Y13037480D01*
X-33869607Y13024867D01*
X-33849902Y13010253D01*
X-33831723Y12993777D01*
X-33815247Y12975598D01*
X-33800633Y12955893D01*
X-33788020Y12934849D01*
X-33777530Y12912671D01*
X-33769265Y12889571D01*
X-33763304Y12865773D01*
X-33759704Y12841504D01*
X-33758500Y12817000D01*
X-33758500Y11567000D01*
X-33759704Y11542496D01*
X-33763304Y11518227D01*
X-33769265Y11494429D01*
X-33777530Y11471329D01*
X-33788020Y11449151D01*
X-33800633Y11428107D01*
X-33815247Y11408402D01*
X-33831723Y11390223D01*
X-33849902Y11373747D01*
X-33869607Y11359133D01*
X-33890651Y11346520D01*
X-33912829Y11336030D01*
X-33935929Y11327765D01*
X-33959727Y11321804D01*
X-33983996Y11318204D01*
X-34008500Y11317000D01*
X-34933500Y11317000D01*
X-34958004Y11318204D01*
X-34982273Y11321804D01*
X-35006071Y11327765D01*
X-35029171Y11336030D01*
X-35051349Y11346520D01*
X-35072393Y11359133D01*
X-35092098Y11373747D01*
X-35110277Y11390223D01*
X-35126753Y11408402D01*
X-35141367Y11428107D01*
X-35153980Y11449151D01*
X-35164470Y11471329D01*
X-35172735Y11494429D01*
X-35178696Y11518227D01*
X-35182296Y11542496D01*
X-35183500Y11567000D01*
X-35183500Y12817000D01*
X-35182296Y12841504D01*
X-35178696Y12865773D01*
X-35172735Y12889571D01*
X-35164470Y12912671D01*
X-35153980Y12934849D01*
X-35141367Y12955893D01*
X-35126753Y12975598D01*
X-35110277Y12993777D01*
X-35092098Y13010253D01*
X-35072393Y13024867D01*
X-35051349Y13037480D01*
X-35029171Y13047970D01*
X-35006071Y13056235D01*
X-34982273Y13062196D01*
X-34958004Y13065796D01*
X-34933500Y13067000D01*
X-34008500Y13067000D01*
X-33983996Y13065796D01*
X-33983996Y13065796D01*
G37*
D12*
X-34471000Y12192000D03*
D11*
G36*
X-31008996Y13065796D02*
G01*
X-30984727Y13062196D01*
X-30960929Y13056235D01*
X-30937829Y13047970D01*
X-30915651Y13037480D01*
X-30894607Y13024867D01*
X-30874902Y13010253D01*
X-30856723Y12993777D01*
X-30840247Y12975598D01*
X-30825633Y12955893D01*
X-30813020Y12934849D01*
X-30802530Y12912671D01*
X-30794265Y12889571D01*
X-30788304Y12865773D01*
X-30784704Y12841504D01*
X-30783500Y12817000D01*
X-30783500Y11567000D01*
X-30784704Y11542496D01*
X-30788304Y11518227D01*
X-30794265Y11494429D01*
X-30802530Y11471329D01*
X-30813020Y11449151D01*
X-30825633Y11428107D01*
X-30840247Y11408402D01*
X-30856723Y11390223D01*
X-30874902Y11373747D01*
X-30894607Y11359133D01*
X-30915651Y11346520D01*
X-30937829Y11336030D01*
X-30960929Y11327765D01*
X-30984727Y11321804D01*
X-31008996Y11318204D01*
X-31033500Y11317000D01*
X-31958500Y11317000D01*
X-31983004Y11318204D01*
X-32007273Y11321804D01*
X-32031071Y11327765D01*
X-32054171Y11336030D01*
X-32076349Y11346520D01*
X-32097393Y11359133D01*
X-32117098Y11373747D01*
X-32135277Y11390223D01*
X-32151753Y11408402D01*
X-32166367Y11428107D01*
X-32178980Y11449151D01*
X-32189470Y11471329D01*
X-32197735Y11494429D01*
X-32203696Y11518227D01*
X-32207296Y11542496D01*
X-32208500Y11567000D01*
X-32208500Y12817000D01*
X-32207296Y12841504D01*
X-32203696Y12865773D01*
X-32197735Y12889571D01*
X-32189470Y12912671D01*
X-32178980Y12934849D01*
X-32166367Y12955893D01*
X-32151753Y12975598D01*
X-32135277Y12993777D01*
X-32117098Y13010253D01*
X-32097393Y13024867D01*
X-32076349Y13037480D01*
X-32054171Y13047970D01*
X-32031071Y13056235D01*
X-32007273Y13062196D01*
X-31983004Y13065796D01*
X-31958500Y13067000D01*
X-31033500Y13067000D01*
X-31008996Y13065796D01*
X-31008996Y13065796D01*
G37*
D12*
X-31496000Y12192000D03*
D11*
G36*
X-23461996Y18145796D02*
G01*
X-23437727Y18142196D01*
X-23413929Y18136235D01*
X-23390829Y18127970D01*
X-23368651Y18117480D01*
X-23347607Y18104867D01*
X-23327902Y18090253D01*
X-23309723Y18073777D01*
X-23293247Y18055598D01*
X-23278633Y18035893D01*
X-23266020Y18014849D01*
X-23255530Y17992671D01*
X-23247265Y17969571D01*
X-23241304Y17945773D01*
X-23237704Y17921504D01*
X-23236500Y17897000D01*
X-23236500Y16647000D01*
X-23237704Y16622496D01*
X-23241304Y16598227D01*
X-23247265Y16574429D01*
X-23255530Y16551329D01*
X-23266020Y16529151D01*
X-23278633Y16508107D01*
X-23293247Y16488402D01*
X-23309723Y16470223D01*
X-23327902Y16453747D01*
X-23347607Y16439133D01*
X-23368651Y16426520D01*
X-23390829Y16416030D01*
X-23413929Y16407765D01*
X-23437727Y16401804D01*
X-23461996Y16398204D01*
X-23486500Y16397000D01*
X-24411500Y16397000D01*
X-24436004Y16398204D01*
X-24460273Y16401804D01*
X-24484071Y16407765D01*
X-24507171Y16416030D01*
X-24529349Y16426520D01*
X-24550393Y16439133D01*
X-24570098Y16453747D01*
X-24588277Y16470223D01*
X-24604753Y16488402D01*
X-24619367Y16508107D01*
X-24631980Y16529151D01*
X-24642470Y16551329D01*
X-24650735Y16574429D01*
X-24656696Y16598227D01*
X-24660296Y16622496D01*
X-24661500Y16647000D01*
X-24661500Y17897000D01*
X-24660296Y17921504D01*
X-24656696Y17945773D01*
X-24650735Y17969571D01*
X-24642470Y17992671D01*
X-24631980Y18014849D01*
X-24619367Y18035893D01*
X-24604753Y18055598D01*
X-24588277Y18073777D01*
X-24570098Y18090253D01*
X-24550393Y18104867D01*
X-24529349Y18117480D01*
X-24507171Y18127970D01*
X-24484071Y18136235D01*
X-24460273Y18142196D01*
X-24436004Y18145796D01*
X-24411500Y18147000D01*
X-23486500Y18147000D01*
X-23461996Y18145796D01*
X-23461996Y18145796D01*
G37*
D12*
X-23949000Y17272000D03*
D11*
G36*
X-26436996Y18145796D02*
G01*
X-26412727Y18142196D01*
X-26388929Y18136235D01*
X-26365829Y18127970D01*
X-26343651Y18117480D01*
X-26322607Y18104867D01*
X-26302902Y18090253D01*
X-26284723Y18073777D01*
X-26268247Y18055598D01*
X-26253633Y18035893D01*
X-26241020Y18014849D01*
X-26230530Y17992671D01*
X-26222265Y17969571D01*
X-26216304Y17945773D01*
X-26212704Y17921504D01*
X-26211500Y17897000D01*
X-26211500Y16647000D01*
X-26212704Y16622496D01*
X-26216304Y16598227D01*
X-26222265Y16574429D01*
X-26230530Y16551329D01*
X-26241020Y16529151D01*
X-26253633Y16508107D01*
X-26268247Y16488402D01*
X-26284723Y16470223D01*
X-26302902Y16453747D01*
X-26322607Y16439133D01*
X-26343651Y16426520D01*
X-26365829Y16416030D01*
X-26388929Y16407765D01*
X-26412727Y16401804D01*
X-26436996Y16398204D01*
X-26461500Y16397000D01*
X-27386500Y16397000D01*
X-27411004Y16398204D01*
X-27435273Y16401804D01*
X-27459071Y16407765D01*
X-27482171Y16416030D01*
X-27504349Y16426520D01*
X-27525393Y16439133D01*
X-27545098Y16453747D01*
X-27563277Y16470223D01*
X-27579753Y16488402D01*
X-27594367Y16508107D01*
X-27606980Y16529151D01*
X-27617470Y16551329D01*
X-27625735Y16574429D01*
X-27631696Y16598227D01*
X-27635296Y16622496D01*
X-27636500Y16647000D01*
X-27636500Y17897000D01*
X-27635296Y17921504D01*
X-27631696Y17945773D01*
X-27625735Y17969571D01*
X-27617470Y17992671D01*
X-27606980Y18014849D01*
X-27594367Y18035893D01*
X-27579753Y18055598D01*
X-27563277Y18073777D01*
X-27545098Y18090253D01*
X-27525393Y18104867D01*
X-27504349Y18117480D01*
X-27482171Y18127970D01*
X-27459071Y18136235D01*
X-27435273Y18142196D01*
X-27411004Y18145796D01*
X-27386500Y18147000D01*
X-26461500Y18147000D01*
X-26436996Y18145796D01*
X-26436996Y18145796D01*
G37*
D12*
X-26924000Y17272000D03*
D11*
G36*
X-26528496Y11633296D02*
G01*
X-26504227Y11629696D01*
X-26480429Y11623735D01*
X-26457329Y11615470D01*
X-26435151Y11604980D01*
X-26414107Y11592367D01*
X-26394402Y11577753D01*
X-26376223Y11561277D01*
X-26359747Y11543098D01*
X-26345133Y11523393D01*
X-26332520Y11502349D01*
X-26322030Y11480171D01*
X-26313765Y11457071D01*
X-26307804Y11433273D01*
X-26304204Y11409004D01*
X-26303000Y11384500D01*
X-26303000Y10459500D01*
X-26304204Y10434996D01*
X-26307804Y10410727D01*
X-26313765Y10386929D01*
X-26322030Y10363829D01*
X-26332520Y10341651D01*
X-26345133Y10320607D01*
X-26359747Y10300902D01*
X-26376223Y10282723D01*
X-26394402Y10266247D01*
X-26414107Y10251633D01*
X-26435151Y10239020D01*
X-26457329Y10228530D01*
X-26480429Y10220265D01*
X-26504227Y10214304D01*
X-26528496Y10210704D01*
X-26553000Y10209500D01*
X-27803000Y10209500D01*
X-27827504Y10210704D01*
X-27851773Y10214304D01*
X-27875571Y10220265D01*
X-27898671Y10228530D01*
X-27920849Y10239020D01*
X-27941893Y10251633D01*
X-27961598Y10266247D01*
X-27979777Y10282723D01*
X-27996253Y10300902D01*
X-28010867Y10320607D01*
X-28023480Y10341651D01*
X-28033970Y10363829D01*
X-28042235Y10386929D01*
X-28048196Y10410727D01*
X-28051796Y10434996D01*
X-28053000Y10459500D01*
X-28053000Y11384500D01*
X-28051796Y11409004D01*
X-28048196Y11433273D01*
X-28042235Y11457071D01*
X-28033970Y11480171D01*
X-28023480Y11502349D01*
X-28010867Y11523393D01*
X-27996253Y11543098D01*
X-27979777Y11561277D01*
X-27961598Y11577753D01*
X-27941893Y11592367D01*
X-27920849Y11604980D01*
X-27898671Y11615470D01*
X-27875571Y11623735D01*
X-27851773Y11629696D01*
X-27827504Y11633296D01*
X-27803000Y11634500D01*
X-26553000Y11634500D01*
X-26528496Y11633296D01*
X-26528496Y11633296D01*
G37*
D12*
X-27178000Y10922000D03*
D11*
G36*
X-26528496Y14608296D02*
G01*
X-26504227Y14604696D01*
X-26480429Y14598735D01*
X-26457329Y14590470D01*
X-26435151Y14579980D01*
X-26414107Y14567367D01*
X-26394402Y14552753D01*
X-26376223Y14536277D01*
X-26359747Y14518098D01*
X-26345133Y14498393D01*
X-26332520Y14477349D01*
X-26322030Y14455171D01*
X-26313765Y14432071D01*
X-26307804Y14408273D01*
X-26304204Y14384004D01*
X-26303000Y14359500D01*
X-26303000Y13434500D01*
X-26304204Y13409996D01*
X-26307804Y13385727D01*
X-26313765Y13361929D01*
X-26322030Y13338829D01*
X-26332520Y13316651D01*
X-26345133Y13295607D01*
X-26359747Y13275902D01*
X-26376223Y13257723D01*
X-26394402Y13241247D01*
X-26414107Y13226633D01*
X-26435151Y13214020D01*
X-26457329Y13203530D01*
X-26480429Y13195265D01*
X-26504227Y13189304D01*
X-26528496Y13185704D01*
X-26553000Y13184500D01*
X-27803000Y13184500D01*
X-27827504Y13185704D01*
X-27851773Y13189304D01*
X-27875571Y13195265D01*
X-27898671Y13203530D01*
X-27920849Y13214020D01*
X-27941893Y13226633D01*
X-27961598Y13241247D01*
X-27979777Y13257723D01*
X-27996253Y13275902D01*
X-28010867Y13295607D01*
X-28023480Y13316651D01*
X-28033970Y13338829D01*
X-28042235Y13361929D01*
X-28048196Y13385727D01*
X-28051796Y13409996D01*
X-28053000Y13434500D01*
X-28053000Y14359500D01*
X-28051796Y14384004D01*
X-28048196Y14408273D01*
X-28042235Y14432071D01*
X-28033970Y14455171D01*
X-28023480Y14477349D01*
X-28010867Y14498393D01*
X-27996253Y14518098D01*
X-27979777Y14536277D01*
X-27961598Y14552753D01*
X-27941893Y14567367D01*
X-27920849Y14579980D01*
X-27898671Y14590470D01*
X-27875571Y14598735D01*
X-27851773Y14604696D01*
X-27827504Y14608296D01*
X-27803000Y14609500D01*
X-26553000Y14609500D01*
X-26528496Y14608296D01*
X-26528496Y14608296D01*
G37*
D12*
X-27178000Y13897000D03*
D11*
G36*
X-22972496Y11633296D02*
G01*
X-22948227Y11629696D01*
X-22924429Y11623735D01*
X-22901329Y11615470D01*
X-22879151Y11604980D01*
X-22858107Y11592367D01*
X-22838402Y11577753D01*
X-22820223Y11561277D01*
X-22803747Y11543098D01*
X-22789133Y11523393D01*
X-22776520Y11502349D01*
X-22766030Y11480171D01*
X-22757765Y11457071D01*
X-22751804Y11433273D01*
X-22748204Y11409004D01*
X-22747000Y11384500D01*
X-22747000Y10459500D01*
X-22748204Y10434996D01*
X-22751804Y10410727D01*
X-22757765Y10386929D01*
X-22766030Y10363829D01*
X-22776520Y10341651D01*
X-22789133Y10320607D01*
X-22803747Y10300902D01*
X-22820223Y10282723D01*
X-22838402Y10266247D01*
X-22858107Y10251633D01*
X-22879151Y10239020D01*
X-22901329Y10228530D01*
X-22924429Y10220265D01*
X-22948227Y10214304D01*
X-22972496Y10210704D01*
X-22997000Y10209500D01*
X-24247000Y10209500D01*
X-24271504Y10210704D01*
X-24295773Y10214304D01*
X-24319571Y10220265D01*
X-24342671Y10228530D01*
X-24364849Y10239020D01*
X-24385893Y10251633D01*
X-24405598Y10266247D01*
X-24423777Y10282723D01*
X-24440253Y10300902D01*
X-24454867Y10320607D01*
X-24467480Y10341651D01*
X-24477970Y10363829D01*
X-24486235Y10386929D01*
X-24492196Y10410727D01*
X-24495796Y10434996D01*
X-24497000Y10459500D01*
X-24497000Y11384500D01*
X-24495796Y11409004D01*
X-24492196Y11433273D01*
X-24486235Y11457071D01*
X-24477970Y11480171D01*
X-24467480Y11502349D01*
X-24454867Y11523393D01*
X-24440253Y11543098D01*
X-24423777Y11561277D01*
X-24405598Y11577753D01*
X-24385893Y11592367D01*
X-24364849Y11604980D01*
X-24342671Y11615470D01*
X-24319571Y11623735D01*
X-24295773Y11629696D01*
X-24271504Y11633296D01*
X-24247000Y11634500D01*
X-22997000Y11634500D01*
X-22972496Y11633296D01*
X-22972496Y11633296D01*
G37*
D12*
X-23622000Y10922000D03*
D11*
G36*
X-22972496Y14608296D02*
G01*
X-22948227Y14604696D01*
X-22924429Y14598735D01*
X-22901329Y14590470D01*
X-22879151Y14579980D01*
X-22858107Y14567367D01*
X-22838402Y14552753D01*
X-22820223Y14536277D01*
X-22803747Y14518098D01*
X-22789133Y14498393D01*
X-22776520Y14477349D01*
X-22766030Y14455171D01*
X-22757765Y14432071D01*
X-22751804Y14408273D01*
X-22748204Y14384004D01*
X-22747000Y14359500D01*
X-22747000Y13434500D01*
X-22748204Y13409996D01*
X-22751804Y13385727D01*
X-22757765Y13361929D01*
X-22766030Y13338829D01*
X-22776520Y13316651D01*
X-22789133Y13295607D01*
X-22803747Y13275902D01*
X-22820223Y13257723D01*
X-22838402Y13241247D01*
X-22858107Y13226633D01*
X-22879151Y13214020D01*
X-22901329Y13203530D01*
X-22924429Y13195265D01*
X-22948227Y13189304D01*
X-22972496Y13185704D01*
X-22997000Y13184500D01*
X-24247000Y13184500D01*
X-24271504Y13185704D01*
X-24295773Y13189304D01*
X-24319571Y13195265D01*
X-24342671Y13203530D01*
X-24364849Y13214020D01*
X-24385893Y13226633D01*
X-24405598Y13241247D01*
X-24423777Y13257723D01*
X-24440253Y13275902D01*
X-24454867Y13295607D01*
X-24467480Y13316651D01*
X-24477970Y13338829D01*
X-24486235Y13361929D01*
X-24492196Y13385727D01*
X-24495796Y13409996D01*
X-24497000Y13434500D01*
X-24497000Y14359500D01*
X-24495796Y14384004D01*
X-24492196Y14408273D01*
X-24486235Y14432071D01*
X-24477970Y14455171D01*
X-24467480Y14477349D01*
X-24454867Y14498393D01*
X-24440253Y14518098D01*
X-24423777Y14536277D01*
X-24405598Y14552753D01*
X-24385893Y14567367D01*
X-24364849Y14579980D01*
X-24342671Y14590470D01*
X-24319571Y14598735D01*
X-24295773Y14604696D01*
X-24271504Y14608296D01*
X-24247000Y14609500D01*
X-22997000Y14609500D01*
X-22972496Y14608296D01*
X-22972496Y14608296D01*
G37*
D12*
X-23622000Y13897000D03*
D11*
G36*
X-23171496Y5445796D02*
G01*
X-23147227Y5442196D01*
X-23123429Y5436235D01*
X-23100329Y5427970D01*
X-23078151Y5417480D01*
X-23057107Y5404867D01*
X-23037402Y5390253D01*
X-23019223Y5373777D01*
X-23002747Y5355598D01*
X-22988133Y5335893D01*
X-22975520Y5314849D01*
X-22965030Y5292671D01*
X-22956765Y5269571D01*
X-22950804Y5245773D01*
X-22947204Y5221504D01*
X-22946000Y5197000D01*
X-22946000Y3947000D01*
X-22947204Y3922496D01*
X-22950804Y3898227D01*
X-22956765Y3874429D01*
X-22965030Y3851329D01*
X-22975520Y3829151D01*
X-22988133Y3808107D01*
X-23002747Y3788402D01*
X-23019223Y3770223D01*
X-23037402Y3753747D01*
X-23057107Y3739133D01*
X-23078151Y3726520D01*
X-23100329Y3716030D01*
X-23123429Y3707765D01*
X-23147227Y3701804D01*
X-23171496Y3698204D01*
X-23196000Y3697000D01*
X-24121000Y3697000D01*
X-24145504Y3698204D01*
X-24169773Y3701804D01*
X-24193571Y3707765D01*
X-24216671Y3716030D01*
X-24238849Y3726520D01*
X-24259893Y3739133D01*
X-24279598Y3753747D01*
X-24297777Y3770223D01*
X-24314253Y3788402D01*
X-24328867Y3808107D01*
X-24341480Y3829151D01*
X-24351970Y3851329D01*
X-24360235Y3874429D01*
X-24366196Y3898227D01*
X-24369796Y3922496D01*
X-24371000Y3947000D01*
X-24371000Y5197000D01*
X-24369796Y5221504D01*
X-24366196Y5245773D01*
X-24360235Y5269571D01*
X-24351970Y5292671D01*
X-24341480Y5314849D01*
X-24328867Y5335893D01*
X-24314253Y5355598D01*
X-24297777Y5373777D01*
X-24279598Y5390253D01*
X-24259893Y5404867D01*
X-24238849Y5417480D01*
X-24216671Y5427970D01*
X-24193571Y5436235D01*
X-24169773Y5442196D01*
X-24145504Y5445796D01*
X-24121000Y5447000D01*
X-23196000Y5447000D01*
X-23171496Y5445796D01*
X-23171496Y5445796D01*
G37*
D12*
X-23658500Y4572000D03*
D11*
G36*
X-26146496Y5445796D02*
G01*
X-26122227Y5442196D01*
X-26098429Y5436235D01*
X-26075329Y5427970D01*
X-26053151Y5417480D01*
X-26032107Y5404867D01*
X-26012402Y5390253D01*
X-25994223Y5373777D01*
X-25977747Y5355598D01*
X-25963133Y5335893D01*
X-25950520Y5314849D01*
X-25940030Y5292671D01*
X-25931765Y5269571D01*
X-25925804Y5245773D01*
X-25922204Y5221504D01*
X-25921000Y5197000D01*
X-25921000Y3947000D01*
X-25922204Y3922496D01*
X-25925804Y3898227D01*
X-25931765Y3874429D01*
X-25940030Y3851329D01*
X-25950520Y3829151D01*
X-25963133Y3808107D01*
X-25977747Y3788402D01*
X-25994223Y3770223D01*
X-26012402Y3753747D01*
X-26032107Y3739133D01*
X-26053151Y3726520D01*
X-26075329Y3716030D01*
X-26098429Y3707765D01*
X-26122227Y3701804D01*
X-26146496Y3698204D01*
X-26171000Y3697000D01*
X-27096000Y3697000D01*
X-27120504Y3698204D01*
X-27144773Y3701804D01*
X-27168571Y3707765D01*
X-27191671Y3716030D01*
X-27213849Y3726520D01*
X-27234893Y3739133D01*
X-27254598Y3753747D01*
X-27272777Y3770223D01*
X-27289253Y3788402D01*
X-27303867Y3808107D01*
X-27316480Y3829151D01*
X-27326970Y3851329D01*
X-27335235Y3874429D01*
X-27341196Y3898227D01*
X-27344796Y3922496D01*
X-27346000Y3947000D01*
X-27346000Y5197000D01*
X-27344796Y5221504D01*
X-27341196Y5245773D01*
X-27335235Y5269571D01*
X-27326970Y5292671D01*
X-27316480Y5314849D01*
X-27303867Y5335893D01*
X-27289253Y5355598D01*
X-27272777Y5373777D01*
X-27254598Y5390253D01*
X-27234893Y5404867D01*
X-27213849Y5417480D01*
X-27191671Y5427970D01*
X-27168571Y5436235D01*
X-27144773Y5442196D01*
X-27120504Y5445796D01*
X-27096000Y5447000D01*
X-26171000Y5447000D01*
X-26146496Y5445796D01*
X-26146496Y5445796D01*
G37*
D12*
X-26633500Y4572000D03*
D11*
G36*
X-31697996Y9001796D02*
G01*
X-31673727Y8998196D01*
X-31649929Y8992235D01*
X-31626829Y8983970D01*
X-31604651Y8973480D01*
X-31583607Y8960867D01*
X-31563902Y8946253D01*
X-31545723Y8929777D01*
X-31529247Y8911598D01*
X-31514633Y8891893D01*
X-31502020Y8870849D01*
X-31491530Y8848671D01*
X-31483265Y8825571D01*
X-31477304Y8801773D01*
X-31473704Y8777504D01*
X-31472500Y8753000D01*
X-31472500Y7503000D01*
X-31473704Y7478496D01*
X-31477304Y7454227D01*
X-31483265Y7430429D01*
X-31491530Y7407329D01*
X-31502020Y7385151D01*
X-31514633Y7364107D01*
X-31529247Y7344402D01*
X-31545723Y7326223D01*
X-31563902Y7309747D01*
X-31583607Y7295133D01*
X-31604651Y7282520D01*
X-31626829Y7272030D01*
X-31649929Y7263765D01*
X-31673727Y7257804D01*
X-31697996Y7254204D01*
X-31722500Y7253000D01*
X-32647500Y7253000D01*
X-32672004Y7254204D01*
X-32696273Y7257804D01*
X-32720071Y7263765D01*
X-32743171Y7272030D01*
X-32765349Y7282520D01*
X-32786393Y7295133D01*
X-32806098Y7309747D01*
X-32824277Y7326223D01*
X-32840753Y7344402D01*
X-32855367Y7364107D01*
X-32867980Y7385151D01*
X-32878470Y7407329D01*
X-32886735Y7430429D01*
X-32892696Y7454227D01*
X-32896296Y7478496D01*
X-32897500Y7503000D01*
X-32897500Y8753000D01*
X-32896296Y8777504D01*
X-32892696Y8801773D01*
X-32886735Y8825571D01*
X-32878470Y8848671D01*
X-32867980Y8870849D01*
X-32855367Y8891893D01*
X-32840753Y8911598D01*
X-32824277Y8929777D01*
X-32806098Y8946253D01*
X-32786393Y8960867D01*
X-32765349Y8973480D01*
X-32743171Y8983970D01*
X-32720071Y8992235D01*
X-32696273Y8998196D01*
X-32672004Y9001796D01*
X-32647500Y9003000D01*
X-31722500Y9003000D01*
X-31697996Y9001796D01*
X-31697996Y9001796D01*
G37*
D12*
X-32185000Y8128000D03*
D11*
G36*
X-28722996Y9001796D02*
G01*
X-28698727Y8998196D01*
X-28674929Y8992235D01*
X-28651829Y8983970D01*
X-28629651Y8973480D01*
X-28608607Y8960867D01*
X-28588902Y8946253D01*
X-28570723Y8929777D01*
X-28554247Y8911598D01*
X-28539633Y8891893D01*
X-28527020Y8870849D01*
X-28516530Y8848671D01*
X-28508265Y8825571D01*
X-28502304Y8801773D01*
X-28498704Y8777504D01*
X-28497500Y8753000D01*
X-28497500Y7503000D01*
X-28498704Y7478496D01*
X-28502304Y7454227D01*
X-28508265Y7430429D01*
X-28516530Y7407329D01*
X-28527020Y7385151D01*
X-28539633Y7364107D01*
X-28554247Y7344402D01*
X-28570723Y7326223D01*
X-28588902Y7309747D01*
X-28608607Y7295133D01*
X-28629651Y7282520D01*
X-28651829Y7272030D01*
X-28674929Y7263765D01*
X-28698727Y7257804D01*
X-28722996Y7254204D01*
X-28747500Y7253000D01*
X-29672500Y7253000D01*
X-29697004Y7254204D01*
X-29721273Y7257804D01*
X-29745071Y7263765D01*
X-29768171Y7272030D01*
X-29790349Y7282520D01*
X-29811393Y7295133D01*
X-29831098Y7309747D01*
X-29849277Y7326223D01*
X-29865753Y7344402D01*
X-29880367Y7364107D01*
X-29892980Y7385151D01*
X-29903470Y7407329D01*
X-29911735Y7430429D01*
X-29917696Y7454227D01*
X-29921296Y7478496D01*
X-29922500Y7503000D01*
X-29922500Y8753000D01*
X-29921296Y8777504D01*
X-29917696Y8801773D01*
X-29911735Y8825571D01*
X-29903470Y8848671D01*
X-29892980Y8870849D01*
X-29880367Y8891893D01*
X-29865753Y8911598D01*
X-29849277Y8929777D01*
X-29831098Y8946253D01*
X-29811393Y8960867D01*
X-29790349Y8973480D01*
X-29768171Y8983970D01*
X-29745071Y8992235D01*
X-29721273Y8998196D01*
X-29697004Y9001796D01*
X-29672500Y9003000D01*
X-28747500Y9003000D01*
X-28722996Y9001796D01*
X-28722996Y9001796D01*
G37*
D12*
X-29210000Y8128000D03*
D11*
G36*
X-23171496Y9001796D02*
G01*
X-23147227Y8998196D01*
X-23123429Y8992235D01*
X-23100329Y8983970D01*
X-23078151Y8973480D01*
X-23057107Y8960867D01*
X-23037402Y8946253D01*
X-23019223Y8929777D01*
X-23002747Y8911598D01*
X-22988133Y8891893D01*
X-22975520Y8870849D01*
X-22965030Y8848671D01*
X-22956765Y8825571D01*
X-22950804Y8801773D01*
X-22947204Y8777504D01*
X-22946000Y8753000D01*
X-22946000Y7503000D01*
X-22947204Y7478496D01*
X-22950804Y7454227D01*
X-22956765Y7430429D01*
X-22965030Y7407329D01*
X-22975520Y7385151D01*
X-22988133Y7364107D01*
X-23002747Y7344402D01*
X-23019223Y7326223D01*
X-23037402Y7309747D01*
X-23057107Y7295133D01*
X-23078151Y7282520D01*
X-23100329Y7272030D01*
X-23123429Y7263765D01*
X-23147227Y7257804D01*
X-23171496Y7254204D01*
X-23196000Y7253000D01*
X-24121000Y7253000D01*
X-24145504Y7254204D01*
X-24169773Y7257804D01*
X-24193571Y7263765D01*
X-24216671Y7272030D01*
X-24238849Y7282520D01*
X-24259893Y7295133D01*
X-24279598Y7309747D01*
X-24297777Y7326223D01*
X-24314253Y7344402D01*
X-24328867Y7364107D01*
X-24341480Y7385151D01*
X-24351970Y7407329D01*
X-24360235Y7430429D01*
X-24366196Y7454227D01*
X-24369796Y7478496D01*
X-24371000Y7503000D01*
X-24371000Y8753000D01*
X-24369796Y8777504D01*
X-24366196Y8801773D01*
X-24360235Y8825571D01*
X-24351970Y8848671D01*
X-24341480Y8870849D01*
X-24328867Y8891893D01*
X-24314253Y8911598D01*
X-24297777Y8929777D01*
X-24279598Y8946253D01*
X-24259893Y8960867D01*
X-24238849Y8973480D01*
X-24216671Y8983970D01*
X-24193571Y8992235D01*
X-24169773Y8998196D01*
X-24145504Y9001796D01*
X-24121000Y9003000D01*
X-23196000Y9003000D01*
X-23171496Y9001796D01*
X-23171496Y9001796D01*
G37*
D12*
X-23658500Y8128000D03*
D11*
G36*
X-26146496Y9001796D02*
G01*
X-26122227Y8998196D01*
X-26098429Y8992235D01*
X-26075329Y8983970D01*
X-26053151Y8973480D01*
X-26032107Y8960867D01*
X-26012402Y8946253D01*
X-25994223Y8929777D01*
X-25977747Y8911598D01*
X-25963133Y8891893D01*
X-25950520Y8870849D01*
X-25940030Y8848671D01*
X-25931765Y8825571D01*
X-25925804Y8801773D01*
X-25922204Y8777504D01*
X-25921000Y8753000D01*
X-25921000Y7503000D01*
X-25922204Y7478496D01*
X-25925804Y7454227D01*
X-25931765Y7430429D01*
X-25940030Y7407329D01*
X-25950520Y7385151D01*
X-25963133Y7364107D01*
X-25977747Y7344402D01*
X-25994223Y7326223D01*
X-26012402Y7309747D01*
X-26032107Y7295133D01*
X-26053151Y7282520D01*
X-26075329Y7272030D01*
X-26098429Y7263765D01*
X-26122227Y7257804D01*
X-26146496Y7254204D01*
X-26171000Y7253000D01*
X-27096000Y7253000D01*
X-27120504Y7254204D01*
X-27144773Y7257804D01*
X-27168571Y7263765D01*
X-27191671Y7272030D01*
X-27213849Y7282520D01*
X-27234893Y7295133D01*
X-27254598Y7309747D01*
X-27272777Y7326223D01*
X-27289253Y7344402D01*
X-27303867Y7364107D01*
X-27316480Y7385151D01*
X-27326970Y7407329D01*
X-27335235Y7430429D01*
X-27341196Y7454227D01*
X-27344796Y7478496D01*
X-27346000Y7503000D01*
X-27346000Y8753000D01*
X-27344796Y8777504D01*
X-27341196Y8801773D01*
X-27335235Y8825571D01*
X-27326970Y8848671D01*
X-27316480Y8870849D01*
X-27303867Y8891893D01*
X-27289253Y8911598D01*
X-27272777Y8929777D01*
X-27254598Y8946253D01*
X-27234893Y8960867D01*
X-27213849Y8973480D01*
X-27191671Y8983970D01*
X-27168571Y8992235D01*
X-27144773Y8998196D01*
X-27120504Y9001796D01*
X-27096000Y9003000D01*
X-26171000Y9003000D01*
X-26146496Y9001796D01*
X-26146496Y9001796D01*
G37*
D12*
X-26633500Y8128000D03*
D11*
G36*
X-23134996Y1889796D02*
G01*
X-23110727Y1886196D01*
X-23086929Y1880235D01*
X-23063829Y1871970D01*
X-23041651Y1861480D01*
X-23020607Y1848867D01*
X-23000902Y1834253D01*
X-22982723Y1817777D01*
X-22966247Y1799598D01*
X-22951633Y1779893D01*
X-22939020Y1758849D01*
X-22928530Y1736671D01*
X-22920265Y1713571D01*
X-22914304Y1689773D01*
X-22910704Y1665504D01*
X-22909500Y1641000D01*
X-22909500Y391000D01*
X-22910704Y366496D01*
X-22914304Y342227D01*
X-22920265Y318429D01*
X-22928530Y295329D01*
X-22939020Y273151D01*
X-22951633Y252107D01*
X-22966247Y232402D01*
X-22982723Y214223D01*
X-23000902Y197747D01*
X-23020607Y183133D01*
X-23041651Y170520D01*
X-23063829Y160030D01*
X-23086929Y151765D01*
X-23110727Y145804D01*
X-23134996Y142204D01*
X-23159500Y141000D01*
X-24084500Y141000D01*
X-24109004Y142204D01*
X-24133273Y145804D01*
X-24157071Y151765D01*
X-24180171Y160030D01*
X-24202349Y170520D01*
X-24223393Y183133D01*
X-24243098Y197747D01*
X-24261277Y214223D01*
X-24277753Y232402D01*
X-24292367Y252107D01*
X-24304980Y273151D01*
X-24315470Y295329D01*
X-24323735Y318429D01*
X-24329696Y342227D01*
X-24333296Y366496D01*
X-24334500Y391000D01*
X-24334500Y1641000D01*
X-24333296Y1665504D01*
X-24329696Y1689773D01*
X-24323735Y1713571D01*
X-24315470Y1736671D01*
X-24304980Y1758849D01*
X-24292367Y1779893D01*
X-24277753Y1799598D01*
X-24261277Y1817777D01*
X-24243098Y1834253D01*
X-24223393Y1848867D01*
X-24202349Y1861480D01*
X-24180171Y1871970D01*
X-24157071Y1880235D01*
X-24133273Y1886196D01*
X-24109004Y1889796D01*
X-24084500Y1891000D01*
X-23159500Y1891000D01*
X-23134996Y1889796D01*
X-23134996Y1889796D01*
G37*
D12*
X-23622000Y1016000D03*
D11*
G36*
X-26109996Y1889796D02*
G01*
X-26085727Y1886196D01*
X-26061929Y1880235D01*
X-26038829Y1871970D01*
X-26016651Y1861480D01*
X-25995607Y1848867D01*
X-25975902Y1834253D01*
X-25957723Y1817777D01*
X-25941247Y1799598D01*
X-25926633Y1779893D01*
X-25914020Y1758849D01*
X-25903530Y1736671D01*
X-25895265Y1713571D01*
X-25889304Y1689773D01*
X-25885704Y1665504D01*
X-25884500Y1641000D01*
X-25884500Y391000D01*
X-25885704Y366496D01*
X-25889304Y342227D01*
X-25895265Y318429D01*
X-25903530Y295329D01*
X-25914020Y273151D01*
X-25926633Y252107D01*
X-25941247Y232402D01*
X-25957723Y214223D01*
X-25975902Y197747D01*
X-25995607Y183133D01*
X-26016651Y170520D01*
X-26038829Y160030D01*
X-26061929Y151765D01*
X-26085727Y145804D01*
X-26109996Y142204D01*
X-26134500Y141000D01*
X-27059500Y141000D01*
X-27084004Y142204D01*
X-27108273Y145804D01*
X-27132071Y151765D01*
X-27155171Y160030D01*
X-27177349Y170520D01*
X-27198393Y183133D01*
X-27218098Y197747D01*
X-27236277Y214223D01*
X-27252753Y232402D01*
X-27267367Y252107D01*
X-27279980Y273151D01*
X-27290470Y295329D01*
X-27298735Y318429D01*
X-27304696Y342227D01*
X-27308296Y366496D01*
X-27309500Y391000D01*
X-27309500Y1641000D01*
X-27308296Y1665504D01*
X-27304696Y1689773D01*
X-27298735Y1713571D01*
X-27290470Y1736671D01*
X-27279980Y1758849D01*
X-27267367Y1779893D01*
X-27252753Y1799598D01*
X-27236277Y1817777D01*
X-27218098Y1834253D01*
X-27198393Y1848867D01*
X-27177349Y1861480D01*
X-27155171Y1871970D01*
X-27132071Y1880235D01*
X-27108273Y1886196D01*
X-27084004Y1889796D01*
X-27059500Y1891000D01*
X-26134500Y1891000D01*
X-26109996Y1889796D01*
X-26109996Y1889796D01*
G37*
D12*
X-26597000Y1016000D03*
D11*
G36*
X-31697996Y5445796D02*
G01*
X-31673727Y5442196D01*
X-31649929Y5436235D01*
X-31626829Y5427970D01*
X-31604651Y5417480D01*
X-31583607Y5404867D01*
X-31563902Y5390253D01*
X-31545723Y5373777D01*
X-31529247Y5355598D01*
X-31514633Y5335893D01*
X-31502020Y5314849D01*
X-31491530Y5292671D01*
X-31483265Y5269571D01*
X-31477304Y5245773D01*
X-31473704Y5221504D01*
X-31472500Y5197000D01*
X-31472500Y3947000D01*
X-31473704Y3922496D01*
X-31477304Y3898227D01*
X-31483265Y3874429D01*
X-31491530Y3851329D01*
X-31502020Y3829151D01*
X-31514633Y3808107D01*
X-31529247Y3788402D01*
X-31545723Y3770223D01*
X-31563902Y3753747D01*
X-31583607Y3739133D01*
X-31604651Y3726520D01*
X-31626829Y3716030D01*
X-31649929Y3707765D01*
X-31673727Y3701804D01*
X-31697996Y3698204D01*
X-31722500Y3697000D01*
X-32647500Y3697000D01*
X-32672004Y3698204D01*
X-32696273Y3701804D01*
X-32720071Y3707765D01*
X-32743171Y3716030D01*
X-32765349Y3726520D01*
X-32786393Y3739133D01*
X-32806098Y3753747D01*
X-32824277Y3770223D01*
X-32840753Y3788402D01*
X-32855367Y3808107D01*
X-32867980Y3829151D01*
X-32878470Y3851329D01*
X-32886735Y3874429D01*
X-32892696Y3898227D01*
X-32896296Y3922496D01*
X-32897500Y3947000D01*
X-32897500Y5197000D01*
X-32896296Y5221504D01*
X-32892696Y5245773D01*
X-32886735Y5269571D01*
X-32878470Y5292671D01*
X-32867980Y5314849D01*
X-32855367Y5335893D01*
X-32840753Y5355598D01*
X-32824277Y5373777D01*
X-32806098Y5390253D01*
X-32786393Y5404867D01*
X-32765349Y5417480D01*
X-32743171Y5427970D01*
X-32720071Y5436235D01*
X-32696273Y5442196D01*
X-32672004Y5445796D01*
X-32647500Y5447000D01*
X-31722500Y5447000D01*
X-31697996Y5445796D01*
X-31697996Y5445796D01*
G37*
D12*
X-32185000Y4572000D03*
D11*
G36*
X-28722996Y5445796D02*
G01*
X-28698727Y5442196D01*
X-28674929Y5436235D01*
X-28651829Y5427970D01*
X-28629651Y5417480D01*
X-28608607Y5404867D01*
X-28588902Y5390253D01*
X-28570723Y5373777D01*
X-28554247Y5355598D01*
X-28539633Y5335893D01*
X-28527020Y5314849D01*
X-28516530Y5292671D01*
X-28508265Y5269571D01*
X-28502304Y5245773D01*
X-28498704Y5221504D01*
X-28497500Y5197000D01*
X-28497500Y3947000D01*
X-28498704Y3922496D01*
X-28502304Y3898227D01*
X-28508265Y3874429D01*
X-28516530Y3851329D01*
X-28527020Y3829151D01*
X-28539633Y3808107D01*
X-28554247Y3788402D01*
X-28570723Y3770223D01*
X-28588902Y3753747D01*
X-28608607Y3739133D01*
X-28629651Y3726520D01*
X-28651829Y3716030D01*
X-28674929Y3707765D01*
X-28698727Y3701804D01*
X-28722996Y3698204D01*
X-28747500Y3697000D01*
X-29672500Y3697000D01*
X-29697004Y3698204D01*
X-29721273Y3701804D01*
X-29745071Y3707765D01*
X-29768171Y3716030D01*
X-29790349Y3726520D01*
X-29811393Y3739133D01*
X-29831098Y3753747D01*
X-29849277Y3770223D01*
X-29865753Y3788402D01*
X-29880367Y3808107D01*
X-29892980Y3829151D01*
X-29903470Y3851329D01*
X-29911735Y3874429D01*
X-29917696Y3898227D01*
X-29921296Y3922496D01*
X-29922500Y3947000D01*
X-29922500Y5197000D01*
X-29921296Y5221504D01*
X-29917696Y5245773D01*
X-29911735Y5269571D01*
X-29903470Y5292671D01*
X-29892980Y5314849D01*
X-29880367Y5335893D01*
X-29865753Y5355598D01*
X-29849277Y5373777D01*
X-29831098Y5390253D01*
X-29811393Y5404867D01*
X-29790349Y5417480D01*
X-29768171Y5427970D01*
X-29745071Y5436235D01*
X-29721273Y5442196D01*
X-29697004Y5445796D01*
X-29672500Y5447000D01*
X-28747500Y5447000D01*
X-28722996Y5445796D01*
X-28722996Y5445796D01*
G37*
D12*
X-29210000Y4572000D03*
D11*
G36*
X-42784496Y14681296D02*
G01*
X-42760227Y14677696D01*
X-42736429Y14671735D01*
X-42713329Y14663470D01*
X-42691151Y14652980D01*
X-42670107Y14640367D01*
X-42650402Y14625753D01*
X-42632223Y14609277D01*
X-42615747Y14591098D01*
X-42601133Y14571393D01*
X-42588520Y14550349D01*
X-42578030Y14528171D01*
X-42569765Y14505071D01*
X-42563804Y14481273D01*
X-42560204Y14457004D01*
X-42559000Y14432500D01*
X-42559000Y13507500D01*
X-42560204Y13482996D01*
X-42563804Y13458727D01*
X-42569765Y13434929D01*
X-42578030Y13411829D01*
X-42588520Y13389651D01*
X-42601133Y13368607D01*
X-42615747Y13348902D01*
X-42632223Y13330723D01*
X-42650402Y13314247D01*
X-42670107Y13299633D01*
X-42691151Y13287020D01*
X-42713329Y13276530D01*
X-42736429Y13268265D01*
X-42760227Y13262304D01*
X-42784496Y13258704D01*
X-42809000Y13257500D01*
X-44059000Y13257500D01*
X-44083504Y13258704D01*
X-44107773Y13262304D01*
X-44131571Y13268265D01*
X-44154671Y13276530D01*
X-44176849Y13287020D01*
X-44197893Y13299633D01*
X-44217598Y13314247D01*
X-44235777Y13330723D01*
X-44252253Y13348902D01*
X-44266867Y13368607D01*
X-44279480Y13389651D01*
X-44289970Y13411829D01*
X-44298235Y13434929D01*
X-44304196Y13458727D01*
X-44307796Y13482996D01*
X-44309000Y13507500D01*
X-44309000Y14432500D01*
X-44307796Y14457004D01*
X-44304196Y14481273D01*
X-44298235Y14505071D01*
X-44289970Y14528171D01*
X-44279480Y14550349D01*
X-44266867Y14571393D01*
X-44252253Y14591098D01*
X-44235777Y14609277D01*
X-44217598Y14625753D01*
X-44197893Y14640367D01*
X-44176849Y14652980D01*
X-44154671Y14663470D01*
X-44131571Y14671735D01*
X-44107773Y14677696D01*
X-44083504Y14681296D01*
X-44059000Y14682500D01*
X-42809000Y14682500D01*
X-42784496Y14681296D01*
X-42784496Y14681296D01*
G37*
D12*
X-43434000Y13970000D03*
D11*
G36*
X-42784496Y17656296D02*
G01*
X-42760227Y17652696D01*
X-42736429Y17646735D01*
X-42713329Y17638470D01*
X-42691151Y17627980D01*
X-42670107Y17615367D01*
X-42650402Y17600753D01*
X-42632223Y17584277D01*
X-42615747Y17566098D01*
X-42601133Y17546393D01*
X-42588520Y17525349D01*
X-42578030Y17503171D01*
X-42569765Y17480071D01*
X-42563804Y17456273D01*
X-42560204Y17432004D01*
X-42559000Y17407500D01*
X-42559000Y16482500D01*
X-42560204Y16457996D01*
X-42563804Y16433727D01*
X-42569765Y16409929D01*
X-42578030Y16386829D01*
X-42588520Y16364651D01*
X-42601133Y16343607D01*
X-42615747Y16323902D01*
X-42632223Y16305723D01*
X-42650402Y16289247D01*
X-42670107Y16274633D01*
X-42691151Y16262020D01*
X-42713329Y16251530D01*
X-42736429Y16243265D01*
X-42760227Y16237304D01*
X-42784496Y16233704D01*
X-42809000Y16232500D01*
X-44059000Y16232500D01*
X-44083504Y16233704D01*
X-44107773Y16237304D01*
X-44131571Y16243265D01*
X-44154671Y16251530D01*
X-44176849Y16262020D01*
X-44197893Y16274633D01*
X-44217598Y16289247D01*
X-44235777Y16305723D01*
X-44252253Y16323902D01*
X-44266867Y16343607D01*
X-44279480Y16364651D01*
X-44289970Y16386829D01*
X-44298235Y16409929D01*
X-44304196Y16433727D01*
X-44307796Y16457996D01*
X-44309000Y16482500D01*
X-44309000Y17407500D01*
X-44307796Y17432004D01*
X-44304196Y17456273D01*
X-44298235Y17480071D01*
X-44289970Y17503171D01*
X-44279480Y17525349D01*
X-44266867Y17546393D01*
X-44252253Y17566098D01*
X-44235777Y17584277D01*
X-44217598Y17600753D01*
X-44197893Y17615367D01*
X-44176849Y17627980D01*
X-44154671Y17638470D01*
X-44131571Y17646735D01*
X-44107773Y17652696D01*
X-44083504Y17656296D01*
X-44059000Y17657500D01*
X-42809000Y17657500D01*
X-42784496Y17656296D01*
X-42784496Y17656296D01*
G37*
D12*
X-43434000Y16945000D03*
D11*
G36*
X-46594496Y3324296D02*
G01*
X-46570227Y3320696D01*
X-46546429Y3314735D01*
X-46523329Y3306470D01*
X-46501151Y3295980D01*
X-46480107Y3283367D01*
X-46460402Y3268753D01*
X-46442223Y3252277D01*
X-46425747Y3234098D01*
X-46411133Y3214393D01*
X-46398520Y3193349D01*
X-46388030Y3171171D01*
X-46379765Y3148071D01*
X-46373804Y3124273D01*
X-46370204Y3100004D01*
X-46369000Y3075500D01*
X-46369000Y2150500D01*
X-46370204Y2125996D01*
X-46373804Y2101727D01*
X-46379765Y2077929D01*
X-46388030Y2054829D01*
X-46398520Y2032651D01*
X-46411133Y2011607D01*
X-46425747Y1991902D01*
X-46442223Y1973723D01*
X-46460402Y1957247D01*
X-46480107Y1942633D01*
X-46501151Y1930020D01*
X-46523329Y1919530D01*
X-46546429Y1911265D01*
X-46570227Y1905304D01*
X-46594496Y1901704D01*
X-46619000Y1900500D01*
X-47869000Y1900500D01*
X-47893504Y1901704D01*
X-47917773Y1905304D01*
X-47941571Y1911265D01*
X-47964671Y1919530D01*
X-47986849Y1930020D01*
X-48007893Y1942633D01*
X-48027598Y1957247D01*
X-48045777Y1973723D01*
X-48062253Y1991902D01*
X-48076867Y2011607D01*
X-48089480Y2032651D01*
X-48099970Y2054829D01*
X-48108235Y2077929D01*
X-48114196Y2101727D01*
X-48117796Y2125996D01*
X-48119000Y2150500D01*
X-48119000Y3075500D01*
X-48117796Y3100004D01*
X-48114196Y3124273D01*
X-48108235Y3148071D01*
X-48099970Y3171171D01*
X-48089480Y3193349D01*
X-48076867Y3214393D01*
X-48062253Y3234098D01*
X-48045777Y3252277D01*
X-48027598Y3268753D01*
X-48007893Y3283367D01*
X-47986849Y3295980D01*
X-47964671Y3306470D01*
X-47941571Y3314735D01*
X-47917773Y3320696D01*
X-47893504Y3324296D01*
X-47869000Y3325500D01*
X-46619000Y3325500D01*
X-46594496Y3324296D01*
X-46594496Y3324296D01*
G37*
D12*
X-47244000Y2613000D03*
D11*
G36*
X-46594496Y6299296D02*
G01*
X-46570227Y6295696D01*
X-46546429Y6289735D01*
X-46523329Y6281470D01*
X-46501151Y6270980D01*
X-46480107Y6258367D01*
X-46460402Y6243753D01*
X-46442223Y6227277D01*
X-46425747Y6209098D01*
X-46411133Y6189393D01*
X-46398520Y6168349D01*
X-46388030Y6146171D01*
X-46379765Y6123071D01*
X-46373804Y6099273D01*
X-46370204Y6075004D01*
X-46369000Y6050500D01*
X-46369000Y5125500D01*
X-46370204Y5100996D01*
X-46373804Y5076727D01*
X-46379765Y5052929D01*
X-46388030Y5029829D01*
X-46398520Y5007651D01*
X-46411133Y4986607D01*
X-46425747Y4966902D01*
X-46442223Y4948723D01*
X-46460402Y4932247D01*
X-46480107Y4917633D01*
X-46501151Y4905020D01*
X-46523329Y4894530D01*
X-46546429Y4886265D01*
X-46570227Y4880304D01*
X-46594496Y4876704D01*
X-46619000Y4875500D01*
X-47869000Y4875500D01*
X-47893504Y4876704D01*
X-47917773Y4880304D01*
X-47941571Y4886265D01*
X-47964671Y4894530D01*
X-47986849Y4905020D01*
X-48007893Y4917633D01*
X-48027598Y4932247D01*
X-48045777Y4948723D01*
X-48062253Y4966902D01*
X-48076867Y4986607D01*
X-48089480Y5007651D01*
X-48099970Y5029829D01*
X-48108235Y5052929D01*
X-48114196Y5076727D01*
X-48117796Y5100996D01*
X-48119000Y5125500D01*
X-48119000Y6050500D01*
X-48117796Y6075004D01*
X-48114196Y6099273D01*
X-48108235Y6123071D01*
X-48099970Y6146171D01*
X-48089480Y6168349D01*
X-48076867Y6189393D01*
X-48062253Y6209098D01*
X-48045777Y6227277D01*
X-48027598Y6243753D01*
X-48007893Y6258367D01*
X-47986849Y6270980D01*
X-47964671Y6281470D01*
X-47941571Y6289735D01*
X-47917773Y6295696D01*
X-47893504Y6299296D01*
X-47869000Y6300500D01*
X-46619000Y6300500D01*
X-46594496Y6299296D01*
X-46594496Y6299296D01*
G37*
D12*
X-47244000Y5588000D03*
D11*
G36*
X-48372496Y17402296D02*
G01*
X-48348227Y17398696D01*
X-48324429Y17392735D01*
X-48301329Y17384470D01*
X-48279151Y17373980D01*
X-48258107Y17361367D01*
X-48238402Y17346753D01*
X-48220223Y17330277D01*
X-48203747Y17312098D01*
X-48189133Y17292393D01*
X-48176520Y17271349D01*
X-48166030Y17249171D01*
X-48157765Y17226071D01*
X-48151804Y17202273D01*
X-48148204Y17178004D01*
X-48147000Y17153500D01*
X-48147000Y16228500D01*
X-48148204Y16203996D01*
X-48151804Y16179727D01*
X-48157765Y16155929D01*
X-48166030Y16132829D01*
X-48176520Y16110651D01*
X-48189133Y16089607D01*
X-48203747Y16069902D01*
X-48220223Y16051723D01*
X-48238402Y16035247D01*
X-48258107Y16020633D01*
X-48279151Y16008020D01*
X-48301329Y15997530D01*
X-48324429Y15989265D01*
X-48348227Y15983304D01*
X-48372496Y15979704D01*
X-48397000Y15978500D01*
X-49647000Y15978500D01*
X-49671504Y15979704D01*
X-49695773Y15983304D01*
X-49719571Y15989265D01*
X-49742671Y15997530D01*
X-49764849Y16008020D01*
X-49785893Y16020633D01*
X-49805598Y16035247D01*
X-49823777Y16051723D01*
X-49840253Y16069902D01*
X-49854867Y16089607D01*
X-49867480Y16110651D01*
X-49877970Y16132829D01*
X-49886235Y16155929D01*
X-49892196Y16179727D01*
X-49895796Y16203996D01*
X-49897000Y16228500D01*
X-49897000Y17153500D01*
X-49895796Y17178004D01*
X-49892196Y17202273D01*
X-49886235Y17226071D01*
X-49877970Y17249171D01*
X-49867480Y17271349D01*
X-49854867Y17292393D01*
X-49840253Y17312098D01*
X-49823777Y17330277D01*
X-49805598Y17346753D01*
X-49785893Y17361367D01*
X-49764849Y17373980D01*
X-49742671Y17384470D01*
X-49719571Y17392735D01*
X-49695773Y17398696D01*
X-49671504Y17402296D01*
X-49647000Y17403500D01*
X-48397000Y17403500D01*
X-48372496Y17402296D01*
X-48372496Y17402296D01*
G37*
D12*
X-49022000Y16691000D03*
D11*
G36*
X-48372496Y14427296D02*
G01*
X-48348227Y14423696D01*
X-48324429Y14417735D01*
X-48301329Y14409470D01*
X-48279151Y14398980D01*
X-48258107Y14386367D01*
X-48238402Y14371753D01*
X-48220223Y14355277D01*
X-48203747Y14337098D01*
X-48189133Y14317393D01*
X-48176520Y14296349D01*
X-48166030Y14274171D01*
X-48157765Y14251071D01*
X-48151804Y14227273D01*
X-48148204Y14203004D01*
X-48147000Y14178500D01*
X-48147000Y13253500D01*
X-48148204Y13228996D01*
X-48151804Y13204727D01*
X-48157765Y13180929D01*
X-48166030Y13157829D01*
X-48176520Y13135651D01*
X-48189133Y13114607D01*
X-48203747Y13094902D01*
X-48220223Y13076723D01*
X-48238402Y13060247D01*
X-48258107Y13045633D01*
X-48279151Y13033020D01*
X-48301329Y13022530D01*
X-48324429Y13014265D01*
X-48348227Y13008304D01*
X-48372496Y13004704D01*
X-48397000Y13003500D01*
X-49647000Y13003500D01*
X-49671504Y13004704D01*
X-49695773Y13008304D01*
X-49719571Y13014265D01*
X-49742671Y13022530D01*
X-49764849Y13033020D01*
X-49785893Y13045633D01*
X-49805598Y13060247D01*
X-49823777Y13076723D01*
X-49840253Y13094902D01*
X-49854867Y13114607D01*
X-49867480Y13135651D01*
X-49877970Y13157829D01*
X-49886235Y13180929D01*
X-49892196Y13204727D01*
X-49895796Y13228996D01*
X-49897000Y13253500D01*
X-49897000Y14178500D01*
X-49895796Y14203004D01*
X-49892196Y14227273D01*
X-49886235Y14251071D01*
X-49877970Y14274171D01*
X-49867480Y14296349D01*
X-49854867Y14317393D01*
X-49840253Y14337098D01*
X-49823777Y14355277D01*
X-49805598Y14371753D01*
X-49785893Y14386367D01*
X-49764849Y14398980D01*
X-49742671Y14409470D01*
X-49719571Y14417735D01*
X-49695773Y14423696D01*
X-49671504Y14427296D01*
X-49647000Y14428500D01*
X-48397000Y14428500D01*
X-48372496Y14427296D01*
X-48372496Y14427296D01*
G37*
D12*
X-49022000Y13716000D03*
M02*
