G04 #@! TF.GenerationSoftware,KiCad,Pcbnew,(5.1.4)-1*
G04 #@! TF.CreationDate,2019-10-22T03:03:10-07:00*
G04 #@! TF.ProjectId,SAM_breakout_board,53414d5f-6272-4656-916b-6f75745f626f,rev?*
G04 #@! TF.SameCoordinates,PXd33a380PY5dfc8c0*
G04 #@! TF.FileFunction,Copper,L1,Top*
G04 #@! TF.FilePolarity,Positive*
%FSLAX46Y46*%
G04 Gerber Fmt 4.6, Leading zero omitted, Abs format (unit mm)*
G04 Created by KiCad (PCBNEW (5.1.4)-1) date 2019-10-22 03:03:10*
%MOMM*%
%LPD*%
G04 APERTURE LIST*
%ADD10C,0.050000*%
%ADD11O,1.700000X1.700000*%
%ADD12R,1.700000X1.700000*%
%ADD13C,2.400000*%
%ADD14R,1.900000X1.300000*%
%ADD15R,0.250000X1.300000*%
%ADD16R,1.300000X0.250000*%
%ADD17R,2.300000X2.300000*%
%ADD18C,0.600000*%
%ADD19R,1.600000X0.900000*%
%ADD20R,1.000000X2.800000*%
%ADD21R,1.500000X1.100000*%
%ADD22C,0.100000*%
%ADD23C,1.250000*%
%ADD24R,0.700000X2.500000*%
%ADD25R,1.100000X1.900000*%
%ADD26O,1.000000X1.000000*%
%ADD27R,1.000000X1.000000*%
%ADD28O,1.000000X1.550000*%
%ADD29O,1.250000X0.950000*%
%ADD30R,0.400000X1.350000*%
%ADD31R,2.500000X1.800000*%
%ADD32C,1.425000*%
%ADD33C,0.800000*%
%ADD34C,0.250000*%
%ADD35C,0.254000*%
G04 APERTURE END LIST*
D10*
X-56642000Y-6350000D02*
X-56642000Y35052000D01*
X-15748000Y-6350000D02*
X-56642000Y-6350000D01*
X-15748000Y35052000D02*
X-15748000Y-6350000D01*
X-56642000Y35052000D02*
X-15748000Y35052000D01*
D11*
X-22352000Y-2286000D03*
X-24892000Y-2286000D03*
X-27432000Y-2286000D03*
X-29972000Y-2286000D03*
X-32512000Y-2286000D03*
X-35052000Y-2286000D03*
X-37592000Y-2286000D03*
X-40132000Y-2286000D03*
X-42672000Y-2286000D03*
X-45212000Y-2286000D03*
X-47752000Y-2286000D03*
D12*
X-50292000Y-2286000D03*
D13*
X-54102000Y-3810000D03*
X-18288000Y-3810000D03*
X-18288000Y32512000D03*
X-54102000Y32512000D03*
D11*
X-19812000Y29210000D03*
X-19812000Y26670000D03*
X-19812000Y24130000D03*
X-19812000Y21590000D03*
X-19812000Y19050000D03*
X-19812000Y16510000D03*
X-19812000Y13970000D03*
X-19812000Y11430000D03*
X-19812000Y8890000D03*
X-19812000Y6350000D03*
X-19812000Y3810000D03*
D12*
X-19812000Y1270000D03*
D14*
X-28823520Y6916420D03*
X-28823520Y1316420D03*
X-25623520Y1316420D03*
X-25623520Y6916420D03*
D15*
X-32810000Y11652000D03*
X-33310000Y11652000D03*
X-33810000Y11652000D03*
X-34310000Y11652000D03*
X-34810000Y11652000D03*
X-35310000Y11652000D03*
X-35810000Y11652000D03*
X-36310000Y11652000D03*
X-36810000Y11652000D03*
X-37310000Y11652000D03*
X-37810000Y11652000D03*
X-38310000Y11652000D03*
D16*
X-39910000Y13252000D03*
X-39910000Y13752000D03*
X-39910000Y14252000D03*
X-39910000Y14752000D03*
X-39910000Y15252000D03*
X-39910000Y15752000D03*
X-39910000Y16252000D03*
X-39910000Y16752000D03*
X-39910000Y17252000D03*
X-39910000Y17752000D03*
X-39910000Y18252000D03*
X-39910000Y18752000D03*
D15*
X-38310000Y20352000D03*
X-37810000Y20352000D03*
X-37310000Y20352000D03*
X-36810000Y20352000D03*
X-36310000Y20352000D03*
X-35810000Y20352000D03*
X-35310000Y20352000D03*
X-34810000Y20352000D03*
X-34310000Y20352000D03*
X-33810000Y20352000D03*
X-33310000Y20352000D03*
X-32810000Y20352000D03*
D16*
X-31210000Y18752000D03*
X-31210000Y18252000D03*
X-31210000Y17752000D03*
X-31210000Y17252000D03*
X-31210000Y16752000D03*
X-31210000Y16252000D03*
X-31210000Y15752000D03*
X-31210000Y15252000D03*
X-31210000Y14752000D03*
X-31210000Y14252000D03*
X-31210000Y13752000D03*
X-31210000Y13252000D03*
D17*
X-26288000Y21463000D03*
D18*
X-26789000Y20963000D03*
X-25789000Y20963000D03*
X-26789000Y21963000D03*
X-25789000Y21963000D03*
X-26289000Y21463000D03*
D19*
X-46228000Y15494000D03*
D18*
X-46728000Y15494000D03*
X-45728000Y15494000D03*
D20*
X-44990000Y6964000D03*
X-44990000Y1164000D03*
X-48990000Y6964000D03*
X-48990000Y1164000D03*
D21*
X-23114000Y25908000D03*
X-32014000Y25908000D03*
D22*
G36*
X-35926496Y5963796D02*
G01*
X-35902227Y5960196D01*
X-35878429Y5954235D01*
X-35855329Y5945970D01*
X-35833151Y5935480D01*
X-35812107Y5922867D01*
X-35792402Y5908253D01*
X-35774223Y5891777D01*
X-35757747Y5873598D01*
X-35743133Y5853893D01*
X-35730520Y5832849D01*
X-35720030Y5810671D01*
X-35711765Y5787571D01*
X-35705804Y5763773D01*
X-35702204Y5739504D01*
X-35701000Y5715000D01*
X-35701000Y4965000D01*
X-35702204Y4940496D01*
X-35705804Y4916227D01*
X-35711765Y4892429D01*
X-35720030Y4869329D01*
X-35730520Y4847151D01*
X-35743133Y4826107D01*
X-35757747Y4806402D01*
X-35774223Y4788223D01*
X-35792402Y4771747D01*
X-35812107Y4757133D01*
X-35833151Y4744520D01*
X-35855329Y4734030D01*
X-35878429Y4725765D01*
X-35902227Y4719804D01*
X-35926496Y4716204D01*
X-35951000Y4715000D01*
X-37201000Y4715000D01*
X-37225504Y4716204D01*
X-37249773Y4719804D01*
X-37273571Y4725765D01*
X-37296671Y4734030D01*
X-37318849Y4744520D01*
X-37339893Y4757133D01*
X-37359598Y4771747D01*
X-37377777Y4788223D01*
X-37394253Y4806402D01*
X-37408867Y4826107D01*
X-37421480Y4847151D01*
X-37431970Y4869329D01*
X-37440235Y4892429D01*
X-37446196Y4916227D01*
X-37449796Y4940496D01*
X-37451000Y4965000D01*
X-37451000Y5715000D01*
X-37449796Y5739504D01*
X-37446196Y5763773D01*
X-37440235Y5787571D01*
X-37431970Y5810671D01*
X-37421480Y5832849D01*
X-37408867Y5853893D01*
X-37394253Y5873598D01*
X-37377777Y5891777D01*
X-37359598Y5908253D01*
X-37339893Y5922867D01*
X-37318849Y5935480D01*
X-37296671Y5945970D01*
X-37273571Y5954235D01*
X-37249773Y5960196D01*
X-37225504Y5963796D01*
X-37201000Y5965000D01*
X-35951000Y5965000D01*
X-35926496Y5963796D01*
X-35926496Y5963796D01*
G37*
D23*
X-36576000Y5340000D03*
D22*
G36*
X-35926496Y3163796D02*
G01*
X-35902227Y3160196D01*
X-35878429Y3154235D01*
X-35855329Y3145970D01*
X-35833151Y3135480D01*
X-35812107Y3122867D01*
X-35792402Y3108253D01*
X-35774223Y3091777D01*
X-35757747Y3073598D01*
X-35743133Y3053893D01*
X-35730520Y3032849D01*
X-35720030Y3010671D01*
X-35711765Y2987571D01*
X-35705804Y2963773D01*
X-35702204Y2939504D01*
X-35701000Y2915000D01*
X-35701000Y2165000D01*
X-35702204Y2140496D01*
X-35705804Y2116227D01*
X-35711765Y2092429D01*
X-35720030Y2069329D01*
X-35730520Y2047151D01*
X-35743133Y2026107D01*
X-35757747Y2006402D01*
X-35774223Y1988223D01*
X-35792402Y1971747D01*
X-35812107Y1957133D01*
X-35833151Y1944520D01*
X-35855329Y1934030D01*
X-35878429Y1925765D01*
X-35902227Y1919804D01*
X-35926496Y1916204D01*
X-35951000Y1915000D01*
X-37201000Y1915000D01*
X-37225504Y1916204D01*
X-37249773Y1919804D01*
X-37273571Y1925765D01*
X-37296671Y1934030D01*
X-37318849Y1944520D01*
X-37339893Y1957133D01*
X-37359598Y1971747D01*
X-37377777Y1988223D01*
X-37394253Y2006402D01*
X-37408867Y2026107D01*
X-37421480Y2047151D01*
X-37431970Y2069329D01*
X-37440235Y2092429D01*
X-37446196Y2116227D01*
X-37449796Y2140496D01*
X-37451000Y2165000D01*
X-37451000Y2915000D01*
X-37449796Y2939504D01*
X-37446196Y2963773D01*
X-37440235Y2987571D01*
X-37431970Y3010671D01*
X-37421480Y3032849D01*
X-37408867Y3053893D01*
X-37394253Y3073598D01*
X-37377777Y3091777D01*
X-37359598Y3108253D01*
X-37339893Y3122867D01*
X-37318849Y3135480D01*
X-37296671Y3145970D01*
X-37273571Y3154235D01*
X-37249773Y3160196D01*
X-37225504Y3163796D01*
X-37201000Y3165000D01*
X-35951000Y3165000D01*
X-35926496Y3163796D01*
X-35926496Y3163796D01*
G37*
D23*
X-36576000Y2540000D03*
D11*
X-52578000Y508000D03*
X-52578000Y3048000D03*
X-52578000Y5588000D03*
X-52578000Y8128000D03*
X-52578000Y10668000D03*
X-52578000Y13208000D03*
X-52578000Y15748000D03*
X-52578000Y18288000D03*
X-52578000Y20828000D03*
X-52578000Y23368000D03*
X-52578000Y25908000D03*
D12*
X-52578000Y28448000D03*
D24*
X-31774000Y29464000D03*
X-33274000Y29464000D03*
D25*
X-29824000Y33064000D03*
X-35224000Y33064000D03*
D26*
X-39512240Y1813560D03*
X-40782240Y1813560D03*
X-39512240Y3083560D03*
X-40782240Y3083560D03*
X-39512240Y4353560D03*
X-40782240Y4353560D03*
X-39512240Y5623560D03*
X-40782240Y5623560D03*
X-39512240Y6893560D03*
D27*
X-40782240Y6893560D03*
D28*
X-44338000Y32164000D03*
X-37338000Y32164000D03*
D29*
X-38338000Y29464000D03*
X-43338000Y29464000D03*
D30*
X-39538000Y29464000D03*
X-40188000Y29464000D03*
X-42138000Y29464000D03*
X-41488000Y29464000D03*
X-40838000Y29464000D03*
D11*
X-47244000Y30988000D03*
D12*
X-49784000Y30988000D03*
D22*
G36*
X-34014496Y26781796D02*
G01*
X-33990227Y26778196D01*
X-33966429Y26772235D01*
X-33943329Y26763970D01*
X-33921151Y26753480D01*
X-33900107Y26740867D01*
X-33880402Y26726253D01*
X-33862223Y26709777D01*
X-33845747Y26691598D01*
X-33831133Y26671893D01*
X-33818520Y26650849D01*
X-33808030Y26628671D01*
X-33799765Y26605571D01*
X-33793804Y26581773D01*
X-33790204Y26557504D01*
X-33789000Y26533000D01*
X-33789000Y25283000D01*
X-33790204Y25258496D01*
X-33793804Y25234227D01*
X-33799765Y25210429D01*
X-33808030Y25187329D01*
X-33818520Y25165151D01*
X-33831133Y25144107D01*
X-33845747Y25124402D01*
X-33862223Y25106223D01*
X-33880402Y25089747D01*
X-33900107Y25075133D01*
X-33921151Y25062520D01*
X-33943329Y25052030D01*
X-33966429Y25043765D01*
X-33990227Y25037804D01*
X-34014496Y25034204D01*
X-34039000Y25033000D01*
X-34789000Y25033000D01*
X-34813504Y25034204D01*
X-34837773Y25037804D01*
X-34861571Y25043765D01*
X-34884671Y25052030D01*
X-34906849Y25062520D01*
X-34927893Y25075133D01*
X-34947598Y25089747D01*
X-34965777Y25106223D01*
X-34982253Y25124402D01*
X-34996867Y25144107D01*
X-35009480Y25165151D01*
X-35019970Y25187329D01*
X-35028235Y25210429D01*
X-35034196Y25234227D01*
X-35037796Y25258496D01*
X-35039000Y25283000D01*
X-35039000Y26533000D01*
X-35037796Y26557504D01*
X-35034196Y26581773D01*
X-35028235Y26605571D01*
X-35019970Y26628671D01*
X-35009480Y26650849D01*
X-34996867Y26671893D01*
X-34982253Y26691598D01*
X-34965777Y26709777D01*
X-34947598Y26726253D01*
X-34927893Y26740867D01*
X-34906849Y26753480D01*
X-34884671Y26763970D01*
X-34861571Y26772235D01*
X-34837773Y26778196D01*
X-34813504Y26781796D01*
X-34789000Y26783000D01*
X-34039000Y26783000D01*
X-34014496Y26781796D01*
X-34014496Y26781796D01*
G37*
D23*
X-34414000Y25908000D03*
D22*
G36*
X-36814496Y26781796D02*
G01*
X-36790227Y26778196D01*
X-36766429Y26772235D01*
X-36743329Y26763970D01*
X-36721151Y26753480D01*
X-36700107Y26740867D01*
X-36680402Y26726253D01*
X-36662223Y26709777D01*
X-36645747Y26691598D01*
X-36631133Y26671893D01*
X-36618520Y26650849D01*
X-36608030Y26628671D01*
X-36599765Y26605571D01*
X-36593804Y26581773D01*
X-36590204Y26557504D01*
X-36589000Y26533000D01*
X-36589000Y25283000D01*
X-36590204Y25258496D01*
X-36593804Y25234227D01*
X-36599765Y25210429D01*
X-36608030Y25187329D01*
X-36618520Y25165151D01*
X-36631133Y25144107D01*
X-36645747Y25124402D01*
X-36662223Y25106223D01*
X-36680402Y25089747D01*
X-36700107Y25075133D01*
X-36721151Y25062520D01*
X-36743329Y25052030D01*
X-36766429Y25043765D01*
X-36790227Y25037804D01*
X-36814496Y25034204D01*
X-36839000Y25033000D01*
X-37589000Y25033000D01*
X-37613504Y25034204D01*
X-37637773Y25037804D01*
X-37661571Y25043765D01*
X-37684671Y25052030D01*
X-37706849Y25062520D01*
X-37727893Y25075133D01*
X-37747598Y25089747D01*
X-37765777Y25106223D01*
X-37782253Y25124402D01*
X-37796867Y25144107D01*
X-37809480Y25165151D01*
X-37819970Y25187329D01*
X-37828235Y25210429D01*
X-37834196Y25234227D01*
X-37837796Y25258496D01*
X-37839000Y25283000D01*
X-37839000Y26533000D01*
X-37837796Y26557504D01*
X-37834196Y26581773D01*
X-37828235Y26605571D01*
X-37819970Y26628671D01*
X-37809480Y26650849D01*
X-37796867Y26671893D01*
X-37782253Y26691598D01*
X-37765777Y26709777D01*
X-37747598Y26726253D01*
X-37727893Y26740867D01*
X-37706849Y26753480D01*
X-37684671Y26763970D01*
X-37661571Y26772235D01*
X-37637773Y26778196D01*
X-37613504Y26781796D01*
X-37589000Y26783000D01*
X-36839000Y26783000D01*
X-36814496Y26781796D01*
X-36814496Y26781796D01*
G37*
D23*
X-37214000Y25908000D03*
D22*
G36*
X-45698496Y26781796D02*
G01*
X-45674227Y26778196D01*
X-45650429Y26772235D01*
X-45627329Y26763970D01*
X-45605151Y26753480D01*
X-45584107Y26740867D01*
X-45564402Y26726253D01*
X-45546223Y26709777D01*
X-45529747Y26691598D01*
X-45515133Y26671893D01*
X-45502520Y26650849D01*
X-45492030Y26628671D01*
X-45483765Y26605571D01*
X-45477804Y26581773D01*
X-45474204Y26557504D01*
X-45473000Y26533000D01*
X-45473000Y25283000D01*
X-45474204Y25258496D01*
X-45477804Y25234227D01*
X-45483765Y25210429D01*
X-45492030Y25187329D01*
X-45502520Y25165151D01*
X-45515133Y25144107D01*
X-45529747Y25124402D01*
X-45546223Y25106223D01*
X-45564402Y25089747D01*
X-45584107Y25075133D01*
X-45605151Y25062520D01*
X-45627329Y25052030D01*
X-45650429Y25043765D01*
X-45674227Y25037804D01*
X-45698496Y25034204D01*
X-45723000Y25033000D01*
X-46473000Y25033000D01*
X-46497504Y25034204D01*
X-46521773Y25037804D01*
X-46545571Y25043765D01*
X-46568671Y25052030D01*
X-46590849Y25062520D01*
X-46611893Y25075133D01*
X-46631598Y25089747D01*
X-46649777Y25106223D01*
X-46666253Y25124402D01*
X-46680867Y25144107D01*
X-46693480Y25165151D01*
X-46703970Y25187329D01*
X-46712235Y25210429D01*
X-46718196Y25234227D01*
X-46721796Y25258496D01*
X-46723000Y25283000D01*
X-46723000Y26533000D01*
X-46721796Y26557504D01*
X-46718196Y26581773D01*
X-46712235Y26605571D01*
X-46703970Y26628671D01*
X-46693480Y26650849D01*
X-46680867Y26671893D01*
X-46666253Y26691598D01*
X-46649777Y26709777D01*
X-46631598Y26726253D01*
X-46611893Y26740867D01*
X-46590849Y26753480D01*
X-46568671Y26763970D01*
X-46545571Y26772235D01*
X-46521773Y26778196D01*
X-46497504Y26781796D01*
X-46473000Y26783000D01*
X-45723000Y26783000D01*
X-45698496Y26781796D01*
X-45698496Y26781796D01*
G37*
D23*
X-46098000Y25908000D03*
D22*
G36*
X-48498496Y26781796D02*
G01*
X-48474227Y26778196D01*
X-48450429Y26772235D01*
X-48427329Y26763970D01*
X-48405151Y26753480D01*
X-48384107Y26740867D01*
X-48364402Y26726253D01*
X-48346223Y26709777D01*
X-48329747Y26691598D01*
X-48315133Y26671893D01*
X-48302520Y26650849D01*
X-48292030Y26628671D01*
X-48283765Y26605571D01*
X-48277804Y26581773D01*
X-48274204Y26557504D01*
X-48273000Y26533000D01*
X-48273000Y25283000D01*
X-48274204Y25258496D01*
X-48277804Y25234227D01*
X-48283765Y25210429D01*
X-48292030Y25187329D01*
X-48302520Y25165151D01*
X-48315133Y25144107D01*
X-48329747Y25124402D01*
X-48346223Y25106223D01*
X-48364402Y25089747D01*
X-48384107Y25075133D01*
X-48405151Y25062520D01*
X-48427329Y25052030D01*
X-48450429Y25043765D01*
X-48474227Y25037804D01*
X-48498496Y25034204D01*
X-48523000Y25033000D01*
X-49273000Y25033000D01*
X-49297504Y25034204D01*
X-49321773Y25037804D01*
X-49345571Y25043765D01*
X-49368671Y25052030D01*
X-49390849Y25062520D01*
X-49411893Y25075133D01*
X-49431598Y25089747D01*
X-49449777Y25106223D01*
X-49466253Y25124402D01*
X-49480867Y25144107D01*
X-49493480Y25165151D01*
X-49503970Y25187329D01*
X-49512235Y25210429D01*
X-49518196Y25234227D01*
X-49521796Y25258496D01*
X-49523000Y25283000D01*
X-49523000Y26533000D01*
X-49521796Y26557504D01*
X-49518196Y26581773D01*
X-49512235Y26605571D01*
X-49503970Y26628671D01*
X-49493480Y26650849D01*
X-49480867Y26671893D01*
X-49466253Y26691598D01*
X-49449777Y26709777D01*
X-49431598Y26726253D01*
X-49411893Y26740867D01*
X-49390849Y26753480D01*
X-49368671Y26763970D01*
X-49345571Y26772235D01*
X-49321773Y26778196D01*
X-49297504Y26781796D01*
X-49273000Y26783000D01*
X-48523000Y26783000D01*
X-48498496Y26781796D01*
X-48498496Y26781796D01*
G37*
D23*
X-48898000Y25908000D03*
D22*
G36*
X-39614896Y26781796D02*
G01*
X-39590627Y26778196D01*
X-39566829Y26772235D01*
X-39543729Y26763970D01*
X-39521551Y26753480D01*
X-39500507Y26740867D01*
X-39480802Y26726253D01*
X-39462623Y26709777D01*
X-39446147Y26691598D01*
X-39431533Y26671893D01*
X-39418920Y26650849D01*
X-39408430Y26628671D01*
X-39400165Y26605571D01*
X-39394204Y26581773D01*
X-39390604Y26557504D01*
X-39389400Y26533000D01*
X-39389400Y25283000D01*
X-39390604Y25258496D01*
X-39394204Y25234227D01*
X-39400165Y25210429D01*
X-39408430Y25187329D01*
X-39418920Y25165151D01*
X-39431533Y25144107D01*
X-39446147Y25124402D01*
X-39462623Y25106223D01*
X-39480802Y25089747D01*
X-39500507Y25075133D01*
X-39521551Y25062520D01*
X-39543729Y25052030D01*
X-39566829Y25043765D01*
X-39590627Y25037804D01*
X-39614896Y25034204D01*
X-39639400Y25033000D01*
X-40389400Y25033000D01*
X-40413904Y25034204D01*
X-40438173Y25037804D01*
X-40461971Y25043765D01*
X-40485071Y25052030D01*
X-40507249Y25062520D01*
X-40528293Y25075133D01*
X-40547998Y25089747D01*
X-40566177Y25106223D01*
X-40582653Y25124402D01*
X-40597267Y25144107D01*
X-40609880Y25165151D01*
X-40620370Y25187329D01*
X-40628635Y25210429D01*
X-40634596Y25234227D01*
X-40638196Y25258496D01*
X-40639400Y25283000D01*
X-40639400Y26533000D01*
X-40638196Y26557504D01*
X-40634596Y26581773D01*
X-40628635Y26605571D01*
X-40620370Y26628671D01*
X-40609880Y26650849D01*
X-40597267Y26671893D01*
X-40582653Y26691598D01*
X-40566177Y26709777D01*
X-40547998Y26726253D01*
X-40528293Y26740867D01*
X-40507249Y26753480D01*
X-40485071Y26763970D01*
X-40461971Y26772235D01*
X-40438173Y26778196D01*
X-40413904Y26781796D01*
X-40389400Y26783000D01*
X-39639400Y26783000D01*
X-39614896Y26781796D01*
X-39614896Y26781796D01*
G37*
D23*
X-40014400Y25908000D03*
D22*
G36*
X-42414896Y26781796D02*
G01*
X-42390627Y26778196D01*
X-42366829Y26772235D01*
X-42343729Y26763970D01*
X-42321551Y26753480D01*
X-42300507Y26740867D01*
X-42280802Y26726253D01*
X-42262623Y26709777D01*
X-42246147Y26691598D01*
X-42231533Y26671893D01*
X-42218920Y26650849D01*
X-42208430Y26628671D01*
X-42200165Y26605571D01*
X-42194204Y26581773D01*
X-42190604Y26557504D01*
X-42189400Y26533000D01*
X-42189400Y25283000D01*
X-42190604Y25258496D01*
X-42194204Y25234227D01*
X-42200165Y25210429D01*
X-42208430Y25187329D01*
X-42218920Y25165151D01*
X-42231533Y25144107D01*
X-42246147Y25124402D01*
X-42262623Y25106223D01*
X-42280802Y25089747D01*
X-42300507Y25075133D01*
X-42321551Y25062520D01*
X-42343729Y25052030D01*
X-42366829Y25043765D01*
X-42390627Y25037804D01*
X-42414896Y25034204D01*
X-42439400Y25033000D01*
X-43189400Y25033000D01*
X-43213904Y25034204D01*
X-43238173Y25037804D01*
X-43261971Y25043765D01*
X-43285071Y25052030D01*
X-43307249Y25062520D01*
X-43328293Y25075133D01*
X-43347998Y25089747D01*
X-43366177Y25106223D01*
X-43382653Y25124402D01*
X-43397267Y25144107D01*
X-43409880Y25165151D01*
X-43420370Y25187329D01*
X-43428635Y25210429D01*
X-43434596Y25234227D01*
X-43438196Y25258496D01*
X-43439400Y25283000D01*
X-43439400Y26533000D01*
X-43438196Y26557504D01*
X-43434596Y26581773D01*
X-43428635Y26605571D01*
X-43420370Y26628671D01*
X-43409880Y26650849D01*
X-43397267Y26671893D01*
X-43382653Y26691598D01*
X-43366177Y26709777D01*
X-43347998Y26726253D01*
X-43328293Y26740867D01*
X-43307249Y26753480D01*
X-43285071Y26763970D01*
X-43261971Y26772235D01*
X-43238173Y26778196D01*
X-43213904Y26781796D01*
X-43189400Y26783000D01*
X-42439400Y26783000D01*
X-42414896Y26781796D01*
X-42414896Y26781796D01*
G37*
D23*
X-42814400Y25908000D03*
D31*
X-27178000Y32258000D03*
X-23178000Y32258000D03*
X-44323000Y10668000D03*
X-48323000Y10668000D03*
X-43942000Y18796000D03*
X-47942000Y18796000D03*
D22*
G36*
X-31227496Y6099296D02*
G01*
X-31203227Y6095696D01*
X-31179429Y6089735D01*
X-31156329Y6081470D01*
X-31134151Y6070980D01*
X-31113107Y6058367D01*
X-31093402Y6043753D01*
X-31075223Y6027277D01*
X-31058747Y6009098D01*
X-31044133Y5989393D01*
X-31031520Y5968349D01*
X-31021030Y5946171D01*
X-31012765Y5923071D01*
X-31006804Y5899273D01*
X-31003204Y5875004D01*
X-31002000Y5850500D01*
X-31002000Y4925500D01*
X-31003204Y4900996D01*
X-31006804Y4876727D01*
X-31012765Y4852929D01*
X-31021030Y4829829D01*
X-31031520Y4807651D01*
X-31044133Y4786607D01*
X-31058747Y4766902D01*
X-31075223Y4748723D01*
X-31093402Y4732247D01*
X-31113107Y4717633D01*
X-31134151Y4705020D01*
X-31156329Y4694530D01*
X-31179429Y4686265D01*
X-31203227Y4680304D01*
X-31227496Y4676704D01*
X-31252000Y4675500D01*
X-32502000Y4675500D01*
X-32526504Y4676704D01*
X-32550773Y4680304D01*
X-32574571Y4686265D01*
X-32597671Y4694530D01*
X-32619849Y4705020D01*
X-32640893Y4717633D01*
X-32660598Y4732247D01*
X-32678777Y4748723D01*
X-32695253Y4766902D01*
X-32709867Y4786607D01*
X-32722480Y4807651D01*
X-32732970Y4829829D01*
X-32741235Y4852929D01*
X-32747196Y4876727D01*
X-32750796Y4900996D01*
X-32752000Y4925500D01*
X-32752000Y5850500D01*
X-32750796Y5875004D01*
X-32747196Y5899273D01*
X-32741235Y5923071D01*
X-32732970Y5946171D01*
X-32722480Y5968349D01*
X-32709867Y5989393D01*
X-32695253Y6009098D01*
X-32678777Y6027277D01*
X-32660598Y6043753D01*
X-32640893Y6058367D01*
X-32619849Y6070980D01*
X-32597671Y6081470D01*
X-32574571Y6089735D01*
X-32550773Y6095696D01*
X-32526504Y6099296D01*
X-32502000Y6100500D01*
X-31252000Y6100500D01*
X-31227496Y6099296D01*
X-31227496Y6099296D01*
G37*
D32*
X-31877000Y5388000D03*
D22*
G36*
X-31227496Y3124296D02*
G01*
X-31203227Y3120696D01*
X-31179429Y3114735D01*
X-31156329Y3106470D01*
X-31134151Y3095980D01*
X-31113107Y3083367D01*
X-31093402Y3068753D01*
X-31075223Y3052277D01*
X-31058747Y3034098D01*
X-31044133Y3014393D01*
X-31031520Y2993349D01*
X-31021030Y2971171D01*
X-31012765Y2948071D01*
X-31006804Y2924273D01*
X-31003204Y2900004D01*
X-31002000Y2875500D01*
X-31002000Y1950500D01*
X-31003204Y1925996D01*
X-31006804Y1901727D01*
X-31012765Y1877929D01*
X-31021030Y1854829D01*
X-31031520Y1832651D01*
X-31044133Y1811607D01*
X-31058747Y1791902D01*
X-31075223Y1773723D01*
X-31093402Y1757247D01*
X-31113107Y1742633D01*
X-31134151Y1730020D01*
X-31156329Y1719530D01*
X-31179429Y1711265D01*
X-31203227Y1705304D01*
X-31227496Y1701704D01*
X-31252000Y1700500D01*
X-32502000Y1700500D01*
X-32526504Y1701704D01*
X-32550773Y1705304D01*
X-32574571Y1711265D01*
X-32597671Y1719530D01*
X-32619849Y1730020D01*
X-32640893Y1742633D01*
X-32660598Y1757247D01*
X-32678777Y1773723D01*
X-32695253Y1791902D01*
X-32709867Y1811607D01*
X-32722480Y1832651D01*
X-32732970Y1854829D01*
X-32741235Y1877929D01*
X-32747196Y1901727D01*
X-32750796Y1925996D01*
X-32752000Y1950500D01*
X-32752000Y2875500D01*
X-32750796Y2900004D01*
X-32747196Y2924273D01*
X-32741235Y2948071D01*
X-32732970Y2971171D01*
X-32722480Y2993349D01*
X-32709867Y3014393D01*
X-32695253Y3034098D01*
X-32678777Y3052277D01*
X-32660598Y3068753D01*
X-32640893Y3083367D01*
X-32619849Y3095980D01*
X-32597671Y3106470D01*
X-32574571Y3114735D01*
X-32550773Y3120696D01*
X-32526504Y3124296D01*
X-32502000Y3125500D01*
X-31252000Y3125500D01*
X-31227496Y3124296D01*
X-31227496Y3124296D01*
G37*
D32*
X-31877000Y2413000D03*
D22*
G36*
X-22533076Y3263336D02*
G01*
X-22508807Y3259736D01*
X-22485009Y3253775D01*
X-22461909Y3245510D01*
X-22439731Y3235020D01*
X-22418687Y3222407D01*
X-22398982Y3207793D01*
X-22380803Y3191317D01*
X-22364327Y3173138D01*
X-22349713Y3153433D01*
X-22337100Y3132389D01*
X-22326610Y3110211D01*
X-22318345Y3087111D01*
X-22312384Y3063313D01*
X-22308784Y3039044D01*
X-22307580Y3014540D01*
X-22307580Y2089540D01*
X-22308784Y2065036D01*
X-22312384Y2040767D01*
X-22318345Y2016969D01*
X-22326610Y1993869D01*
X-22337100Y1971691D01*
X-22349713Y1950647D01*
X-22364327Y1930942D01*
X-22380803Y1912763D01*
X-22398982Y1896287D01*
X-22418687Y1881673D01*
X-22439731Y1869060D01*
X-22461909Y1858570D01*
X-22485009Y1850305D01*
X-22508807Y1844344D01*
X-22533076Y1840744D01*
X-22557580Y1839540D01*
X-23807580Y1839540D01*
X-23832084Y1840744D01*
X-23856353Y1844344D01*
X-23880151Y1850305D01*
X-23903251Y1858570D01*
X-23925429Y1869060D01*
X-23946473Y1881673D01*
X-23966178Y1896287D01*
X-23984357Y1912763D01*
X-24000833Y1930942D01*
X-24015447Y1950647D01*
X-24028060Y1971691D01*
X-24038550Y1993869D01*
X-24046815Y2016969D01*
X-24052776Y2040767D01*
X-24056376Y2065036D01*
X-24057580Y2089540D01*
X-24057580Y3014540D01*
X-24056376Y3039044D01*
X-24052776Y3063313D01*
X-24046815Y3087111D01*
X-24038550Y3110211D01*
X-24028060Y3132389D01*
X-24015447Y3153433D01*
X-24000833Y3173138D01*
X-23984357Y3191317D01*
X-23966178Y3207793D01*
X-23946473Y3222407D01*
X-23925429Y3235020D01*
X-23903251Y3245510D01*
X-23880151Y3253775D01*
X-23856353Y3259736D01*
X-23832084Y3263336D01*
X-23807580Y3264540D01*
X-22557580Y3264540D01*
X-22533076Y3263336D01*
X-22533076Y3263336D01*
G37*
D32*
X-23182580Y2552040D03*
D22*
G36*
X-22533076Y6238336D02*
G01*
X-22508807Y6234736D01*
X-22485009Y6228775D01*
X-22461909Y6220510D01*
X-22439731Y6210020D01*
X-22418687Y6197407D01*
X-22398982Y6182793D01*
X-22380803Y6166317D01*
X-22364327Y6148138D01*
X-22349713Y6128433D01*
X-22337100Y6107389D01*
X-22326610Y6085211D01*
X-22318345Y6062111D01*
X-22312384Y6038313D01*
X-22308784Y6014044D01*
X-22307580Y5989540D01*
X-22307580Y5064540D01*
X-22308784Y5040036D01*
X-22312384Y5015767D01*
X-22318345Y4991969D01*
X-22326610Y4968869D01*
X-22337100Y4946691D01*
X-22349713Y4925647D01*
X-22364327Y4905942D01*
X-22380803Y4887763D01*
X-22398982Y4871287D01*
X-22418687Y4856673D01*
X-22439731Y4844060D01*
X-22461909Y4833570D01*
X-22485009Y4825305D01*
X-22508807Y4819344D01*
X-22533076Y4815744D01*
X-22557580Y4814540D01*
X-23807580Y4814540D01*
X-23832084Y4815744D01*
X-23856353Y4819344D01*
X-23880151Y4825305D01*
X-23903251Y4833570D01*
X-23925429Y4844060D01*
X-23946473Y4856673D01*
X-23966178Y4871287D01*
X-23984357Y4887763D01*
X-24000833Y4905942D01*
X-24015447Y4925647D01*
X-24028060Y4946691D01*
X-24038550Y4968869D01*
X-24046815Y4991969D01*
X-24052776Y5015767D01*
X-24056376Y5040036D01*
X-24057580Y5064540D01*
X-24057580Y5989540D01*
X-24056376Y6014044D01*
X-24052776Y6038313D01*
X-24046815Y6062111D01*
X-24038550Y6085211D01*
X-24028060Y6107389D01*
X-24015447Y6128433D01*
X-24000833Y6148138D01*
X-23984357Y6166317D01*
X-23966178Y6182793D01*
X-23946473Y6197407D01*
X-23925429Y6210020D01*
X-23903251Y6220510D01*
X-23880151Y6228775D01*
X-23856353Y6234736D01*
X-23832084Y6238336D01*
X-23807580Y6239540D01*
X-22557580Y6239540D01*
X-22533076Y6238336D01*
X-22533076Y6238336D01*
G37*
D32*
X-23182580Y5527040D03*
D33*
X-48986440Y7889240D03*
X-23622000Y8128000D03*
X-32258000Y8128000D03*
X-27178000Y10922000D03*
X-23622000Y8128000D03*
X-23622000Y10922000D03*
X-43688000Y18542000D03*
X-44322996Y10668000D03*
X-36576000Y2540000D03*
X-42672000Y25908000D03*
X-37338000Y25908000D03*
X-48768000Y25908000D03*
X-35814000Y25908000D03*
X-35306000Y18034000D03*
X-49022000Y15457010D03*
X-44827996Y15767377D03*
X-23815976Y16961073D03*
X-25146000Y3429000D03*
X-23553469Y1201469D03*
X-31877000Y1016000D03*
X-41402000Y26670000D03*
X-45901986Y18796000D03*
X-47244000Y20828000D03*
X-36703000Y13970000D03*
X-35052000Y13970000D03*
X-30607000Y1143000D03*
X-34290000Y23585010D03*
X-29210000Y4471400D03*
X-47533560Y26873200D03*
X-48006000Y18542000D03*
X-49356795Y23585010D03*
X-48322916Y10668000D03*
X-29440598Y15530990D03*
X-30353000Y10033000D03*
X-35271428Y10194572D03*
X-26220840Y5021160D03*
X-22162022Y791827D03*
X-24855010Y27248698D03*
X-30527774Y25193778D03*
X-34158022Y7508549D03*
X-35152053Y4644290D03*
X-34608033Y8490524D03*
X-21927521Y17648161D03*
X-22250231Y19376090D03*
X-21832038Y20571635D03*
X-22448493Y21359033D03*
X-35179000Y7366014D03*
X-32754398Y23215032D03*
X-38481000Y15494000D03*
X-36876833Y7726137D03*
X-23876000Y28956000D03*
X-18213939Y30376261D03*
X-17817994Y-330497D03*
X-17911990Y665087D03*
X-42022989Y9837003D03*
X-42542872Y12565817D03*
X-26979880Y23718520D03*
X-41743209Y13290827D03*
X-43935787Y17295988D03*
X-49159161Y28122880D03*
X-50005000Y4064000D03*
X-41402000Y25400000D03*
X-47498000Y25654000D03*
X-24765000Y19431000D03*
X-23622000Y23407921D03*
D34*
X-35310000Y19452000D02*
X-35306000Y19448000D01*
X-35310000Y20352000D02*
X-35310000Y19452000D01*
X-35306000Y19448000D02*
X-35306000Y18034000D01*
X-35810000Y17530000D02*
X-35306000Y18034000D01*
X-35810000Y14736000D02*
X-35810000Y17530000D01*
X-31210000Y15252000D02*
X-32524000Y15252000D01*
X-45233466Y14718999D02*
X-44827996Y15124469D01*
X-48283989Y14718999D02*
X-45233466Y14718999D01*
X-44827996Y15124469D02*
X-44827996Y15201692D01*
X-49022000Y15457010D02*
X-48283989Y14718999D01*
X-44827996Y15201692D02*
X-44827996Y15767377D01*
X-38162410Y14736000D02*
X-35810000Y14736000D01*
X-19812000Y3810000D02*
X-18636999Y4985001D01*
X-22850653Y10150653D02*
X-23622000Y10922000D01*
X-22765001Y10065001D02*
X-22850653Y10150653D01*
X-18828001Y10065001D02*
X-22765001Y10065001D01*
X-18636999Y9873999D02*
X-18828001Y10065001D01*
X-18636999Y4985001D02*
X-18636999Y9873999D01*
X-27178000Y10922000D02*
X-23622000Y10922000D01*
X-23622000Y10922000D02*
X-23622000Y8128000D01*
X-23415977Y17361072D02*
X-23815976Y16961073D01*
X-18636999Y19614001D02*
X-19247999Y20225001D01*
X-20376001Y20225001D02*
X-23239930Y17361072D01*
X-19247999Y20225001D02*
X-20376001Y20225001D01*
X-23239930Y17361072D02*
X-23415977Y17361072D01*
X-18636999Y9873999D02*
X-18636999Y19614001D01*
X-24059540Y3429000D02*
X-23182580Y2552040D01*
X-25146000Y3429000D02*
X-24059540Y3429000D01*
X-24413519Y341419D02*
X-31202419Y341419D01*
X-23182580Y2552040D02*
X-23182580Y1572358D01*
X-23182580Y1572358D02*
X-23553469Y1201469D01*
X-31877000Y1016000D02*
X-31877000Y1016000D01*
X-31202419Y341419D02*
X-31877000Y1016000D01*
X-23553469Y1201469D02*
X-24413519Y341419D01*
X-31877000Y1016000D02*
X-31877000Y2413000D01*
X-32258000Y8128000D02*
X-32258000Y12827000D01*
X-34036000Y14605000D02*
X-34036000Y16764000D01*
X-32258000Y12827000D02*
X-34036000Y14605000D01*
X-32524000Y15252000D02*
X-34036000Y16764000D01*
X-34036000Y16764000D02*
X-35306000Y18034000D01*
X-42138000Y29939000D02*
X-42138000Y29464000D01*
X-43187000Y30988000D02*
X-42138000Y29939000D01*
X-47244000Y30988000D02*
X-43187000Y30988000D01*
X-45901986Y19485986D02*
X-45901986Y18796000D01*
X-47244000Y20828000D02*
X-45901986Y19485986D01*
X-45240990Y17295988D02*
X-44501472Y17295988D01*
X-44501472Y17295988D02*
X-43935787Y17295988D01*
X-45901986Y17956984D02*
X-45240990Y17295988D01*
X-45901986Y18796000D02*
X-45901986Y17956984D01*
X-36703000Y13970000D02*
X-36703000Y13970000D01*
X-34810000Y13728000D02*
X-34810000Y11652000D01*
X-35052000Y13970000D02*
X-34810000Y13728000D01*
X-34810000Y20352000D02*
X-34810000Y23065010D01*
X-34810000Y23065010D02*
X-34689999Y23185011D01*
X-34689999Y23185011D02*
X-34290000Y23585010D01*
X-30607000Y3074400D02*
X-29609999Y4071401D01*
X-29609999Y4071401D02*
X-29210000Y4471400D01*
X-30607000Y1143000D02*
X-30607000Y3074400D01*
X-24157580Y5527040D02*
X-23182580Y5527040D01*
X-25134140Y5527040D02*
X-24157580Y5527040D01*
X-25623520Y6016420D02*
X-25134140Y5527040D01*
X-25623520Y6916420D02*
X-25623520Y6016420D01*
X-25966420Y6916420D02*
X-25623520Y6916420D01*
X-30310000Y13752000D02*
X-30310000Y13702001D01*
X-31210000Y13752000D02*
X-30310000Y13752000D01*
X-30310000Y13702001D02*
X-30299999Y13702001D01*
X-30299999Y13702001D02*
X-29972000Y13374002D01*
X-29972000Y13374002D02*
X-29972000Y10922000D01*
X-29972000Y10922000D02*
X-25966420Y6916420D01*
X-30685000Y13252000D02*
X-31210000Y13252000D01*
X-28823520Y6016420D02*
X-28823520Y6916420D01*
X-29193520Y5646420D02*
X-28823520Y6016420D01*
X-31211520Y5646420D02*
X-29193520Y5646420D01*
X-48006000Y18796000D02*
X-47752000Y18542000D01*
X-29661608Y15752000D02*
X-29440598Y15530990D01*
X-31210000Y15752000D02*
X-29661608Y15752000D01*
X-30353000Y10033000D02*
X-30353000Y10033000D01*
X-35310000Y10233144D02*
X-35271428Y10194572D01*
X-35310000Y11652000D02*
X-35310000Y10233144D01*
X-27548519Y7794204D02*
X-27548519Y6348839D01*
X-30353000Y10033000D02*
X-29787315Y10033000D01*
X-26620839Y5421159D02*
X-26220840Y5021160D01*
X-29787315Y10033000D02*
X-27548519Y7794204D01*
X-27548519Y6348839D02*
X-26620839Y5421159D01*
X-22162022Y1357512D02*
X-22162022Y791827D01*
X-21934010Y1585524D02*
X-22162022Y1357512D01*
X-21934010Y3840571D02*
X-21934010Y1585524D01*
X-22265440Y4172001D02*
X-21934010Y3840571D01*
X-26220840Y5021160D02*
X-25371681Y4172001D01*
X-25371681Y4172001D02*
X-22265440Y4172001D01*
X-27178000Y32258000D02*
X-27178000Y29571688D01*
X-25255009Y27648697D02*
X-24855010Y27248698D01*
X-27178000Y29571688D02*
X-25255009Y27648697D01*
X-31210000Y13252000D02*
X-31210000Y9621410D01*
X-28823520Y7234930D02*
X-28823520Y6916420D01*
X-31210000Y9621410D02*
X-28823520Y7234930D01*
X-33299779Y24793779D02*
X-30927773Y24793779D01*
X-34414000Y25908000D02*
X-33299779Y24793779D01*
X-30927773Y24793779D02*
X-30527774Y25193778D01*
X-23178000Y31402000D02*
X-23178000Y32258000D01*
X-23114000Y31338000D02*
X-23178000Y31402000D01*
X-23114000Y25908000D02*
X-23114000Y31338000D01*
X-33810000Y11652000D02*
X-33810000Y8921824D01*
X-33883023Y8848801D02*
X-33883023Y7783548D01*
X-33810000Y8921824D02*
X-33883023Y8848801D01*
X-33883023Y7783548D02*
X-34158022Y7508549D01*
X-35106710Y4644290D02*
X-35106710Y4644290D01*
X-35880290Y4644290D02*
X-35152053Y4644290D01*
X-36576000Y5340000D02*
X-35880290Y4644290D01*
X-34310000Y9354242D02*
X-34608033Y9056209D01*
X-34608033Y9056209D02*
X-34608033Y8490524D01*
X-34310000Y11652000D02*
X-34310000Y9354242D01*
X-31774000Y26148000D02*
X-32014000Y25908000D01*
X-31774000Y29464000D02*
X-31774000Y26148000D01*
X-23584236Y14252000D02*
X-21612235Y12279999D01*
X-20661999Y12279999D02*
X-19812000Y11430000D01*
X-31210000Y14252000D02*
X-23584236Y14252000D01*
X-21612235Y12279999D02*
X-20661999Y12279999D01*
X-30308374Y14750374D02*
X-23446199Y14750374D01*
X-22665825Y13970000D02*
X-21014081Y13970000D01*
X-21014081Y13970000D02*
X-19812000Y13970000D01*
X-31210000Y14752000D02*
X-30310000Y14752000D01*
X-23446199Y14750374D02*
X-22665825Y13970000D01*
X-30310000Y14752000D02*
X-30308374Y14750374D01*
X-31210000Y17252000D02*
X-30310000Y17252000D01*
X-25156866Y17228949D02*
X-24163980Y16236063D01*
X-30286949Y17228949D02*
X-25156866Y17228949D01*
X-23339619Y16236063D02*
X-22327520Y17248162D01*
X-22327520Y17248162D02*
X-21927521Y17648161D01*
X-30310000Y17252000D02*
X-30286949Y17228949D01*
X-24163980Y16236063D02*
X-23339619Y16236063D01*
X-31210000Y17752000D02*
X-25431842Y17752000D01*
X-22650230Y18945938D02*
X-22650230Y18976091D01*
X-25358815Y17678973D02*
X-23917195Y17678973D01*
X-25431842Y17752000D02*
X-25358815Y17678973D01*
X-22650230Y18976091D02*
X-22250231Y19376090D01*
X-23917195Y17678973D02*
X-22650230Y18945938D01*
X-24103585Y18128984D02*
X-23335987Y18896582D01*
X-22397723Y20571635D02*
X-21832038Y20571635D01*
X-31210000Y18252000D02*
X-25295431Y18252000D01*
X-23335987Y19633371D02*
X-22397723Y20571635D01*
X-23335987Y18896582D02*
X-23335987Y19633371D01*
X-25295431Y18252000D02*
X-25172415Y18128984D01*
X-25172415Y18128984D02*
X-24103585Y18128984D01*
X-31210000Y18752000D02*
X-25159020Y18752000D01*
X-24986015Y18578995D02*
X-24289995Y18578995D01*
X-22848492Y20959034D02*
X-22448493Y21359033D01*
X-23912995Y19894531D02*
X-22848492Y20959034D01*
X-23912995Y18955995D02*
X-23912995Y19894531D01*
X-24289995Y18578995D02*
X-23912995Y18955995D01*
X-25159020Y18752000D02*
X-24986015Y18578995D01*
X-20661999Y8040001D02*
X-19812000Y8890000D01*
X-21437012Y7264988D02*
X-20661999Y8040001D01*
X-21437012Y25988D02*
X-21437012Y7264988D01*
X-22123988Y-660988D02*
X-21437012Y25988D01*
X-31654014Y-660988D02*
X-22123988Y-660988D01*
X-32810000Y11652000D02*
X-32810000Y8649002D01*
X-32983001Y8476001D02*
X-32983001Y6182689D01*
X-32983001Y6182689D02*
X-33077010Y6088680D01*
X-32810000Y8649002D02*
X-32983001Y8476001D01*
X-33077010Y6088680D02*
X-33077010Y762008D01*
X-33077010Y762008D02*
X-31654014Y-660988D01*
X-20987001Y5174999D02*
X-20661999Y5500001D01*
X-20987001Y-160412D02*
X-20987001Y5174999D01*
X-33433012Y6369089D02*
X-33527021Y6275080D01*
X-33310000Y8785413D02*
X-33433012Y8662401D01*
X-33310000Y11652000D02*
X-33310000Y8785413D01*
X-21937588Y-1110999D02*
X-20987001Y-160412D01*
X-33433012Y8662401D02*
X-33433012Y6369089D01*
X-33527021Y6275080D02*
X-33527021Y575608D01*
X-20661999Y5500001D02*
X-19812000Y6350000D01*
X-33527021Y575608D02*
X-31840414Y-1110999D01*
X-31840414Y-1110999D02*
X-21937588Y-1110999D01*
X-20661999Y15660001D02*
X-19812000Y16510000D01*
X-30306000Y16256000D02*
X-25456739Y16256000D01*
X-25456739Y16256000D02*
X-24401124Y15200385D01*
X-30310000Y16252000D02*
X-30306000Y16256000D01*
X-24401124Y15200385D02*
X-21121615Y15200385D01*
X-31210000Y16252000D02*
X-30310000Y16252000D01*
X-21121615Y15200385D02*
X-20661999Y15660001D01*
X-25316328Y16752000D02*
X-24214722Y15650394D01*
X-24214722Y15650394D02*
X-22675937Y15650394D01*
X-22675937Y15650394D02*
X-20661999Y17664332D01*
X-31210000Y16752000D02*
X-25316328Y16752000D01*
X-20661999Y18200001D02*
X-19812000Y19050000D01*
X-20661999Y17664332D02*
X-20661999Y18200001D01*
X-35810000Y20352000D02*
X-35810000Y23138014D01*
X-33849378Y24310012D02*
X-33154397Y23615031D01*
X-33154397Y23615031D02*
X-32754398Y23215032D01*
X-35810000Y23138014D02*
X-34638002Y24310012D01*
X-34638002Y24310012D02*
X-33849378Y24310012D01*
X-33977032Y6164046D02*
X-34779001Y6966015D01*
X-32512000Y-2286000D02*
X-33977032Y-820968D01*
X-34779001Y6966015D02*
X-35179000Y7366014D01*
X-33977032Y-820968D02*
X-33977032Y6164046D01*
X-36310000Y19452000D02*
X-38481000Y17281000D01*
X-36310000Y20352000D02*
X-36310000Y19452000D01*
X-38481000Y17281000D02*
X-38481000Y15494000D01*
X-38481000Y15494000D02*
X-38481000Y15494000D01*
X-35052000Y-1083919D02*
X-34427043Y-458962D01*
X-34427043Y5276347D02*
X-36476834Y7326138D01*
X-35052000Y-2286000D02*
X-35052000Y-1083919D01*
X-36476834Y7326138D02*
X-36876833Y7726137D01*
X-34427043Y-458962D02*
X-34427043Y5276347D01*
X-24955968Y25951034D02*
X-23876000Y27031002D01*
X-28745198Y25951034D02*
X-24955968Y25951034D01*
X-33265799Y22490022D02*
X-32206210Y22490022D01*
X-32206210Y22490022D02*
X-28745198Y25951034D01*
X-34310000Y20352000D02*
X-34310000Y21445821D01*
X-34310000Y21445821D02*
X-33265799Y22490022D01*
X-23876000Y27031002D02*
X-23876000Y28956000D01*
X-17732177Y-1270000D02*
X-16648481Y-186304D01*
X-19596998Y-1270000D02*
X-17732177Y-1270000D01*
X-28796999Y-3461001D02*
X-21787999Y-3461001D01*
X-21787999Y-3461001D02*
X-19596998Y-1270000D01*
X-29972000Y-2286000D02*
X-28796999Y-3461001D01*
X-16648481Y28810803D02*
X-17813940Y29976262D01*
X-17813940Y29976262D02*
X-18213939Y30376261D01*
X-16648481Y-186304D02*
X-16648481Y28810803D01*
X-50867919Y22860000D02*
X-51375919Y23368000D01*
X-40894000Y20320000D02*
X-43434000Y22860000D01*
X-40894000Y19211000D02*
X-40894000Y20320000D01*
X-39910000Y18752000D02*
X-40435000Y18752000D01*
X-43434000Y22860000D02*
X-50867919Y22860000D01*
X-40435000Y18752000D02*
X-40894000Y19211000D01*
X-51375919Y23368000D02*
X-52578000Y23368000D01*
X-40770002Y18252000D02*
X-39910000Y18252000D01*
X-51562000Y20828000D02*
X-50292000Y22098000D01*
X-52578000Y20828000D02*
X-51562000Y20828000D01*
X-50292000Y22098000D02*
X-43688000Y22098000D01*
X-43688000Y22098000D02*
X-41656000Y20066000D01*
X-41656000Y20066000D02*
X-41656000Y19137998D01*
X-41656000Y19137998D02*
X-40770002Y18252000D01*
X-51728001Y19137999D02*
X-52578000Y18288000D01*
X-42176999Y19702001D02*
X-44064998Y21590000D01*
X-44064998Y21590000D02*
X-49276000Y21590000D01*
X-42176999Y19022586D02*
X-42176999Y19702001D01*
X-49276000Y21590000D02*
X-51728001Y19137999D01*
X-40906413Y17752000D02*
X-42176999Y19022586D01*
X-39910000Y17752000D02*
X-40906413Y17752000D01*
X-39910000Y17252000D02*
X-42954465Y17252000D01*
X-50631540Y16492379D02*
X-51375919Y15748000D01*
X-43714086Y16492379D02*
X-50631540Y16492379D01*
X-42954465Y17252000D02*
X-43714086Y16492379D01*
X-51375919Y15748000D02*
X-52578000Y15748000D01*
X-42564054Y16752000D02*
X-40810000Y16752000D01*
X-51517012Y14268988D02*
X-45047066Y14268988D01*
X-45047066Y14268988D02*
X-42564054Y16752000D01*
X-40810000Y16752000D02*
X-39910000Y16752000D01*
X-52578000Y13208000D02*
X-51517012Y14268988D01*
X-39910000Y16252000D02*
X-42427642Y16252000D01*
X-42427642Y16252000D02*
X-44860665Y13818977D01*
X-49427023Y13818977D02*
X-51728001Y11517999D01*
X-51728001Y11517999D02*
X-52578000Y10668000D01*
X-44860665Y13818977D02*
X-49427023Y13818977D01*
X-50165000Y11561002D02*
X-50165000Y10541000D01*
X-42291231Y15752000D02*
X-44835231Y13208000D01*
X-48518002Y13208000D02*
X-50165000Y11561002D01*
X-50165000Y10541000D02*
X-51728001Y8977999D01*
X-51728001Y8977999D02*
X-52578000Y8128000D01*
X-44835231Y13208000D02*
X-48518002Y13208000D01*
X-39910000Y15752000D02*
X-42291231Y15752000D01*
X-42154820Y15252000D02*
X-45063808Y12343012D01*
X-50265012Y7900988D02*
X-51728001Y6437999D01*
X-51728001Y6437999D02*
X-52578000Y5588000D01*
X-39910000Y15252000D02*
X-42154820Y15252000D01*
X-47123399Y9139012D02*
X-49936401Y9139012D01*
X-46355000Y9907411D02*
X-47123399Y9139012D01*
X-50265012Y8810401D02*
X-50265012Y7900988D01*
X-46019401Y12343012D02*
X-46355000Y12007413D01*
X-45063808Y12343012D02*
X-46019401Y12343012D01*
X-46355000Y12007413D02*
X-46355000Y9907411D01*
X-49936401Y9139012D02*
X-50265012Y8810401D01*
X-39910000Y14752000D02*
X-42018410Y14752000D01*
X-42018410Y14752000D02*
X-44877409Y11893001D01*
X-45833001Y11893001D02*
X-45898001Y11828001D01*
X-45898001Y11828001D02*
X-45898001Y9507999D01*
X-45898001Y9507999D02*
X-46716999Y8689001D01*
X-51728001Y4280410D02*
X-51728001Y3897999D01*
X-51728001Y3897999D02*
X-52578000Y3048000D01*
X-49815001Y8624001D02*
X-49815001Y6193410D01*
X-44877409Y11893001D02*
X-45833001Y11893001D01*
X-49750001Y8689001D02*
X-49815001Y8624001D01*
X-49815001Y6193410D02*
X-51728001Y4280410D01*
X-46716999Y8689001D02*
X-49750001Y8689001D01*
X-29951680Y21463000D02*
X-26289000Y21463000D01*
X-35306000Y18034000D02*
X-33380680Y18034000D01*
X-33380680Y18034000D02*
X-29951680Y21463000D01*
X-38162410Y14599590D02*
X-38162410Y14736000D01*
X-39010000Y13752000D02*
X-38162410Y14599590D01*
X-39910000Y13752000D02*
X-39010000Y13752000D01*
X-42142873Y12165818D02*
X-42542872Y12565817D01*
X-42022989Y9837003D02*
X-42022989Y12045934D01*
X-42022989Y12045934D02*
X-42142873Y12165818D01*
X-38267482Y13054520D02*
X-35810000Y13054520D01*
X-38756185Y12565817D02*
X-38267482Y13054520D01*
X-42542872Y12565817D02*
X-38756185Y12565817D01*
X-35810000Y11652000D02*
X-35810000Y13054520D01*
X-35810000Y13054520D02*
X-35810000Y14736000D01*
X-40282241Y1313561D02*
X-40782240Y1813560D01*
X-38956999Y-11681D02*
X-40282241Y1313561D01*
X-38956999Y-2850001D02*
X-38956999Y-11681D01*
X-39567999Y-3461001D02*
X-38956999Y-2850001D01*
X-46576999Y-3461001D02*
X-39567999Y-3461001D01*
X-47752000Y-2286000D02*
X-46576999Y-3461001D01*
X-41282239Y2313559D02*
X-40782240Y1813560D01*
X-41607241Y2638561D02*
X-41282239Y2313559D01*
X-41607241Y4798559D02*
X-41607241Y2638561D01*
X-40782240Y5623560D02*
X-41607241Y4798559D01*
X-40782240Y5623560D02*
X-40782240Y4353560D01*
X-47752000Y-1083919D02*
X-47752000Y-2286000D01*
X-47752000Y676000D02*
X-47752000Y-1083919D01*
X-48240000Y1164000D02*
X-47752000Y676000D01*
X-48990000Y1164000D02*
X-48240000Y1164000D01*
X-29951680Y21463000D02*
X-27696160Y23718520D01*
X-27545565Y23718520D02*
X-26979880Y23718520D01*
X-27696160Y23718520D02*
X-27545565Y23718520D01*
X-39248080Y1813560D02*
X-39512240Y1813560D01*
X-38506400Y2555240D02*
X-39248080Y1813560D01*
X-38506400Y8413602D02*
X-38506400Y2555240D01*
X-36810000Y11652000D02*
X-36810000Y10110002D01*
X-36810000Y10110002D02*
X-38506400Y8413602D01*
X-37988413Y13970000D02*
X-37268685Y13970000D01*
X-38706413Y13252000D02*
X-37988413Y13970000D01*
X-37268685Y13970000D02*
X-36703000Y13970000D01*
X-41704382Y13252000D02*
X-41743209Y13290827D01*
X-39910000Y13252000D02*
X-38706413Y13252000D01*
X-39910000Y13252000D02*
X-41704382Y13252000D01*
X-40640000Y25908000D02*
X-41402000Y26670000D01*
X-40014400Y25908000D02*
X-40640000Y25908000D01*
X-41801999Y27069999D02*
X-41402000Y26670000D01*
X-41840010Y27108010D02*
X-41801999Y27069999D01*
X-46733065Y27108010D02*
X-41840010Y27108010D01*
X-46967875Y26873200D02*
X-46733065Y27108010D01*
X-47533560Y26873200D02*
X-46967875Y26873200D01*
X-46568360Y25908000D02*
X-47533560Y26873200D01*
X-46098000Y25908000D02*
X-46568360Y25908000D01*
X-50292000Y-3386000D02*
X-50292000Y-2286000D01*
X-49766988Y-3911012D02*
X-50292000Y-3386000D01*
X-37478010Y-3911012D02*
X-49766988Y-3911012D01*
X-36416999Y-2850001D02*
X-37478010Y-3911012D01*
X-36576000Y2540000D02*
X-36416999Y2380999D01*
X-36416999Y2380999D02*
X-36416999Y-2850001D01*
X-50204201Y24432416D02*
X-49756794Y23985009D01*
X-49784000Y30988000D02*
X-49784000Y29888000D01*
X-49784000Y29888000D02*
X-50204201Y29467799D01*
X-50204201Y29467799D02*
X-50204201Y24432416D01*
X-49756794Y23985009D02*
X-49356795Y23585010D01*
X-39538000Y29464000D02*
X-39538000Y28539000D01*
X-39538000Y28539000D02*
X-39954120Y28122880D01*
X-39954120Y28122880D02*
X-48593476Y28122880D01*
X-48593476Y28122880D02*
X-49159161Y28122880D01*
X-43177891Y6785320D02*
X-43177891Y-578028D01*
X-41369960Y8593251D02*
X-43177891Y6785320D01*
X-43177891Y-578028D02*
X-42672000Y-1083919D01*
X-40008747Y8593251D02*
X-41369960Y8593251D01*
X-37810000Y11652000D02*
X-37810000Y10791998D01*
X-37810000Y10791998D02*
X-40008747Y8593251D01*
X-42672000Y-1083919D02*
X-42672000Y-2286000D01*
X-38310000Y11652000D02*
X-38947622Y11652000D01*
X-38947622Y11652000D02*
X-43627902Y6971720D01*
X-43627902Y6971720D02*
X-43627902Y-701902D01*
X-44362001Y-1436001D02*
X-45212000Y-2286000D01*
X-43627902Y-701902D02*
X-44362001Y-1436001D01*
X-40981999Y-1436001D02*
X-40132000Y-2286000D01*
X-42727880Y309880D02*
X-40981999Y-1436001D01*
X-42727880Y6598920D02*
X-42727880Y309880D01*
X-37310000Y11652000D02*
X-37310000Y10655587D01*
X-37310000Y10655587D02*
X-39822347Y8143240D01*
X-39822347Y8143240D02*
X-41183560Y8143240D01*
X-41183560Y8143240D02*
X-42727880Y6598920D01*
X-38056389Y7696615D02*
X-38056389Y-619530D01*
X-37592000Y-1083919D02*
X-37592000Y-2286000D01*
X-36310000Y9443004D02*
X-38056389Y7696615D01*
X-36310000Y11652000D02*
X-36310000Y9443004D01*
X-38056389Y-619530D02*
X-37592000Y-1083919D01*
X-20320000Y30480000D02*
X-19416882Y30480000D01*
X-17098602Y28161720D02*
X-17098602Y388895D01*
X-28599438Y25460383D02*
X-26330199Y25460383D01*
X-25902816Y25032999D02*
X-22103999Y25032999D01*
X-33810000Y20352000D02*
X-33810000Y21309410D01*
X-17098602Y388895D02*
X-17417995Y69502D01*
X-22103999Y25032999D02*
X-21887023Y25249975D01*
X-21887023Y25249975D02*
X-21887023Y28912977D01*
X-26330199Y25460383D02*
X-25902816Y25032999D01*
X-17417995Y69502D02*
X-17817994Y-330497D01*
X-33079399Y22040011D02*
X-32019810Y22040011D01*
X-33810000Y21309410D02*
X-33079399Y22040011D01*
X-21887023Y28912977D02*
X-20320000Y30480000D01*
X-19416882Y30480000D02*
X-17098602Y28161720D01*
X-32019810Y22040011D02*
X-28599438Y25460383D01*
X-17548613Y1028464D02*
X-17911990Y665087D01*
X-31833410Y21590000D02*
X-28413038Y25010372D01*
X-19304000Y27940000D02*
X-17548613Y26184613D01*
X-20320000Y27940000D02*
X-19304000Y27940000D01*
X-33310000Y21173000D02*
X-32892999Y21590000D01*
X-21437012Y25063575D02*
X-21437012Y26822988D01*
X-32892999Y21590000D02*
X-31833410Y21590000D01*
X-33310000Y20352000D02*
X-33310000Y21173000D01*
X-26516599Y25010372D02*
X-26089215Y24582988D01*
X-21917599Y24582988D02*
X-21437012Y25063575D01*
X-26089215Y24582988D02*
X-21917599Y24582988D01*
X-28413038Y25010372D02*
X-26516599Y25010372D01*
X-17548613Y26184613D02*
X-17548613Y1028464D01*
X-21437012Y26822988D02*
X-20320000Y27940000D01*
X-21731199Y24132977D02*
X-20464176Y25400000D01*
X-26315839Y24132977D02*
X-21731199Y24132977D01*
X-20464176Y25400000D02*
X-19153000Y25400000D01*
X-19153000Y25400000D02*
X-18034000Y24281000D01*
X-18636999Y1027899D02*
X-18636999Y226920D01*
X-18034000Y1630898D02*
X-18636999Y1027899D01*
X-26743223Y24560361D02*
X-26315839Y24132977D01*
X-28226639Y24560361D02*
X-26743223Y24560361D01*
X-21502001Y-1436001D02*
X-22352000Y-2286000D01*
X-32810000Y20352000D02*
X-32435000Y20352000D01*
X-18636999Y226920D02*
X-19683908Y-819989D01*
X-32435000Y20352000D02*
X-28226639Y24560361D01*
X-18034000Y24281000D02*
X-18034000Y1630898D01*
X-20885989Y-819989D02*
X-21502001Y-1436001D01*
X-19683908Y-819989D02*
X-20885989Y-819989D01*
X-51181000Y1905000D02*
X-52578000Y508000D01*
X-45860561Y7608437D02*
X-48515998Y4953000D01*
X-48515998Y4953000D02*
X-50419000Y4953000D01*
X-45860561Y8578441D02*
X-45860561Y7608437D01*
X-45092003Y9346999D02*
X-45860561Y8578441D01*
X-42747999Y9346999D02*
X-45092003Y9346999D01*
X-50419000Y4953000D02*
X-51181000Y4191000D01*
X-41882000Y14252000D02*
X-43554482Y12579518D01*
X-51181000Y4191000D02*
X-51181000Y1905000D01*
X-39910000Y14252000D02*
X-41882000Y14252000D01*
X-42747999Y11828001D02*
X-42747999Y9346999D01*
X-43554482Y12579518D02*
X-43554482Y12128478D01*
X-43554482Y12128478D02*
X-43319005Y11893001D01*
X-43319005Y11893001D02*
X-42812999Y11893001D01*
X-42812999Y11893001D02*
X-42747999Y11828001D01*
X-44990000Y6964000D02*
X-44990000Y1164000D01*
X-50038000Y4064000D02*
X-50038000Y4064000D01*
X-49439315Y4064000D02*
X-50005000Y4064000D01*
X-45740000Y6964000D02*
X-48640000Y4064000D01*
X-44990000Y6964000D02*
X-45740000Y6964000D01*
X-48640000Y4064000D02*
X-49439315Y4064000D01*
X-36810000Y21570000D02*
X-36810000Y20352000D01*
X-39878000Y24638000D02*
X-36810000Y21570000D01*
X-41205685Y24638000D02*
X-39878000Y24638000D01*
X-41402000Y25400000D02*
X-41402000Y24834315D01*
X-41402000Y24834315D02*
X-41205685Y24638000D01*
X-47117675Y24707990D02*
X-47498000Y25088315D01*
X-37310000Y21252000D02*
X-40245989Y24187989D01*
X-40245989Y24187989D02*
X-43237989Y24187989D01*
X-37310000Y20352000D02*
X-37310000Y21252000D01*
X-47498000Y25088315D02*
X-47498000Y25654000D01*
X-46597674Y24187989D02*
X-47498000Y25088315D01*
X-43237989Y24187989D02*
X-46597674Y24187989D01*
X-24765000Y22264921D02*
X-24021999Y23007922D01*
X-24765000Y19431000D02*
X-24765000Y22264921D01*
X-24021999Y23007922D02*
X-23622000Y23407921D01*
D35*
G36*
X-36304537Y34368494D02*
G01*
X-36363502Y34258180D01*
X-36399812Y34138482D01*
X-36412072Y34014000D01*
X-36412072Y33099864D01*
X-36531551Y33245449D01*
X-36704377Y33387284D01*
X-36901553Y33492676D01*
X-37115501Y33557577D01*
X-37338000Y33579491D01*
X-37560498Y33557577D01*
X-37774446Y33492676D01*
X-37971622Y33387284D01*
X-38144448Y33245449D01*
X-38286283Y33072623D01*
X-38391676Y32875447D01*
X-38456577Y32661499D01*
X-38473000Y32494752D01*
X-38473000Y31833249D01*
X-38456577Y31666502D01*
X-38391676Y31452554D01*
X-38286284Y31255377D01*
X-38144449Y31082551D01*
X-37971623Y30940716D01*
X-37774447Y30835324D01*
X-37560499Y30770423D01*
X-37338000Y30748509D01*
X-37115502Y30770423D01*
X-36901554Y30835324D01*
X-36704377Y30940716D01*
X-36531551Y31082551D01*
X-36389716Y31255377D01*
X-36284324Y31452553D01*
X-36221467Y31659764D01*
X-36128494Y31583463D01*
X-36018180Y31524498D01*
X-35898482Y31488188D01*
X-35774000Y31475928D01*
X-34674000Y31475928D01*
X-34549518Y31488188D01*
X-34429820Y31524498D01*
X-34319506Y31583463D01*
X-34222815Y31662815D01*
X-34143463Y31759506D01*
X-34084498Y31869820D01*
X-34048188Y31989518D01*
X-34035928Y32114000D01*
X-34035928Y34014000D01*
X-34048188Y34138482D01*
X-34084498Y34258180D01*
X-34143463Y34368494D01*
X-34162754Y34392000D01*
X-30885246Y34392000D01*
X-30904537Y34368494D01*
X-30963502Y34258180D01*
X-30999812Y34138482D01*
X-31012072Y34014000D01*
X-31012072Y32114000D01*
X-30999812Y31989518D01*
X-30963502Y31869820D01*
X-30904537Y31759506D01*
X-30825185Y31662815D01*
X-30728494Y31583463D01*
X-30618180Y31524498D01*
X-30498482Y31488188D01*
X-30374000Y31475928D01*
X-29274000Y31475928D01*
X-29149518Y31488188D01*
X-29066072Y31513501D01*
X-29066072Y31358000D01*
X-29053812Y31233518D01*
X-29017502Y31113820D01*
X-28958537Y31003506D01*
X-28879185Y30906815D01*
X-28782494Y30827463D01*
X-28672180Y30768498D01*
X-28552482Y30732188D01*
X-28428000Y30719928D01*
X-27937999Y30719928D01*
X-27937999Y29609020D01*
X-27941676Y29571688D01*
X-27937999Y29534355D01*
X-27931069Y29464000D01*
X-27927002Y29422703D01*
X-27883546Y29279442D01*
X-27812974Y29147412D01*
X-27756830Y29079001D01*
X-27718000Y29031687D01*
X-27689002Y29007889D01*
X-25890010Y27208896D01*
X-25890010Y27146759D01*
X-25850236Y26946800D01*
X-25772215Y26758442D01*
X-25740538Y26711034D01*
X-28707876Y26711034D01*
X-28745199Y26714710D01*
X-28782522Y26711034D01*
X-28782531Y26711034D01*
X-28894184Y26700037D01*
X-29036051Y26657003D01*
X-29037445Y26656580D01*
X-29169475Y26586008D01*
X-29253115Y26517366D01*
X-29285199Y26491035D01*
X-29308997Y26462037D01*
X-29820659Y25950374D01*
X-29868000Y25997715D01*
X-30037518Y26110983D01*
X-30225876Y26189004D01*
X-30425835Y26228778D01*
X-30625928Y26228778D01*
X-30625928Y26458000D01*
X-30638188Y26582482D01*
X-30674498Y26702180D01*
X-30733463Y26812494D01*
X-30812815Y26909185D01*
X-30909506Y26988537D01*
X-31014000Y27044391D01*
X-31014000Y27729015D01*
X-30972815Y27762815D01*
X-30893463Y27859506D01*
X-30834498Y27969820D01*
X-30798188Y28089518D01*
X-30785928Y28214000D01*
X-30785928Y30714000D01*
X-30798188Y30838482D01*
X-30834498Y30958180D01*
X-30893463Y31068494D01*
X-30972815Y31165185D01*
X-31069506Y31244537D01*
X-31179820Y31303502D01*
X-31299518Y31339812D01*
X-31424000Y31352072D01*
X-32124000Y31352072D01*
X-32248482Y31339812D01*
X-32368180Y31303502D01*
X-32478494Y31244537D01*
X-32524000Y31207191D01*
X-32569506Y31244537D01*
X-32679820Y31303502D01*
X-32799518Y31339812D01*
X-32924000Y31352072D01*
X-32988250Y31349000D01*
X-33147000Y31190250D01*
X-33147000Y29591000D01*
X-33127000Y29591000D01*
X-33127000Y29337000D01*
X-33147000Y29337000D01*
X-33147000Y27737750D01*
X-32988250Y27579000D01*
X-32924000Y27575928D01*
X-32799518Y27588188D01*
X-32679820Y27624498D01*
X-32569506Y27683463D01*
X-32533999Y27712602D01*
X-32533999Y27096072D01*
X-32764000Y27096072D01*
X-32888482Y27083812D01*
X-33008180Y27047502D01*
X-33118494Y26988537D01*
X-33215185Y26909185D01*
X-33228971Y26892387D01*
X-33300595Y27026386D01*
X-33411038Y27160962D01*
X-33545614Y27271405D01*
X-33699150Y27353472D01*
X-33865746Y27404008D01*
X-34039000Y27421072D01*
X-34789000Y27421072D01*
X-34962254Y27404008D01*
X-35128850Y27353472D01*
X-35282386Y27271405D01*
X-35416962Y27160962D01*
X-35527405Y27026386D01*
X-35609472Y26872850D01*
X-35660008Y26706254D01*
X-35677072Y26533000D01*
X-35677072Y25283000D01*
X-35660008Y25109746D01*
X-35609472Y24943150D01*
X-35527405Y24789614D01*
X-35416962Y24655038D01*
X-35389948Y24632868D01*
X-36321002Y23701813D01*
X-36350000Y23678015D01*
X-36373798Y23649017D01*
X-36373799Y23649016D01*
X-36444974Y23562290D01*
X-36515546Y23430260D01*
X-36539881Y23350035D01*
X-36557253Y23292764D01*
X-36559002Y23286999D01*
X-36573676Y23138014D01*
X-36569999Y23100682D01*
X-36569999Y22404801D01*
X-38925254Y24760055D01*
X-38900995Y24789614D01*
X-38818928Y24943150D01*
X-38768392Y25109746D01*
X-38751328Y25283000D01*
X-38751328Y26533000D01*
X-38477072Y26533000D01*
X-38477072Y25283000D01*
X-38460008Y25109746D01*
X-38409472Y24943150D01*
X-38327405Y24789614D01*
X-38216962Y24655038D01*
X-38082386Y24544595D01*
X-37928850Y24462528D01*
X-37762254Y24411992D01*
X-37589000Y24394928D01*
X-36839000Y24394928D01*
X-36665746Y24411992D01*
X-36499150Y24462528D01*
X-36345614Y24544595D01*
X-36211038Y24655038D01*
X-36100595Y24789614D01*
X-36018528Y24943150D01*
X-35967992Y25109746D01*
X-35950928Y25283000D01*
X-35950928Y26533000D01*
X-35967992Y26706254D01*
X-36018528Y26872850D01*
X-36100595Y27026386D01*
X-36211038Y27160962D01*
X-36345614Y27271405D01*
X-36499150Y27353472D01*
X-36665746Y27404008D01*
X-36839000Y27421072D01*
X-37589000Y27421072D01*
X-37762254Y27404008D01*
X-37928850Y27353472D01*
X-38082386Y27271405D01*
X-38216962Y27160962D01*
X-38327405Y27026386D01*
X-38409472Y26872850D01*
X-38460008Y26706254D01*
X-38477072Y26533000D01*
X-38751328Y26533000D01*
X-38768392Y26706254D01*
X-38818928Y26872850D01*
X-38900995Y27026386D01*
X-39011438Y27160962D01*
X-39146014Y27271405D01*
X-39299550Y27353472D01*
X-39466146Y27404008D01*
X-39639400Y27421072D01*
X-39654880Y27421072D01*
X-39529844Y27487906D01*
X-39414119Y27582879D01*
X-39390316Y27611883D01*
X-39027003Y27975196D01*
X-38997999Y27998999D01*
X-38903026Y28114724D01*
X-38849962Y28214000D01*
X-34262072Y28214000D01*
X-34249812Y28089518D01*
X-34213502Y27969820D01*
X-34154537Y27859506D01*
X-34075185Y27762815D01*
X-33978494Y27683463D01*
X-33868180Y27624498D01*
X-33748482Y27588188D01*
X-33624000Y27575928D01*
X-33559750Y27579000D01*
X-33401000Y27737750D01*
X-33401000Y29337000D01*
X-34100250Y29337000D01*
X-34259000Y29178250D01*
X-34262072Y28214000D01*
X-38849962Y28214000D01*
X-38832454Y28246753D01*
X-38788997Y28390014D01*
X-38788486Y28395205D01*
X-38705598Y28370062D01*
X-38542521Y28354000D01*
X-38133479Y28354000D01*
X-37970402Y28370062D01*
X-37761166Y28433532D01*
X-37568334Y28536604D01*
X-37399314Y28675314D01*
X-37260604Y28844334D01*
X-37157532Y29037166D01*
X-37094062Y29246402D01*
X-37072630Y29464000D01*
X-37094062Y29681598D01*
X-37157532Y29890834D01*
X-37260604Y30083666D01*
X-37399314Y30252686D01*
X-37568334Y30391396D01*
X-37761166Y30494468D01*
X-37970402Y30557938D01*
X-38133479Y30574000D01*
X-38542521Y30574000D01*
X-38705598Y30557938D01*
X-38829505Y30520352D01*
X-38886815Y30590185D01*
X-38983506Y30669537D01*
X-39066689Y30714000D01*
X-34262072Y30714000D01*
X-34259000Y29749750D01*
X-34100250Y29591000D01*
X-33401000Y29591000D01*
X-33401000Y31190250D01*
X-33559750Y31349000D01*
X-33624000Y31352072D01*
X-33748482Y31339812D01*
X-33868180Y31303502D01*
X-33978494Y31244537D01*
X-34075185Y31165185D01*
X-34154537Y31068494D01*
X-34213502Y30958180D01*
X-34249812Y30838482D01*
X-34262072Y30714000D01*
X-39066689Y30714000D01*
X-39093820Y30728502D01*
X-39213518Y30764812D01*
X-39338000Y30777072D01*
X-39738000Y30777072D01*
X-39862482Y30764812D01*
X-39863000Y30764655D01*
X-39863518Y30764812D01*
X-39988000Y30777072D01*
X-40388000Y30777072D01*
X-40512482Y30764812D01*
X-40513000Y30764655D01*
X-40513518Y30764812D01*
X-40638000Y30777072D01*
X-41038000Y30777072D01*
X-41162482Y30764812D01*
X-41163000Y30764655D01*
X-41163518Y30764812D01*
X-41288000Y30777072D01*
X-41688000Y30777072D01*
X-41812482Y30764812D01*
X-41815120Y30764012D01*
X-41906250Y30774000D01*
X-41974218Y30706032D01*
X-42042494Y30669537D01*
X-42139185Y30590185D01*
X-42211000Y30502678D01*
X-42211000Y30615250D01*
X-42369750Y30774000D01*
X-42472474Y30762741D01*
X-42591576Y30724521D01*
X-42700933Y30663800D01*
X-42796343Y30582912D01*
X-42846122Y30520239D01*
X-42970402Y30557938D01*
X-43133479Y30574000D01*
X-43542521Y30574000D01*
X-43705598Y30557938D01*
X-43914834Y30494468D01*
X-44107666Y30391396D01*
X-44276686Y30252686D01*
X-44415396Y30083666D01*
X-44518468Y29890834D01*
X-44581938Y29681598D01*
X-44603370Y29464000D01*
X-44581938Y29246402D01*
X-44518468Y29037166D01*
X-44435999Y28882880D01*
X-48455450Y28882880D01*
X-48499387Y28926817D01*
X-48668905Y29040085D01*
X-48857263Y29118106D01*
X-49057222Y29157880D01*
X-49261100Y29157880D01*
X-49444201Y29121459D01*
X-49444201Y29152998D01*
X-49273003Y29324196D01*
X-49243999Y29347999D01*
X-49149026Y29463724D01*
X-49129674Y29499928D01*
X-48934000Y29499928D01*
X-48809518Y29512188D01*
X-48689820Y29548498D01*
X-48579506Y29607463D01*
X-48482815Y29686815D01*
X-48403463Y29783506D01*
X-48344498Y29893820D01*
X-48320034Y29974466D01*
X-48244269Y29890412D01*
X-48010920Y29716359D01*
X-47748099Y29591175D01*
X-47600890Y29546524D01*
X-47371000Y29667845D01*
X-47371000Y30861000D01*
X-47117000Y30861000D01*
X-47117000Y29667845D01*
X-46887110Y29546524D01*
X-46739901Y29591175D01*
X-46477080Y29716359D01*
X-46243731Y29890412D01*
X-46048822Y30106645D01*
X-45899843Y30356748D01*
X-45802519Y30631109D01*
X-45923186Y30861000D01*
X-47117000Y30861000D01*
X-47371000Y30861000D01*
X-47391000Y30861000D01*
X-47391000Y31115000D01*
X-47371000Y31115000D01*
X-47371000Y32308155D01*
X-47117000Y32308155D01*
X-47117000Y31115000D01*
X-45923186Y31115000D01*
X-45802519Y31344891D01*
X-45899843Y31619252D01*
X-46048822Y31869355D01*
X-46243731Y32085588D01*
X-46477080Y32259641D01*
X-46739901Y32384825D01*
X-46887110Y32429476D01*
X-47117000Y32308155D01*
X-47371000Y32308155D01*
X-47600890Y32429476D01*
X-47748099Y32384825D01*
X-48010920Y32259641D01*
X-48244269Y32085588D01*
X-48320034Y32001534D01*
X-48344498Y32082180D01*
X-48403463Y32192494D01*
X-48482815Y32289185D01*
X-48579506Y32368537D01*
X-48689820Y32427502D01*
X-48809518Y32463812D01*
X-48934000Y32476072D01*
X-50634000Y32476072D01*
X-50758482Y32463812D01*
X-50878180Y32427502D01*
X-50988494Y32368537D01*
X-51085185Y32289185D01*
X-51164537Y32192494D01*
X-51223502Y32082180D01*
X-51259812Y31962482D01*
X-51272072Y31838000D01*
X-51272072Y30138000D01*
X-51259812Y30013518D01*
X-51223502Y29893820D01*
X-51164537Y29783506D01*
X-51085185Y29686815D01*
X-50988494Y29607463D01*
X-50955841Y29590009D01*
X-50964201Y29505131D01*
X-50964201Y29505121D01*
X-50967877Y29467799D01*
X-50964201Y29430476D01*
X-50964200Y24469748D01*
X-50967877Y24432416D01*
X-50964200Y24395083D01*
X-50953203Y24283430D01*
X-50952466Y24281000D01*
X-50909747Y24140170D01*
X-50839175Y24008140D01*
X-50768000Y23921414D01*
X-50744201Y23892415D01*
X-50715203Y23868617D01*
X-50466586Y23620000D01*
X-50553117Y23620000D01*
X-50812116Y23878998D01*
X-50835918Y23908001D01*
X-50951643Y24002974D01*
X-51083672Y24073546D01*
X-51226933Y24117003D01*
X-51298284Y24124031D01*
X-51337294Y24197014D01*
X-51522866Y24423134D01*
X-51748986Y24608706D01*
X-51813523Y24643201D01*
X-51696645Y24712822D01*
X-51480412Y24907731D01*
X-51306359Y25141080D01*
X-51181175Y25403901D01*
X-51136524Y25551110D01*
X-51257845Y25781000D01*
X-52451000Y25781000D01*
X-52451000Y25761000D01*
X-52705000Y25761000D01*
X-52705000Y25781000D01*
X-53898155Y25781000D01*
X-54019476Y25551110D01*
X-53974825Y25403901D01*
X-53849641Y25141080D01*
X-53675588Y24907731D01*
X-53459355Y24712822D01*
X-53342477Y24643201D01*
X-53407014Y24608706D01*
X-53633134Y24423134D01*
X-53818706Y24197014D01*
X-53956599Y23939034D01*
X-54041513Y23659111D01*
X-54070185Y23368000D01*
X-54041513Y23076889D01*
X-53956599Y22796966D01*
X-53818706Y22538986D01*
X-53633134Y22312866D01*
X-53407014Y22127294D01*
X-53352209Y22098000D01*
X-53407014Y22068706D01*
X-53633134Y21883134D01*
X-53818706Y21657014D01*
X-53956599Y21399034D01*
X-54041513Y21119111D01*
X-54070185Y20828000D01*
X-54041513Y20536889D01*
X-53956599Y20256966D01*
X-53818706Y19998986D01*
X-53633134Y19772866D01*
X-53407014Y19587294D01*
X-53352209Y19558000D01*
X-53407014Y19528706D01*
X-53633134Y19343134D01*
X-53818706Y19117014D01*
X-53956599Y18859034D01*
X-54041513Y18579111D01*
X-54070185Y18288000D01*
X-54041513Y17996889D01*
X-53956599Y17716966D01*
X-53818706Y17458986D01*
X-53633134Y17232866D01*
X-53407014Y17047294D01*
X-53352209Y17018000D01*
X-53407014Y16988706D01*
X-53633134Y16803134D01*
X-53818706Y16577014D01*
X-53956599Y16319034D01*
X-54041513Y16039111D01*
X-54070185Y15748000D01*
X-54041513Y15456889D01*
X-53956599Y15176966D01*
X-53818706Y14918986D01*
X-53633134Y14692866D01*
X-53407014Y14507294D01*
X-53352209Y14478000D01*
X-53407014Y14448706D01*
X-53633134Y14263134D01*
X-53818706Y14037014D01*
X-53956599Y13779034D01*
X-54041513Y13499111D01*
X-54070185Y13208000D01*
X-54041513Y12916889D01*
X-53956599Y12636966D01*
X-53818706Y12378986D01*
X-53633134Y12152866D01*
X-53407014Y11967294D01*
X-53352209Y11938000D01*
X-53407014Y11908706D01*
X-53633134Y11723134D01*
X-53818706Y11497014D01*
X-53956599Y11239034D01*
X-54041513Y10959111D01*
X-54070185Y10668000D01*
X-54041513Y10376889D01*
X-53956599Y10096966D01*
X-53818706Y9838986D01*
X-53633134Y9612866D01*
X-53407014Y9427294D01*
X-53352209Y9398000D01*
X-53407014Y9368706D01*
X-53633134Y9183134D01*
X-53818706Y8957014D01*
X-53956599Y8699034D01*
X-54041513Y8419111D01*
X-54070185Y8128000D01*
X-54041513Y7836889D01*
X-53956599Y7556966D01*
X-53818706Y7298986D01*
X-53633134Y7072866D01*
X-53407014Y6887294D01*
X-53352209Y6858000D01*
X-53407014Y6828706D01*
X-53633134Y6643134D01*
X-53818706Y6417014D01*
X-53956599Y6159034D01*
X-54041513Y5879111D01*
X-54070185Y5588000D01*
X-54041513Y5296889D01*
X-53956599Y5016966D01*
X-53818706Y4758986D01*
X-53633134Y4532866D01*
X-53407014Y4347294D01*
X-53352209Y4318000D01*
X-53407014Y4288706D01*
X-53633134Y4103134D01*
X-53818706Y3877014D01*
X-53956599Y3619034D01*
X-54041513Y3339111D01*
X-54070185Y3048000D01*
X-54041513Y2756889D01*
X-53956599Y2476966D01*
X-53818706Y2218986D01*
X-53633134Y1992866D01*
X-53407014Y1807294D01*
X-53352209Y1778000D01*
X-53407014Y1748706D01*
X-53633134Y1563134D01*
X-53818706Y1337014D01*
X-53956599Y1079034D01*
X-54041513Y799111D01*
X-54070185Y508000D01*
X-54041513Y216889D01*
X-53956599Y-63034D01*
X-53818706Y-321014D01*
X-53633134Y-547134D01*
X-53407014Y-732706D01*
X-53149034Y-870599D01*
X-52869111Y-955513D01*
X-52650950Y-977000D01*
X-52505050Y-977000D01*
X-52286889Y-955513D01*
X-52006966Y-870599D01*
X-51748986Y-732706D01*
X-51522866Y-547134D01*
X-51337294Y-321014D01*
X-51199401Y-63034D01*
X-51114487Y216889D01*
X-51085815Y508000D01*
X-51114487Y799111D01*
X-51137203Y873995D01*
X-50669997Y1341201D01*
X-50640999Y1364999D01*
X-50546026Y1480724D01*
X-50475454Y1612753D01*
X-50431997Y1756014D01*
X-50421000Y1867667D01*
X-50421000Y1867676D01*
X-50417324Y1904999D01*
X-50421000Y1942322D01*
X-50421000Y3116037D01*
X-50306898Y3068774D01*
X-50106939Y3029000D01*
X-49924351Y3029000D01*
X-49941185Y3015185D01*
X-50020537Y2918494D01*
X-50079502Y2808180D01*
X-50115812Y2688482D01*
X-50128072Y2564000D01*
X-50125000Y1449750D01*
X-49966250Y1291000D01*
X-49117000Y1291000D01*
X-49117000Y3040250D01*
X-48863000Y3040250D01*
X-48863000Y1291000D01*
X-48013750Y1291000D01*
X-47855000Y1449750D01*
X-47851928Y2564000D01*
X-47864188Y2688482D01*
X-47900498Y2808180D01*
X-47959463Y2918494D01*
X-48038815Y3015185D01*
X-48135506Y3094537D01*
X-48245820Y3153502D01*
X-48365518Y3189812D01*
X-48490000Y3202072D01*
X-48704250Y3199000D01*
X-48863000Y3040250D01*
X-49117000Y3040250D01*
X-49275750Y3199000D01*
X-49433234Y3201258D01*
X-49345226Y3260063D01*
X-49301289Y3304000D01*
X-48677322Y3304000D01*
X-48640000Y3300324D01*
X-48602678Y3304000D01*
X-48602667Y3304000D01*
X-48491014Y3314997D01*
X-48347753Y3358454D01*
X-48215724Y3429026D01*
X-48099999Y3523999D01*
X-48076196Y3553003D01*
X-46122435Y5506763D01*
X-46115812Y5439518D01*
X-46079502Y5319820D01*
X-46020537Y5209506D01*
X-45941185Y5112815D01*
X-45844494Y5033463D01*
X-45750000Y4982954D01*
X-45749999Y3145046D01*
X-45844494Y3094537D01*
X-45941185Y3015185D01*
X-46020537Y2918494D01*
X-46079502Y2808180D01*
X-46115812Y2688482D01*
X-46128072Y2564000D01*
X-46128072Y-236000D01*
X-46115812Y-360482D01*
X-46079502Y-480180D01*
X-46020537Y-590494D01*
X-45941185Y-687185D01*
X-45844494Y-766537D01*
X-45734180Y-825502D01*
X-45623615Y-859042D01*
X-45783034Y-907401D01*
X-46041014Y-1045294D01*
X-46267134Y-1230866D01*
X-46452706Y-1456986D01*
X-46487201Y-1521523D01*
X-46556822Y-1404645D01*
X-46751731Y-1188412D01*
X-46985080Y-1014359D01*
X-47247901Y-889175D01*
X-47395110Y-844524D01*
X-47625000Y-965845D01*
X-47625000Y-2159000D01*
X-47605000Y-2159000D01*
X-47605000Y-2413000D01*
X-47625000Y-2413000D01*
X-47625000Y-2433000D01*
X-47879000Y-2433000D01*
X-47879000Y-2413000D01*
X-47899000Y-2413000D01*
X-47899000Y-2159000D01*
X-47879000Y-2159000D01*
X-47879000Y-965845D01*
X-48108890Y-844524D01*
X-48256099Y-889175D01*
X-48518920Y-1014359D01*
X-48752269Y-1188412D01*
X-48828034Y-1272466D01*
X-48852498Y-1191820D01*
X-48911463Y-1081506D01*
X-48990815Y-984815D01*
X-49087506Y-905463D01*
X-49197820Y-846498D01*
X-49238813Y-834063D01*
X-49117000Y-712250D01*
X-49117000Y1037000D01*
X-48863000Y1037000D01*
X-48863000Y-712250D01*
X-48704250Y-871000D01*
X-48490000Y-874072D01*
X-48365518Y-861812D01*
X-48245820Y-825502D01*
X-48135506Y-766537D01*
X-48038815Y-687185D01*
X-47959463Y-590494D01*
X-47900498Y-480180D01*
X-47864188Y-360482D01*
X-47851928Y-236000D01*
X-47855000Y878250D01*
X-48013750Y1037000D01*
X-48863000Y1037000D01*
X-49117000Y1037000D01*
X-49966250Y1037000D01*
X-50125000Y878250D01*
X-50128072Y-236000D01*
X-50115812Y-360482D01*
X-50079502Y-480180D01*
X-50020537Y-590494D01*
X-49941185Y-687185D01*
X-49844494Y-766537D01*
X-49785767Y-797928D01*
X-51142000Y-797928D01*
X-51266482Y-810188D01*
X-51386180Y-846498D01*
X-51496494Y-905463D01*
X-51593185Y-984815D01*
X-51672537Y-1081506D01*
X-51731502Y-1191820D01*
X-51767812Y-1311518D01*
X-51780072Y-1436000D01*
X-51780072Y-3136000D01*
X-51767812Y-3260482D01*
X-51731502Y-3380180D01*
X-51672537Y-3490494D01*
X-51593185Y-3587185D01*
X-51496494Y-3666537D01*
X-51386180Y-3725502D01*
X-51266482Y-3761812D01*
X-51142000Y-3774072D01*
X-50946326Y-3774072D01*
X-50926974Y-3810276D01*
X-50887129Y-3858826D01*
X-50832001Y-3926001D01*
X-50802998Y-3949803D01*
X-50330788Y-4422014D01*
X-50306989Y-4451013D01*
X-50277991Y-4474811D01*
X-50191265Y-4545986D01*
X-50059235Y-4616558D01*
X-49915974Y-4660015D01*
X-49804321Y-4671012D01*
X-49804312Y-4671012D01*
X-49766989Y-4674688D01*
X-49729666Y-4671012D01*
X-37515332Y-4671012D01*
X-37478010Y-4674688D01*
X-37440688Y-4671012D01*
X-37440677Y-4671012D01*
X-37329024Y-4660015D01*
X-37185763Y-4616558D01*
X-37053734Y-4545986D01*
X-36938009Y-4451013D01*
X-36914206Y-4422010D01*
X-35956748Y-3464552D01*
X-35881014Y-3526706D01*
X-35623034Y-3664599D01*
X-35343111Y-3749513D01*
X-35124950Y-3771000D01*
X-34979050Y-3771000D01*
X-34760889Y-3749513D01*
X-34480966Y-3664599D01*
X-34222986Y-3526706D01*
X-33996866Y-3341134D01*
X-33811294Y-3115014D01*
X-33782000Y-3060209D01*
X-33752706Y-3115014D01*
X-33567134Y-3341134D01*
X-33341014Y-3526706D01*
X-33083034Y-3664599D01*
X-32803111Y-3749513D01*
X-32584950Y-3771000D01*
X-32439050Y-3771000D01*
X-32220889Y-3749513D01*
X-31940966Y-3664599D01*
X-31682986Y-3526706D01*
X-31456866Y-3341134D01*
X-31271294Y-3115014D01*
X-31242000Y-3060209D01*
X-31212706Y-3115014D01*
X-31027134Y-3341134D01*
X-30801014Y-3526706D01*
X-30543034Y-3664599D01*
X-30263111Y-3749513D01*
X-30044950Y-3771000D01*
X-29899050Y-3771000D01*
X-29680889Y-3749513D01*
X-29606005Y-3726797D01*
X-29360798Y-3972004D01*
X-29337000Y-4001002D01*
X-29221275Y-4095975D01*
X-29089246Y-4166547D01*
X-28945985Y-4210004D01*
X-28834332Y-4221001D01*
X-28834323Y-4221001D01*
X-28797000Y-4224677D01*
X-28759677Y-4221001D01*
X-21825321Y-4221001D01*
X-21787999Y-4224677D01*
X-21750677Y-4221001D01*
X-21750666Y-4221001D01*
X-21639013Y-4210004D01*
X-21495752Y-4166547D01*
X-21363723Y-4095975D01*
X-21247998Y-4001002D01*
X-21224195Y-3971998D01*
X-19282196Y-2030000D01*
X-18745236Y-2030000D01*
X-18823250Y-2045518D01*
X-19157199Y-2183844D01*
X-19457744Y-2384662D01*
X-19713338Y-2640256D01*
X-19914156Y-2940801D01*
X-20052482Y-3274750D01*
X-20123000Y-3629268D01*
X-20123000Y-3990732D01*
X-20052482Y-4345250D01*
X-19914156Y-4679199D01*
X-19713338Y-4979744D01*
X-19457744Y-5235338D01*
X-19157199Y-5436156D01*
X-18823250Y-5574482D01*
X-18468732Y-5645000D01*
X-18107268Y-5645000D01*
X-17752750Y-5574482D01*
X-17418801Y-5436156D01*
X-17118256Y-5235338D01*
X-16862662Y-4979744D01*
X-16661844Y-4679199D01*
X-16523518Y-4345250D01*
X-16453000Y-3990732D01*
X-16453000Y-3629268D01*
X-16523518Y-3274750D01*
X-16661844Y-2940801D01*
X-16862662Y-2640256D01*
X-17118256Y-2384662D01*
X-17418801Y-2183844D01*
X-17752750Y-2045518D01*
X-17830764Y-2030000D01*
X-17769499Y-2030000D01*
X-17732177Y-2033676D01*
X-17694855Y-2030000D01*
X-17694844Y-2030000D01*
X-17583191Y-2019003D01*
X-17439930Y-1975546D01*
X-17307901Y-1904974D01*
X-17192176Y-1810001D01*
X-17168373Y-1780998D01*
X-16407999Y-1020624D01*
X-16407999Y-5690000D01*
X-55982000Y-5690000D01*
X-55982000Y-3629268D01*
X-55937000Y-3629268D01*
X-55937000Y-3990732D01*
X-55866482Y-4345250D01*
X-55728156Y-4679199D01*
X-55527338Y-4979744D01*
X-55271744Y-5235338D01*
X-54971199Y-5436156D01*
X-54637250Y-5574482D01*
X-54282732Y-5645000D01*
X-53921268Y-5645000D01*
X-53566750Y-5574482D01*
X-53232801Y-5436156D01*
X-52932256Y-5235338D01*
X-52676662Y-4979744D01*
X-52475844Y-4679199D01*
X-52337518Y-4345250D01*
X-52267000Y-3990732D01*
X-52267000Y-3629268D01*
X-52337518Y-3274750D01*
X-52475844Y-2940801D01*
X-52676662Y-2640256D01*
X-52932256Y-2384662D01*
X-53232801Y-2183844D01*
X-53566750Y-2045518D01*
X-53921268Y-1975000D01*
X-54282732Y-1975000D01*
X-54637250Y-2045518D01*
X-54971199Y-2183844D01*
X-55271744Y-2384662D01*
X-55527338Y-2640256D01*
X-55728156Y-2940801D01*
X-55866482Y-3274750D01*
X-55937000Y-3629268D01*
X-55982000Y-3629268D01*
X-55982000Y29298000D01*
X-54066072Y29298000D01*
X-54066072Y27598000D01*
X-54053812Y27473518D01*
X-54017502Y27353820D01*
X-53958537Y27243506D01*
X-53879185Y27146815D01*
X-53782494Y27067463D01*
X-53672180Y27008498D01*
X-53591534Y26984034D01*
X-53675588Y26908269D01*
X-53849641Y26674920D01*
X-53974825Y26412099D01*
X-54019476Y26264890D01*
X-53898155Y26035000D01*
X-52705000Y26035000D01*
X-52705000Y26055000D01*
X-52451000Y26055000D01*
X-52451000Y26035000D01*
X-51257845Y26035000D01*
X-51136524Y26264890D01*
X-51181175Y26412099D01*
X-51306359Y26674920D01*
X-51480412Y26908269D01*
X-51564466Y26984034D01*
X-51483820Y27008498D01*
X-51373506Y27067463D01*
X-51276815Y27146815D01*
X-51197463Y27243506D01*
X-51138498Y27353820D01*
X-51102188Y27473518D01*
X-51089928Y27598000D01*
X-51089928Y29298000D01*
X-51102188Y29422482D01*
X-51138498Y29542180D01*
X-51197463Y29652494D01*
X-51276815Y29749185D01*
X-51373506Y29828537D01*
X-51483820Y29887502D01*
X-51603518Y29923812D01*
X-51728000Y29936072D01*
X-53428000Y29936072D01*
X-53552482Y29923812D01*
X-53672180Y29887502D01*
X-53782494Y29828537D01*
X-53879185Y29749185D01*
X-53958537Y29652494D01*
X-54017502Y29542180D01*
X-54053812Y29422482D01*
X-54066072Y29298000D01*
X-55982000Y29298000D01*
X-55982000Y32692732D01*
X-55937000Y32692732D01*
X-55937000Y32331268D01*
X-55866482Y31976750D01*
X-55728156Y31642801D01*
X-55527338Y31342256D01*
X-55271744Y31086662D01*
X-54971199Y30885844D01*
X-54637250Y30747518D01*
X-54282732Y30677000D01*
X-53921268Y30677000D01*
X-53566750Y30747518D01*
X-53232801Y30885844D01*
X-52932256Y31086662D01*
X-52676662Y31342256D01*
X-52475844Y31642801D01*
X-52337518Y31976750D01*
X-52267000Y32331268D01*
X-52267000Y32494752D01*
X-45473000Y32494752D01*
X-45473000Y31833249D01*
X-45456577Y31666502D01*
X-45391676Y31452554D01*
X-45286284Y31255377D01*
X-45144449Y31082551D01*
X-44971623Y30940716D01*
X-44774447Y30835324D01*
X-44560499Y30770423D01*
X-44338000Y30748509D01*
X-44115502Y30770423D01*
X-43901554Y30835324D01*
X-43704377Y30940716D01*
X-43531551Y31082551D01*
X-43389716Y31255377D01*
X-43284324Y31452553D01*
X-43219423Y31666501D01*
X-43203000Y31833248D01*
X-43203000Y32494751D01*
X-43219423Y32661498D01*
X-43284324Y32875446D01*
X-43389716Y33072623D01*
X-43531551Y33245449D01*
X-43704377Y33387284D01*
X-43901553Y33492676D01*
X-44115501Y33557577D01*
X-44338000Y33579491D01*
X-44560498Y33557577D01*
X-44774446Y33492676D01*
X-44971622Y33387284D01*
X-45144448Y33245449D01*
X-45286283Y33072623D01*
X-45391676Y32875447D01*
X-45456577Y32661499D01*
X-45473000Y32494752D01*
X-52267000Y32494752D01*
X-52267000Y32692732D01*
X-52337518Y33047250D01*
X-52475844Y33381199D01*
X-52676662Y33681744D01*
X-52932256Y33937338D01*
X-53232801Y34138156D01*
X-53566750Y34276482D01*
X-53921268Y34347000D01*
X-54282732Y34347000D01*
X-54637250Y34276482D01*
X-54971199Y34138156D01*
X-55271744Y33937338D01*
X-55527338Y33681744D01*
X-55728156Y33381199D01*
X-55866482Y33047250D01*
X-55937000Y32692732D01*
X-55982000Y32692732D01*
X-55982000Y34392000D01*
X-36285246Y34392000D01*
X-36304537Y34368494D01*
X-36304537Y34368494D01*
G37*
X-36304537Y34368494D02*
X-36363502Y34258180D01*
X-36399812Y34138482D01*
X-36412072Y34014000D01*
X-36412072Y33099864D01*
X-36531551Y33245449D01*
X-36704377Y33387284D01*
X-36901553Y33492676D01*
X-37115501Y33557577D01*
X-37338000Y33579491D01*
X-37560498Y33557577D01*
X-37774446Y33492676D01*
X-37971622Y33387284D01*
X-38144448Y33245449D01*
X-38286283Y33072623D01*
X-38391676Y32875447D01*
X-38456577Y32661499D01*
X-38473000Y32494752D01*
X-38473000Y31833249D01*
X-38456577Y31666502D01*
X-38391676Y31452554D01*
X-38286284Y31255377D01*
X-38144449Y31082551D01*
X-37971623Y30940716D01*
X-37774447Y30835324D01*
X-37560499Y30770423D01*
X-37338000Y30748509D01*
X-37115502Y30770423D01*
X-36901554Y30835324D01*
X-36704377Y30940716D01*
X-36531551Y31082551D01*
X-36389716Y31255377D01*
X-36284324Y31452553D01*
X-36221467Y31659764D01*
X-36128494Y31583463D01*
X-36018180Y31524498D01*
X-35898482Y31488188D01*
X-35774000Y31475928D01*
X-34674000Y31475928D01*
X-34549518Y31488188D01*
X-34429820Y31524498D01*
X-34319506Y31583463D01*
X-34222815Y31662815D01*
X-34143463Y31759506D01*
X-34084498Y31869820D01*
X-34048188Y31989518D01*
X-34035928Y32114000D01*
X-34035928Y34014000D01*
X-34048188Y34138482D01*
X-34084498Y34258180D01*
X-34143463Y34368494D01*
X-34162754Y34392000D01*
X-30885246Y34392000D01*
X-30904537Y34368494D01*
X-30963502Y34258180D01*
X-30999812Y34138482D01*
X-31012072Y34014000D01*
X-31012072Y32114000D01*
X-30999812Y31989518D01*
X-30963502Y31869820D01*
X-30904537Y31759506D01*
X-30825185Y31662815D01*
X-30728494Y31583463D01*
X-30618180Y31524498D01*
X-30498482Y31488188D01*
X-30374000Y31475928D01*
X-29274000Y31475928D01*
X-29149518Y31488188D01*
X-29066072Y31513501D01*
X-29066072Y31358000D01*
X-29053812Y31233518D01*
X-29017502Y31113820D01*
X-28958537Y31003506D01*
X-28879185Y30906815D01*
X-28782494Y30827463D01*
X-28672180Y30768498D01*
X-28552482Y30732188D01*
X-28428000Y30719928D01*
X-27937999Y30719928D01*
X-27937999Y29609020D01*
X-27941676Y29571688D01*
X-27937999Y29534355D01*
X-27931069Y29464000D01*
X-27927002Y29422703D01*
X-27883546Y29279442D01*
X-27812974Y29147412D01*
X-27756830Y29079001D01*
X-27718000Y29031687D01*
X-27689002Y29007889D01*
X-25890010Y27208896D01*
X-25890010Y27146759D01*
X-25850236Y26946800D01*
X-25772215Y26758442D01*
X-25740538Y26711034D01*
X-28707876Y26711034D01*
X-28745199Y26714710D01*
X-28782522Y26711034D01*
X-28782531Y26711034D01*
X-28894184Y26700037D01*
X-29036051Y26657003D01*
X-29037445Y26656580D01*
X-29169475Y26586008D01*
X-29253115Y26517366D01*
X-29285199Y26491035D01*
X-29308997Y26462037D01*
X-29820659Y25950374D01*
X-29868000Y25997715D01*
X-30037518Y26110983D01*
X-30225876Y26189004D01*
X-30425835Y26228778D01*
X-30625928Y26228778D01*
X-30625928Y26458000D01*
X-30638188Y26582482D01*
X-30674498Y26702180D01*
X-30733463Y26812494D01*
X-30812815Y26909185D01*
X-30909506Y26988537D01*
X-31014000Y27044391D01*
X-31014000Y27729015D01*
X-30972815Y27762815D01*
X-30893463Y27859506D01*
X-30834498Y27969820D01*
X-30798188Y28089518D01*
X-30785928Y28214000D01*
X-30785928Y30714000D01*
X-30798188Y30838482D01*
X-30834498Y30958180D01*
X-30893463Y31068494D01*
X-30972815Y31165185D01*
X-31069506Y31244537D01*
X-31179820Y31303502D01*
X-31299518Y31339812D01*
X-31424000Y31352072D01*
X-32124000Y31352072D01*
X-32248482Y31339812D01*
X-32368180Y31303502D01*
X-32478494Y31244537D01*
X-32524000Y31207191D01*
X-32569506Y31244537D01*
X-32679820Y31303502D01*
X-32799518Y31339812D01*
X-32924000Y31352072D01*
X-32988250Y31349000D01*
X-33147000Y31190250D01*
X-33147000Y29591000D01*
X-33127000Y29591000D01*
X-33127000Y29337000D01*
X-33147000Y29337000D01*
X-33147000Y27737750D01*
X-32988250Y27579000D01*
X-32924000Y27575928D01*
X-32799518Y27588188D01*
X-32679820Y27624498D01*
X-32569506Y27683463D01*
X-32533999Y27712602D01*
X-32533999Y27096072D01*
X-32764000Y27096072D01*
X-32888482Y27083812D01*
X-33008180Y27047502D01*
X-33118494Y26988537D01*
X-33215185Y26909185D01*
X-33228971Y26892387D01*
X-33300595Y27026386D01*
X-33411038Y27160962D01*
X-33545614Y27271405D01*
X-33699150Y27353472D01*
X-33865746Y27404008D01*
X-34039000Y27421072D01*
X-34789000Y27421072D01*
X-34962254Y27404008D01*
X-35128850Y27353472D01*
X-35282386Y27271405D01*
X-35416962Y27160962D01*
X-35527405Y27026386D01*
X-35609472Y26872850D01*
X-35660008Y26706254D01*
X-35677072Y26533000D01*
X-35677072Y25283000D01*
X-35660008Y25109746D01*
X-35609472Y24943150D01*
X-35527405Y24789614D01*
X-35416962Y24655038D01*
X-35389948Y24632868D01*
X-36321002Y23701813D01*
X-36350000Y23678015D01*
X-36373798Y23649017D01*
X-36373799Y23649016D01*
X-36444974Y23562290D01*
X-36515546Y23430260D01*
X-36539881Y23350035D01*
X-36557253Y23292764D01*
X-36559002Y23286999D01*
X-36573676Y23138014D01*
X-36569999Y23100682D01*
X-36569999Y22404801D01*
X-38925254Y24760055D01*
X-38900995Y24789614D01*
X-38818928Y24943150D01*
X-38768392Y25109746D01*
X-38751328Y25283000D01*
X-38751328Y26533000D01*
X-38477072Y26533000D01*
X-38477072Y25283000D01*
X-38460008Y25109746D01*
X-38409472Y24943150D01*
X-38327405Y24789614D01*
X-38216962Y24655038D01*
X-38082386Y24544595D01*
X-37928850Y24462528D01*
X-37762254Y24411992D01*
X-37589000Y24394928D01*
X-36839000Y24394928D01*
X-36665746Y24411992D01*
X-36499150Y24462528D01*
X-36345614Y24544595D01*
X-36211038Y24655038D01*
X-36100595Y24789614D01*
X-36018528Y24943150D01*
X-35967992Y25109746D01*
X-35950928Y25283000D01*
X-35950928Y26533000D01*
X-35967992Y26706254D01*
X-36018528Y26872850D01*
X-36100595Y27026386D01*
X-36211038Y27160962D01*
X-36345614Y27271405D01*
X-36499150Y27353472D01*
X-36665746Y27404008D01*
X-36839000Y27421072D01*
X-37589000Y27421072D01*
X-37762254Y27404008D01*
X-37928850Y27353472D01*
X-38082386Y27271405D01*
X-38216962Y27160962D01*
X-38327405Y27026386D01*
X-38409472Y26872850D01*
X-38460008Y26706254D01*
X-38477072Y26533000D01*
X-38751328Y26533000D01*
X-38768392Y26706254D01*
X-38818928Y26872850D01*
X-38900995Y27026386D01*
X-39011438Y27160962D01*
X-39146014Y27271405D01*
X-39299550Y27353472D01*
X-39466146Y27404008D01*
X-39639400Y27421072D01*
X-39654880Y27421072D01*
X-39529844Y27487906D01*
X-39414119Y27582879D01*
X-39390316Y27611883D01*
X-39027003Y27975196D01*
X-38997999Y27998999D01*
X-38903026Y28114724D01*
X-38849962Y28214000D01*
X-34262072Y28214000D01*
X-34249812Y28089518D01*
X-34213502Y27969820D01*
X-34154537Y27859506D01*
X-34075185Y27762815D01*
X-33978494Y27683463D01*
X-33868180Y27624498D01*
X-33748482Y27588188D01*
X-33624000Y27575928D01*
X-33559750Y27579000D01*
X-33401000Y27737750D01*
X-33401000Y29337000D01*
X-34100250Y29337000D01*
X-34259000Y29178250D01*
X-34262072Y28214000D01*
X-38849962Y28214000D01*
X-38832454Y28246753D01*
X-38788997Y28390014D01*
X-38788486Y28395205D01*
X-38705598Y28370062D01*
X-38542521Y28354000D01*
X-38133479Y28354000D01*
X-37970402Y28370062D01*
X-37761166Y28433532D01*
X-37568334Y28536604D01*
X-37399314Y28675314D01*
X-37260604Y28844334D01*
X-37157532Y29037166D01*
X-37094062Y29246402D01*
X-37072630Y29464000D01*
X-37094062Y29681598D01*
X-37157532Y29890834D01*
X-37260604Y30083666D01*
X-37399314Y30252686D01*
X-37568334Y30391396D01*
X-37761166Y30494468D01*
X-37970402Y30557938D01*
X-38133479Y30574000D01*
X-38542521Y30574000D01*
X-38705598Y30557938D01*
X-38829505Y30520352D01*
X-38886815Y30590185D01*
X-38983506Y30669537D01*
X-39066689Y30714000D01*
X-34262072Y30714000D01*
X-34259000Y29749750D01*
X-34100250Y29591000D01*
X-33401000Y29591000D01*
X-33401000Y31190250D01*
X-33559750Y31349000D01*
X-33624000Y31352072D01*
X-33748482Y31339812D01*
X-33868180Y31303502D01*
X-33978494Y31244537D01*
X-34075185Y31165185D01*
X-34154537Y31068494D01*
X-34213502Y30958180D01*
X-34249812Y30838482D01*
X-34262072Y30714000D01*
X-39066689Y30714000D01*
X-39093820Y30728502D01*
X-39213518Y30764812D01*
X-39338000Y30777072D01*
X-39738000Y30777072D01*
X-39862482Y30764812D01*
X-39863000Y30764655D01*
X-39863518Y30764812D01*
X-39988000Y30777072D01*
X-40388000Y30777072D01*
X-40512482Y30764812D01*
X-40513000Y30764655D01*
X-40513518Y30764812D01*
X-40638000Y30777072D01*
X-41038000Y30777072D01*
X-41162482Y30764812D01*
X-41163000Y30764655D01*
X-41163518Y30764812D01*
X-41288000Y30777072D01*
X-41688000Y30777072D01*
X-41812482Y30764812D01*
X-41815120Y30764012D01*
X-41906250Y30774000D01*
X-41974218Y30706032D01*
X-42042494Y30669537D01*
X-42139185Y30590185D01*
X-42211000Y30502678D01*
X-42211000Y30615250D01*
X-42369750Y30774000D01*
X-42472474Y30762741D01*
X-42591576Y30724521D01*
X-42700933Y30663800D01*
X-42796343Y30582912D01*
X-42846122Y30520239D01*
X-42970402Y30557938D01*
X-43133479Y30574000D01*
X-43542521Y30574000D01*
X-43705598Y30557938D01*
X-43914834Y30494468D01*
X-44107666Y30391396D01*
X-44276686Y30252686D01*
X-44415396Y30083666D01*
X-44518468Y29890834D01*
X-44581938Y29681598D01*
X-44603370Y29464000D01*
X-44581938Y29246402D01*
X-44518468Y29037166D01*
X-44435999Y28882880D01*
X-48455450Y28882880D01*
X-48499387Y28926817D01*
X-48668905Y29040085D01*
X-48857263Y29118106D01*
X-49057222Y29157880D01*
X-49261100Y29157880D01*
X-49444201Y29121459D01*
X-49444201Y29152998D01*
X-49273003Y29324196D01*
X-49243999Y29347999D01*
X-49149026Y29463724D01*
X-49129674Y29499928D01*
X-48934000Y29499928D01*
X-48809518Y29512188D01*
X-48689820Y29548498D01*
X-48579506Y29607463D01*
X-48482815Y29686815D01*
X-48403463Y29783506D01*
X-48344498Y29893820D01*
X-48320034Y29974466D01*
X-48244269Y29890412D01*
X-48010920Y29716359D01*
X-47748099Y29591175D01*
X-47600890Y29546524D01*
X-47371000Y29667845D01*
X-47371000Y30861000D01*
X-47117000Y30861000D01*
X-47117000Y29667845D01*
X-46887110Y29546524D01*
X-46739901Y29591175D01*
X-46477080Y29716359D01*
X-46243731Y29890412D01*
X-46048822Y30106645D01*
X-45899843Y30356748D01*
X-45802519Y30631109D01*
X-45923186Y30861000D01*
X-47117000Y30861000D01*
X-47371000Y30861000D01*
X-47391000Y30861000D01*
X-47391000Y31115000D01*
X-47371000Y31115000D01*
X-47371000Y32308155D01*
X-47117000Y32308155D01*
X-47117000Y31115000D01*
X-45923186Y31115000D01*
X-45802519Y31344891D01*
X-45899843Y31619252D01*
X-46048822Y31869355D01*
X-46243731Y32085588D01*
X-46477080Y32259641D01*
X-46739901Y32384825D01*
X-46887110Y32429476D01*
X-47117000Y32308155D01*
X-47371000Y32308155D01*
X-47600890Y32429476D01*
X-47748099Y32384825D01*
X-48010920Y32259641D01*
X-48244269Y32085588D01*
X-48320034Y32001534D01*
X-48344498Y32082180D01*
X-48403463Y32192494D01*
X-48482815Y32289185D01*
X-48579506Y32368537D01*
X-48689820Y32427502D01*
X-48809518Y32463812D01*
X-48934000Y32476072D01*
X-50634000Y32476072D01*
X-50758482Y32463812D01*
X-50878180Y32427502D01*
X-50988494Y32368537D01*
X-51085185Y32289185D01*
X-51164537Y32192494D01*
X-51223502Y32082180D01*
X-51259812Y31962482D01*
X-51272072Y31838000D01*
X-51272072Y30138000D01*
X-51259812Y30013518D01*
X-51223502Y29893820D01*
X-51164537Y29783506D01*
X-51085185Y29686815D01*
X-50988494Y29607463D01*
X-50955841Y29590009D01*
X-50964201Y29505131D01*
X-50964201Y29505121D01*
X-50967877Y29467799D01*
X-50964201Y29430476D01*
X-50964200Y24469748D01*
X-50967877Y24432416D01*
X-50964200Y24395083D01*
X-50953203Y24283430D01*
X-50952466Y24281000D01*
X-50909747Y24140170D01*
X-50839175Y24008140D01*
X-50768000Y23921414D01*
X-50744201Y23892415D01*
X-50715203Y23868617D01*
X-50466586Y23620000D01*
X-50553117Y23620000D01*
X-50812116Y23878998D01*
X-50835918Y23908001D01*
X-50951643Y24002974D01*
X-51083672Y24073546D01*
X-51226933Y24117003D01*
X-51298284Y24124031D01*
X-51337294Y24197014D01*
X-51522866Y24423134D01*
X-51748986Y24608706D01*
X-51813523Y24643201D01*
X-51696645Y24712822D01*
X-51480412Y24907731D01*
X-51306359Y25141080D01*
X-51181175Y25403901D01*
X-51136524Y25551110D01*
X-51257845Y25781000D01*
X-52451000Y25781000D01*
X-52451000Y25761000D01*
X-52705000Y25761000D01*
X-52705000Y25781000D01*
X-53898155Y25781000D01*
X-54019476Y25551110D01*
X-53974825Y25403901D01*
X-53849641Y25141080D01*
X-53675588Y24907731D01*
X-53459355Y24712822D01*
X-53342477Y24643201D01*
X-53407014Y24608706D01*
X-53633134Y24423134D01*
X-53818706Y24197014D01*
X-53956599Y23939034D01*
X-54041513Y23659111D01*
X-54070185Y23368000D01*
X-54041513Y23076889D01*
X-53956599Y22796966D01*
X-53818706Y22538986D01*
X-53633134Y22312866D01*
X-53407014Y22127294D01*
X-53352209Y22098000D01*
X-53407014Y22068706D01*
X-53633134Y21883134D01*
X-53818706Y21657014D01*
X-53956599Y21399034D01*
X-54041513Y21119111D01*
X-54070185Y20828000D01*
X-54041513Y20536889D01*
X-53956599Y20256966D01*
X-53818706Y19998986D01*
X-53633134Y19772866D01*
X-53407014Y19587294D01*
X-53352209Y19558000D01*
X-53407014Y19528706D01*
X-53633134Y19343134D01*
X-53818706Y19117014D01*
X-53956599Y18859034D01*
X-54041513Y18579111D01*
X-54070185Y18288000D01*
X-54041513Y17996889D01*
X-53956599Y17716966D01*
X-53818706Y17458986D01*
X-53633134Y17232866D01*
X-53407014Y17047294D01*
X-53352209Y17018000D01*
X-53407014Y16988706D01*
X-53633134Y16803134D01*
X-53818706Y16577014D01*
X-53956599Y16319034D01*
X-54041513Y16039111D01*
X-54070185Y15748000D01*
X-54041513Y15456889D01*
X-53956599Y15176966D01*
X-53818706Y14918986D01*
X-53633134Y14692866D01*
X-53407014Y14507294D01*
X-53352209Y14478000D01*
X-53407014Y14448706D01*
X-53633134Y14263134D01*
X-53818706Y14037014D01*
X-53956599Y13779034D01*
X-54041513Y13499111D01*
X-54070185Y13208000D01*
X-54041513Y12916889D01*
X-53956599Y12636966D01*
X-53818706Y12378986D01*
X-53633134Y12152866D01*
X-53407014Y11967294D01*
X-53352209Y11938000D01*
X-53407014Y11908706D01*
X-53633134Y11723134D01*
X-53818706Y11497014D01*
X-53956599Y11239034D01*
X-54041513Y10959111D01*
X-54070185Y10668000D01*
X-54041513Y10376889D01*
X-53956599Y10096966D01*
X-53818706Y9838986D01*
X-53633134Y9612866D01*
X-53407014Y9427294D01*
X-53352209Y9398000D01*
X-53407014Y9368706D01*
X-53633134Y9183134D01*
X-53818706Y8957014D01*
X-53956599Y8699034D01*
X-54041513Y8419111D01*
X-54070185Y8128000D01*
X-54041513Y7836889D01*
X-53956599Y7556966D01*
X-53818706Y7298986D01*
X-53633134Y7072866D01*
X-53407014Y6887294D01*
X-53352209Y6858000D01*
X-53407014Y6828706D01*
X-53633134Y6643134D01*
X-53818706Y6417014D01*
X-53956599Y6159034D01*
X-54041513Y5879111D01*
X-54070185Y5588000D01*
X-54041513Y5296889D01*
X-53956599Y5016966D01*
X-53818706Y4758986D01*
X-53633134Y4532866D01*
X-53407014Y4347294D01*
X-53352209Y4318000D01*
X-53407014Y4288706D01*
X-53633134Y4103134D01*
X-53818706Y3877014D01*
X-53956599Y3619034D01*
X-54041513Y3339111D01*
X-54070185Y3048000D01*
X-54041513Y2756889D01*
X-53956599Y2476966D01*
X-53818706Y2218986D01*
X-53633134Y1992866D01*
X-53407014Y1807294D01*
X-53352209Y1778000D01*
X-53407014Y1748706D01*
X-53633134Y1563134D01*
X-53818706Y1337014D01*
X-53956599Y1079034D01*
X-54041513Y799111D01*
X-54070185Y508000D01*
X-54041513Y216889D01*
X-53956599Y-63034D01*
X-53818706Y-321014D01*
X-53633134Y-547134D01*
X-53407014Y-732706D01*
X-53149034Y-870599D01*
X-52869111Y-955513D01*
X-52650950Y-977000D01*
X-52505050Y-977000D01*
X-52286889Y-955513D01*
X-52006966Y-870599D01*
X-51748986Y-732706D01*
X-51522866Y-547134D01*
X-51337294Y-321014D01*
X-51199401Y-63034D01*
X-51114487Y216889D01*
X-51085815Y508000D01*
X-51114487Y799111D01*
X-51137203Y873995D01*
X-50669997Y1341201D01*
X-50640999Y1364999D01*
X-50546026Y1480724D01*
X-50475454Y1612753D01*
X-50431997Y1756014D01*
X-50421000Y1867667D01*
X-50421000Y1867676D01*
X-50417324Y1904999D01*
X-50421000Y1942322D01*
X-50421000Y3116037D01*
X-50306898Y3068774D01*
X-50106939Y3029000D01*
X-49924351Y3029000D01*
X-49941185Y3015185D01*
X-50020537Y2918494D01*
X-50079502Y2808180D01*
X-50115812Y2688482D01*
X-50128072Y2564000D01*
X-50125000Y1449750D01*
X-49966250Y1291000D01*
X-49117000Y1291000D01*
X-49117000Y3040250D01*
X-48863000Y3040250D01*
X-48863000Y1291000D01*
X-48013750Y1291000D01*
X-47855000Y1449750D01*
X-47851928Y2564000D01*
X-47864188Y2688482D01*
X-47900498Y2808180D01*
X-47959463Y2918494D01*
X-48038815Y3015185D01*
X-48135506Y3094537D01*
X-48245820Y3153502D01*
X-48365518Y3189812D01*
X-48490000Y3202072D01*
X-48704250Y3199000D01*
X-48863000Y3040250D01*
X-49117000Y3040250D01*
X-49275750Y3199000D01*
X-49433234Y3201258D01*
X-49345226Y3260063D01*
X-49301289Y3304000D01*
X-48677322Y3304000D01*
X-48640000Y3300324D01*
X-48602678Y3304000D01*
X-48602667Y3304000D01*
X-48491014Y3314997D01*
X-48347753Y3358454D01*
X-48215724Y3429026D01*
X-48099999Y3523999D01*
X-48076196Y3553003D01*
X-46122435Y5506763D01*
X-46115812Y5439518D01*
X-46079502Y5319820D01*
X-46020537Y5209506D01*
X-45941185Y5112815D01*
X-45844494Y5033463D01*
X-45750000Y4982954D01*
X-45749999Y3145046D01*
X-45844494Y3094537D01*
X-45941185Y3015185D01*
X-46020537Y2918494D01*
X-46079502Y2808180D01*
X-46115812Y2688482D01*
X-46128072Y2564000D01*
X-46128072Y-236000D01*
X-46115812Y-360482D01*
X-46079502Y-480180D01*
X-46020537Y-590494D01*
X-45941185Y-687185D01*
X-45844494Y-766537D01*
X-45734180Y-825502D01*
X-45623615Y-859042D01*
X-45783034Y-907401D01*
X-46041014Y-1045294D01*
X-46267134Y-1230866D01*
X-46452706Y-1456986D01*
X-46487201Y-1521523D01*
X-46556822Y-1404645D01*
X-46751731Y-1188412D01*
X-46985080Y-1014359D01*
X-47247901Y-889175D01*
X-47395110Y-844524D01*
X-47625000Y-965845D01*
X-47625000Y-2159000D01*
X-47605000Y-2159000D01*
X-47605000Y-2413000D01*
X-47625000Y-2413000D01*
X-47625000Y-2433000D01*
X-47879000Y-2433000D01*
X-47879000Y-2413000D01*
X-47899000Y-2413000D01*
X-47899000Y-2159000D01*
X-47879000Y-2159000D01*
X-47879000Y-965845D01*
X-48108890Y-844524D01*
X-48256099Y-889175D01*
X-48518920Y-1014359D01*
X-48752269Y-1188412D01*
X-48828034Y-1272466D01*
X-48852498Y-1191820D01*
X-48911463Y-1081506D01*
X-48990815Y-984815D01*
X-49087506Y-905463D01*
X-49197820Y-846498D01*
X-49238813Y-834063D01*
X-49117000Y-712250D01*
X-49117000Y1037000D01*
X-48863000Y1037000D01*
X-48863000Y-712250D01*
X-48704250Y-871000D01*
X-48490000Y-874072D01*
X-48365518Y-861812D01*
X-48245820Y-825502D01*
X-48135506Y-766537D01*
X-48038815Y-687185D01*
X-47959463Y-590494D01*
X-47900498Y-480180D01*
X-47864188Y-360482D01*
X-47851928Y-236000D01*
X-47855000Y878250D01*
X-48013750Y1037000D01*
X-48863000Y1037000D01*
X-49117000Y1037000D01*
X-49966250Y1037000D01*
X-50125000Y878250D01*
X-50128072Y-236000D01*
X-50115812Y-360482D01*
X-50079502Y-480180D01*
X-50020537Y-590494D01*
X-49941185Y-687185D01*
X-49844494Y-766537D01*
X-49785767Y-797928D01*
X-51142000Y-797928D01*
X-51266482Y-810188D01*
X-51386180Y-846498D01*
X-51496494Y-905463D01*
X-51593185Y-984815D01*
X-51672537Y-1081506D01*
X-51731502Y-1191820D01*
X-51767812Y-1311518D01*
X-51780072Y-1436000D01*
X-51780072Y-3136000D01*
X-51767812Y-3260482D01*
X-51731502Y-3380180D01*
X-51672537Y-3490494D01*
X-51593185Y-3587185D01*
X-51496494Y-3666537D01*
X-51386180Y-3725502D01*
X-51266482Y-3761812D01*
X-51142000Y-3774072D01*
X-50946326Y-3774072D01*
X-50926974Y-3810276D01*
X-50887129Y-3858826D01*
X-50832001Y-3926001D01*
X-50802998Y-3949803D01*
X-50330788Y-4422014D01*
X-50306989Y-4451013D01*
X-50277991Y-4474811D01*
X-50191265Y-4545986D01*
X-50059235Y-4616558D01*
X-49915974Y-4660015D01*
X-49804321Y-4671012D01*
X-49804312Y-4671012D01*
X-49766989Y-4674688D01*
X-49729666Y-4671012D01*
X-37515332Y-4671012D01*
X-37478010Y-4674688D01*
X-37440688Y-4671012D01*
X-37440677Y-4671012D01*
X-37329024Y-4660015D01*
X-37185763Y-4616558D01*
X-37053734Y-4545986D01*
X-36938009Y-4451013D01*
X-36914206Y-4422010D01*
X-35956748Y-3464552D01*
X-35881014Y-3526706D01*
X-35623034Y-3664599D01*
X-35343111Y-3749513D01*
X-35124950Y-3771000D01*
X-34979050Y-3771000D01*
X-34760889Y-3749513D01*
X-34480966Y-3664599D01*
X-34222986Y-3526706D01*
X-33996866Y-3341134D01*
X-33811294Y-3115014D01*
X-33782000Y-3060209D01*
X-33752706Y-3115014D01*
X-33567134Y-3341134D01*
X-33341014Y-3526706D01*
X-33083034Y-3664599D01*
X-32803111Y-3749513D01*
X-32584950Y-3771000D01*
X-32439050Y-3771000D01*
X-32220889Y-3749513D01*
X-31940966Y-3664599D01*
X-31682986Y-3526706D01*
X-31456866Y-3341134D01*
X-31271294Y-3115014D01*
X-31242000Y-3060209D01*
X-31212706Y-3115014D01*
X-31027134Y-3341134D01*
X-30801014Y-3526706D01*
X-30543034Y-3664599D01*
X-30263111Y-3749513D01*
X-30044950Y-3771000D01*
X-29899050Y-3771000D01*
X-29680889Y-3749513D01*
X-29606005Y-3726797D01*
X-29360798Y-3972004D01*
X-29337000Y-4001002D01*
X-29221275Y-4095975D01*
X-29089246Y-4166547D01*
X-28945985Y-4210004D01*
X-28834332Y-4221001D01*
X-28834323Y-4221001D01*
X-28797000Y-4224677D01*
X-28759677Y-4221001D01*
X-21825321Y-4221001D01*
X-21787999Y-4224677D01*
X-21750677Y-4221001D01*
X-21750666Y-4221001D01*
X-21639013Y-4210004D01*
X-21495752Y-4166547D01*
X-21363723Y-4095975D01*
X-21247998Y-4001002D01*
X-21224195Y-3971998D01*
X-19282196Y-2030000D01*
X-18745236Y-2030000D01*
X-18823250Y-2045518D01*
X-19157199Y-2183844D01*
X-19457744Y-2384662D01*
X-19713338Y-2640256D01*
X-19914156Y-2940801D01*
X-20052482Y-3274750D01*
X-20123000Y-3629268D01*
X-20123000Y-3990732D01*
X-20052482Y-4345250D01*
X-19914156Y-4679199D01*
X-19713338Y-4979744D01*
X-19457744Y-5235338D01*
X-19157199Y-5436156D01*
X-18823250Y-5574482D01*
X-18468732Y-5645000D01*
X-18107268Y-5645000D01*
X-17752750Y-5574482D01*
X-17418801Y-5436156D01*
X-17118256Y-5235338D01*
X-16862662Y-4979744D01*
X-16661844Y-4679199D01*
X-16523518Y-4345250D01*
X-16453000Y-3990732D01*
X-16453000Y-3629268D01*
X-16523518Y-3274750D01*
X-16661844Y-2940801D01*
X-16862662Y-2640256D01*
X-17118256Y-2384662D01*
X-17418801Y-2183844D01*
X-17752750Y-2045518D01*
X-17830764Y-2030000D01*
X-17769499Y-2030000D01*
X-17732177Y-2033676D01*
X-17694855Y-2030000D01*
X-17694844Y-2030000D01*
X-17583191Y-2019003D01*
X-17439930Y-1975546D01*
X-17307901Y-1904974D01*
X-17192176Y-1810001D01*
X-17168373Y-1780998D01*
X-16407999Y-1020624D01*
X-16407999Y-5690000D01*
X-55982000Y-5690000D01*
X-55982000Y-3629268D01*
X-55937000Y-3629268D01*
X-55937000Y-3990732D01*
X-55866482Y-4345250D01*
X-55728156Y-4679199D01*
X-55527338Y-4979744D01*
X-55271744Y-5235338D01*
X-54971199Y-5436156D01*
X-54637250Y-5574482D01*
X-54282732Y-5645000D01*
X-53921268Y-5645000D01*
X-53566750Y-5574482D01*
X-53232801Y-5436156D01*
X-52932256Y-5235338D01*
X-52676662Y-4979744D01*
X-52475844Y-4679199D01*
X-52337518Y-4345250D01*
X-52267000Y-3990732D01*
X-52267000Y-3629268D01*
X-52337518Y-3274750D01*
X-52475844Y-2940801D01*
X-52676662Y-2640256D01*
X-52932256Y-2384662D01*
X-53232801Y-2183844D01*
X-53566750Y-2045518D01*
X-53921268Y-1975000D01*
X-54282732Y-1975000D01*
X-54637250Y-2045518D01*
X-54971199Y-2183844D01*
X-55271744Y-2384662D01*
X-55527338Y-2640256D01*
X-55728156Y-2940801D01*
X-55866482Y-3274750D01*
X-55937000Y-3629268D01*
X-55982000Y-3629268D01*
X-55982000Y29298000D01*
X-54066072Y29298000D01*
X-54066072Y27598000D01*
X-54053812Y27473518D01*
X-54017502Y27353820D01*
X-53958537Y27243506D01*
X-53879185Y27146815D01*
X-53782494Y27067463D01*
X-53672180Y27008498D01*
X-53591534Y26984034D01*
X-53675588Y26908269D01*
X-53849641Y26674920D01*
X-53974825Y26412099D01*
X-54019476Y26264890D01*
X-53898155Y26035000D01*
X-52705000Y26035000D01*
X-52705000Y26055000D01*
X-52451000Y26055000D01*
X-52451000Y26035000D01*
X-51257845Y26035000D01*
X-51136524Y26264890D01*
X-51181175Y26412099D01*
X-51306359Y26674920D01*
X-51480412Y26908269D01*
X-51564466Y26984034D01*
X-51483820Y27008498D01*
X-51373506Y27067463D01*
X-51276815Y27146815D01*
X-51197463Y27243506D01*
X-51138498Y27353820D01*
X-51102188Y27473518D01*
X-51089928Y27598000D01*
X-51089928Y29298000D01*
X-51102188Y29422482D01*
X-51138498Y29542180D01*
X-51197463Y29652494D01*
X-51276815Y29749185D01*
X-51373506Y29828537D01*
X-51483820Y29887502D01*
X-51603518Y29923812D01*
X-51728000Y29936072D01*
X-53428000Y29936072D01*
X-53552482Y29923812D01*
X-53672180Y29887502D01*
X-53782494Y29828537D01*
X-53879185Y29749185D01*
X-53958537Y29652494D01*
X-54017502Y29542180D01*
X-54053812Y29422482D01*
X-54066072Y29298000D01*
X-55982000Y29298000D01*
X-55982000Y32692732D01*
X-55937000Y32692732D01*
X-55937000Y32331268D01*
X-55866482Y31976750D01*
X-55728156Y31642801D01*
X-55527338Y31342256D01*
X-55271744Y31086662D01*
X-54971199Y30885844D01*
X-54637250Y30747518D01*
X-54282732Y30677000D01*
X-53921268Y30677000D01*
X-53566750Y30747518D01*
X-53232801Y30885844D01*
X-52932256Y31086662D01*
X-52676662Y31342256D01*
X-52475844Y31642801D01*
X-52337518Y31976750D01*
X-52267000Y32331268D01*
X-52267000Y32494752D01*
X-45473000Y32494752D01*
X-45473000Y31833249D01*
X-45456577Y31666502D01*
X-45391676Y31452554D01*
X-45286284Y31255377D01*
X-45144449Y31082551D01*
X-44971623Y30940716D01*
X-44774447Y30835324D01*
X-44560499Y30770423D01*
X-44338000Y30748509D01*
X-44115502Y30770423D01*
X-43901554Y30835324D01*
X-43704377Y30940716D01*
X-43531551Y31082551D01*
X-43389716Y31255377D01*
X-43284324Y31452553D01*
X-43219423Y31666501D01*
X-43203000Y31833248D01*
X-43203000Y32494751D01*
X-43219423Y32661498D01*
X-43284324Y32875446D01*
X-43389716Y33072623D01*
X-43531551Y33245449D01*
X-43704377Y33387284D01*
X-43901553Y33492676D01*
X-44115501Y33557577D01*
X-44338000Y33579491D01*
X-44560498Y33557577D01*
X-44774446Y33492676D01*
X-44971622Y33387284D01*
X-45144448Y33245449D01*
X-45286283Y33072623D01*
X-45391676Y32875447D01*
X-45456577Y32661499D01*
X-45473000Y32494752D01*
X-52267000Y32494752D01*
X-52267000Y32692732D01*
X-52337518Y33047250D01*
X-52475844Y33381199D01*
X-52676662Y33681744D01*
X-52932256Y33937338D01*
X-53232801Y34138156D01*
X-53566750Y34276482D01*
X-53921268Y34347000D01*
X-54282732Y34347000D01*
X-54637250Y34276482D01*
X-54971199Y34138156D01*
X-55271744Y33937338D01*
X-55527338Y33681744D01*
X-55728156Y33381199D01*
X-55866482Y33047250D01*
X-55937000Y32692732D01*
X-55982000Y32692732D01*
X-55982000Y34392000D01*
X-36285246Y34392000D01*
X-36304537Y34368494D01*
G36*
X-38832706Y-3115014D02*
G01*
X-38803163Y-3151012D01*
X-38920837Y-3151012D01*
X-38891294Y-3115014D01*
X-38862000Y-3060209D01*
X-38832706Y-3115014D01*
X-38832706Y-3115014D01*
G37*
X-38832706Y-3115014D02*
X-38803163Y-3151012D01*
X-38920837Y-3151012D01*
X-38891294Y-3115014D01*
X-38862000Y-3060209D01*
X-38832706Y-3115014D01*
G36*
X-41908052Y6269078D02*
G01*
X-41871742Y6149380D01*
X-41824170Y6060380D01*
X-41859686Y5980424D01*
X-41876359Y5925434D01*
X-41750194Y5750560D01*
X-40909240Y5750560D01*
X-40909240Y5755488D01*
X-40655240Y5755488D01*
X-40655240Y5750560D01*
X-40640223Y5750560D01*
X-40652731Y5623560D01*
X-40640223Y5496560D01*
X-40655240Y5496560D01*
X-40655240Y4480560D01*
X-40640223Y4480560D01*
X-40652731Y4353560D01*
X-40640223Y4226560D01*
X-40655240Y4226560D01*
X-40655240Y4211543D01*
X-40726488Y4218560D01*
X-40837992Y4218560D01*
X-40909240Y4211543D01*
X-40909240Y4226560D01*
X-41750194Y4226560D01*
X-41876359Y4051686D01*
X-41859686Y3996696D01*
X-41769363Y3793354D01*
X-41722514Y3726943D01*
X-41730524Y3717183D01*
X-41835916Y3520007D01*
X-41900817Y3306059D01*
X-41922731Y3083560D01*
X-41900817Y2861061D01*
X-41835916Y2647113D01*
X-41730524Y2449937D01*
X-41722514Y2440177D01*
X-41769363Y2373766D01*
X-41859686Y2170424D01*
X-41876359Y2115434D01*
X-41750194Y1940560D01*
X-40909240Y1940560D01*
X-40909240Y1955577D01*
X-40837992Y1948560D01*
X-40726488Y1948560D01*
X-40655240Y1955577D01*
X-40655240Y1940560D01*
X-40640223Y1940560D01*
X-40652731Y1813560D01*
X-40640223Y1686560D01*
X-40655240Y1686560D01*
X-40655240Y844431D01*
X-40480364Y719434D01*
X-40272711Y799350D01*
X-40155680Y873333D01*
X-40145863Y865276D01*
X-39948687Y759884D01*
X-39734739Y694983D01*
X-39567992Y678560D01*
X-39456488Y678560D01*
X-39289741Y694983D01*
X-39075793Y759884D01*
X-38878617Y865276D01*
X-38816388Y916346D01*
X-38816388Y-582198D01*
X-38820065Y-619530D01*
X-38816388Y-656863D01*
X-38805391Y-768516D01*
X-38797240Y-795386D01*
X-38761935Y-911776D01*
X-38691363Y-1043806D01*
X-38634400Y-1113215D01*
X-38596389Y-1159531D01*
X-38578301Y-1174376D01*
X-38647134Y-1230866D01*
X-38832706Y-1456986D01*
X-38862000Y-1511791D01*
X-38891294Y-1456986D01*
X-39076866Y-1230866D01*
X-39302986Y-1045294D01*
X-39560966Y-907401D01*
X-39840889Y-822487D01*
X-40059050Y-801000D01*
X-40204950Y-801000D01*
X-40423111Y-822487D01*
X-40497995Y-845203D01*
X-41967880Y624681D01*
X-41967880Y1511686D01*
X-41876359Y1511686D01*
X-41859686Y1456696D01*
X-41769363Y1253354D01*
X-41641105Y1071540D01*
X-41479841Y918242D01*
X-41291769Y799350D01*
X-41084116Y719434D01*
X-40909240Y844431D01*
X-40909240Y1686560D01*
X-41750194Y1686560D01*
X-41876359Y1511686D01*
X-41967880Y1511686D01*
X-41967880Y5321686D01*
X-41876359Y5321686D01*
X-41859686Y5266696D01*
X-41769363Y5063354D01*
X-41716601Y4988560D01*
X-41769363Y4913766D01*
X-41859686Y4710424D01*
X-41876359Y4655434D01*
X-41750194Y4480560D01*
X-40909240Y4480560D01*
X-40909240Y5496560D01*
X-41750194Y5496560D01*
X-41876359Y5321686D01*
X-41967880Y5321686D01*
X-41967880Y6284119D01*
X-41914765Y6337234D01*
X-41908052Y6269078D01*
X-41908052Y6269078D01*
G37*
X-41908052Y6269078D02*
X-41871742Y6149380D01*
X-41824170Y6060380D01*
X-41859686Y5980424D01*
X-41876359Y5925434D01*
X-41750194Y5750560D01*
X-40909240Y5750560D01*
X-40909240Y5755488D01*
X-40655240Y5755488D01*
X-40655240Y5750560D01*
X-40640223Y5750560D01*
X-40652731Y5623560D01*
X-40640223Y5496560D01*
X-40655240Y5496560D01*
X-40655240Y4480560D01*
X-40640223Y4480560D01*
X-40652731Y4353560D01*
X-40640223Y4226560D01*
X-40655240Y4226560D01*
X-40655240Y4211543D01*
X-40726488Y4218560D01*
X-40837992Y4218560D01*
X-40909240Y4211543D01*
X-40909240Y4226560D01*
X-41750194Y4226560D01*
X-41876359Y4051686D01*
X-41859686Y3996696D01*
X-41769363Y3793354D01*
X-41722514Y3726943D01*
X-41730524Y3717183D01*
X-41835916Y3520007D01*
X-41900817Y3306059D01*
X-41922731Y3083560D01*
X-41900817Y2861061D01*
X-41835916Y2647113D01*
X-41730524Y2449937D01*
X-41722514Y2440177D01*
X-41769363Y2373766D01*
X-41859686Y2170424D01*
X-41876359Y2115434D01*
X-41750194Y1940560D01*
X-40909240Y1940560D01*
X-40909240Y1955577D01*
X-40837992Y1948560D01*
X-40726488Y1948560D01*
X-40655240Y1955577D01*
X-40655240Y1940560D01*
X-40640223Y1940560D01*
X-40652731Y1813560D01*
X-40640223Y1686560D01*
X-40655240Y1686560D01*
X-40655240Y844431D01*
X-40480364Y719434D01*
X-40272711Y799350D01*
X-40155680Y873333D01*
X-40145863Y865276D01*
X-39948687Y759884D01*
X-39734739Y694983D01*
X-39567992Y678560D01*
X-39456488Y678560D01*
X-39289741Y694983D01*
X-39075793Y759884D01*
X-38878617Y865276D01*
X-38816388Y916346D01*
X-38816388Y-582198D01*
X-38820065Y-619530D01*
X-38816388Y-656863D01*
X-38805391Y-768516D01*
X-38797240Y-795386D01*
X-38761935Y-911776D01*
X-38691363Y-1043806D01*
X-38634400Y-1113215D01*
X-38596389Y-1159531D01*
X-38578301Y-1174376D01*
X-38647134Y-1230866D01*
X-38832706Y-1456986D01*
X-38862000Y-1511791D01*
X-38891294Y-1456986D01*
X-39076866Y-1230866D01*
X-39302986Y-1045294D01*
X-39560966Y-907401D01*
X-39840889Y-822487D01*
X-40059050Y-801000D01*
X-40204950Y-801000D01*
X-40423111Y-822487D01*
X-40497995Y-845203D01*
X-41967880Y624681D01*
X-41967880Y1511686D01*
X-41876359Y1511686D01*
X-41859686Y1456696D01*
X-41769363Y1253354D01*
X-41641105Y1071540D01*
X-41479841Y918242D01*
X-41291769Y799350D01*
X-41084116Y719434D01*
X-40909240Y844431D01*
X-40909240Y1686560D01*
X-41750194Y1686560D01*
X-41876359Y1511686D01*
X-41967880Y1511686D01*
X-41967880Y5321686D01*
X-41876359Y5321686D01*
X-41859686Y5266696D01*
X-41769363Y5063354D01*
X-41716601Y4988560D01*
X-41769363Y4913766D01*
X-41859686Y4710424D01*
X-41876359Y4655434D01*
X-41750194Y4480560D01*
X-40909240Y4480560D01*
X-40909240Y5496560D01*
X-41750194Y5496560D01*
X-41876359Y5321686D01*
X-41967880Y5321686D01*
X-41967880Y6284119D01*
X-41914765Y6337234D01*
X-41908052Y6269078D01*
G36*
X-23055580Y2679040D02*
G01*
X-23035580Y2679040D01*
X-23035580Y2425040D01*
X-23055580Y2425040D01*
X-23055580Y1363290D01*
X-23037228Y1344938D01*
X-23079227Y1282083D01*
X-23157248Y1093725D01*
X-23197022Y893766D01*
X-23197022Y689888D01*
X-23157248Y489929D01*
X-23079227Y301571D01*
X-22965959Y132053D01*
X-22932918Y99012D01*
X-24388006Y99012D01*
X-24319026Y135883D01*
X-24222335Y215235D01*
X-24142983Y311926D01*
X-24084018Y422240D01*
X-24047708Y541938D01*
X-24035448Y666420D01*
X-24035448Y1201583D01*
X-23468330Y1204540D01*
X-23309580Y1363290D01*
X-23309580Y2425040D01*
X-23329580Y2425040D01*
X-23329580Y2679040D01*
X-23309580Y2679040D01*
X-23309580Y2699040D01*
X-23055580Y2699040D01*
X-23055580Y2679040D01*
X-23055580Y2679040D01*
G37*
X-23055580Y2679040D02*
X-23035580Y2679040D01*
X-23035580Y2425040D01*
X-23055580Y2425040D01*
X-23055580Y1363290D01*
X-23037228Y1344938D01*
X-23079227Y1282083D01*
X-23157248Y1093725D01*
X-23197022Y893766D01*
X-23197022Y689888D01*
X-23157248Y489929D01*
X-23079227Y301571D01*
X-22965959Y132053D01*
X-22932918Y99012D01*
X-24388006Y99012D01*
X-24319026Y135883D01*
X-24222335Y215235D01*
X-24142983Y311926D01*
X-24084018Y422240D01*
X-24047708Y541938D01*
X-24035448Y666420D01*
X-24035448Y1201583D01*
X-23468330Y1204540D01*
X-23309580Y1363290D01*
X-23309580Y2425040D01*
X-23329580Y2425040D01*
X-23329580Y2679040D01*
X-23309580Y2679040D01*
X-23309580Y2699040D01*
X-23055580Y2699040D01*
X-23055580Y2679040D01*
G36*
X-27255840Y4981358D02*
G01*
X-27255840Y4919221D01*
X-27216066Y4719262D01*
X-27138045Y4530904D01*
X-27024777Y4361386D01*
X-26880614Y4217223D01*
X-26711096Y4103955D01*
X-26522738Y4025934D01*
X-26322779Y3986160D01*
X-26260642Y3986160D01*
X-25935481Y3660999D01*
X-25911682Y3632000D01*
X-25795957Y3537027D01*
X-25663928Y3466455D01*
X-25520667Y3422998D01*
X-25409014Y3412001D01*
X-25409005Y3412001D01*
X-25371682Y3408325D01*
X-25334359Y3412001D01*
X-24676421Y3412001D01*
X-24683392Y3389022D01*
X-24695652Y3264540D01*
X-24692580Y2837790D01*
X-24533832Y2679042D01*
X-24692580Y2679042D01*
X-24692580Y2604492D01*
X-26573520Y2604492D01*
X-26698002Y2592232D01*
X-26817700Y2555922D01*
X-26928014Y2496957D01*
X-27024705Y2417605D01*
X-27104057Y2320914D01*
X-27163022Y2210600D01*
X-27199332Y2090902D01*
X-27211592Y1966420D01*
X-27211592Y666420D01*
X-27199332Y541938D01*
X-27163022Y422240D01*
X-27104057Y311926D01*
X-27024705Y215235D01*
X-26928014Y135883D01*
X-26859034Y99012D01*
X-27588006Y99012D01*
X-27519026Y135883D01*
X-27422335Y215235D01*
X-27342983Y311926D01*
X-27284018Y422240D01*
X-27247708Y541938D01*
X-27235448Y666420D01*
X-27235448Y1966420D01*
X-27247708Y2090902D01*
X-27284018Y2210600D01*
X-27342983Y2320914D01*
X-27422335Y2417605D01*
X-27519026Y2496957D01*
X-27629340Y2555922D01*
X-27749038Y2592232D01*
X-27873520Y2604492D01*
X-29773520Y2604492D01*
X-29847000Y2597255D01*
X-29847000Y2759599D01*
X-29170198Y3436400D01*
X-29108061Y3436400D01*
X-28908102Y3476174D01*
X-28719744Y3554195D01*
X-28550226Y3667463D01*
X-28406063Y3811626D01*
X-28292795Y3981144D01*
X-28214774Y4169502D01*
X-28175000Y4369461D01*
X-28175000Y4573339D01*
X-28214774Y4773298D01*
X-28292795Y4961656D01*
X-28406063Y5131174D01*
X-28520014Y5245125D01*
X-28312522Y5452617D01*
X-28283519Y5476419D01*
X-28188546Y5592144D01*
X-28169194Y5628348D01*
X-27902829Y5628348D01*
X-27255840Y4981358D01*
X-27255840Y4981358D01*
G37*
X-27255840Y4981358D02*
X-27255840Y4919221D01*
X-27216066Y4719262D01*
X-27138045Y4530904D01*
X-27024777Y4361386D01*
X-26880614Y4217223D01*
X-26711096Y4103955D01*
X-26522738Y4025934D01*
X-26322779Y3986160D01*
X-26260642Y3986160D01*
X-25935481Y3660999D01*
X-25911682Y3632000D01*
X-25795957Y3537027D01*
X-25663928Y3466455D01*
X-25520667Y3422998D01*
X-25409014Y3412001D01*
X-25409005Y3412001D01*
X-25371682Y3408325D01*
X-25334359Y3412001D01*
X-24676421Y3412001D01*
X-24683392Y3389022D01*
X-24695652Y3264540D01*
X-24692580Y2837790D01*
X-24533832Y2679042D01*
X-24692580Y2679042D01*
X-24692580Y2604492D01*
X-26573520Y2604492D01*
X-26698002Y2592232D01*
X-26817700Y2555922D01*
X-26928014Y2496957D01*
X-27024705Y2417605D01*
X-27104057Y2320914D01*
X-27163022Y2210600D01*
X-27199332Y2090902D01*
X-27211592Y1966420D01*
X-27211592Y666420D01*
X-27199332Y541938D01*
X-27163022Y422240D01*
X-27104057Y311926D01*
X-27024705Y215235D01*
X-26928014Y135883D01*
X-26859034Y99012D01*
X-27588006Y99012D01*
X-27519026Y135883D01*
X-27422335Y215235D01*
X-27342983Y311926D01*
X-27284018Y422240D01*
X-27247708Y541938D01*
X-27235448Y666420D01*
X-27235448Y1966420D01*
X-27247708Y2090902D01*
X-27284018Y2210600D01*
X-27342983Y2320914D01*
X-27422335Y2417605D01*
X-27519026Y2496957D01*
X-27629340Y2555922D01*
X-27749038Y2592232D01*
X-27873520Y2604492D01*
X-29773520Y2604492D01*
X-29847000Y2597255D01*
X-29847000Y2759599D01*
X-29170198Y3436400D01*
X-29108061Y3436400D01*
X-28908102Y3476174D01*
X-28719744Y3554195D01*
X-28550226Y3667463D01*
X-28406063Y3811626D01*
X-28292795Y3981144D01*
X-28214774Y4169502D01*
X-28175000Y4369461D01*
X-28175000Y4573339D01*
X-28214774Y4773298D01*
X-28292795Y4961656D01*
X-28406063Y5131174D01*
X-28520014Y5245125D01*
X-28312522Y5452617D01*
X-28283519Y5476419D01*
X-28188546Y5592144D01*
X-28169194Y5628348D01*
X-27902829Y5628348D01*
X-27255840Y4981358D01*
G36*
X-30205226Y4773298D02*
G01*
X-30245000Y4573339D01*
X-30245000Y4511202D01*
X-30993469Y3762732D01*
X-31002000Y3763572D01*
X-31591250Y3760500D01*
X-31750000Y3601750D01*
X-31750000Y2540000D01*
X-31730000Y2540000D01*
X-31730000Y2286000D01*
X-31750000Y2286000D01*
X-31750000Y1224250D01*
X-31642000Y1116250D01*
X-31642000Y1041061D01*
X-31602226Y841102D01*
X-31524205Y652744D01*
X-31410937Y483226D01*
X-31266774Y339063D01*
X-31097256Y225795D01*
X-30908898Y147774D01*
X-30708939Y108000D01*
X-30505061Y108000D01*
X-30305102Y147774D01*
X-30197043Y192534D01*
X-30128014Y135883D01*
X-30059034Y99012D01*
X-31339212Y99012D01*
X-32304959Y1064759D01*
X-32162750Y1065500D01*
X-32004000Y1224250D01*
X-32004000Y2286000D01*
X-32024000Y2286000D01*
X-32024000Y2540000D01*
X-32004000Y2540000D01*
X-32004000Y3601750D01*
X-32162750Y3760500D01*
X-32317010Y3761304D01*
X-32317010Y4037428D01*
X-31252000Y4037428D01*
X-31078746Y4054492D01*
X-30912150Y4105028D01*
X-30758614Y4187095D01*
X-30624038Y4297538D01*
X-30513595Y4432114D01*
X-30431528Y4585650D01*
X-30380992Y4752246D01*
X-30367777Y4886420D01*
X-30158369Y4886420D01*
X-30205226Y4773298D01*
X-30205226Y4773298D01*
G37*
X-30205226Y4773298D02*
X-30245000Y4573339D01*
X-30245000Y4511202D01*
X-30993469Y3762732D01*
X-31002000Y3763572D01*
X-31591250Y3760500D01*
X-31750000Y3601750D01*
X-31750000Y2540000D01*
X-31730000Y2540000D01*
X-31730000Y2286000D01*
X-31750000Y2286000D01*
X-31750000Y1224250D01*
X-31642000Y1116250D01*
X-31642000Y1041061D01*
X-31602226Y841102D01*
X-31524205Y652744D01*
X-31410937Y483226D01*
X-31266774Y339063D01*
X-31097256Y225795D01*
X-30908898Y147774D01*
X-30708939Y108000D01*
X-30505061Y108000D01*
X-30305102Y147774D01*
X-30197043Y192534D01*
X-30128014Y135883D01*
X-30059034Y99012D01*
X-31339212Y99012D01*
X-32304959Y1064759D01*
X-32162750Y1065500D01*
X-32004000Y1224250D01*
X-32004000Y2286000D01*
X-32024000Y2286000D01*
X-32024000Y2540000D01*
X-32004000Y2540000D01*
X-32004000Y3601750D01*
X-32162750Y3760500D01*
X-32317010Y3761304D01*
X-32317010Y4037428D01*
X-31252000Y4037428D01*
X-31078746Y4054492D01*
X-30912150Y4105028D01*
X-30758614Y4187095D01*
X-30624038Y4297538D01*
X-30513595Y4432114D01*
X-30431528Y4585650D01*
X-30380992Y4752246D01*
X-30367777Y4886420D01*
X-30158369Y4886420D01*
X-30205226Y4773298D01*
G36*
X-19685000Y3937000D02*
G01*
X-19665000Y3937000D01*
X-19665000Y3683000D01*
X-19685000Y3683000D01*
X-19685000Y3663000D01*
X-19939000Y3663000D01*
X-19939000Y3683000D01*
X-19959000Y3683000D01*
X-19959000Y3937000D01*
X-19939000Y3937000D01*
X-19939000Y3957000D01*
X-19685000Y3957000D01*
X-19685000Y3937000D01*
X-19685000Y3937000D01*
G37*
X-19685000Y3937000D02*
X-19665000Y3937000D01*
X-19665000Y3683000D01*
X-19685000Y3683000D01*
X-19685000Y3663000D01*
X-19939000Y3663000D01*
X-19939000Y3683000D01*
X-19959000Y3683000D01*
X-19959000Y3937000D01*
X-19939000Y3937000D01*
X-19939000Y3957000D01*
X-19685000Y3957000D01*
X-19685000Y3937000D01*
G36*
X-18793999Y4882008D02*
G01*
X-18930645Y5005178D01*
X-19047523Y5074799D01*
X-18982986Y5109294D01*
X-18793999Y5264392D01*
X-18793999Y4882008D01*
X-18793999Y4882008D01*
G37*
X-18793999Y4882008D02*
X-18930645Y5005178D01*
X-19047523Y5074799D01*
X-18982986Y5109294D01*
X-18793999Y5264392D01*
X-18793999Y4882008D01*
G36*
X-31984482Y12501188D02*
G01*
X-31970000Y12499762D01*
X-31969999Y9658742D01*
X-31973676Y9621410D01*
X-31969999Y9584077D01*
X-31959002Y9472424D01*
X-31958105Y9469467D01*
X-31915546Y9329164D01*
X-31844974Y9197134D01*
X-31774264Y9110975D01*
X-31750000Y9081409D01*
X-31721002Y9057611D01*
X-30388850Y7725458D01*
X-30399332Y7690902D01*
X-30411592Y7566420D01*
X-30411592Y6406420D01*
X-30564915Y6406420D01*
X-30624038Y6478462D01*
X-30758614Y6588905D01*
X-30912150Y6670972D01*
X-31078746Y6721508D01*
X-31252000Y6738572D01*
X-32223001Y6738572D01*
X-32223001Y8166268D01*
X-32175026Y8224726D01*
X-32104454Y8356755D01*
X-32060997Y8500016D01*
X-32050000Y8611669D01*
X-32050000Y8611678D01*
X-32046324Y8649001D01*
X-32050000Y8686324D01*
X-32050000Y10970808D01*
X-32046928Y11002000D01*
X-32046928Y12302000D01*
X-32059188Y12426482D01*
X-32091718Y12533718D01*
X-31984482Y12501188D01*
X-31984482Y12501188D01*
G37*
X-31984482Y12501188D02*
X-31970000Y12499762D01*
X-31969999Y9658742D01*
X-31973676Y9621410D01*
X-31969999Y9584077D01*
X-31959002Y9472424D01*
X-31958105Y9469467D01*
X-31915546Y9329164D01*
X-31844974Y9197134D01*
X-31774264Y9110975D01*
X-31750000Y9081409D01*
X-31721002Y9057611D01*
X-30388850Y7725458D01*
X-30399332Y7690902D01*
X-30411592Y7566420D01*
X-30411592Y6406420D01*
X-30564915Y6406420D01*
X-30624038Y6478462D01*
X-30758614Y6588905D01*
X-30912150Y6670972D01*
X-31078746Y6721508D01*
X-31252000Y6738572D01*
X-32223001Y6738572D01*
X-32223001Y8166268D01*
X-32175026Y8224726D01*
X-32104454Y8356755D01*
X-32060997Y8500016D01*
X-32050000Y8611669D01*
X-32050000Y8611678D01*
X-32046324Y8649001D01*
X-32050000Y8686324D01*
X-32050000Y10970808D01*
X-32046928Y11002000D01*
X-32046928Y12302000D01*
X-32059188Y12426482D01*
X-32091718Y12533718D01*
X-31984482Y12501188D01*
G36*
X-46620560Y7923240D02*
G01*
X-47860275Y6683525D01*
X-48013750Y6837000D01*
X-48863000Y6837000D01*
X-48863000Y6817000D01*
X-49055001Y6817000D01*
X-49055001Y7111000D01*
X-48863000Y7111000D01*
X-48863000Y7091000D01*
X-48013750Y7091000D01*
X-47855000Y7249750D01*
X-47853127Y7929001D01*
X-46754321Y7929001D01*
X-46716999Y7925325D01*
X-46679677Y7929001D01*
X-46679666Y7929001D01*
X-46620560Y7934822D01*
X-46620560Y7923240D01*
X-46620560Y7923240D01*
G37*
X-46620560Y7923240D02*
X-47860275Y6683525D01*
X-48013750Y6837000D01*
X-48863000Y6837000D01*
X-48863000Y6817000D01*
X-49055001Y6817000D01*
X-49055001Y7111000D01*
X-48863000Y7111000D01*
X-48863000Y7091000D01*
X-48013750Y7091000D01*
X-47855000Y7249750D01*
X-47853127Y7929001D01*
X-46754321Y7929001D01*
X-46716999Y7925325D01*
X-46679677Y7929001D01*
X-46679666Y7929001D01*
X-46620560Y7934822D01*
X-46620560Y7923240D01*
G36*
X-22176035Y11768997D02*
G01*
X-22152236Y11739998D01*
X-22123238Y11716200D01*
X-22036511Y11645025D01*
X-21904482Y11574453D01*
X-21761221Y11530996D01*
X-21612235Y11516322D01*
X-21574902Y11519999D01*
X-21295321Y11519999D01*
X-21304185Y11430000D01*
X-21275513Y11138889D01*
X-21190599Y10858966D01*
X-21052706Y10600986D01*
X-20867134Y10374866D01*
X-20641014Y10189294D01*
X-20586209Y10160000D01*
X-20641014Y10130706D01*
X-20867134Y9945134D01*
X-21052706Y9719014D01*
X-21190599Y9461034D01*
X-21275513Y9181111D01*
X-21304185Y8890000D01*
X-21275513Y8598889D01*
X-21252797Y8524005D01*
X-21948014Y7828787D01*
X-21977012Y7804989D01*
X-22000810Y7775991D01*
X-22000811Y7775990D01*
X-22071986Y7689264D01*
X-22142558Y7557234D01*
X-22166983Y7476712D01*
X-22186014Y7413974D01*
X-22193231Y7340696D01*
X-22200688Y7264988D01*
X-22197011Y7227656D01*
X-22197011Y6798937D01*
X-22217730Y6810012D01*
X-22384326Y6860548D01*
X-22557580Y6877612D01*
X-23807580Y6877612D01*
X-23980834Y6860548D01*
X-24035448Y6843981D01*
X-24035448Y7566420D01*
X-24047708Y7690902D01*
X-24084018Y7810600D01*
X-24142983Y7920914D01*
X-24222335Y8017605D01*
X-24319026Y8096957D01*
X-24429340Y8155922D01*
X-24549038Y8192232D01*
X-24673520Y8204492D01*
X-26179690Y8204492D01*
X-29212000Y11236801D01*
X-29212000Y13336677D01*
X-29208324Y13374002D01*
X-29212000Y13411327D01*
X-29212000Y13411335D01*
X-29219945Y13492000D01*
X-23899037Y13492000D01*
X-22176035Y11768997D01*
X-22176035Y11768997D01*
G37*
X-22176035Y11768997D02*
X-22152236Y11739998D01*
X-22123238Y11716200D01*
X-22036511Y11645025D01*
X-21904482Y11574453D01*
X-21761221Y11530996D01*
X-21612235Y11516322D01*
X-21574902Y11519999D01*
X-21295321Y11519999D01*
X-21304185Y11430000D01*
X-21275513Y11138889D01*
X-21190599Y10858966D01*
X-21052706Y10600986D01*
X-20867134Y10374866D01*
X-20641014Y10189294D01*
X-20586209Y10160000D01*
X-20641014Y10130706D01*
X-20867134Y9945134D01*
X-21052706Y9719014D01*
X-21190599Y9461034D01*
X-21275513Y9181111D01*
X-21304185Y8890000D01*
X-21275513Y8598889D01*
X-21252797Y8524005D01*
X-21948014Y7828787D01*
X-21977012Y7804989D01*
X-22000810Y7775991D01*
X-22000811Y7775990D01*
X-22071986Y7689264D01*
X-22142558Y7557234D01*
X-22166983Y7476712D01*
X-22186014Y7413974D01*
X-22193231Y7340696D01*
X-22200688Y7264988D01*
X-22197011Y7227656D01*
X-22197011Y6798937D01*
X-22217730Y6810012D01*
X-22384326Y6860548D01*
X-22557580Y6877612D01*
X-23807580Y6877612D01*
X-23980834Y6860548D01*
X-24035448Y6843981D01*
X-24035448Y7566420D01*
X-24047708Y7690902D01*
X-24084018Y7810600D01*
X-24142983Y7920914D01*
X-24222335Y8017605D01*
X-24319026Y8096957D01*
X-24429340Y8155922D01*
X-24549038Y8192232D01*
X-24673520Y8204492D01*
X-26179690Y8204492D01*
X-29212000Y11236801D01*
X-29212000Y13336677D01*
X-29208324Y13374002D01*
X-29212000Y13411327D01*
X-29212000Y13411335D01*
X-29219945Y13492000D01*
X-23899037Y13492000D01*
X-22176035Y11768997D01*
G36*
X-40560000Y12488928D02*
G01*
X-39260000Y12488928D01*
X-39228808Y12492000D01*
X-39040937Y12492000D01*
X-39060812Y12426482D01*
X-39062995Y12404314D01*
X-39096608Y12401003D01*
X-39239869Y12357546D01*
X-39371898Y12286974D01*
X-39371900Y12286973D01*
X-39371899Y12286973D01*
X-39458626Y12215799D01*
X-39458630Y12215795D01*
X-39487623Y12192001D01*
X-39511417Y12163008D01*
X-41987999Y9686425D01*
X-41987999Y11790678D01*
X-41984323Y11828001D01*
X-41987999Y11865323D01*
X-41987999Y11865334D01*
X-41998996Y11976987D01*
X-42042453Y12120248D01*
X-42113025Y12252277D01*
X-42201870Y12360535D01*
X-42045107Y12295601D01*
X-41845148Y12255827D01*
X-41641270Y12255827D01*
X-41441311Y12295601D01*
X-41252953Y12373622D01*
X-41083435Y12486890D01*
X-41078325Y12492000D01*
X-40591192Y12492000D01*
X-40560000Y12488928D01*
X-40560000Y12488928D01*
G37*
X-40560000Y12488928D02*
X-39260000Y12488928D01*
X-39228808Y12492000D01*
X-39040937Y12492000D01*
X-39060812Y12426482D01*
X-39062995Y12404314D01*
X-39096608Y12401003D01*
X-39239869Y12357546D01*
X-39371898Y12286974D01*
X-39371900Y12286973D01*
X-39371899Y12286973D01*
X-39458626Y12215799D01*
X-39458630Y12215795D01*
X-39487623Y12192001D01*
X-39511417Y12163008D01*
X-41987999Y9686425D01*
X-41987999Y11790678D01*
X-41984323Y11828001D01*
X-41987999Y11865323D01*
X-41987999Y11865334D01*
X-41998996Y11976987D01*
X-42042453Y12120248D01*
X-42113025Y12252277D01*
X-42201870Y12360535D01*
X-42045107Y12295601D01*
X-41845148Y12255827D01*
X-41641270Y12255827D01*
X-41441311Y12295601D01*
X-41252953Y12373622D01*
X-41083435Y12486890D01*
X-41078325Y12492000D01*
X-40591192Y12492000D01*
X-40560000Y12488928D01*
G36*
X-18793999Y9975609D02*
G01*
X-18982986Y10130706D01*
X-19037791Y10160000D01*
X-18982986Y10189294D01*
X-18793999Y10344391D01*
X-18793999Y9975609D01*
X-18793999Y9975609D01*
G37*
X-18793999Y9975609D02*
X-18982986Y10130706D01*
X-19037791Y10160000D01*
X-18982986Y10189294D01*
X-18793999Y10344391D01*
X-18793999Y9975609D01*
G36*
X-35855937Y13310226D02*
G01*
X-35711774Y13166063D01*
X-35570000Y13071333D01*
X-35570000Y12927842D01*
X-35651250Y12937000D01*
X-35716922Y12871328D01*
X-35789494Y12832537D01*
X-35810000Y12815708D01*
X-35830506Y12832537D01*
X-35903078Y12871328D01*
X-35968750Y12937000D01*
X-36057742Y12926970D01*
X-36060518Y12927812D01*
X-36185000Y12940072D01*
X-36435000Y12940072D01*
X-36559482Y12927812D01*
X-36560000Y12927655D01*
X-36560518Y12927812D01*
X-36633501Y12935000D01*
X-36601061Y12935000D01*
X-36401102Y12974774D01*
X-36212744Y13052795D01*
X-36043226Y13166063D01*
X-35899063Y13310226D01*
X-35877500Y13342497D01*
X-35855937Y13310226D01*
X-35855937Y13310226D01*
G37*
X-35855937Y13310226D02*
X-35711774Y13166063D01*
X-35570000Y13071333D01*
X-35570000Y12927842D01*
X-35651250Y12937000D01*
X-35716922Y12871328D01*
X-35789494Y12832537D01*
X-35810000Y12815708D01*
X-35830506Y12832537D01*
X-35903078Y12871328D01*
X-35968750Y12937000D01*
X-36057742Y12926970D01*
X-36060518Y12927812D01*
X-36185000Y12940072D01*
X-36435000Y12940072D01*
X-36559482Y12927812D01*
X-36560000Y12927655D01*
X-36560518Y12927812D01*
X-36633501Y12935000D01*
X-36601061Y12935000D01*
X-36401102Y12974774D01*
X-36212744Y13052795D01*
X-36043226Y13166063D01*
X-35899063Y13310226D01*
X-35877500Y13342497D01*
X-35855937Y13310226D01*
G36*
X-35289494Y19171463D02*
G01*
X-35216922Y19132672D01*
X-35151250Y19067000D01*
X-35062258Y19077030D01*
X-35059482Y19076188D01*
X-34935000Y19063928D01*
X-34685000Y19063928D01*
X-34560518Y19076188D01*
X-34560000Y19076345D01*
X-34559482Y19076188D01*
X-34435000Y19063928D01*
X-34185000Y19063928D01*
X-34060518Y19076188D01*
X-34060000Y19076345D01*
X-34059482Y19076188D01*
X-33935000Y19063928D01*
X-33685000Y19063928D01*
X-33560518Y19076188D01*
X-33560000Y19076345D01*
X-33559482Y19076188D01*
X-33435000Y19063928D01*
X-33185000Y19063928D01*
X-33060518Y19076188D01*
X-33060000Y19076345D01*
X-33059482Y19076188D01*
X-32935000Y19063928D01*
X-32685000Y19063928D01*
X-32560518Y19076188D01*
X-32453282Y19108718D01*
X-32485812Y19001482D01*
X-32498072Y18877000D01*
X-32498072Y18627000D01*
X-32485812Y18502518D01*
X-32485655Y18502000D01*
X-32485812Y18501482D01*
X-32498072Y18377000D01*
X-32498072Y18127000D01*
X-32485812Y18002518D01*
X-32485655Y18002000D01*
X-32485812Y18001482D01*
X-32498072Y17877000D01*
X-32498072Y17627000D01*
X-32485812Y17502518D01*
X-32485655Y17502000D01*
X-32485812Y17501482D01*
X-32498072Y17377000D01*
X-32498072Y17127000D01*
X-32485812Y17002518D01*
X-32485655Y17002000D01*
X-32485812Y17001482D01*
X-32498072Y16877000D01*
X-32498072Y16627000D01*
X-32485812Y16502518D01*
X-32485655Y16502000D01*
X-32485812Y16501482D01*
X-32498072Y16377000D01*
X-32498072Y16127000D01*
X-32485812Y16002518D01*
X-32485655Y16002000D01*
X-32485812Y16001482D01*
X-32498072Y15877000D01*
X-32498072Y15627000D01*
X-32485812Y15502518D01*
X-32484970Y15499742D01*
X-32495000Y15410750D01*
X-32429328Y15345078D01*
X-32390537Y15272506D01*
X-32373708Y15252000D01*
X-32390537Y15231494D01*
X-32429328Y15158922D01*
X-32495000Y15093250D01*
X-32484970Y15004258D01*
X-32485812Y15001482D01*
X-32498072Y14877000D01*
X-32498072Y14627000D01*
X-32485812Y14502518D01*
X-32485655Y14502000D01*
X-32485812Y14501482D01*
X-32498072Y14377000D01*
X-32498072Y14127000D01*
X-32485812Y14002518D01*
X-32485655Y14002000D01*
X-32485812Y14001482D01*
X-32498072Y13877000D01*
X-32498072Y13627000D01*
X-32485812Y13502518D01*
X-32485655Y13502000D01*
X-32485812Y13501482D01*
X-32498072Y13377000D01*
X-32498072Y13127000D01*
X-32485812Y13002518D01*
X-32453282Y12895282D01*
X-32560518Y12927812D01*
X-32685000Y12940072D01*
X-32935000Y12940072D01*
X-33059482Y12927812D01*
X-33060000Y12927655D01*
X-33060518Y12927812D01*
X-33185000Y12940072D01*
X-33435000Y12940072D01*
X-33559482Y12927812D01*
X-33560000Y12927655D01*
X-33560518Y12927812D01*
X-33685000Y12940072D01*
X-33935000Y12940072D01*
X-34050000Y12928746D01*
X-34050000Y13690675D01*
X-34047760Y13713418D01*
X-34017000Y13868061D01*
X-34017000Y14071939D01*
X-34056774Y14271898D01*
X-34134795Y14460256D01*
X-34248063Y14629774D01*
X-34392226Y14773937D01*
X-34561744Y14887205D01*
X-34750102Y14965226D01*
X-34950061Y15005000D01*
X-35153939Y15005000D01*
X-35353898Y14965226D01*
X-35542256Y14887205D01*
X-35711774Y14773937D01*
X-35855937Y14629774D01*
X-35877500Y14597503D01*
X-35899063Y14629774D01*
X-36043226Y14773937D01*
X-36212744Y14887205D01*
X-36401102Y14965226D01*
X-36601061Y15005000D01*
X-36804939Y15005000D01*
X-37004898Y14965226D01*
X-37193256Y14887205D01*
X-37362774Y14773937D01*
X-37406711Y14730000D01*
X-37781289Y14730000D01*
X-37677063Y14834226D01*
X-37563795Y15003744D01*
X-37485774Y15192102D01*
X-37446000Y15392061D01*
X-37446000Y15595939D01*
X-37485774Y15795898D01*
X-37563795Y15984256D01*
X-37677063Y16153774D01*
X-37721000Y16197711D01*
X-37721000Y16966199D01*
X-35798997Y18888201D01*
X-35769999Y18911999D01*
X-35675026Y19027724D01*
X-35654045Y19066977D01*
X-35560518Y19076188D01*
X-35557742Y19077030D01*
X-35468750Y19067000D01*
X-35403078Y19132672D01*
X-35330506Y19171463D01*
X-35310000Y19188292D01*
X-35289494Y19171463D01*
X-35289494Y19171463D01*
G37*
X-35289494Y19171463D02*
X-35216922Y19132672D01*
X-35151250Y19067000D01*
X-35062258Y19077030D01*
X-35059482Y19076188D01*
X-34935000Y19063928D01*
X-34685000Y19063928D01*
X-34560518Y19076188D01*
X-34560000Y19076345D01*
X-34559482Y19076188D01*
X-34435000Y19063928D01*
X-34185000Y19063928D01*
X-34060518Y19076188D01*
X-34060000Y19076345D01*
X-34059482Y19076188D01*
X-33935000Y19063928D01*
X-33685000Y19063928D01*
X-33560518Y19076188D01*
X-33560000Y19076345D01*
X-33559482Y19076188D01*
X-33435000Y19063928D01*
X-33185000Y19063928D01*
X-33060518Y19076188D01*
X-33060000Y19076345D01*
X-33059482Y19076188D01*
X-32935000Y19063928D01*
X-32685000Y19063928D01*
X-32560518Y19076188D01*
X-32453282Y19108718D01*
X-32485812Y19001482D01*
X-32498072Y18877000D01*
X-32498072Y18627000D01*
X-32485812Y18502518D01*
X-32485655Y18502000D01*
X-32485812Y18501482D01*
X-32498072Y18377000D01*
X-32498072Y18127000D01*
X-32485812Y18002518D01*
X-32485655Y18002000D01*
X-32485812Y18001482D01*
X-32498072Y17877000D01*
X-32498072Y17627000D01*
X-32485812Y17502518D01*
X-32485655Y17502000D01*
X-32485812Y17501482D01*
X-32498072Y17377000D01*
X-32498072Y17127000D01*
X-32485812Y17002518D01*
X-32485655Y17002000D01*
X-32485812Y17001482D01*
X-32498072Y16877000D01*
X-32498072Y16627000D01*
X-32485812Y16502518D01*
X-32485655Y16502000D01*
X-32485812Y16501482D01*
X-32498072Y16377000D01*
X-32498072Y16127000D01*
X-32485812Y16002518D01*
X-32485655Y16002000D01*
X-32485812Y16001482D01*
X-32498072Y15877000D01*
X-32498072Y15627000D01*
X-32485812Y15502518D01*
X-32484970Y15499742D01*
X-32495000Y15410750D01*
X-32429328Y15345078D01*
X-32390537Y15272506D01*
X-32373708Y15252000D01*
X-32390537Y15231494D01*
X-32429328Y15158922D01*
X-32495000Y15093250D01*
X-32484970Y15004258D01*
X-32485812Y15001482D01*
X-32498072Y14877000D01*
X-32498072Y14627000D01*
X-32485812Y14502518D01*
X-32485655Y14502000D01*
X-32485812Y14501482D01*
X-32498072Y14377000D01*
X-32498072Y14127000D01*
X-32485812Y14002518D01*
X-32485655Y14002000D01*
X-32485812Y14001482D01*
X-32498072Y13877000D01*
X-32498072Y13627000D01*
X-32485812Y13502518D01*
X-32485655Y13502000D01*
X-32485812Y13501482D01*
X-32498072Y13377000D01*
X-32498072Y13127000D01*
X-32485812Y13002518D01*
X-32453282Y12895282D01*
X-32560518Y12927812D01*
X-32685000Y12940072D01*
X-32935000Y12940072D01*
X-33059482Y12927812D01*
X-33060000Y12927655D01*
X-33060518Y12927812D01*
X-33185000Y12940072D01*
X-33435000Y12940072D01*
X-33559482Y12927812D01*
X-33560000Y12927655D01*
X-33560518Y12927812D01*
X-33685000Y12940072D01*
X-33935000Y12940072D01*
X-34050000Y12928746D01*
X-34050000Y13690675D01*
X-34047760Y13713418D01*
X-34017000Y13868061D01*
X-34017000Y14071939D01*
X-34056774Y14271898D01*
X-34134795Y14460256D01*
X-34248063Y14629774D01*
X-34392226Y14773937D01*
X-34561744Y14887205D01*
X-34750102Y14965226D01*
X-34950061Y15005000D01*
X-35153939Y15005000D01*
X-35353898Y14965226D01*
X-35542256Y14887205D01*
X-35711774Y14773937D01*
X-35855937Y14629774D01*
X-35877500Y14597503D01*
X-35899063Y14629774D01*
X-36043226Y14773937D01*
X-36212744Y14887205D01*
X-36401102Y14965226D01*
X-36601061Y15005000D01*
X-36804939Y15005000D01*
X-37004898Y14965226D01*
X-37193256Y14887205D01*
X-37362774Y14773937D01*
X-37406711Y14730000D01*
X-37781289Y14730000D01*
X-37677063Y14834226D01*
X-37563795Y15003744D01*
X-37485774Y15192102D01*
X-37446000Y15392061D01*
X-37446000Y15595939D01*
X-37485774Y15795898D01*
X-37563795Y15984256D01*
X-37677063Y16153774D01*
X-37721000Y16197711D01*
X-37721000Y16966199D01*
X-35798997Y18888201D01*
X-35769999Y18911999D01*
X-35675026Y19027724D01*
X-35654045Y19066977D01*
X-35560518Y19076188D01*
X-35557742Y19077030D01*
X-35468750Y19067000D01*
X-35403078Y19132672D01*
X-35330506Y19171463D01*
X-35310000Y19188292D01*
X-35289494Y19171463D01*
G36*
X-47666072Y15044000D02*
G01*
X-47664593Y15028988D01*
X-51128064Y15028988D01*
X-51083672Y15042454D01*
X-50951643Y15113026D01*
X-50835918Y15207999D01*
X-50812116Y15237002D01*
X-50316738Y15732379D01*
X-47666072Y15732379D01*
X-47666072Y15044000D01*
X-47666072Y15044000D01*
G37*
X-47666072Y15044000D02*
X-47664593Y15028988D01*
X-51128064Y15028988D01*
X-51083672Y15042454D01*
X-50951643Y15113026D01*
X-50835918Y15207999D01*
X-50812116Y15237002D01*
X-50316738Y15732379D01*
X-47666072Y15732379D01*
X-47666072Y15044000D01*
G36*
X-44789928Y15600927D02*
G01*
X-44789928Y15732379D01*
X-44658476Y15732379D01*
X-44789928Y15600927D01*
X-44789928Y15600927D01*
G37*
X-44789928Y15600927D02*
X-44789928Y15732379D01*
X-44658476Y15732379D01*
X-44789928Y15600927D01*
G36*
X-26879643Y23621980D02*
G01*
X-26855840Y23592976D01*
X-26740115Y23498003D01*
X-26608086Y23427431D01*
X-26464825Y23383974D01*
X-26353172Y23372977D01*
X-26353163Y23372977D01*
X-26315840Y23369301D01*
X-26278517Y23372977D01*
X-24731746Y23372977D01*
X-24900265Y23204457D01*
X-25013518Y23238812D01*
X-25138000Y23251072D01*
X-26002250Y23248000D01*
X-26161000Y23089250D01*
X-26161000Y22820983D01*
X-26230351Y22792408D01*
X-26233425Y22790763D01*
X-26238751Y22692857D01*
X-26289000Y22642608D01*
X-26339249Y22692857D01*
X-26344575Y22790763D01*
X-26415000Y22820088D01*
X-26415000Y23089250D01*
X-26573750Y23248000D01*
X-27438000Y23251072D01*
X-27562482Y23238812D01*
X-27682180Y23202502D01*
X-27792494Y23143537D01*
X-27889185Y23064185D01*
X-27968537Y22967494D01*
X-28027502Y22857180D01*
X-28063812Y22737482D01*
X-28076072Y22613000D01*
X-28073000Y21748750D01*
X-27914250Y21590000D01*
X-27646571Y21590000D01*
X-27618408Y21521649D01*
X-27616763Y21518575D01*
X-27518857Y21513249D01*
X-27468608Y21463000D01*
X-27518857Y21412751D01*
X-27616763Y21407425D01*
X-27646504Y21336000D01*
X-27914250Y21336000D01*
X-28073000Y21177250D01*
X-28076072Y20313000D01*
X-28063812Y20188518D01*
X-28027502Y20068820D01*
X-27968537Y19958506D01*
X-27889185Y19861815D01*
X-27792494Y19782463D01*
X-27682180Y19723498D01*
X-27562482Y19687188D01*
X-27438000Y19674928D01*
X-26573750Y19678000D01*
X-26415000Y19836750D01*
X-26415000Y20105841D01*
X-26347649Y20133592D01*
X-26344575Y20135237D01*
X-26339249Y20233143D01*
X-26289000Y20283392D01*
X-26238751Y20233143D01*
X-26233425Y20135237D01*
X-26161000Y20105080D01*
X-26161000Y19836750D01*
X-26002250Y19678000D01*
X-25771309Y19677179D01*
X-25800000Y19532939D01*
X-25800000Y19512000D01*
X-30528808Y19512000D01*
X-30560000Y19515072D01*
X-31860000Y19515072D01*
X-31984482Y19502812D01*
X-32091718Y19470282D01*
X-32059188Y19577518D01*
X-32047378Y19697434D01*
X-32010724Y19717026D01*
X-31894999Y19811999D01*
X-31871196Y19841003D01*
X-27911837Y23800361D01*
X-27058024Y23800361D01*
X-26879643Y23621980D01*
X-26879643Y23621980D01*
G37*
X-26879643Y23621980D02*
X-26855840Y23592976D01*
X-26740115Y23498003D01*
X-26608086Y23427431D01*
X-26464825Y23383974D01*
X-26353172Y23372977D01*
X-26353163Y23372977D01*
X-26315840Y23369301D01*
X-26278517Y23372977D01*
X-24731746Y23372977D01*
X-24900265Y23204457D01*
X-25013518Y23238812D01*
X-25138000Y23251072D01*
X-26002250Y23248000D01*
X-26161000Y23089250D01*
X-26161000Y22820983D01*
X-26230351Y22792408D01*
X-26233425Y22790763D01*
X-26238751Y22692857D01*
X-26289000Y22642608D01*
X-26339249Y22692857D01*
X-26344575Y22790763D01*
X-26415000Y22820088D01*
X-26415000Y23089250D01*
X-26573750Y23248000D01*
X-27438000Y23251072D01*
X-27562482Y23238812D01*
X-27682180Y23202502D01*
X-27792494Y23143537D01*
X-27889185Y23064185D01*
X-27968537Y22967494D01*
X-28027502Y22857180D01*
X-28063812Y22737482D01*
X-28076072Y22613000D01*
X-28073000Y21748750D01*
X-27914250Y21590000D01*
X-27646571Y21590000D01*
X-27618408Y21521649D01*
X-27616763Y21518575D01*
X-27518857Y21513249D01*
X-27468608Y21463000D01*
X-27518857Y21412751D01*
X-27616763Y21407425D01*
X-27646504Y21336000D01*
X-27914250Y21336000D01*
X-28073000Y21177250D01*
X-28076072Y20313000D01*
X-28063812Y20188518D01*
X-28027502Y20068820D01*
X-27968537Y19958506D01*
X-27889185Y19861815D01*
X-27792494Y19782463D01*
X-27682180Y19723498D01*
X-27562482Y19687188D01*
X-27438000Y19674928D01*
X-26573750Y19678000D01*
X-26415000Y19836750D01*
X-26415000Y20105841D01*
X-26347649Y20133592D01*
X-26344575Y20135237D01*
X-26339249Y20233143D01*
X-26289000Y20283392D01*
X-26238751Y20233143D01*
X-26233425Y20135237D01*
X-26161000Y20105080D01*
X-26161000Y19836750D01*
X-26002250Y19678000D01*
X-25771309Y19677179D01*
X-25800000Y19532939D01*
X-25800000Y19512000D01*
X-30528808Y19512000D01*
X-30560000Y19515072D01*
X-31860000Y19515072D01*
X-31984482Y19502812D01*
X-32091718Y19470282D01*
X-32059188Y19577518D01*
X-32047378Y19697434D01*
X-32010724Y19717026D01*
X-31894999Y19811999D01*
X-31871196Y19841003D01*
X-27911837Y23800361D01*
X-27058024Y23800361D01*
X-26879643Y23621980D01*
G36*
X-20641014Y20349294D02*
G01*
X-20586209Y20320000D01*
X-20641014Y20290706D01*
X-20867134Y20105134D01*
X-21052706Y19879014D01*
X-21190599Y19621034D01*
X-21222656Y19515357D01*
X-21255005Y19677988D01*
X-21266173Y19704950D01*
X-21172264Y19767698D01*
X-21028101Y19911861D01*
X-20914833Y20081379D01*
X-20836812Y20269737D01*
X-20797038Y20469696D01*
X-20797038Y20477340D01*
X-20641014Y20349294D01*
X-20641014Y20349294D01*
G37*
X-20641014Y20349294D02*
X-20586209Y20320000D01*
X-20641014Y20290706D01*
X-20867134Y20105134D01*
X-21052706Y19879014D01*
X-21190599Y19621034D01*
X-21222656Y19515357D01*
X-21255005Y19677988D01*
X-21266173Y19704950D01*
X-21172264Y19767698D01*
X-21028101Y19911861D01*
X-20914833Y20081379D01*
X-20836812Y20269737D01*
X-20797038Y20469696D01*
X-20797038Y20477340D01*
X-20641014Y20349294D01*
G36*
X-18794000Y20135609D02*
G01*
X-18982986Y20290706D01*
X-19037791Y20320000D01*
X-18982986Y20349294D01*
X-18794000Y20504391D01*
X-18794000Y20135609D01*
X-18794000Y20135609D01*
G37*
X-18794000Y20135609D02*
X-18982986Y20290706D01*
X-19037791Y20320000D01*
X-18982986Y20349294D01*
X-18794000Y20504391D01*
X-18794000Y20135609D01*
M02*
