G04 #@! TF.GenerationSoftware,KiCad,Pcbnew,(5.1.4)-1*
G04 #@! TF.CreationDate,2019-10-22T03:03:10-07:00*
G04 #@! TF.ProjectId,SAM_breakout_board,53414d5f-6272-4656-916b-6f75745f626f,rev?*
G04 #@! TF.SameCoordinates,PXd33a380PY5dfc8c0*
G04 #@! TF.FileFunction,Paste,Top*
G04 #@! TF.FilePolarity,Positive*
%FSLAX46Y46*%
G04 Gerber Fmt 4.6, Leading zero omitted, Abs format (unit mm)*
G04 Created by KiCad (PCBNEW (5.1.4)-1) date 2019-10-22 03:03:10*
%MOMM*%
%LPD*%
G04 APERTURE LIST*
%ADD10C,0.050000*%
%ADD11R,1.900000X1.300000*%
%ADD12R,0.250000X1.300000*%
%ADD13R,1.300000X0.250000*%
%ADD14R,1.000000X2.800000*%
%ADD15R,1.500000X1.100000*%
%ADD16C,0.100000*%
%ADD17C,1.250000*%
%ADD18R,0.700000X2.500000*%
%ADD19R,1.100000X1.900000*%
%ADD20R,0.400000X1.350000*%
%ADD21R,2.500000X1.800000*%
%ADD22C,1.425000*%
G04 APERTURE END LIST*
D10*
X-56642000Y-6350000D02*
X-56642000Y35052000D01*
X-15748000Y-6350000D02*
X-56642000Y-6350000D01*
X-15748000Y35052000D02*
X-15748000Y-6350000D01*
X-56642000Y35052000D02*
X-15748000Y35052000D01*
D11*
X-28823520Y6916420D03*
X-28823520Y1316420D03*
X-25623520Y1316420D03*
X-25623520Y6916420D03*
D12*
X-32810000Y11652000D03*
X-33310000Y11652000D03*
X-33810000Y11652000D03*
X-34310000Y11652000D03*
X-34810000Y11652000D03*
X-35310000Y11652000D03*
X-35810000Y11652000D03*
X-36310000Y11652000D03*
X-36810000Y11652000D03*
X-37310000Y11652000D03*
X-37810000Y11652000D03*
X-38310000Y11652000D03*
D13*
X-39910000Y13252000D03*
X-39910000Y13752000D03*
X-39910000Y14252000D03*
X-39910000Y14752000D03*
X-39910000Y15252000D03*
X-39910000Y15752000D03*
X-39910000Y16252000D03*
X-39910000Y16752000D03*
X-39910000Y17252000D03*
X-39910000Y17752000D03*
X-39910000Y18252000D03*
X-39910000Y18752000D03*
D12*
X-38310000Y20352000D03*
X-37810000Y20352000D03*
X-37310000Y20352000D03*
X-36810000Y20352000D03*
X-36310000Y20352000D03*
X-35810000Y20352000D03*
X-35310000Y20352000D03*
X-34810000Y20352000D03*
X-34310000Y20352000D03*
X-33810000Y20352000D03*
X-33310000Y20352000D03*
X-32810000Y20352000D03*
D13*
X-31210000Y18752000D03*
X-31210000Y18252000D03*
X-31210000Y17752000D03*
X-31210000Y17252000D03*
X-31210000Y16752000D03*
X-31210000Y16252000D03*
X-31210000Y15752000D03*
X-31210000Y15252000D03*
X-31210000Y14752000D03*
X-31210000Y14252000D03*
X-31210000Y13752000D03*
X-31210000Y13252000D03*
D14*
X-44990000Y6964000D03*
X-44990000Y1164000D03*
X-48990000Y6964000D03*
X-48990000Y1164000D03*
D15*
X-23114000Y25908000D03*
X-32014000Y25908000D03*
D16*
G36*
X-35926496Y5963796D02*
G01*
X-35902227Y5960196D01*
X-35878429Y5954235D01*
X-35855329Y5945970D01*
X-35833151Y5935480D01*
X-35812107Y5922867D01*
X-35792402Y5908253D01*
X-35774223Y5891777D01*
X-35757747Y5873598D01*
X-35743133Y5853893D01*
X-35730520Y5832849D01*
X-35720030Y5810671D01*
X-35711765Y5787571D01*
X-35705804Y5763773D01*
X-35702204Y5739504D01*
X-35701000Y5715000D01*
X-35701000Y4965000D01*
X-35702204Y4940496D01*
X-35705804Y4916227D01*
X-35711765Y4892429D01*
X-35720030Y4869329D01*
X-35730520Y4847151D01*
X-35743133Y4826107D01*
X-35757747Y4806402D01*
X-35774223Y4788223D01*
X-35792402Y4771747D01*
X-35812107Y4757133D01*
X-35833151Y4744520D01*
X-35855329Y4734030D01*
X-35878429Y4725765D01*
X-35902227Y4719804D01*
X-35926496Y4716204D01*
X-35951000Y4715000D01*
X-37201000Y4715000D01*
X-37225504Y4716204D01*
X-37249773Y4719804D01*
X-37273571Y4725765D01*
X-37296671Y4734030D01*
X-37318849Y4744520D01*
X-37339893Y4757133D01*
X-37359598Y4771747D01*
X-37377777Y4788223D01*
X-37394253Y4806402D01*
X-37408867Y4826107D01*
X-37421480Y4847151D01*
X-37431970Y4869329D01*
X-37440235Y4892429D01*
X-37446196Y4916227D01*
X-37449796Y4940496D01*
X-37451000Y4965000D01*
X-37451000Y5715000D01*
X-37449796Y5739504D01*
X-37446196Y5763773D01*
X-37440235Y5787571D01*
X-37431970Y5810671D01*
X-37421480Y5832849D01*
X-37408867Y5853893D01*
X-37394253Y5873598D01*
X-37377777Y5891777D01*
X-37359598Y5908253D01*
X-37339893Y5922867D01*
X-37318849Y5935480D01*
X-37296671Y5945970D01*
X-37273571Y5954235D01*
X-37249773Y5960196D01*
X-37225504Y5963796D01*
X-37201000Y5965000D01*
X-35951000Y5965000D01*
X-35926496Y5963796D01*
X-35926496Y5963796D01*
G37*
D17*
X-36576000Y5340000D03*
D16*
G36*
X-35926496Y3163796D02*
G01*
X-35902227Y3160196D01*
X-35878429Y3154235D01*
X-35855329Y3145970D01*
X-35833151Y3135480D01*
X-35812107Y3122867D01*
X-35792402Y3108253D01*
X-35774223Y3091777D01*
X-35757747Y3073598D01*
X-35743133Y3053893D01*
X-35730520Y3032849D01*
X-35720030Y3010671D01*
X-35711765Y2987571D01*
X-35705804Y2963773D01*
X-35702204Y2939504D01*
X-35701000Y2915000D01*
X-35701000Y2165000D01*
X-35702204Y2140496D01*
X-35705804Y2116227D01*
X-35711765Y2092429D01*
X-35720030Y2069329D01*
X-35730520Y2047151D01*
X-35743133Y2026107D01*
X-35757747Y2006402D01*
X-35774223Y1988223D01*
X-35792402Y1971747D01*
X-35812107Y1957133D01*
X-35833151Y1944520D01*
X-35855329Y1934030D01*
X-35878429Y1925765D01*
X-35902227Y1919804D01*
X-35926496Y1916204D01*
X-35951000Y1915000D01*
X-37201000Y1915000D01*
X-37225504Y1916204D01*
X-37249773Y1919804D01*
X-37273571Y1925765D01*
X-37296671Y1934030D01*
X-37318849Y1944520D01*
X-37339893Y1957133D01*
X-37359598Y1971747D01*
X-37377777Y1988223D01*
X-37394253Y2006402D01*
X-37408867Y2026107D01*
X-37421480Y2047151D01*
X-37431970Y2069329D01*
X-37440235Y2092429D01*
X-37446196Y2116227D01*
X-37449796Y2140496D01*
X-37451000Y2165000D01*
X-37451000Y2915000D01*
X-37449796Y2939504D01*
X-37446196Y2963773D01*
X-37440235Y2987571D01*
X-37431970Y3010671D01*
X-37421480Y3032849D01*
X-37408867Y3053893D01*
X-37394253Y3073598D01*
X-37377777Y3091777D01*
X-37359598Y3108253D01*
X-37339893Y3122867D01*
X-37318849Y3135480D01*
X-37296671Y3145970D01*
X-37273571Y3154235D01*
X-37249773Y3160196D01*
X-37225504Y3163796D01*
X-37201000Y3165000D01*
X-35951000Y3165000D01*
X-35926496Y3163796D01*
X-35926496Y3163796D01*
G37*
D17*
X-36576000Y2540000D03*
D18*
X-31774000Y29464000D03*
X-33274000Y29464000D03*
D19*
X-29824000Y33064000D03*
X-35224000Y33064000D03*
D20*
X-39538000Y29464000D03*
X-40188000Y29464000D03*
X-42138000Y29464000D03*
X-41488000Y29464000D03*
X-40838000Y29464000D03*
D16*
G36*
X-34014496Y26781796D02*
G01*
X-33990227Y26778196D01*
X-33966429Y26772235D01*
X-33943329Y26763970D01*
X-33921151Y26753480D01*
X-33900107Y26740867D01*
X-33880402Y26726253D01*
X-33862223Y26709777D01*
X-33845747Y26691598D01*
X-33831133Y26671893D01*
X-33818520Y26650849D01*
X-33808030Y26628671D01*
X-33799765Y26605571D01*
X-33793804Y26581773D01*
X-33790204Y26557504D01*
X-33789000Y26533000D01*
X-33789000Y25283000D01*
X-33790204Y25258496D01*
X-33793804Y25234227D01*
X-33799765Y25210429D01*
X-33808030Y25187329D01*
X-33818520Y25165151D01*
X-33831133Y25144107D01*
X-33845747Y25124402D01*
X-33862223Y25106223D01*
X-33880402Y25089747D01*
X-33900107Y25075133D01*
X-33921151Y25062520D01*
X-33943329Y25052030D01*
X-33966429Y25043765D01*
X-33990227Y25037804D01*
X-34014496Y25034204D01*
X-34039000Y25033000D01*
X-34789000Y25033000D01*
X-34813504Y25034204D01*
X-34837773Y25037804D01*
X-34861571Y25043765D01*
X-34884671Y25052030D01*
X-34906849Y25062520D01*
X-34927893Y25075133D01*
X-34947598Y25089747D01*
X-34965777Y25106223D01*
X-34982253Y25124402D01*
X-34996867Y25144107D01*
X-35009480Y25165151D01*
X-35019970Y25187329D01*
X-35028235Y25210429D01*
X-35034196Y25234227D01*
X-35037796Y25258496D01*
X-35039000Y25283000D01*
X-35039000Y26533000D01*
X-35037796Y26557504D01*
X-35034196Y26581773D01*
X-35028235Y26605571D01*
X-35019970Y26628671D01*
X-35009480Y26650849D01*
X-34996867Y26671893D01*
X-34982253Y26691598D01*
X-34965777Y26709777D01*
X-34947598Y26726253D01*
X-34927893Y26740867D01*
X-34906849Y26753480D01*
X-34884671Y26763970D01*
X-34861571Y26772235D01*
X-34837773Y26778196D01*
X-34813504Y26781796D01*
X-34789000Y26783000D01*
X-34039000Y26783000D01*
X-34014496Y26781796D01*
X-34014496Y26781796D01*
G37*
D17*
X-34414000Y25908000D03*
D16*
G36*
X-36814496Y26781796D02*
G01*
X-36790227Y26778196D01*
X-36766429Y26772235D01*
X-36743329Y26763970D01*
X-36721151Y26753480D01*
X-36700107Y26740867D01*
X-36680402Y26726253D01*
X-36662223Y26709777D01*
X-36645747Y26691598D01*
X-36631133Y26671893D01*
X-36618520Y26650849D01*
X-36608030Y26628671D01*
X-36599765Y26605571D01*
X-36593804Y26581773D01*
X-36590204Y26557504D01*
X-36589000Y26533000D01*
X-36589000Y25283000D01*
X-36590204Y25258496D01*
X-36593804Y25234227D01*
X-36599765Y25210429D01*
X-36608030Y25187329D01*
X-36618520Y25165151D01*
X-36631133Y25144107D01*
X-36645747Y25124402D01*
X-36662223Y25106223D01*
X-36680402Y25089747D01*
X-36700107Y25075133D01*
X-36721151Y25062520D01*
X-36743329Y25052030D01*
X-36766429Y25043765D01*
X-36790227Y25037804D01*
X-36814496Y25034204D01*
X-36839000Y25033000D01*
X-37589000Y25033000D01*
X-37613504Y25034204D01*
X-37637773Y25037804D01*
X-37661571Y25043765D01*
X-37684671Y25052030D01*
X-37706849Y25062520D01*
X-37727893Y25075133D01*
X-37747598Y25089747D01*
X-37765777Y25106223D01*
X-37782253Y25124402D01*
X-37796867Y25144107D01*
X-37809480Y25165151D01*
X-37819970Y25187329D01*
X-37828235Y25210429D01*
X-37834196Y25234227D01*
X-37837796Y25258496D01*
X-37839000Y25283000D01*
X-37839000Y26533000D01*
X-37837796Y26557504D01*
X-37834196Y26581773D01*
X-37828235Y26605571D01*
X-37819970Y26628671D01*
X-37809480Y26650849D01*
X-37796867Y26671893D01*
X-37782253Y26691598D01*
X-37765777Y26709777D01*
X-37747598Y26726253D01*
X-37727893Y26740867D01*
X-37706849Y26753480D01*
X-37684671Y26763970D01*
X-37661571Y26772235D01*
X-37637773Y26778196D01*
X-37613504Y26781796D01*
X-37589000Y26783000D01*
X-36839000Y26783000D01*
X-36814496Y26781796D01*
X-36814496Y26781796D01*
G37*
D17*
X-37214000Y25908000D03*
D16*
G36*
X-45698496Y26781796D02*
G01*
X-45674227Y26778196D01*
X-45650429Y26772235D01*
X-45627329Y26763970D01*
X-45605151Y26753480D01*
X-45584107Y26740867D01*
X-45564402Y26726253D01*
X-45546223Y26709777D01*
X-45529747Y26691598D01*
X-45515133Y26671893D01*
X-45502520Y26650849D01*
X-45492030Y26628671D01*
X-45483765Y26605571D01*
X-45477804Y26581773D01*
X-45474204Y26557504D01*
X-45473000Y26533000D01*
X-45473000Y25283000D01*
X-45474204Y25258496D01*
X-45477804Y25234227D01*
X-45483765Y25210429D01*
X-45492030Y25187329D01*
X-45502520Y25165151D01*
X-45515133Y25144107D01*
X-45529747Y25124402D01*
X-45546223Y25106223D01*
X-45564402Y25089747D01*
X-45584107Y25075133D01*
X-45605151Y25062520D01*
X-45627329Y25052030D01*
X-45650429Y25043765D01*
X-45674227Y25037804D01*
X-45698496Y25034204D01*
X-45723000Y25033000D01*
X-46473000Y25033000D01*
X-46497504Y25034204D01*
X-46521773Y25037804D01*
X-46545571Y25043765D01*
X-46568671Y25052030D01*
X-46590849Y25062520D01*
X-46611893Y25075133D01*
X-46631598Y25089747D01*
X-46649777Y25106223D01*
X-46666253Y25124402D01*
X-46680867Y25144107D01*
X-46693480Y25165151D01*
X-46703970Y25187329D01*
X-46712235Y25210429D01*
X-46718196Y25234227D01*
X-46721796Y25258496D01*
X-46723000Y25283000D01*
X-46723000Y26533000D01*
X-46721796Y26557504D01*
X-46718196Y26581773D01*
X-46712235Y26605571D01*
X-46703970Y26628671D01*
X-46693480Y26650849D01*
X-46680867Y26671893D01*
X-46666253Y26691598D01*
X-46649777Y26709777D01*
X-46631598Y26726253D01*
X-46611893Y26740867D01*
X-46590849Y26753480D01*
X-46568671Y26763970D01*
X-46545571Y26772235D01*
X-46521773Y26778196D01*
X-46497504Y26781796D01*
X-46473000Y26783000D01*
X-45723000Y26783000D01*
X-45698496Y26781796D01*
X-45698496Y26781796D01*
G37*
D17*
X-46098000Y25908000D03*
D16*
G36*
X-48498496Y26781796D02*
G01*
X-48474227Y26778196D01*
X-48450429Y26772235D01*
X-48427329Y26763970D01*
X-48405151Y26753480D01*
X-48384107Y26740867D01*
X-48364402Y26726253D01*
X-48346223Y26709777D01*
X-48329747Y26691598D01*
X-48315133Y26671893D01*
X-48302520Y26650849D01*
X-48292030Y26628671D01*
X-48283765Y26605571D01*
X-48277804Y26581773D01*
X-48274204Y26557504D01*
X-48273000Y26533000D01*
X-48273000Y25283000D01*
X-48274204Y25258496D01*
X-48277804Y25234227D01*
X-48283765Y25210429D01*
X-48292030Y25187329D01*
X-48302520Y25165151D01*
X-48315133Y25144107D01*
X-48329747Y25124402D01*
X-48346223Y25106223D01*
X-48364402Y25089747D01*
X-48384107Y25075133D01*
X-48405151Y25062520D01*
X-48427329Y25052030D01*
X-48450429Y25043765D01*
X-48474227Y25037804D01*
X-48498496Y25034204D01*
X-48523000Y25033000D01*
X-49273000Y25033000D01*
X-49297504Y25034204D01*
X-49321773Y25037804D01*
X-49345571Y25043765D01*
X-49368671Y25052030D01*
X-49390849Y25062520D01*
X-49411893Y25075133D01*
X-49431598Y25089747D01*
X-49449777Y25106223D01*
X-49466253Y25124402D01*
X-49480867Y25144107D01*
X-49493480Y25165151D01*
X-49503970Y25187329D01*
X-49512235Y25210429D01*
X-49518196Y25234227D01*
X-49521796Y25258496D01*
X-49523000Y25283000D01*
X-49523000Y26533000D01*
X-49521796Y26557504D01*
X-49518196Y26581773D01*
X-49512235Y26605571D01*
X-49503970Y26628671D01*
X-49493480Y26650849D01*
X-49480867Y26671893D01*
X-49466253Y26691598D01*
X-49449777Y26709777D01*
X-49431598Y26726253D01*
X-49411893Y26740867D01*
X-49390849Y26753480D01*
X-49368671Y26763970D01*
X-49345571Y26772235D01*
X-49321773Y26778196D01*
X-49297504Y26781796D01*
X-49273000Y26783000D01*
X-48523000Y26783000D01*
X-48498496Y26781796D01*
X-48498496Y26781796D01*
G37*
D17*
X-48898000Y25908000D03*
D16*
G36*
X-39614896Y26781796D02*
G01*
X-39590627Y26778196D01*
X-39566829Y26772235D01*
X-39543729Y26763970D01*
X-39521551Y26753480D01*
X-39500507Y26740867D01*
X-39480802Y26726253D01*
X-39462623Y26709777D01*
X-39446147Y26691598D01*
X-39431533Y26671893D01*
X-39418920Y26650849D01*
X-39408430Y26628671D01*
X-39400165Y26605571D01*
X-39394204Y26581773D01*
X-39390604Y26557504D01*
X-39389400Y26533000D01*
X-39389400Y25283000D01*
X-39390604Y25258496D01*
X-39394204Y25234227D01*
X-39400165Y25210429D01*
X-39408430Y25187329D01*
X-39418920Y25165151D01*
X-39431533Y25144107D01*
X-39446147Y25124402D01*
X-39462623Y25106223D01*
X-39480802Y25089747D01*
X-39500507Y25075133D01*
X-39521551Y25062520D01*
X-39543729Y25052030D01*
X-39566829Y25043765D01*
X-39590627Y25037804D01*
X-39614896Y25034204D01*
X-39639400Y25033000D01*
X-40389400Y25033000D01*
X-40413904Y25034204D01*
X-40438173Y25037804D01*
X-40461971Y25043765D01*
X-40485071Y25052030D01*
X-40507249Y25062520D01*
X-40528293Y25075133D01*
X-40547998Y25089747D01*
X-40566177Y25106223D01*
X-40582653Y25124402D01*
X-40597267Y25144107D01*
X-40609880Y25165151D01*
X-40620370Y25187329D01*
X-40628635Y25210429D01*
X-40634596Y25234227D01*
X-40638196Y25258496D01*
X-40639400Y25283000D01*
X-40639400Y26533000D01*
X-40638196Y26557504D01*
X-40634596Y26581773D01*
X-40628635Y26605571D01*
X-40620370Y26628671D01*
X-40609880Y26650849D01*
X-40597267Y26671893D01*
X-40582653Y26691598D01*
X-40566177Y26709777D01*
X-40547998Y26726253D01*
X-40528293Y26740867D01*
X-40507249Y26753480D01*
X-40485071Y26763970D01*
X-40461971Y26772235D01*
X-40438173Y26778196D01*
X-40413904Y26781796D01*
X-40389400Y26783000D01*
X-39639400Y26783000D01*
X-39614896Y26781796D01*
X-39614896Y26781796D01*
G37*
D17*
X-40014400Y25908000D03*
D16*
G36*
X-42414896Y26781796D02*
G01*
X-42390627Y26778196D01*
X-42366829Y26772235D01*
X-42343729Y26763970D01*
X-42321551Y26753480D01*
X-42300507Y26740867D01*
X-42280802Y26726253D01*
X-42262623Y26709777D01*
X-42246147Y26691598D01*
X-42231533Y26671893D01*
X-42218920Y26650849D01*
X-42208430Y26628671D01*
X-42200165Y26605571D01*
X-42194204Y26581773D01*
X-42190604Y26557504D01*
X-42189400Y26533000D01*
X-42189400Y25283000D01*
X-42190604Y25258496D01*
X-42194204Y25234227D01*
X-42200165Y25210429D01*
X-42208430Y25187329D01*
X-42218920Y25165151D01*
X-42231533Y25144107D01*
X-42246147Y25124402D01*
X-42262623Y25106223D01*
X-42280802Y25089747D01*
X-42300507Y25075133D01*
X-42321551Y25062520D01*
X-42343729Y25052030D01*
X-42366829Y25043765D01*
X-42390627Y25037804D01*
X-42414896Y25034204D01*
X-42439400Y25033000D01*
X-43189400Y25033000D01*
X-43213904Y25034204D01*
X-43238173Y25037804D01*
X-43261971Y25043765D01*
X-43285071Y25052030D01*
X-43307249Y25062520D01*
X-43328293Y25075133D01*
X-43347998Y25089747D01*
X-43366177Y25106223D01*
X-43382653Y25124402D01*
X-43397267Y25144107D01*
X-43409880Y25165151D01*
X-43420370Y25187329D01*
X-43428635Y25210429D01*
X-43434596Y25234227D01*
X-43438196Y25258496D01*
X-43439400Y25283000D01*
X-43439400Y26533000D01*
X-43438196Y26557504D01*
X-43434596Y26581773D01*
X-43428635Y26605571D01*
X-43420370Y26628671D01*
X-43409880Y26650849D01*
X-43397267Y26671893D01*
X-43382653Y26691598D01*
X-43366177Y26709777D01*
X-43347998Y26726253D01*
X-43328293Y26740867D01*
X-43307249Y26753480D01*
X-43285071Y26763970D01*
X-43261971Y26772235D01*
X-43238173Y26778196D01*
X-43213904Y26781796D01*
X-43189400Y26783000D01*
X-42439400Y26783000D01*
X-42414896Y26781796D01*
X-42414896Y26781796D01*
G37*
D17*
X-42814400Y25908000D03*
D21*
X-27178000Y32258000D03*
X-23178000Y32258000D03*
X-44323000Y10668000D03*
X-48323000Y10668000D03*
X-43942000Y18796000D03*
X-47942000Y18796000D03*
D16*
G36*
X-31227496Y6099296D02*
G01*
X-31203227Y6095696D01*
X-31179429Y6089735D01*
X-31156329Y6081470D01*
X-31134151Y6070980D01*
X-31113107Y6058367D01*
X-31093402Y6043753D01*
X-31075223Y6027277D01*
X-31058747Y6009098D01*
X-31044133Y5989393D01*
X-31031520Y5968349D01*
X-31021030Y5946171D01*
X-31012765Y5923071D01*
X-31006804Y5899273D01*
X-31003204Y5875004D01*
X-31002000Y5850500D01*
X-31002000Y4925500D01*
X-31003204Y4900996D01*
X-31006804Y4876727D01*
X-31012765Y4852929D01*
X-31021030Y4829829D01*
X-31031520Y4807651D01*
X-31044133Y4786607D01*
X-31058747Y4766902D01*
X-31075223Y4748723D01*
X-31093402Y4732247D01*
X-31113107Y4717633D01*
X-31134151Y4705020D01*
X-31156329Y4694530D01*
X-31179429Y4686265D01*
X-31203227Y4680304D01*
X-31227496Y4676704D01*
X-31252000Y4675500D01*
X-32502000Y4675500D01*
X-32526504Y4676704D01*
X-32550773Y4680304D01*
X-32574571Y4686265D01*
X-32597671Y4694530D01*
X-32619849Y4705020D01*
X-32640893Y4717633D01*
X-32660598Y4732247D01*
X-32678777Y4748723D01*
X-32695253Y4766902D01*
X-32709867Y4786607D01*
X-32722480Y4807651D01*
X-32732970Y4829829D01*
X-32741235Y4852929D01*
X-32747196Y4876727D01*
X-32750796Y4900996D01*
X-32752000Y4925500D01*
X-32752000Y5850500D01*
X-32750796Y5875004D01*
X-32747196Y5899273D01*
X-32741235Y5923071D01*
X-32732970Y5946171D01*
X-32722480Y5968349D01*
X-32709867Y5989393D01*
X-32695253Y6009098D01*
X-32678777Y6027277D01*
X-32660598Y6043753D01*
X-32640893Y6058367D01*
X-32619849Y6070980D01*
X-32597671Y6081470D01*
X-32574571Y6089735D01*
X-32550773Y6095696D01*
X-32526504Y6099296D01*
X-32502000Y6100500D01*
X-31252000Y6100500D01*
X-31227496Y6099296D01*
X-31227496Y6099296D01*
G37*
D22*
X-31877000Y5388000D03*
D16*
G36*
X-31227496Y3124296D02*
G01*
X-31203227Y3120696D01*
X-31179429Y3114735D01*
X-31156329Y3106470D01*
X-31134151Y3095980D01*
X-31113107Y3083367D01*
X-31093402Y3068753D01*
X-31075223Y3052277D01*
X-31058747Y3034098D01*
X-31044133Y3014393D01*
X-31031520Y2993349D01*
X-31021030Y2971171D01*
X-31012765Y2948071D01*
X-31006804Y2924273D01*
X-31003204Y2900004D01*
X-31002000Y2875500D01*
X-31002000Y1950500D01*
X-31003204Y1925996D01*
X-31006804Y1901727D01*
X-31012765Y1877929D01*
X-31021030Y1854829D01*
X-31031520Y1832651D01*
X-31044133Y1811607D01*
X-31058747Y1791902D01*
X-31075223Y1773723D01*
X-31093402Y1757247D01*
X-31113107Y1742633D01*
X-31134151Y1730020D01*
X-31156329Y1719530D01*
X-31179429Y1711265D01*
X-31203227Y1705304D01*
X-31227496Y1701704D01*
X-31252000Y1700500D01*
X-32502000Y1700500D01*
X-32526504Y1701704D01*
X-32550773Y1705304D01*
X-32574571Y1711265D01*
X-32597671Y1719530D01*
X-32619849Y1730020D01*
X-32640893Y1742633D01*
X-32660598Y1757247D01*
X-32678777Y1773723D01*
X-32695253Y1791902D01*
X-32709867Y1811607D01*
X-32722480Y1832651D01*
X-32732970Y1854829D01*
X-32741235Y1877929D01*
X-32747196Y1901727D01*
X-32750796Y1925996D01*
X-32752000Y1950500D01*
X-32752000Y2875500D01*
X-32750796Y2900004D01*
X-32747196Y2924273D01*
X-32741235Y2948071D01*
X-32732970Y2971171D01*
X-32722480Y2993349D01*
X-32709867Y3014393D01*
X-32695253Y3034098D01*
X-32678777Y3052277D01*
X-32660598Y3068753D01*
X-32640893Y3083367D01*
X-32619849Y3095980D01*
X-32597671Y3106470D01*
X-32574571Y3114735D01*
X-32550773Y3120696D01*
X-32526504Y3124296D01*
X-32502000Y3125500D01*
X-31252000Y3125500D01*
X-31227496Y3124296D01*
X-31227496Y3124296D01*
G37*
D22*
X-31877000Y2413000D03*
D16*
G36*
X-22533076Y3263336D02*
G01*
X-22508807Y3259736D01*
X-22485009Y3253775D01*
X-22461909Y3245510D01*
X-22439731Y3235020D01*
X-22418687Y3222407D01*
X-22398982Y3207793D01*
X-22380803Y3191317D01*
X-22364327Y3173138D01*
X-22349713Y3153433D01*
X-22337100Y3132389D01*
X-22326610Y3110211D01*
X-22318345Y3087111D01*
X-22312384Y3063313D01*
X-22308784Y3039044D01*
X-22307580Y3014540D01*
X-22307580Y2089540D01*
X-22308784Y2065036D01*
X-22312384Y2040767D01*
X-22318345Y2016969D01*
X-22326610Y1993869D01*
X-22337100Y1971691D01*
X-22349713Y1950647D01*
X-22364327Y1930942D01*
X-22380803Y1912763D01*
X-22398982Y1896287D01*
X-22418687Y1881673D01*
X-22439731Y1869060D01*
X-22461909Y1858570D01*
X-22485009Y1850305D01*
X-22508807Y1844344D01*
X-22533076Y1840744D01*
X-22557580Y1839540D01*
X-23807580Y1839540D01*
X-23832084Y1840744D01*
X-23856353Y1844344D01*
X-23880151Y1850305D01*
X-23903251Y1858570D01*
X-23925429Y1869060D01*
X-23946473Y1881673D01*
X-23966178Y1896287D01*
X-23984357Y1912763D01*
X-24000833Y1930942D01*
X-24015447Y1950647D01*
X-24028060Y1971691D01*
X-24038550Y1993869D01*
X-24046815Y2016969D01*
X-24052776Y2040767D01*
X-24056376Y2065036D01*
X-24057580Y2089540D01*
X-24057580Y3014540D01*
X-24056376Y3039044D01*
X-24052776Y3063313D01*
X-24046815Y3087111D01*
X-24038550Y3110211D01*
X-24028060Y3132389D01*
X-24015447Y3153433D01*
X-24000833Y3173138D01*
X-23984357Y3191317D01*
X-23966178Y3207793D01*
X-23946473Y3222407D01*
X-23925429Y3235020D01*
X-23903251Y3245510D01*
X-23880151Y3253775D01*
X-23856353Y3259736D01*
X-23832084Y3263336D01*
X-23807580Y3264540D01*
X-22557580Y3264540D01*
X-22533076Y3263336D01*
X-22533076Y3263336D01*
G37*
D22*
X-23182580Y2552040D03*
D16*
G36*
X-22533076Y6238336D02*
G01*
X-22508807Y6234736D01*
X-22485009Y6228775D01*
X-22461909Y6220510D01*
X-22439731Y6210020D01*
X-22418687Y6197407D01*
X-22398982Y6182793D01*
X-22380803Y6166317D01*
X-22364327Y6148138D01*
X-22349713Y6128433D01*
X-22337100Y6107389D01*
X-22326610Y6085211D01*
X-22318345Y6062111D01*
X-22312384Y6038313D01*
X-22308784Y6014044D01*
X-22307580Y5989540D01*
X-22307580Y5064540D01*
X-22308784Y5040036D01*
X-22312384Y5015767D01*
X-22318345Y4991969D01*
X-22326610Y4968869D01*
X-22337100Y4946691D01*
X-22349713Y4925647D01*
X-22364327Y4905942D01*
X-22380803Y4887763D01*
X-22398982Y4871287D01*
X-22418687Y4856673D01*
X-22439731Y4844060D01*
X-22461909Y4833570D01*
X-22485009Y4825305D01*
X-22508807Y4819344D01*
X-22533076Y4815744D01*
X-22557580Y4814540D01*
X-23807580Y4814540D01*
X-23832084Y4815744D01*
X-23856353Y4819344D01*
X-23880151Y4825305D01*
X-23903251Y4833570D01*
X-23925429Y4844060D01*
X-23946473Y4856673D01*
X-23966178Y4871287D01*
X-23984357Y4887763D01*
X-24000833Y4905942D01*
X-24015447Y4925647D01*
X-24028060Y4946691D01*
X-24038550Y4968869D01*
X-24046815Y4991969D01*
X-24052776Y5015767D01*
X-24056376Y5040036D01*
X-24057580Y5064540D01*
X-24057580Y5989540D01*
X-24056376Y6014044D01*
X-24052776Y6038313D01*
X-24046815Y6062111D01*
X-24038550Y6085211D01*
X-24028060Y6107389D01*
X-24015447Y6128433D01*
X-24000833Y6148138D01*
X-23984357Y6166317D01*
X-23966178Y6182793D01*
X-23946473Y6197407D01*
X-23925429Y6210020D01*
X-23903251Y6220510D01*
X-23880151Y6228775D01*
X-23856353Y6234736D01*
X-23832084Y6238336D01*
X-23807580Y6239540D01*
X-22557580Y6239540D01*
X-22533076Y6238336D01*
X-22533076Y6238336D01*
G37*
D22*
X-23182580Y5527040D03*
M02*
